G04 #@! TF.GenerationSoftware,KiCad,Pcbnew,5.99.0-unknown-43c85771eb~143~ubuntu20.04.1*
G04 #@! TF.CreationDate,2021-11-17T21:23:18-05:00*
G04 #@! TF.ProjectId,microTouch,6d696372-6f54-46f7-9563-682e6b696361,rev?*
G04 #@! TF.SameCoordinates,Original*
G04 #@! TF.FileFunction,Copper,L1,Top*
G04 #@! TF.FilePolarity,Positive*
%FSLAX46Y46*%
G04 Gerber Fmt 4.6, Leading zero omitted, Abs format (unit mm)*
G04 Created by KiCad (PCBNEW 5.99.0-unknown-43c85771eb~143~ubuntu20.04.1) date 2021-11-17 21:23:18*
%MOMM*%
%LPD*%
G01*
G04 APERTURE LIST*
G04 Aperture macros list*
%AMRoundRect*
0 Rectangle with rounded corners*
0 $1 Rounding radius*
0 $2 $3 $4 $5 $6 $7 $8 $9 X,Y pos of 4 corners*
0 Add a 4 corners polygon primitive as box body*
4,1,4,$2,$3,$4,$5,$6,$7,$8,$9,$2,$3,0*
0 Add four circle primitives for the rounded corners*
1,1,$1+$1,$2,$3*
1,1,$1+$1,$4,$5*
1,1,$1+$1,$6,$7*
1,1,$1+$1,$8,$9*
0 Add four rect primitives between the rounded corners*
20,1,$1+$1,$2,$3,$4,$5,0*
20,1,$1+$1,$4,$5,$6,$7,0*
20,1,$1+$1,$6,$7,$8,$9,0*
20,1,$1+$1,$8,$9,$2,$3,0*%
G04 Aperture macros list end*
G04 #@! TA.AperFunction,WasherPad*
%ADD10C,1.524000*%
G04 #@! TD*
G04 #@! TA.AperFunction,ComponentPad*
%ADD11R,1.500000X1.000000*%
G04 #@! TD*
G04 #@! TA.AperFunction,ComponentPad*
%ADD12C,1.000000*%
G04 #@! TD*
G04 #@! TA.AperFunction,ComponentPad*
%ADD13RoundRect,0.249900X0.500100X-0.275100X0.500100X0.275100X-0.500100X0.275100X-0.500100X-0.275100X0*%
G04 #@! TD*
G04 #@! TA.AperFunction,ComponentPad*
%ADD14O,1.500000X1.050000*%
G04 #@! TD*
G04 #@! TA.AperFunction,SMDPad,CuDef*
%ADD15RoundRect,0.250000X0.450000X-0.325000X0.450000X0.325000X-0.450000X0.325000X-0.450000X-0.325000X0*%
G04 #@! TD*
G04 #@! TA.AperFunction,SMDPad,CuDef*
%ADD16RoundRect,0.250000X-0.337500X-0.475000X0.337500X-0.475000X0.337500X0.475000X-0.337500X0.475000X0*%
G04 #@! TD*
G04 #@! TA.AperFunction,SMDPad,CuDef*
%ADD17RoundRect,0.250000X0.350000X0.450000X-0.350000X0.450000X-0.350000X-0.450000X0.350000X-0.450000X0*%
G04 #@! TD*
G04 #@! TA.AperFunction,SMDPad,CuDef*
%ADD18RoundRect,0.250000X0.337500X0.475000X-0.337500X0.475000X-0.337500X-0.475000X0.337500X-0.475000X0*%
G04 #@! TD*
G04 #@! TA.AperFunction,ComponentPad*
%ADD19RoundRect,0.250000X-0.350000X-0.625000X0.350000X-0.625000X0.350000X0.625000X-0.350000X0.625000X0*%
G04 #@! TD*
G04 #@! TA.AperFunction,ComponentPad*
%ADD20O,1.200000X1.750000*%
G04 #@! TD*
G04 #@! TA.AperFunction,ViaPad*
%ADD21C,1.200000*%
G04 #@! TD*
G04 #@! TA.AperFunction,Conductor*
%ADD22C,0.500000*%
G04 #@! TD*
G04 APERTURE END LIST*
D10*
G04 #@! TO.P,J1,*
G04 #@! TO.N,*
X109749000Y-106965000D03*
X124989000Y-106965000D03*
X124989000Y-94965000D03*
X109749000Y-94965000D03*
D11*
G04 #@! TO.P,J1,1,Pin_1*
G04 #@! TO.N,/SERVO*
X111049000Y-105665000D03*
D12*
X111749000Y-105665000D03*
D11*
G04 #@! TO.P,J1,2,Pin_2*
G04 #@! TO.N,/5V*
X111049000Y-104215000D03*
D12*
X111749000Y-104215000D03*
D11*
G04 #@! TO.P,J1,3,Pin_3*
G04 #@! TO.N,GND*
X111049000Y-102715000D03*
D12*
X111749000Y-102715000D03*
G04 #@! TD*
D13*
G04 #@! TO.P,U1,1,VIN*
G04 #@! TO.N,/5V*
X105664000Y-102866000D03*
D14*
G04 #@! TO.P,U1,2,GND*
G04 #@! TO.N,GND*
X105664000Y-101346000D03*
G04 #@! TO.P,U1,3,OUT*
G04 #@! TO.N,/SIG*
X105664000Y-99866000D03*
G04 #@! TD*
D15*
G04 #@! TO.P,D1,1,K*
G04 #@! TO.N,Net-(D1-Pad1)*
X111252000Y-90941000D03*
G04 #@! TO.P,D1,2,A*
G04 #@! TO.N,/5V*
X111252000Y-88891000D03*
G04 #@! TD*
D16*
G04 #@! TO.P,C2,1*
G04 #@! TO.N,/SIG*
X105113000Y-96774000D03*
G04 #@! TO.P,C2,2*
G04 #@! TO.N,GND*
X107188000Y-96774000D03*
G04 #@! TD*
D17*
G04 #@! TO.P,R2,1*
G04 #@! TO.N,/SIG*
X99552000Y-96774000D03*
G04 #@! TO.P,R2,2*
G04 #@! TO.N,/VSIG*
X97552000Y-96774000D03*
G04 #@! TD*
G04 #@! TO.P,R3,1*
G04 #@! TO.N,/SIG*
X103362000Y-96774000D03*
G04 #@! TO.P,R3,2*
G04 #@! TO.N,Net-(D1-Pad1)*
X101362000Y-96774000D03*
G04 #@! TD*
D18*
G04 #@! TO.P,C1,1*
G04 #@! TO.N,/5V*
X105199000Y-105664000D03*
G04 #@! TO.P,C1,2*
G04 #@! TO.N,GND*
X103124000Y-105664000D03*
G04 #@! TD*
D19*
G04 #@! TO.P,J2,1,Pin_1*
G04 #@! TO.N,/VSIG*
X99124000Y-88858000D03*
D20*
G04 #@! TO.P,J2,2,Pin_2*
G04 #@! TO.N,/5V*
X101124000Y-88858000D03*
G04 #@! TO.P,J2,3,Pin_3*
G04 #@! TO.N,/SIG*
X103124000Y-88858000D03*
G04 #@! TO.P,J2,4,Pin_4*
G04 #@! TO.N,GND*
X105124000Y-88858000D03*
G04 #@! TO.P,J2,5,Pin_5*
G04 #@! TO.N,/SERVO*
X107124000Y-88858000D03*
G04 #@! TD*
D21*
G04 #@! TO.N,GND*
X109000000Y-90600000D03*
X104775000Y-94615000D03*
G04 #@! TO.N,/SIG*
X103378000Y-97790000D03*
G04 #@! TO.N,/SERVO*
X106800000Y-98600000D03*
G04 #@! TO.N,/5V*
X105664000Y-104394000D03*
X101092000Y-87630000D03*
G04 #@! TO.N,GND*
X101400000Y-92200000D03*
X98044000Y-99060000D03*
X103632000Y-101346000D03*
X108585000Y-96901000D03*
X104902000Y-91440000D03*
X99600000Y-94600000D03*
G04 #@! TO.N,/VSIG*
X96266000Y-95250000D03*
G04 #@! TD*
D22*
G04 #@! TO.N,Net-(D1-Pad1)*
X101654893Y-93925107D02*
G75*
G03*
X101362000Y-94632214I707106J-707106D01*
G01*
X102287107Y-93292893D02*
G75*
G02*
X102994214Y-93000000I707106J-707106D01*
G01*
X108778786Y-92999999D02*
G75*
G03*
X109485892Y-92707106I3J999993D01*
G01*
G04 #@! TO.N,/SERVO*
X107480893Y-104559893D02*
G75*
G02*
X107188000Y-103852786I707106J707106D01*
G01*
X106800000Y-98600000D02*
X107188000Y-98988000D01*
X107188000Y-98988000D02*
X107188000Y-103852786D01*
X107480893Y-104559893D02*
X108204000Y-105283000D01*
G04 #@! TO.N,Net-(D1-Pad1)*
X101362000Y-96774000D02*
X101362000Y-94632214D01*
X101654893Y-93925107D02*
X102287107Y-93292893D01*
X102994214Y-93000000D02*
X108778786Y-93000000D01*
X109485893Y-92707107D02*
X111252000Y-90941000D01*
G04 #@! TO.N,/5V*
X109068786Y-87122001D02*
G75*
G02*
X109775892Y-87414894I3J-999993D01*
G01*
X102014214Y-87122001D02*
G75*
G03*
X101307108Y-87414894I-3J-999993D01*
G01*
X105491893Y-104566107D02*
G75*
G03*
X105199000Y-105273214I707106J-707106D01*
G01*
G04 #@! TO.N,/SIG*
X99552001Y-96792286D02*
G75*
G03*
X99844894Y-97499392I999993J-3D01*
G01*
X100350607Y-98005107D02*
G75*
G03*
X101057714Y-98298000I707106J707106D01*
G01*
X103162893Y-98005107D02*
G75*
G02*
X102455786Y-98298000I-707106J707106D01*
G01*
X103362000Y-96774000D02*
X105113000Y-96774000D01*
X99552000Y-96792286D02*
X99552000Y-96774000D01*
X100350607Y-98005107D02*
X99844893Y-97499393D01*
X102455786Y-98298000D02*
X101057714Y-98298000D01*
X103378000Y-97790000D02*
X103162893Y-98005107D01*
G04 #@! TO.N,/SERVO*
X108204000Y-105283000D02*
X108331000Y-105410000D01*
X108331000Y-105410000D02*
X111494000Y-105410000D01*
X111494000Y-105410000D02*
X111748000Y-105664000D01*
G04 #@! TO.N,/5V*
X111443000Y-104013000D02*
X111697000Y-104267000D01*
X109775893Y-87414893D02*
X111252000Y-88891000D01*
X102014214Y-87122000D02*
X109068786Y-87122000D01*
X101092000Y-87630000D02*
X101307107Y-87414893D01*
X105664000Y-104394000D02*
X105491893Y-104566107D01*
X105199000Y-105273214D02*
X105199000Y-105664000D01*
G04 #@! TO.N,/VSIG*
X96266000Y-95250000D02*
X97552000Y-96536000D01*
X97552000Y-96536000D02*
X97552000Y-96774000D01*
G04 #@! TD*
G04 #@! TA.AperFunction,Conductor*
G04 #@! TO.N,GND*
G36*
X96003222Y-96646215D02*
G01*
X96030620Y-96651789D01*
X96093385Y-96684971D01*
X96128248Y-96746818D01*
X96131500Y-96775260D01*
X96131501Y-97078998D01*
X96131501Y-97326248D01*
X96131827Y-97332704D01*
X96132752Y-97337291D01*
X96132752Y-97337292D01*
X96163639Y-97490473D01*
X96173322Y-97538498D01*
X96254000Y-97732313D01*
X96257427Y-97737432D01*
X96257429Y-97737436D01*
X96367355Y-97901643D01*
X96367359Y-97901648D01*
X96370786Y-97906767D01*
X96519233Y-98055214D01*
X96524352Y-98058641D01*
X96524357Y-98058645D01*
X96688564Y-98168571D01*
X96688568Y-98168573D01*
X96693687Y-98172000D01*
X96887502Y-98252678D01*
X96893538Y-98253895D01*
X96893541Y-98253896D01*
X97088708Y-98293248D01*
X97093296Y-98294173D01*
X97097960Y-98294409D01*
X97097966Y-98294410D01*
X97098163Y-98294420D01*
X97098180Y-98294420D01*
X97099751Y-98294500D01*
X97101348Y-98294500D01*
X97553848Y-98294499D01*
X98004248Y-98294499D01*
X98005986Y-98294411D01*
X98006033Y-98294409D01*
X98006035Y-98294409D01*
X98010704Y-98294173D01*
X98015292Y-98293248D01*
X98210459Y-98253896D01*
X98210462Y-98253895D01*
X98216498Y-98252678D01*
X98410313Y-98172000D01*
X98415432Y-98168573D01*
X98415436Y-98168571D01*
X98481907Y-98124072D01*
X98549641Y-98102798D01*
X98622093Y-98124072D01*
X98688564Y-98168571D01*
X98688568Y-98168573D01*
X98693687Y-98172000D01*
X98887502Y-98252678D01*
X98893538Y-98253895D01*
X98893541Y-98253896D01*
X99093296Y-98294173D01*
X99093008Y-98295601D01*
X99152256Y-98321382D01*
X99160562Y-98328978D01*
X99540160Y-98708576D01*
X99550618Y-98720438D01*
X99569045Y-98744193D01*
X99589986Y-98765728D01*
X99606225Y-98779066D01*
X99623526Y-98793277D01*
X99627508Y-98796689D01*
X99684950Y-98848024D01*
X99731580Y-98889695D01*
X99764744Y-98919333D01*
X99875844Y-98998162D01*
X99881336Y-99002059D01*
X99925318Y-99057791D01*
X99932187Y-99128455D01*
X99899762Y-99191615D01*
X99839759Y-99226861D01*
X99781259Y-99241881D01*
X99584387Y-99292429D01*
X99584379Y-99292432D01*
X99580545Y-99293416D01*
X99576865Y-99294873D01*
X99576862Y-99294874D01*
X99513985Y-99319769D01*
X99297363Y-99405536D01*
X99293904Y-99407438D01*
X99293901Y-99407439D01*
X99181055Y-99469477D01*
X99030467Y-99552263D01*
X98784065Y-99731285D01*
X98562043Y-99939777D01*
X98367902Y-100174453D01*
X98204706Y-100431610D01*
X98203022Y-100435189D01*
X98203018Y-100435196D01*
X98076715Y-100703603D01*
X98075026Y-100707193D01*
X97980909Y-100996856D01*
X97923838Y-101296031D01*
X97904714Y-101600000D01*
X97923838Y-101903969D01*
X97980909Y-102203144D01*
X97982136Y-102206920D01*
X98071582Y-102482206D01*
X98075026Y-102492807D01*
X98076713Y-102496393D01*
X98076715Y-102496397D01*
X98203018Y-102764804D01*
X98203022Y-102764811D01*
X98204706Y-102768390D01*
X98367902Y-103025547D01*
X98370421Y-103028592D01*
X98370424Y-103028596D01*
X98391066Y-103053548D01*
X98562043Y-103260223D01*
X98584543Y-103281352D01*
X98776132Y-103461265D01*
X98784065Y-103468715D01*
X99030467Y-103647737D01*
X99033936Y-103649644D01*
X99033939Y-103649646D01*
X99293483Y-103792331D01*
X99297363Y-103794464D01*
X99426391Y-103845550D01*
X99576862Y-103905126D01*
X99576865Y-103905127D01*
X99580545Y-103906584D01*
X99584379Y-103907568D01*
X99584387Y-103907571D01*
X99767103Y-103954484D01*
X99875547Y-103982328D01*
X99879475Y-103982824D01*
X99879479Y-103982825D01*
X100026631Y-104001414D01*
X100177715Y-104020500D01*
X100482285Y-104020500D01*
X100633369Y-104001414D01*
X100780521Y-103982825D01*
X100780525Y-103982824D01*
X100784453Y-103982328D01*
X100892897Y-103954484D01*
X101075613Y-103907571D01*
X101075621Y-103907568D01*
X101079455Y-103906584D01*
X101083135Y-103905127D01*
X101083138Y-103905126D01*
X101233609Y-103845550D01*
X101362637Y-103794464D01*
X101366517Y-103792331D01*
X101626061Y-103649646D01*
X101626064Y-103649644D01*
X101629533Y-103647737D01*
X101875935Y-103468715D01*
X101883869Y-103461265D01*
X102075457Y-103281352D01*
X102097957Y-103260223D01*
X102268934Y-103053548D01*
X102289576Y-103028596D01*
X102289579Y-103028592D01*
X102292098Y-103025547D01*
X102455294Y-102768390D01*
X102456978Y-102764811D01*
X102456982Y-102764804D01*
X102583285Y-102496397D01*
X102583287Y-102496393D01*
X102584974Y-102492807D01*
X102588419Y-102482206D01*
X102677864Y-102206920D01*
X102679091Y-102203144D01*
X102736162Y-101903969D01*
X102755286Y-101600000D01*
X102736162Y-101296031D01*
X102679091Y-100996856D01*
X102584974Y-100707193D01*
X102583285Y-100703603D01*
X102456982Y-100435196D01*
X102456978Y-100435189D01*
X102455294Y-100431610D01*
X102292098Y-100174453D01*
X102097957Y-99939777D01*
X101875935Y-99731285D01*
X101690332Y-99596436D01*
X101646978Y-99540214D01*
X101640903Y-99469477D01*
X101674035Y-99406686D01*
X101735855Y-99371774D01*
X101764393Y-99368500D01*
X102380139Y-99368500D01*
X102395931Y-99369494D01*
X102422247Y-99372819D01*
X102422256Y-99372820D01*
X102425750Y-99373261D01*
X102455785Y-99373680D01*
X102460058Y-99373261D01*
X102498959Y-99369447D01*
X102504189Y-99369044D01*
X102596569Y-99363856D01*
X102687973Y-99358723D01*
X102917241Y-99319769D01*
X103140706Y-99255390D01*
X103143968Y-99254039D01*
X103143976Y-99254036D01*
X103231901Y-99217616D01*
X103284736Y-99208110D01*
X103437495Y-99213712D01*
X103437499Y-99213712D01*
X103442659Y-99213901D01*
X103447779Y-99213245D01*
X103447781Y-99213245D01*
X103522069Y-99203728D01*
X103674351Y-99184220D01*
X103679300Y-99182735D01*
X103679306Y-99182734D01*
X103893141Y-99118580D01*
X103898084Y-99117097D01*
X103902717Y-99114827D01*
X103902728Y-99114823D01*
X104104469Y-99015991D01*
X104174443Y-99003984D01*
X104239800Y-99031714D01*
X104279790Y-99090377D01*
X104281716Y-99161347D01*
X104270073Y-99189592D01*
X104269311Y-99190680D01*
X104169814Y-99404054D01*
X104168393Y-99409358D01*
X104168391Y-99409363D01*
X104133330Y-99540214D01*
X104108879Y-99631464D01*
X104088360Y-99866000D01*
X104108879Y-100100536D01*
X104169814Y-100327946D01*
X104269311Y-100541320D01*
X104272465Y-100545824D01*
X104374007Y-100690841D01*
X104396695Y-100758115D01*
X104385428Y-100809416D01*
X104387582Y-100810276D01*
X104309700Y-101005489D01*
X104309376Y-101006583D01*
X104310227Y-101016105D01*
X104325384Y-101021000D01*
X104705436Y-101021000D01*
X104763299Y-101036505D01*
X104763680Y-101035689D01*
X104977054Y-101135186D01*
X104982358Y-101136607D01*
X104982363Y-101136609D01*
X105137906Y-101178287D01*
X105204464Y-101196121D01*
X105259474Y-101200934D01*
X105377524Y-101211262D01*
X105377533Y-101211262D01*
X105380249Y-101211500D01*
X105863000Y-101211500D01*
X105931121Y-101231502D01*
X105977614Y-101285158D01*
X105989000Y-101337500D01*
X105989000Y-101394500D01*
X105968998Y-101462621D01*
X105915342Y-101509114D01*
X105863000Y-101520500D01*
X105068193Y-101520501D01*
X105061662Y-101520501D01*
X105059924Y-101520589D01*
X105059877Y-101520591D01*
X105059875Y-101520591D01*
X105055206Y-101520827D01*
X105050619Y-101521752D01*
X105050618Y-101521752D01*
X104947514Y-101542542D01*
X104849431Y-101562319D01*
X104655634Y-101642989D01*
X104650515Y-101646416D01*
X104650511Y-101646418D01*
X104645601Y-101649705D01*
X104575509Y-101671000D01*
X104324515Y-101671000D01*
X104310984Y-101674973D01*
X104310110Y-101681056D01*
X104350196Y-101789715D01*
X104355008Y-101860549D01*
X104332062Y-101907727D01*
X104332764Y-101908197D01*
X104215989Y-102082634D01*
X104135319Y-102276431D01*
X104093827Y-102482206D01*
X104093500Y-102488661D01*
X104093501Y-103243338D01*
X104093827Y-103249794D01*
X104094752Y-103254381D01*
X104094752Y-103254382D01*
X104097800Y-103269500D01*
X104135319Y-103455569D01*
X104215989Y-103649366D01*
X104311697Y-103792333D01*
X104332970Y-103860065D01*
X104325951Y-103901726D01*
X104326302Y-103901823D01*
X104324920Y-103906806D01*
X104324919Y-103906809D01*
X104269805Y-104105544D01*
X104263879Y-104126913D01*
X104254625Y-104213500D01*
X104250123Y-104255629D01*
X104222995Y-104321239D01*
X104194930Y-104346943D01*
X104178733Y-104357786D01*
X104118242Y-104418277D01*
X104055930Y-104452303D01*
X103985115Y-104447238D01*
X103960520Y-104434853D01*
X103948491Y-104427041D01*
X103791687Y-104347146D01*
X103779434Y-104342442D01*
X103608644Y-104296679D01*
X103597310Y-104294732D01*
X103526938Y-104289193D01*
X103522012Y-104289000D01*
X103467115Y-104289000D01*
X103451876Y-104293475D01*
X103450671Y-104294865D01*
X103449000Y-104302548D01*
X103449000Y-107020885D01*
X103453475Y-107036124D01*
X103454865Y-107037329D01*
X103462548Y-107039000D01*
X103522013Y-107039000D01*
X103526938Y-107038807D01*
X103597310Y-107033268D01*
X103608644Y-107031321D01*
X103779434Y-106985558D01*
X103791687Y-106980854D01*
X103948491Y-106900959D01*
X103960520Y-106893147D01*
X104028544Y-106872819D01*
X104096760Y-106892495D01*
X104118242Y-106909723D01*
X104178733Y-106970214D01*
X104183852Y-106973641D01*
X104183857Y-106973645D01*
X104348064Y-107083571D01*
X104348068Y-107083573D01*
X104353187Y-107087000D01*
X104547002Y-107167678D01*
X104553038Y-107168895D01*
X104553041Y-107168896D01*
X104748208Y-107208248D01*
X104752796Y-107209173D01*
X104757460Y-107209409D01*
X104757466Y-107209410D01*
X104757663Y-107209420D01*
X104757680Y-107209420D01*
X104759251Y-107209500D01*
X104760848Y-107209500D01*
X105200797Y-107209499D01*
X105638748Y-107209499D01*
X105640486Y-107209411D01*
X105640533Y-107209409D01*
X105640535Y-107209409D01*
X105645204Y-107209173D01*
X105649792Y-107208248D01*
X105844959Y-107168896D01*
X105844962Y-107168895D01*
X105850998Y-107167678D01*
X106044813Y-107087000D01*
X106049932Y-107083573D01*
X106049936Y-107083571D01*
X106214143Y-106973645D01*
X106214148Y-106973641D01*
X106219267Y-106970214D01*
X106367714Y-106821767D01*
X106371141Y-106816648D01*
X106371145Y-106816643D01*
X106481071Y-106652436D01*
X106481073Y-106652432D01*
X106484500Y-106647313D01*
X106565178Y-106453498D01*
X106574982Y-106404878D01*
X106605748Y-106252292D01*
X106605748Y-106252291D01*
X106606673Y-106247704D01*
X106607000Y-106241249D01*
X106606999Y-105512105D01*
X106627001Y-105443984D01*
X106644060Y-105422854D01*
X106648067Y-105418861D01*
X106710438Y-105384945D01*
X106781245Y-105390134D01*
X106826101Y-105419017D01*
X107527912Y-106120828D01*
X107537013Y-106130970D01*
X107562456Y-106162614D01*
X107589248Y-106185095D01*
X107603263Y-106196855D01*
X107606865Y-106200156D01*
X107606943Y-106200070D01*
X107609215Y-106202130D01*
X107611399Y-106204314D01*
X107640626Y-106228321D01*
X107646575Y-106233208D01*
X107647590Y-106234050D01*
X107656170Y-106241249D01*
X107723276Y-106297558D01*
X107728235Y-106300284D01*
X107732604Y-106303873D01*
X107819648Y-106350545D01*
X107820747Y-106351143D01*
X107901840Y-106395725D01*
X107901844Y-106395727D01*
X107907245Y-106398696D01*
X107912636Y-106400406D01*
X107917621Y-106403079D01*
X108012109Y-106431967D01*
X108013193Y-106432304D01*
X108107354Y-106462174D01*
X108111449Y-106462634D01*
X108117769Y-106464270D01*
X108118461Y-106464482D01*
X108117729Y-106466872D01*
X108170825Y-106494809D01*
X108205809Y-106556588D01*
X108205636Y-106614684D01*
X108182305Y-106711864D01*
X108182304Y-106711870D01*
X108181150Y-106716677D01*
X108161607Y-106965000D01*
X108181150Y-107213323D01*
X108239300Y-107455531D01*
X108241194Y-107460103D01*
X108330486Y-107675675D01*
X108334622Y-107685661D01*
X108464772Y-107898046D01*
X108626544Y-108087456D01*
X108630300Y-108090664D01*
X108732778Y-108178189D01*
X108771587Y-108237640D01*
X108772093Y-108308635D01*
X108734137Y-108368633D01*
X108669768Y-108398586D01*
X108650947Y-108400000D01*
X100370157Y-108400000D01*
X100359627Y-108399559D01*
X100313902Y-108395724D01*
X100313900Y-108395724D01*
X100306877Y-108395135D01*
X100276608Y-108399392D01*
X100258714Y-108400620D01*
X99919252Y-108399664D01*
X99907986Y-108399126D01*
X99538912Y-108364922D01*
X99527733Y-108363379D01*
X99163179Y-108296284D01*
X99152182Y-108293746D01*
X98795098Y-108194301D01*
X98784373Y-108190789D01*
X98751021Y-108178189D01*
X98437621Y-108059792D01*
X98427277Y-108055345D01*
X98093609Y-107893832D01*
X98083697Y-107888473D01*
X97765848Y-107697769D01*
X97756440Y-107691535D01*
X97456927Y-107473153D01*
X97448115Y-107466102D01*
X97169351Y-107221802D01*
X97161205Y-107213991D01*
X97114789Y-107165310D01*
X96923796Y-106965000D01*
X96905416Y-106945723D01*
X96898002Y-106937215D01*
X96703598Y-106692837D01*
X96667246Y-106647140D01*
X96660623Y-106638003D01*
X96456742Y-106328434D01*
X96450963Y-106318740D01*
X96386940Y-106199513D01*
X101886500Y-106199513D01*
X101886693Y-106204438D01*
X101892232Y-106274810D01*
X101894179Y-106286144D01*
X101939942Y-106456934D01*
X101944646Y-106469187D01*
X102024543Y-106625994D01*
X102031693Y-106637005D01*
X102142448Y-106773775D01*
X102151725Y-106783052D01*
X102288495Y-106893807D01*
X102299506Y-106900957D01*
X102456313Y-106980854D01*
X102468566Y-106985558D01*
X102639356Y-107031321D01*
X102650690Y-107033268D01*
X102721062Y-107038807D01*
X102725987Y-107039000D01*
X102780885Y-107039000D01*
X102796124Y-107034525D01*
X102797329Y-107033135D01*
X102799000Y-107025452D01*
X102799000Y-106007115D01*
X102794525Y-105991876D01*
X102793135Y-105990671D01*
X102785452Y-105989000D01*
X101904615Y-105989000D01*
X101889376Y-105993475D01*
X101888171Y-105994865D01*
X101886500Y-106002548D01*
X101886500Y-106199513D01*
X96386940Y-106199513D01*
X96275602Y-105992173D01*
X96270714Y-105982001D01*
X96125282Y-105641064D01*
X96121323Y-105630496D01*
X96020917Y-105320885D01*
X101886500Y-105320885D01*
X101890975Y-105336124D01*
X101892365Y-105337329D01*
X101900048Y-105339000D01*
X102780885Y-105339000D01*
X102796124Y-105334525D01*
X102797329Y-105333135D01*
X102799000Y-105325452D01*
X102799000Y-104307115D01*
X102794525Y-104291876D01*
X102793135Y-104290671D01*
X102785452Y-104289000D01*
X102725988Y-104289000D01*
X102721062Y-104289193D01*
X102650690Y-104294732D01*
X102639356Y-104296679D01*
X102468566Y-104342442D01*
X102456313Y-104347146D01*
X102299506Y-104427043D01*
X102288495Y-104434193D01*
X102151725Y-104544948D01*
X102142448Y-104554225D01*
X102031693Y-104690995D01*
X102024543Y-104702006D01*
X101944646Y-104858813D01*
X101939942Y-104871066D01*
X101894179Y-105041856D01*
X101892232Y-105053190D01*
X101886693Y-105123562D01*
X101886500Y-105128488D01*
X101886500Y-105320885D01*
X96020917Y-105320885D01*
X96006973Y-105277887D01*
X96003979Y-105267016D01*
X95971298Y-105123562D01*
X95938028Y-104977528D01*
X95921645Y-104905616D01*
X95919633Y-104894511D01*
X95878911Y-104593346D01*
X95869965Y-104527179D01*
X95868955Y-104515943D01*
X95862061Y-104362148D01*
X95854303Y-104189105D01*
X95855171Y-104167669D01*
X95856327Y-104158516D01*
X95857211Y-104151521D01*
X95852703Y-104105544D01*
X95852102Y-104093249D01*
X95852102Y-96769686D01*
X95872104Y-96701565D01*
X95925760Y-96655072D01*
X95996034Y-96644968D01*
X96003222Y-96646215D01*
G37*
G04 #@! TD.AperFunction*
G04 #@! TA.AperFunction,Conductor*
G36*
X108286177Y-94090502D02*
G01*
X108332670Y-94144158D01*
X108342774Y-94214432D01*
X108334465Y-94244718D01*
X108239300Y-94474469D01*
X108181150Y-94716677D01*
X108161607Y-94965000D01*
X108181150Y-95213323D01*
X108228981Y-95412548D01*
X108231149Y-95421580D01*
X108227603Y-95492488D01*
X108186284Y-95550222D01*
X108120310Y-95576453D01*
X108050629Y-95562851D01*
X108029337Y-95548916D01*
X108023504Y-95544193D01*
X108012494Y-95537043D01*
X107855687Y-95457146D01*
X107843434Y-95452442D01*
X107672644Y-95406679D01*
X107661310Y-95404732D01*
X107590938Y-95399193D01*
X107586012Y-95399000D01*
X107531115Y-95399000D01*
X107515876Y-95403475D01*
X107514671Y-95404865D01*
X107513000Y-95412548D01*
X107513000Y-96430885D01*
X107517475Y-96446124D01*
X107518865Y-96447329D01*
X107526548Y-96449000D01*
X108407385Y-96449000D01*
X108422624Y-96444525D01*
X108423829Y-96443135D01*
X108425500Y-96435452D01*
X108425500Y-96238488D01*
X108425306Y-96233539D01*
X108422345Y-96195924D01*
X108436939Y-96126444D01*
X108486781Y-96075884D01*
X108556046Y-96060297D01*
X108622742Y-96084631D01*
X108629787Y-96090226D01*
X108815954Y-96249228D01*
X109028339Y-96379378D01*
X109032909Y-96381271D01*
X109032913Y-96381273D01*
X109147571Y-96428765D01*
X109258469Y-96474700D01*
X109500677Y-96532850D01*
X109749000Y-96552393D01*
X109753930Y-96552005D01*
X109753931Y-96552005D01*
X109932412Y-96537959D01*
X110001892Y-96552555D01*
X110052451Y-96602398D01*
X110068037Y-96671663D01*
X110044551Y-96737191D01*
X108856312Y-98387523D01*
X108842220Y-98403919D01*
X108834524Y-98411456D01*
X108830709Y-98417376D01*
X108830704Y-98417382D01*
X108797419Y-98469030D01*
X108793763Y-98474395D01*
X108783568Y-98488555D01*
X108783562Y-98488564D01*
X108781511Y-98491413D01*
X108779788Y-98494477D01*
X108773186Y-98506215D01*
X108769287Y-98512684D01*
X108734869Y-98566092D01*
X108732459Y-98572714D01*
X108729880Y-98579799D01*
X108721301Y-98598469D01*
X108720440Y-98600000D01*
X108714150Y-98611184D01*
X108712143Y-98617935D01*
X108712143Y-98617936D01*
X108696050Y-98672079D01*
X108693673Y-98679274D01*
X108678688Y-98720444D01*
X108671948Y-98738963D01*
X108670969Y-98746715D01*
X108670119Y-98753441D01*
X108665892Y-98773539D01*
X108663745Y-98780764D01*
X108663744Y-98780769D01*
X108661736Y-98787525D01*
X108658861Y-98831350D01*
X108657578Y-98850904D01*
X108656855Y-98858437D01*
X108654000Y-98881037D01*
X108654000Y-98901290D01*
X108653730Y-98909540D01*
X108651645Y-98941322D01*
X108649691Y-98971096D01*
X108650799Y-98978055D01*
X108652433Y-98988319D01*
X108654000Y-99008129D01*
X108654000Y-101670401D01*
X108653114Y-101685320D01*
X108648831Y-101721239D01*
X108649567Y-101728242D01*
X108649567Y-101728243D01*
X108653759Y-101768125D01*
X108654000Y-101771120D01*
X108654000Y-101773262D01*
X108658720Y-101815335D01*
X108658784Y-101815932D01*
X108668061Y-101904197D01*
X108668994Y-101906937D01*
X108669317Y-101909819D01*
X108671445Y-101915928D01*
X108671446Y-101915935D01*
X108698474Y-101993547D01*
X108698761Y-101994378D01*
X108727347Y-102078348D01*
X108728865Y-102080816D01*
X108729818Y-102083552D01*
X108733236Y-102089022D01*
X108733237Y-102089024D01*
X108776779Y-102158707D01*
X108777243Y-102159454D01*
X108812550Y-102216845D01*
X108823742Y-102235037D01*
X108825771Y-102237109D01*
X108827305Y-102239564D01*
X108831853Y-102244143D01*
X108831853Y-102244144D01*
X108889775Y-102302472D01*
X108890393Y-102303099D01*
X108952456Y-102366476D01*
X108954893Y-102368046D01*
X108956933Y-102370101D01*
X108962404Y-102373573D01*
X109031857Y-102417650D01*
X109032487Y-102418053D01*
X109107092Y-102466131D01*
X109109813Y-102467121D01*
X109112261Y-102468675D01*
X109195783Y-102498416D01*
X109196555Y-102498693D01*
X109279963Y-102529052D01*
X109282838Y-102529415D01*
X109285567Y-102530387D01*
X109291989Y-102531153D01*
X109291990Y-102531153D01*
X109373595Y-102540884D01*
X109374467Y-102540991D01*
X109422037Y-102547000D01*
X109424190Y-102547000D01*
X109427139Y-102547268D01*
X109468239Y-102552169D01*
X109475242Y-102551433D01*
X109475243Y-102551433D01*
X109510853Y-102547690D01*
X109524024Y-102547000D01*
X110814000Y-102547000D01*
X110882121Y-102567002D01*
X110928614Y-102620658D01*
X110940000Y-102673000D01*
X110940000Y-102768501D01*
X110919998Y-102836622D01*
X110866342Y-102883115D01*
X110814000Y-102894501D01*
X110208954Y-102894501D01*
X110204097Y-102894780D01*
X110024737Y-102936189D01*
X109859008Y-103016305D01*
X109853587Y-103020632D01*
X109786487Y-103040000D01*
X109667115Y-103040000D01*
X109651876Y-103044475D01*
X109650671Y-103045865D01*
X109649000Y-103053548D01*
X109649000Y-103169885D01*
X109628998Y-103238006D01*
X109621471Y-103248494D01*
X109600305Y-103275008D01*
X109520189Y-103440737D01*
X109478780Y-103620097D01*
X109478500Y-103624953D01*
X109478501Y-103981342D01*
X109478501Y-104213500D01*
X109458499Y-104281621D01*
X109404843Y-104328114D01*
X109352501Y-104339500D01*
X108826607Y-104339500D01*
X108758486Y-104319498D01*
X108737512Y-104302596D01*
X108295405Y-103860490D01*
X108261380Y-103798177D01*
X108258500Y-103771394D01*
X108258500Y-99053228D01*
X108259237Y-99039621D01*
X108262956Y-99005389D01*
X108262956Y-99005385D01*
X108263621Y-98999264D01*
X108258979Y-98946206D01*
X108258766Y-98941316D01*
X108258650Y-98941322D01*
X108258500Y-98938255D01*
X108258500Y-98935170D01*
X108255584Y-98905425D01*
X108254042Y-98889695D01*
X108253921Y-98888385D01*
X108250641Y-98850904D01*
X108245324Y-98790128D01*
X108243746Y-98784697D01*
X108243194Y-98779066D01*
X108227403Y-98726763D01*
X108223303Y-98676326D01*
X108222968Y-98676300D01*
X108223131Y-98674207D01*
X108223105Y-98673888D01*
X108223229Y-98672949D01*
X108223229Y-98672948D01*
X108223666Y-98669629D01*
X108225368Y-98600000D01*
X108209867Y-98411456D01*
X108206652Y-98372351D01*
X108206651Y-98372345D01*
X108206228Y-98367200D01*
X108157198Y-98172000D01*
X108150583Y-98145664D01*
X108150582Y-98145660D01*
X108149324Y-98140653D01*
X108110757Y-98051954D01*
X108101938Y-97981507D01*
X108132604Y-97917475D01*
X108147013Y-97903791D01*
X108160276Y-97893051D01*
X108169552Y-97883775D01*
X108280307Y-97747005D01*
X108287457Y-97735994D01*
X108367354Y-97579187D01*
X108372058Y-97566934D01*
X108417821Y-97396144D01*
X108419768Y-97384810D01*
X108425307Y-97314438D01*
X108425500Y-97309513D01*
X108425500Y-97117115D01*
X108421025Y-97101876D01*
X108419635Y-97100671D01*
X108411952Y-97099000D01*
X106989000Y-97099000D01*
X106920879Y-97078998D01*
X106874386Y-97025342D01*
X106863000Y-96973000D01*
X106863000Y-95417115D01*
X106858525Y-95401876D01*
X106857135Y-95400671D01*
X106849452Y-95399000D01*
X106789988Y-95399000D01*
X106785062Y-95399193D01*
X106714690Y-95404732D01*
X106703356Y-95406679D01*
X106532566Y-95452442D01*
X106520313Y-95457146D01*
X106363509Y-95537041D01*
X106351480Y-95544853D01*
X106283456Y-95565181D01*
X106215240Y-95545505D01*
X106193758Y-95528277D01*
X106133267Y-95467786D01*
X106128148Y-95464359D01*
X106128143Y-95464355D01*
X105963936Y-95354429D01*
X105963932Y-95354427D01*
X105958813Y-95351000D01*
X105764998Y-95270322D01*
X105758962Y-95269105D01*
X105758959Y-95269104D01*
X105563792Y-95229752D01*
X105563791Y-95229752D01*
X105559204Y-95228827D01*
X105554540Y-95228591D01*
X105554534Y-95228590D01*
X105554337Y-95228580D01*
X105554320Y-95228580D01*
X105552749Y-95228500D01*
X105551152Y-95228500D01*
X105111203Y-95228501D01*
X104673252Y-95228501D01*
X104671514Y-95228589D01*
X104671467Y-95228591D01*
X104671465Y-95228591D01*
X104666796Y-95228827D01*
X104662209Y-95229752D01*
X104662208Y-95229752D01*
X104467041Y-95269104D01*
X104467038Y-95269105D01*
X104461002Y-95270322D01*
X104267187Y-95351000D01*
X104266609Y-95349612D01*
X104204408Y-95362647D01*
X104165935Y-95353364D01*
X104032190Y-95297691D01*
X104032187Y-95297690D01*
X104026498Y-95295322D01*
X104020462Y-95294105D01*
X104020459Y-95294104D01*
X103825292Y-95254752D01*
X103825291Y-95254752D01*
X103820704Y-95253827D01*
X103816040Y-95253591D01*
X103816034Y-95253590D01*
X103815837Y-95253580D01*
X103815820Y-95253580D01*
X103814249Y-95253500D01*
X103812652Y-95253500D01*
X103360152Y-95253501D01*
X102909752Y-95253501D01*
X102908014Y-95253589D01*
X102907967Y-95253591D01*
X102907965Y-95253591D01*
X102903296Y-95253827D01*
X102898709Y-95254752D01*
X102898708Y-95254752D01*
X102703541Y-95294104D01*
X102703538Y-95294105D01*
X102697502Y-95295322D01*
X102691813Y-95297690D01*
X102691810Y-95297691D01*
X102606921Y-95333027D01*
X102536345Y-95340740D01*
X102472803Y-95309072D01*
X102436469Y-95248077D01*
X102432500Y-95216703D01*
X102432500Y-94713606D01*
X102452502Y-94645485D01*
X102469405Y-94624511D01*
X102986511Y-94107405D01*
X103048823Y-94073379D01*
X103075606Y-94070500D01*
X108218056Y-94070500D01*
X108286177Y-94090502D01*
G37*
G04 #@! TD.AperFunction*
G04 #@! TA.AperFunction,Conductor*
G36*
X97639273Y-88065053D02*
G01*
X97688839Y-88115884D01*
X97703500Y-88174872D01*
X97703501Y-89585248D01*
X97703827Y-89591704D01*
X97745322Y-89797498D01*
X97826000Y-89991313D01*
X97829427Y-89996432D01*
X97829429Y-89996436D01*
X97939355Y-90160643D01*
X97939359Y-90160648D01*
X97942786Y-90165767D01*
X98091233Y-90314214D01*
X98096352Y-90317641D01*
X98096357Y-90317645D01*
X98260564Y-90427571D01*
X98260568Y-90427573D01*
X98265687Y-90431000D01*
X98459502Y-90511678D01*
X98465538Y-90512895D01*
X98465541Y-90512896D01*
X98660708Y-90552248D01*
X98665296Y-90553173D01*
X98669960Y-90553409D01*
X98669966Y-90553410D01*
X98670163Y-90553420D01*
X98670180Y-90553420D01*
X98671751Y-90553500D01*
X98673348Y-90553500D01*
X99125848Y-90553499D01*
X99576248Y-90553499D01*
X99577986Y-90553411D01*
X99578033Y-90553409D01*
X99578035Y-90553409D01*
X99582704Y-90553173D01*
X99587292Y-90552248D01*
X99782459Y-90512896D01*
X99782462Y-90512895D01*
X99788498Y-90511678D01*
X99982313Y-90431000D01*
X99987432Y-90427573D01*
X99987436Y-90427571D01*
X100123723Y-90336335D01*
X100156767Y-90314214D01*
X100161130Y-90309851D01*
X100163348Y-90308029D01*
X100228682Y-90280245D01*
X100298666Y-90292194D01*
X100318539Y-90304302D01*
X100372753Y-90344638D01*
X100377504Y-90347054D01*
X100377508Y-90347056D01*
X100542614Y-90431000D01*
X100587641Y-90453893D01*
X100817866Y-90525379D01*
X100823153Y-90526080D01*
X100823154Y-90526080D01*
X101051559Y-90556353D01*
X101051563Y-90556353D01*
X101056843Y-90557053D01*
X101062173Y-90556853D01*
X101062174Y-90556853D01*
X101184844Y-90552248D01*
X101297741Y-90548010D01*
X101453405Y-90515348D01*
X101528445Y-90499603D01*
X101528448Y-90499602D01*
X101533672Y-90498506D01*
X101757888Y-90409959D01*
X101963980Y-90284899D01*
X102016280Y-90239516D01*
X102039098Y-90219716D01*
X102103658Y-90190177D01*
X102173939Y-90200231D01*
X102196891Y-90213793D01*
X102225482Y-90235065D01*
X102372753Y-90344638D01*
X102377504Y-90347054D01*
X102377508Y-90347056D01*
X102542614Y-90431000D01*
X102587641Y-90453893D01*
X102817866Y-90525379D01*
X102823153Y-90526080D01*
X102823154Y-90526080D01*
X103051559Y-90556353D01*
X103051563Y-90556353D01*
X103056843Y-90557053D01*
X103062173Y-90556853D01*
X103062174Y-90556853D01*
X103184844Y-90552248D01*
X103297741Y-90548010D01*
X103453405Y-90515348D01*
X103528445Y-90499603D01*
X103528448Y-90499602D01*
X103533672Y-90498506D01*
X103757888Y-90409959D01*
X103963980Y-90284899D01*
X104052344Y-90208221D01*
X104142021Y-90130404D01*
X104142023Y-90130402D01*
X104146054Y-90126904D01*
X104149437Y-90122778D01*
X104149441Y-90122774D01*
X104151168Y-90120667D01*
X104152121Y-90120017D01*
X104153156Y-90118953D01*
X104153373Y-90119164D01*
X104209827Y-90080673D01*
X104280798Y-90078741D01*
X104327896Y-90102637D01*
X104338825Y-90111487D01*
X104514721Y-90229684D01*
X104524510Y-90235065D01*
X104718553Y-90320245D01*
X104729141Y-90323808D01*
X104781383Y-90336350D01*
X104795469Y-90335645D01*
X104799000Y-90326765D01*
X104799000Y-88659000D01*
X104819002Y-88590879D01*
X104872658Y-88544386D01*
X104925000Y-88533000D01*
X105323000Y-88533000D01*
X105391121Y-88553002D01*
X105437614Y-88606658D01*
X105449000Y-88659000D01*
X105449000Y-90322804D01*
X105452973Y-90336335D01*
X105460421Y-90337406D01*
X105592848Y-90296665D01*
X105603193Y-90292444D01*
X105791507Y-90195247D01*
X105800938Y-90189262D01*
X105923328Y-90095349D01*
X105989548Y-90069749D01*
X106059097Y-90084014D01*
X106091202Y-90108341D01*
X106175660Y-90196876D01*
X106175665Y-90196881D01*
X106179345Y-90200738D01*
X106183623Y-90203921D01*
X106204852Y-90219716D01*
X106372753Y-90344638D01*
X106377504Y-90347054D01*
X106377508Y-90347056D01*
X106542614Y-90431000D01*
X106587641Y-90453893D01*
X106817866Y-90525379D01*
X106823153Y-90526080D01*
X106823154Y-90526080D01*
X107051559Y-90556353D01*
X107051563Y-90556353D01*
X107056843Y-90557053D01*
X107062173Y-90556853D01*
X107062174Y-90556853D01*
X107184844Y-90552248D01*
X107297741Y-90548010D01*
X107453405Y-90515348D01*
X107528445Y-90499603D01*
X107528448Y-90499602D01*
X107533672Y-90498506D01*
X107757888Y-90409959D01*
X107963980Y-90284899D01*
X108052344Y-90208221D01*
X108142021Y-90130404D01*
X108142023Y-90130402D01*
X108146054Y-90126904D01*
X108149437Y-90122778D01*
X108149441Y-90122774D01*
X108295519Y-89944617D01*
X108298904Y-89940489D01*
X108303035Y-89933233D01*
X108415523Y-89735618D01*
X108418160Y-89730986D01*
X108500413Y-89504385D01*
X108543309Y-89267164D01*
X108543588Y-89261261D01*
X108544430Y-89243397D01*
X108544430Y-89243390D01*
X108544500Y-89241909D01*
X108544500Y-88522471D01*
X108529254Y-88342795D01*
X108528331Y-88339237D01*
X108536510Y-88269214D01*
X108581565Y-88214345D01*
X108652471Y-88192500D01*
X108987394Y-88192500D01*
X109055515Y-88212502D01*
X109076489Y-88229405D01*
X109694595Y-88847511D01*
X109728621Y-88909823D01*
X109731500Y-88936606D01*
X109731501Y-89318248D01*
X109731827Y-89324704D01*
X109732752Y-89329291D01*
X109732752Y-89329292D01*
X109768057Y-89504385D01*
X109773322Y-89530498D01*
X109854000Y-89724313D01*
X109857427Y-89729432D01*
X109857429Y-89729436D01*
X109935400Y-89845907D01*
X109956674Y-89913641D01*
X109935400Y-89986092D01*
X109899430Y-90039825D01*
X109857429Y-90102564D01*
X109857427Y-90102568D01*
X109854000Y-90107687D01*
X109773322Y-90301502D01*
X109772105Y-90307538D01*
X109772104Y-90307541D01*
X109752012Y-90407190D01*
X109731827Y-90507296D01*
X109731500Y-90513751D01*
X109731500Y-90515348D01*
X109731501Y-90895394D01*
X109711499Y-90963514D01*
X109694596Y-90984489D01*
X108786490Y-91892595D01*
X108724178Y-91926621D01*
X108697395Y-91929500D01*
X103069861Y-91929500D01*
X103054069Y-91928506D01*
X103027753Y-91925181D01*
X103027744Y-91925180D01*
X103024250Y-91924739D01*
X102994215Y-91924320D01*
X102990727Y-91924662D01*
X102951041Y-91928553D01*
X102945811Y-91928956D01*
X102853431Y-91934144D01*
X102762027Y-91939277D01*
X102532759Y-91978231D01*
X102309294Y-92042610D01*
X102094443Y-92131605D01*
X102091349Y-92133315D01*
X101894003Y-92242383D01*
X101893998Y-92242386D01*
X101890906Y-92244095D01*
X101822953Y-92292310D01*
X101708662Y-92373404D01*
X101701244Y-92378667D01*
X101698596Y-92381033D01*
X101698594Y-92381035D01*
X101587447Y-92480364D01*
X101580735Y-92485956D01*
X101548021Y-92511331D01*
X101526486Y-92532272D01*
X101524256Y-92534986D01*
X101524254Y-92534989D01*
X101496693Y-92568543D01*
X101488423Y-92577662D01*
X100951432Y-93114653D01*
X100939564Y-93125117D01*
X100915807Y-93143545D01*
X100894272Y-93164486D01*
X100892033Y-93167212D01*
X100866723Y-93198026D01*
X100863311Y-93202008D01*
X100740667Y-93339244D01*
X100606095Y-93528906D01*
X100604386Y-93531998D01*
X100604383Y-93532003D01*
X100584657Y-93567695D01*
X100493605Y-93732443D01*
X100404610Y-93947294D01*
X100340231Y-94170759D01*
X100301277Y-94400027D01*
X100301079Y-94403556D01*
X100292719Y-94552415D01*
X100291926Y-94561122D01*
X100286739Y-94602180D01*
X100286320Y-94632215D01*
X100286662Y-94635701D01*
X100290899Y-94678914D01*
X100291500Y-94691210D01*
X100291500Y-95156503D01*
X100271498Y-95224624D01*
X100217842Y-95271117D01*
X100140596Y-95280017D01*
X100015294Y-95254752D01*
X100015287Y-95254751D01*
X100010704Y-95253827D01*
X100006040Y-95253591D01*
X100006034Y-95253590D01*
X100005837Y-95253580D01*
X100005820Y-95253580D01*
X100004249Y-95253500D01*
X100002652Y-95253500D01*
X99550152Y-95253501D01*
X99099752Y-95253501D01*
X99098014Y-95253589D01*
X99097967Y-95253591D01*
X99097965Y-95253591D01*
X99093296Y-95253827D01*
X99088709Y-95254752D01*
X99088708Y-95254752D01*
X98893541Y-95294104D01*
X98893538Y-95294105D01*
X98887502Y-95295322D01*
X98693687Y-95376000D01*
X98688568Y-95379427D01*
X98688564Y-95379429D01*
X98622093Y-95423928D01*
X98554359Y-95445202D01*
X98481907Y-95423928D01*
X98415436Y-95379429D01*
X98415432Y-95379427D01*
X98410313Y-95376000D01*
X98216498Y-95295322D01*
X98210462Y-95294105D01*
X98210459Y-95294104D01*
X98015292Y-95254752D01*
X98015291Y-95254752D01*
X98010704Y-95253827D01*
X98006040Y-95253591D01*
X98006034Y-95253590D01*
X98005837Y-95253580D01*
X98005820Y-95253580D01*
X98004249Y-95253500D01*
X97835605Y-95253500D01*
X97767484Y-95233498D01*
X97746510Y-95216595D01*
X97716129Y-95186214D01*
X97682103Y-95123902D01*
X97679648Y-95107444D01*
X97672652Y-95022352D01*
X97672651Y-95022347D01*
X97672228Y-95017200D01*
X97655891Y-94952158D01*
X97616583Y-94795664D01*
X97616582Y-94795660D01*
X97615324Y-94790653D01*
X97613265Y-94785917D01*
X97524242Y-94581178D01*
X97524240Y-94581175D01*
X97522182Y-94576441D01*
X97505373Y-94550458D01*
X97398115Y-94384663D01*
X97398111Y-94384657D01*
X97395304Y-94380319D01*
X97340508Y-94320098D01*
X97241577Y-94211374D01*
X97241575Y-94211372D01*
X97238099Y-94207552D01*
X97234048Y-94204353D01*
X97234044Y-94204349D01*
X97058845Y-94065986D01*
X97054787Y-94062781D01*
X96850291Y-93949893D01*
X96730889Y-93907611D01*
X96634979Y-93873647D01*
X96634975Y-93873646D01*
X96630104Y-93871921D01*
X96625011Y-93871014D01*
X96625008Y-93871013D01*
X96405228Y-93831864D01*
X96405222Y-93831863D01*
X96400139Y-93830958D01*
X96309549Y-93829851D01*
X96171740Y-93828167D01*
X96171738Y-93828167D01*
X96166571Y-93828104D01*
X96051179Y-93845761D01*
X95997161Y-93854027D01*
X95926798Y-93844559D01*
X95872724Y-93798553D01*
X95852102Y-93729477D01*
X95852102Y-91499887D01*
X95853096Y-91484095D01*
X95853375Y-91481888D01*
X95857211Y-91451521D01*
X95854229Y-91421101D01*
X95853754Y-91403165D01*
X95868955Y-91064060D01*
X95869965Y-91052819D01*
X95882041Y-90963514D01*
X95919634Y-90685488D01*
X95921646Y-90674384D01*
X96003980Y-90312985D01*
X96006977Y-90302104D01*
X96106104Y-89996436D01*
X96121325Y-89949501D01*
X96125283Y-89938936D01*
X96126600Y-89935850D01*
X96270715Y-89598000D01*
X96275603Y-89587828D01*
X96450964Y-89261261D01*
X96456743Y-89251567D01*
X96660623Y-88941998D01*
X96667247Y-88932860D01*
X96898003Y-88642785D01*
X96905417Y-88634277D01*
X97161206Y-88366010D01*
X97169352Y-88358199D01*
X97448116Y-88113899D01*
X97456928Y-88106848D01*
X97503267Y-88073061D01*
X97570094Y-88049090D01*
X97639273Y-88065053D01*
G37*
G04 #@! TD.AperFunction*
G04 #@! TD*
M02*
