G04 #@! TF.GenerationSoftware,KiCad,Pcbnew,5.99.0-unknown-bf85ddd577~142~ubuntu20.04.1*
G04 #@! TF.CreationDate,2021-11-13T13:18:00-05:00*
G04 #@! TF.ProjectId,microTouch,6d696372-6f54-46f7-9563-682e6b696361,rev?*
G04 #@! TF.SameCoordinates,Original*
G04 #@! TF.FileFunction,Copper,L2,Bot*
G04 #@! TF.FilePolarity,Positive*
%FSLAX46Y46*%
G04 Gerber Fmt 4.6, Leading zero omitted, Abs format (unit mm)*
G04 Created by KiCad (PCBNEW 5.99.0-unknown-bf85ddd577~142~ubuntu20.04.1) date 2021-11-13 13:18:00*
%MOMM*%
%LPD*%
G01*
G04 APERTURE LIST*
G04 Aperture macros list*
%AMRoundRect*
0 Rectangle with rounded corners*
0 $1 Rounding radius*
0 $2 $3 $4 $5 $6 $7 $8 $9 X,Y pos of 4 corners*
0 Add a 4 corners polygon primitive as box body*
4,1,4,$2,$3,$4,$5,$6,$7,$8,$9,$2,$3,0*
0 Add four circle primitives for the rounded corners*
1,1,$1+$1,$2,$3*
1,1,$1+$1,$4,$5*
1,1,$1+$1,$6,$7*
1,1,$1+$1,$8,$9*
0 Add four rect primitives between the rounded corners*
20,1,$1+$1,$2,$3,$4,$5,0*
20,1,$1+$1,$4,$5,$6,$7,0*
20,1,$1+$1,$6,$7,$8,$9,0*
20,1,$1+$1,$8,$9,$2,$3,0*%
%AMFreePoly0*
4,1,20,0.000000,0.744959,0.073905,0.744508,0.209726,0.703889,0.328688,0.626782,0.421226,0.519385,0.479903,0.390333,0.500000,0.250000,0.500000,-0.250000,0.499851,-0.262216,0.476331,-0.402017,0.414519,-0.529596,0.319384,-0.634700,0.198574,-0.708877,0.061801,-0.746166,0.000000,-0.745033,0.000000,-0.750000,-0.500000,-0.750000,-0.500000,0.750000,0.000000,0.750000,0.000000,0.744959,
0.000000,0.744959,$1*%
%AMFreePoly1*
4,1,22,0.500000,-0.750000,0.000000,-0.750000,0.000000,-0.745033,-0.079941,-0.743568,-0.215256,-0.701293,-0.333266,-0.622738,-0.424486,-0.514219,-0.481581,-0.384460,-0.499164,-0.250000,-0.500000,-0.250000,-0.500000,0.250000,-0.499164,0.250000,-0.499963,0.256109,-0.478152,0.396186,-0.417904,0.524511,-0.324060,0.630769,-0.204165,0.706417,-0.067858,0.745374,0.000000,0.744959,0.000000,0.750000,
0.500000,0.750000,0.500000,-0.750000,0.500000,-0.750000,$1*%
G04 Aperture macros list end*
G04 #@! TA.AperFunction,ComponentPad*
%ADD10O,1.300000X1.050000*%
G04 #@! TD*
G04 #@! TA.AperFunction,ComponentPad*
%ADD11RoundRect,0.249900X0.400100X-0.275100X0.400100X0.275100X-0.400100X0.275100X-0.400100X-0.275100X0*%
G04 #@! TD*
G04 #@! TA.AperFunction,SMDPad,CuDef*
%ADD12FreePoly0,0.000000*%
G04 #@! TD*
G04 #@! TA.AperFunction,SMDPad,CuDef*
%ADD13FreePoly1,0.000000*%
G04 #@! TD*
G04 #@! TA.AperFunction,ComponentPad*
%ADD14RoundRect,0.250000X-0.350000X-0.625000X0.350000X-0.625000X0.350000X0.625000X-0.350000X0.625000X0*%
G04 #@! TD*
G04 #@! TA.AperFunction,ComponentPad*
%ADD15O,1.200000X1.750000*%
G04 #@! TD*
G04 #@! TA.AperFunction,ComponentPad*
%ADD16O,2.000000X1.000000*%
G04 #@! TD*
G04 #@! TA.AperFunction,WasherPad*
%ADD17C,1.524000*%
G04 #@! TD*
G04 #@! TA.AperFunction,ViaPad*
%ADD18C,1.200000*%
G04 #@! TD*
G04 #@! TA.AperFunction,Conductor*
%ADD19C,0.500000*%
G04 #@! TD*
G04 APERTURE END LIST*
G04 #@! TO.C,JP1*
G36*
X97136000Y-93264000D02*
G01*
X96636000Y-93264000D01*
X96636000Y-92664000D01*
X97136000Y-92664000D01*
X97136000Y-93264000D01*
G37*
G04 #@! TD*
D10*
G04 #@! TO.P,U1,2,GND*
G04 #@! TO.N,GND*
X105664000Y-101346000D03*
G04 #@! TO.P,U1,3,OUT*
G04 #@! TO.N,/SIG*
X105664000Y-99866000D03*
D11*
G04 #@! TO.P,U1,1,VIN*
G04 #@! TO.N,/5V*
X105664000Y-102866000D03*
G04 #@! TD*
D12*
G04 #@! TO.P,JP1,2,B*
G04 #@! TO.N,/5V*
X97536000Y-92964000D03*
D13*
G04 #@! TO.P,JP1,1,A*
G04 #@! TO.N,/VSIG*
X96236000Y-92964000D03*
G04 #@! TD*
D14*
G04 #@! TO.P,J2,1,Pin_1*
G04 #@! TO.N,/VSIG*
X99125000Y-89916000D03*
D15*
G04 #@! TO.P,J2,2,Pin_2*
G04 #@! TO.N,/5V*
X101125000Y-89916000D03*
G04 #@! TO.P,J2,3,Pin_3*
G04 #@! TO.N,/SIG*
X103125000Y-89916000D03*
G04 #@! TO.P,J2,4,Pin_4*
G04 #@! TO.N,GND*
X105125000Y-89916000D03*
G04 #@! TO.P,J2,5,Pin_5*
G04 #@! TO.N,/SERVO*
X107125000Y-89916000D03*
G04 #@! TD*
D16*
G04 #@! TO.P,J1,3,Pin_3*
G04 #@! TO.N,GND*
X111749000Y-102765000D03*
G04 #@! TO.P,J1,2,Pin_2*
G04 #@! TO.N,/5V*
X111749000Y-104215000D03*
G04 #@! TO.P,J1,1,Pin_1*
G04 #@! TO.N,/SERVO*
X111749000Y-105665000D03*
D17*
G04 #@! TO.P,J1,*
G04 #@! TO.N,*
X124989000Y-94965000D03*
X124989000Y-106965000D03*
X109749000Y-106965000D03*
X109749000Y-94965000D03*
G04 #@! TD*
D18*
G04 #@! TO.N,GND*
X99822000Y-94742000D03*
X103632000Y-101346000D03*
X98044000Y-99060000D03*
X101092000Y-92456000D03*
G04 #@! TO.N,/5V*
X102108000Y-87630000D03*
G04 #@! TO.N,GND*
X104902000Y-94996000D03*
X104902000Y-92456000D03*
G04 #@! TO.N,/5V*
X105664000Y-104394000D03*
X109855000Y-104267000D03*
G04 #@! TO.N,GND*
X108712000Y-102743000D03*
G04 #@! TO.N,/SIG*
X103378000Y-97790000D03*
G04 #@! TO.N,GND*
X108585000Y-96901000D03*
G04 #@! TO.N,/VSIG*
X96266000Y-95250000D03*
G04 #@! TO.N,/SERVO*
X106934000Y-98806000D03*
X108458000Y-105664000D03*
G04 #@! TD*
D19*
G04 #@! TO.N,/5V*
X101125000Y-89916000D02*
X101125000Y-90391000D01*
X101125000Y-90391000D02*
X98552000Y-92964000D01*
X98552000Y-92964000D02*
X97536000Y-92964000D01*
X105664000Y-104394000D02*
X104140000Y-105918000D01*
X104140000Y-105918000D02*
X98298000Y-105918000D01*
X98298000Y-105918000D02*
X96012000Y-103632000D01*
X96012000Y-103632000D02*
X96012000Y-98044000D01*
X96012000Y-98044000D02*
X97536000Y-96520000D01*
X97536000Y-96520000D02*
X97536000Y-92964000D01*
X105664000Y-104394000D02*
X105664000Y-102866000D01*
X101125000Y-89916000D02*
X101125000Y-88613000D01*
X101125000Y-88613000D02*
X102108000Y-87630000D01*
G04 #@! TO.N,/SIG*
X103378000Y-97790000D02*
X103124000Y-97536000D01*
X103124000Y-97536000D02*
X103124000Y-89917000D01*
X103378000Y-97790000D02*
X103378000Y-98552000D01*
X103378000Y-98552000D02*
X104692000Y-99866000D01*
X104692000Y-99866000D02*
X105664000Y-99866000D01*
G04 #@! TO.N,/5V*
X109855000Y-104267000D02*
X105664000Y-104267000D01*
X105664000Y-104267000D02*
X105664000Y-102866000D01*
G04 #@! TO.N,/SERVO*
X106934000Y-98806000D02*
X106426000Y-98298000D01*
X106426000Y-98298000D02*
X106426000Y-92456000D01*
X106426000Y-92456000D02*
X107125000Y-91757000D01*
X107125000Y-91757000D02*
X107125000Y-89916000D01*
G04 #@! TO.N,GND*
X108712000Y-102743000D02*
X107315000Y-101346000D01*
X107315000Y-101346000D02*
X105664000Y-101346000D01*
X108712000Y-102743000D02*
X111727000Y-102743000D01*
X111727000Y-102743000D02*
X111749000Y-102765000D01*
G04 #@! TO.N,/SERVO*
X108458000Y-105664000D02*
X111748000Y-105664000D01*
X111748000Y-105664000D02*
X111749000Y-105665000D01*
G04 #@! TO.N,/5V*
X109855000Y-104267000D02*
X111697000Y-104267000D01*
X111697000Y-104267000D02*
X111749000Y-104215000D01*
G04 #@! TO.N,/VSIG*
X96236000Y-92964000D02*
X96236000Y-91216000D01*
X96236000Y-91216000D02*
X97536000Y-89916000D01*
X97536000Y-89916000D02*
X99125000Y-89916000D01*
X96266000Y-95250000D02*
X96236000Y-95220000D01*
X96236000Y-95220000D02*
X96236000Y-92964000D01*
G04 #@! TD*
G04 #@! TA.AperFunction,Conductor*
G04 #@! TO.N,GND*
G36*
X109185342Y-87011078D02*
G01*
X109205612Y-87013747D01*
X109205616Y-87013747D01*
X109213143Y-87014738D01*
X109223162Y-87013632D01*
X109234269Y-87012406D01*
X109254689Y-87011818D01*
X109475961Y-87023414D01*
X109543714Y-87026965D01*
X109556822Y-87028342D01*
X109720361Y-87054244D01*
X109870478Y-87078020D01*
X109883378Y-87080762D01*
X110190120Y-87162953D01*
X110202656Y-87167027D01*
X110464261Y-87267447D01*
X110499119Y-87280828D01*
X110511167Y-87286192D01*
X110794120Y-87430363D01*
X110805536Y-87436954D01*
X111071874Y-87609916D01*
X111082534Y-87617662D01*
X111323467Y-87812766D01*
X111329322Y-87817507D01*
X111339123Y-87826332D01*
X111563668Y-88050877D01*
X111572493Y-88060678D01*
X111716896Y-88239000D01*
X111772336Y-88307463D01*
X111780084Y-88318126D01*
X111953043Y-88584459D01*
X111959637Y-88595880D01*
X112103808Y-88878833D01*
X112109172Y-88890881D01*
X112221486Y-89183467D01*
X112222971Y-89187336D01*
X112227046Y-89199878D01*
X112229426Y-89208760D01*
X112309238Y-89506622D01*
X112311980Y-89519522D01*
X112361657Y-89833172D01*
X112363035Y-89846289D01*
X112377588Y-90123971D01*
X112376504Y-90148319D01*
X112375370Y-90156287D01*
X112375301Y-90162846D01*
X112375262Y-90163143D01*
X112375295Y-90163441D01*
X112375226Y-90170000D01*
X112375721Y-90174093D01*
X112375874Y-90176879D01*
X112376148Y-90180055D01*
X112393121Y-90503904D01*
X112393634Y-90507144D01*
X112393635Y-90507152D01*
X112412879Y-90628651D01*
X112445427Y-90834149D01*
X112531966Y-91157117D01*
X112533151Y-91160205D01*
X112533152Y-91160207D01*
X112566733Y-91247688D01*
X112651791Y-91469271D01*
X112653289Y-91472211D01*
X112777610Y-91716204D01*
X112803588Y-91767189D01*
X112805384Y-91769955D01*
X112805386Y-91769958D01*
X112884670Y-91892045D01*
X112985694Y-92047608D01*
X113196115Y-92307456D01*
X113432544Y-92543885D01*
X113692392Y-92754306D01*
X113782878Y-92813068D01*
X113879962Y-92876115D01*
X113972811Y-92936412D01*
X113975745Y-92937907D01*
X113975752Y-92937911D01*
X114267789Y-93086711D01*
X114270729Y-93088209D01*
X114582883Y-93208034D01*
X114905851Y-93294573D01*
X115081242Y-93322352D01*
X115232848Y-93346365D01*
X115232856Y-93346366D01*
X115236096Y-93346879D01*
X115539885Y-93362800D01*
X115551034Y-93363883D01*
X115556287Y-93364630D01*
X115562468Y-93364695D01*
X115565867Y-93364731D01*
X115565873Y-93364731D01*
X115570000Y-93364774D01*
X115601904Y-93360913D01*
X115617043Y-93360000D01*
X124561668Y-93360000D01*
X124629789Y-93380002D01*
X124676282Y-93433658D01*
X124686386Y-93503932D01*
X124656892Y-93568512D01*
X124600813Y-93605765D01*
X124439758Y-93658406D01*
X124366517Y-93696533D01*
X124271546Y-93745972D01*
X124233733Y-93765656D01*
X124229600Y-93768759D01*
X124229597Y-93768761D01*
X124052125Y-93902010D01*
X124047990Y-93905115D01*
X123887519Y-94073038D01*
X123756629Y-94264916D01*
X123658835Y-94475595D01*
X123596764Y-94699417D01*
X123572082Y-94930371D01*
X123572379Y-94935523D01*
X123572379Y-94935526D01*
X123574641Y-94974746D01*
X123558594Y-95043905D01*
X123507704Y-95093410D01*
X123448850Y-95108000D01*
X111782715Y-95108000D01*
X111775343Y-95107784D01*
X111766561Y-95107269D01*
X111716053Y-95104309D01*
X111708273Y-95105828D01*
X111708270Y-95105828D01*
X111661034Y-95115050D01*
X111652684Y-95116391D01*
X111604932Y-95122423D01*
X111604929Y-95122424D01*
X111597067Y-95123417D01*
X111589697Y-95126335D01*
X111587361Y-95127260D01*
X111565118Y-95133775D01*
X111562643Y-95134258D01*
X111562642Y-95134258D01*
X111554868Y-95135776D01*
X111547712Y-95139181D01*
X111547709Y-95139182D01*
X111504252Y-95159859D01*
X111496501Y-95163233D01*
X111451744Y-95180954D01*
X111451739Y-95180957D01*
X111444371Y-95183874D01*
X111435924Y-95190012D01*
X111415997Y-95201853D01*
X111406572Y-95206338D01*
X111363515Y-95242271D01*
X111356859Y-95247456D01*
X111350535Y-95252050D01*
X111283666Y-95275904D01*
X111214515Y-95259819D01*
X111165038Y-95208902D01*
X111151559Y-95133664D01*
X111164649Y-95034237D01*
X111164731Y-95030885D01*
X111166259Y-94968365D01*
X111166259Y-94968361D01*
X111166341Y-94965000D01*
X111160032Y-94888265D01*
X111147733Y-94738662D01*
X111147732Y-94738656D01*
X111147309Y-94733511D01*
X111119017Y-94620876D01*
X111091984Y-94513251D01*
X111091983Y-94513247D01*
X111090725Y-94508240D01*
X111088668Y-94503510D01*
X111088666Y-94503503D01*
X111000168Y-94299971D01*
X111000166Y-94299968D01*
X110998108Y-94295234D01*
X110920891Y-94175875D01*
X110874755Y-94104559D01*
X110874753Y-94104556D01*
X110871945Y-94100216D01*
X110843815Y-94069301D01*
X110719102Y-93932244D01*
X110719100Y-93932243D01*
X110715624Y-93928422D01*
X110711573Y-93925223D01*
X110711569Y-93925219D01*
X110537399Y-93787668D01*
X110537394Y-93787665D01*
X110533345Y-93784467D01*
X110528829Y-93781974D01*
X110528826Y-93781972D01*
X110334525Y-93674712D01*
X110334521Y-93674710D01*
X110330001Y-93672215D01*
X110325132Y-93670491D01*
X110325128Y-93670489D01*
X110115923Y-93596406D01*
X110115921Y-93596405D01*
X110111054Y-93594682D01*
X109996553Y-93574286D01*
X109887472Y-93554855D01*
X109887468Y-93554855D01*
X109882384Y-93553949D01*
X109809601Y-93553060D01*
X109655301Y-93551175D01*
X109655299Y-93551175D01*
X109650131Y-93551112D01*
X109420534Y-93586245D01*
X109199758Y-93658406D01*
X109126517Y-93696533D01*
X109031546Y-93745972D01*
X108993733Y-93765656D01*
X108989600Y-93768759D01*
X108989597Y-93768761D01*
X108812125Y-93902010D01*
X108807990Y-93905115D01*
X108647519Y-94073038D01*
X108516629Y-94264916D01*
X108418835Y-94475595D01*
X108356764Y-94699417D01*
X108332082Y-94930371D01*
X108332379Y-94935524D01*
X108332379Y-94935527D01*
X108343155Y-95122423D01*
X108345452Y-95162256D01*
X108346589Y-95167302D01*
X108346590Y-95167308D01*
X108368498Y-95264519D01*
X108396516Y-95388843D01*
X108483902Y-95604047D01*
X108605262Y-95802090D01*
X108757338Y-95977651D01*
X108936047Y-96126018D01*
X109136587Y-96243204D01*
X109141412Y-96245046D01*
X109141413Y-96245047D01*
X109170876Y-96256298D01*
X109353574Y-96326064D01*
X109358640Y-96327095D01*
X109358641Y-96327095D01*
X109382377Y-96331924D01*
X109581181Y-96372371D01*
X109712296Y-96377179D01*
X109808131Y-96380693D01*
X109808135Y-96380693D01*
X109813295Y-96380882D01*
X109818415Y-96380226D01*
X109818417Y-96380226D01*
X109889180Y-96371161D01*
X110043682Y-96351369D01*
X110048630Y-96349884D01*
X110048637Y-96349883D01*
X110177588Y-96311195D01*
X110266155Y-96284624D01*
X110299466Y-96268305D01*
X110369440Y-96256298D01*
X110434798Y-96284028D01*
X110474787Y-96342691D01*
X110476714Y-96413661D01*
X110457152Y-96455078D01*
X109454033Y-97848299D01*
X108976008Y-98512222D01*
X108965606Y-98524852D01*
X108949385Y-98542125D01*
X108949382Y-98542129D01*
X108943960Y-98547903D01*
X108923874Y-98584438D01*
X108923255Y-98585490D01*
X108922608Y-98586389D01*
X108903839Y-98620881D01*
X108903578Y-98621356D01*
X108868515Y-98685134D01*
X108868512Y-98685141D01*
X108864842Y-98691817D01*
X108864489Y-98693192D01*
X108863812Y-98694436D01*
X108844107Y-98772575D01*
X108824000Y-98850886D01*
X108824000Y-98852307D01*
X108823654Y-98853679D01*
X108823687Y-98861298D01*
X108823999Y-98934045D01*
X108824000Y-98934586D01*
X108824000Y-101653650D01*
X108821768Y-101677258D01*
X108820127Y-101685862D01*
X108823751Y-101743463D01*
X108824000Y-101751375D01*
X108824000Y-101767894D01*
X108824496Y-101771820D01*
X108826070Y-101784280D01*
X108826814Y-101792155D01*
X108830439Y-101849766D01*
X108833146Y-101858096D01*
X108838318Y-101881233D01*
X108839417Y-101889933D01*
X108842334Y-101897299D01*
X108842335Y-101897305D01*
X108860670Y-101943612D01*
X108863351Y-101951060D01*
X108881188Y-102005956D01*
X108885883Y-102013354D01*
X108896649Y-102034484D01*
X108899874Y-102042629D01*
X108904532Y-102049040D01*
X108904533Y-102049042D01*
X108933805Y-102089331D01*
X108938254Y-102095878D01*
X108969186Y-102144619D01*
X108974966Y-102150047D01*
X108975575Y-102150619D01*
X108991254Y-102168404D01*
X108991742Y-102169076D01*
X108991748Y-102169082D01*
X108996405Y-102175492D01*
X109002513Y-102180545D01*
X109040882Y-102212287D01*
X109046818Y-102217520D01*
X109083127Y-102251616D01*
X109088903Y-102257040D01*
X109095846Y-102260857D01*
X109095847Y-102260858D01*
X109096584Y-102261263D01*
X109116190Y-102274588D01*
X109116835Y-102275122D01*
X109116842Y-102275126D01*
X109122945Y-102280175D01*
X109175200Y-102304764D01*
X109182213Y-102308338D01*
X109232817Y-102336158D01*
X109240493Y-102338129D01*
X109240496Y-102338130D01*
X109241306Y-102338338D01*
X109263622Y-102346373D01*
X109271543Y-102350100D01*
X109321426Y-102359615D01*
X109328244Y-102360916D01*
X109335972Y-102362643D01*
X109391886Y-102377000D01*
X109400650Y-102377000D01*
X109424258Y-102379232D01*
X109432862Y-102380873D01*
X109490464Y-102377249D01*
X109498375Y-102377000D01*
X110036884Y-102377000D01*
X110105005Y-102397002D01*
X110136386Y-102425699D01*
X110143017Y-102434235D01*
X110160871Y-102440000D01*
X110984000Y-102440000D01*
X111052121Y-102460002D01*
X111098614Y-102513658D01*
X111110000Y-102566000D01*
X111110000Y-102963357D01*
X111089998Y-103031478D01*
X111036342Y-103077971D01*
X111018200Y-103084627D01*
X111015920Y-103085270D01*
X110981720Y-103090000D01*
X110310529Y-103090000D01*
X110277918Y-103085707D01*
X110274608Y-103084820D01*
X110072977Y-103030793D01*
X109855000Y-103011723D01*
X109637023Y-103030793D01*
X109496745Y-103068380D01*
X109430980Y-103086002D01*
X109430978Y-103086003D01*
X109425670Y-103087425D01*
X109420690Y-103089747D01*
X109420688Y-103089748D01*
X109232343Y-103177575D01*
X109232340Y-103177577D01*
X109227362Y-103179898D01*
X109048123Y-103305402D01*
X109023930Y-103329595D01*
X108961618Y-103363621D01*
X108934835Y-103366500D01*
X107088027Y-103366500D01*
X107019906Y-103346498D01*
X106973413Y-103292842D01*
X106962416Y-103230613D01*
X106964306Y-103206605D01*
X106964307Y-103206577D01*
X106964500Y-103204126D01*
X106964500Y-102527874D01*
X106964308Y-102525428D01*
X106964307Y-102525415D01*
X106958767Y-102455024D01*
X106958767Y-102455022D01*
X106958314Y-102449270D01*
X106929383Y-102341299D01*
X106911036Y-102272828D01*
X106911035Y-102272824D01*
X106909326Y-102266448D01*
X106906331Y-102260569D01*
X106906329Y-102260565D01*
X106847251Y-102144619D01*
X106823399Y-102097806D01*
X106819128Y-102092531D01*
X106813156Y-102085157D01*
X106785830Y-102019629D01*
X106798270Y-101949731D01*
X106804515Y-101938626D01*
X106837335Y-101886610D01*
X106842559Y-101876359D01*
X106918300Y-101686511D01*
X106918624Y-101685417D01*
X106917773Y-101675895D01*
X106902616Y-101671000D01*
X104424515Y-101671000D01*
X104410984Y-101674973D01*
X104410110Y-101681056D01*
X104471921Y-101848602D01*
X104476869Y-101858974D01*
X104525625Y-101940928D01*
X104543264Y-102009698D01*
X104520923Y-102077088D01*
X104515271Y-102084630D01*
X104504601Y-102097806D01*
X104501606Y-102103683D01*
X104501604Y-102103687D01*
X104421671Y-102260565D01*
X104421669Y-102260569D01*
X104418674Y-102266448D01*
X104416965Y-102272824D01*
X104416964Y-102272828D01*
X104398617Y-102341299D01*
X104369686Y-102449270D01*
X104369233Y-102455022D01*
X104369233Y-102455024D01*
X104363693Y-102525415D01*
X104363692Y-102525428D01*
X104363500Y-102527874D01*
X104363500Y-103204126D01*
X104363692Y-103206572D01*
X104363693Y-103206585D01*
X104369233Y-103276976D01*
X104369686Y-103282730D01*
X104371181Y-103288309D01*
X104398235Y-103389273D01*
X104418674Y-103465552D01*
X104421669Y-103471431D01*
X104421671Y-103471435D01*
X104462150Y-103550878D01*
X104504601Y-103634194D01*
X104508754Y-103639323D01*
X104508755Y-103639324D01*
X104540040Y-103677957D01*
X104567366Y-103743484D01*
X104556315Y-103810502D01*
X104484425Y-103964670D01*
X104427793Y-104176023D01*
X104427314Y-104181502D01*
X104414467Y-104328346D01*
X104388604Y-104394465D01*
X104378041Y-104406460D01*
X103803906Y-104980595D01*
X103741594Y-105014621D01*
X103714811Y-105017500D01*
X98723189Y-105017500D01*
X98655068Y-104997498D01*
X98634094Y-104980595D01*
X96949405Y-103295906D01*
X96915379Y-103233594D01*
X96912500Y-103206811D01*
X96912500Y-101600000D01*
X98074671Y-101600000D01*
X98074941Y-101604119D01*
X98093675Y-101889933D01*
X98093966Y-101894380D01*
X98094770Y-101898420D01*
X98094770Y-101898423D01*
X98148606Y-102169076D01*
X98151519Y-102183722D01*
X98152845Y-102187628D01*
X98152846Y-102187632D01*
X98217213Y-102377249D01*
X98246348Y-102463077D01*
X98376828Y-102727664D01*
X98540727Y-102972957D01*
X98543441Y-102976051D01*
X98543445Y-102976057D01*
X98639223Y-103085270D01*
X98735242Y-103194758D01*
X98738331Y-103197467D01*
X98953943Y-103386555D01*
X98953949Y-103386559D01*
X98957043Y-103389273D01*
X98960469Y-103391562D01*
X98960474Y-103391566D01*
X99080007Y-103471435D01*
X99202335Y-103553172D01*
X99206034Y-103554996D01*
X99206039Y-103554999D01*
X99463228Y-103681830D01*
X99466923Y-103683652D01*
X99470821Y-103684975D01*
X99470823Y-103684976D01*
X99742368Y-103777154D01*
X99742372Y-103777155D01*
X99746278Y-103778481D01*
X99750322Y-103779285D01*
X99750328Y-103779287D01*
X100031577Y-103835230D01*
X100031580Y-103835230D01*
X100035620Y-103836034D01*
X100039731Y-103836303D01*
X100039735Y-103836304D01*
X100325881Y-103855059D01*
X100330000Y-103855329D01*
X100334119Y-103855059D01*
X100620265Y-103836304D01*
X100620269Y-103836303D01*
X100624380Y-103836034D01*
X100628420Y-103835230D01*
X100628423Y-103835230D01*
X100909672Y-103779287D01*
X100909678Y-103779285D01*
X100913722Y-103778481D01*
X100917628Y-103777155D01*
X100917632Y-103777154D01*
X101189177Y-103684976D01*
X101189179Y-103684975D01*
X101193077Y-103683652D01*
X101196772Y-103681830D01*
X101453961Y-103554999D01*
X101453966Y-103554996D01*
X101457665Y-103553172D01*
X101579993Y-103471435D01*
X101699526Y-103391566D01*
X101699531Y-103391562D01*
X101702957Y-103389273D01*
X101706051Y-103386559D01*
X101706057Y-103386555D01*
X101921669Y-103197467D01*
X101924758Y-103194758D01*
X102020777Y-103085270D01*
X102116555Y-102976057D01*
X102116559Y-102976051D01*
X102119273Y-102972957D01*
X102283172Y-102727664D01*
X102413652Y-102463077D01*
X102442787Y-102377249D01*
X102507154Y-102187632D01*
X102507155Y-102187628D01*
X102508481Y-102183722D01*
X102511395Y-102169076D01*
X102565230Y-101898423D01*
X102565230Y-101898420D01*
X102566034Y-101894380D01*
X102566326Y-101889933D01*
X102585059Y-101604119D01*
X102585329Y-101600000D01*
X102574225Y-101430590D01*
X102566304Y-101309735D01*
X102566303Y-101309731D01*
X102566034Y-101305620D01*
X102560641Y-101278508D01*
X102509287Y-101020328D01*
X102509285Y-101020322D01*
X102508481Y-101016278D01*
X102506671Y-101010944D01*
X102414976Y-100740823D01*
X102414975Y-100740821D01*
X102413652Y-100736923D01*
X102411830Y-100733228D01*
X102284999Y-100476040D01*
X102284996Y-100476035D01*
X102283172Y-100472336D01*
X102119273Y-100227043D01*
X102116559Y-100223949D01*
X102116555Y-100223943D01*
X101927467Y-100008331D01*
X101924758Y-100005242D01*
X101799540Y-99895428D01*
X101706057Y-99813445D01*
X101706051Y-99813441D01*
X101702957Y-99810727D01*
X101699527Y-99808435D01*
X101699526Y-99808434D01*
X101461098Y-99649122D01*
X101457665Y-99646828D01*
X101453966Y-99645004D01*
X101453961Y-99645001D01*
X101196772Y-99518170D01*
X101196770Y-99518169D01*
X101193077Y-99516348D01*
X101189177Y-99515024D01*
X100917632Y-99422846D01*
X100917628Y-99422845D01*
X100913722Y-99421519D01*
X100909678Y-99420715D01*
X100909672Y-99420713D01*
X100628423Y-99364770D01*
X100628420Y-99364770D01*
X100624380Y-99363966D01*
X100620269Y-99363697D01*
X100620265Y-99363696D01*
X100334119Y-99344941D01*
X100330000Y-99344671D01*
X100325881Y-99344941D01*
X100039735Y-99363696D01*
X100039731Y-99363697D01*
X100035620Y-99363966D01*
X100031580Y-99364770D01*
X100031577Y-99364770D01*
X99750328Y-99420713D01*
X99750322Y-99420715D01*
X99746278Y-99421519D01*
X99742372Y-99422845D01*
X99742368Y-99422846D01*
X99470823Y-99515024D01*
X99466923Y-99516348D01*
X99463230Y-99518169D01*
X99463228Y-99518170D01*
X99206040Y-99645001D01*
X99206035Y-99645004D01*
X99202336Y-99646828D01*
X98957043Y-99810727D01*
X98953949Y-99813441D01*
X98953943Y-99813445D01*
X98860460Y-99895428D01*
X98735242Y-100005242D01*
X98732533Y-100008331D01*
X98543445Y-100223943D01*
X98543441Y-100223949D01*
X98540727Y-100227043D01*
X98376828Y-100472336D01*
X98375004Y-100476035D01*
X98375001Y-100476040D01*
X98248170Y-100733228D01*
X98246348Y-100736923D01*
X98245025Y-100740821D01*
X98245024Y-100740823D01*
X98153330Y-101010944D01*
X98151519Y-101016278D01*
X98150715Y-101020322D01*
X98150713Y-101020328D01*
X98099359Y-101278508D01*
X98093966Y-101305620D01*
X98093697Y-101309731D01*
X98093696Y-101309735D01*
X98085775Y-101430590D01*
X98074671Y-101600000D01*
X96912500Y-101600000D01*
X96912500Y-98469189D01*
X96932502Y-98401068D01*
X96949405Y-98380094D01*
X98115621Y-97213878D01*
X98130649Y-97201041D01*
X98141871Y-97192888D01*
X98187229Y-97142513D01*
X98191770Y-97137729D01*
X98206119Y-97123380D01*
X98218901Y-97107596D01*
X98223185Y-97102580D01*
X98264112Y-97057126D01*
X98268533Y-97052216D01*
X98275466Y-97040209D01*
X98286661Y-97023920D01*
X98291229Y-97018279D01*
X98291229Y-97018278D01*
X98295383Y-97013149D01*
X98298381Y-97007266D01*
X98326151Y-96952766D01*
X98329297Y-96946971D01*
X98359879Y-96894000D01*
X98359879Y-96893999D01*
X98363179Y-96888284D01*
X98367464Y-96875097D01*
X98375027Y-96856840D01*
X98378323Y-96850371D01*
X98378324Y-96850367D01*
X98381320Y-96844488D01*
X98398862Y-96779020D01*
X98400729Y-96772719D01*
X98421674Y-96708256D01*
X98423123Y-96694467D01*
X98426726Y-96675029D01*
X98427146Y-96673460D01*
X98430312Y-96661646D01*
X98430858Y-96651234D01*
X98433858Y-96593989D01*
X98434375Y-96587415D01*
X98436156Y-96570466D01*
X98436156Y-96570464D01*
X98436500Y-96567192D01*
X98436500Y-96546867D01*
X98436673Y-96540273D01*
X98439874Y-96479204D01*
X98439874Y-96479199D01*
X98440219Y-96472612D01*
X98438051Y-96458923D01*
X98436500Y-96439213D01*
X98436500Y-93991358D01*
X98456502Y-93923237D01*
X98510158Y-93876744D01*
X98555907Y-93865531D01*
X98572281Y-93864673D01*
X98578874Y-93864500D01*
X98599192Y-93864500D01*
X98602459Y-93864157D01*
X98602470Y-93864156D01*
X98619400Y-93862376D01*
X98625966Y-93861859D01*
X98655627Y-93860305D01*
X98687052Y-93858659D01*
X98687057Y-93858658D01*
X98693646Y-93858313D01*
X98707037Y-93854725D01*
X98726479Y-93851122D01*
X98733693Y-93850364D01*
X98733695Y-93850364D01*
X98740256Y-93849674D01*
X98746533Y-93847634D01*
X98746535Y-93847634D01*
X98804701Y-93828735D01*
X98811025Y-93826862D01*
X98870109Y-93811030D01*
X98870115Y-93811028D01*
X98876488Y-93809320D01*
X98882367Y-93806324D01*
X98882371Y-93806323D01*
X98888840Y-93803027D01*
X98907097Y-93795464D01*
X98908453Y-93795023D01*
X98920284Y-93791179D01*
X98968630Y-93763267D01*
X98978971Y-93757297D01*
X98984766Y-93754151D01*
X99039266Y-93726381D01*
X99039269Y-93726379D01*
X99045149Y-93723383D01*
X99055920Y-93714661D01*
X99072209Y-93703466D01*
X99084216Y-93696533D01*
X99089126Y-93692112D01*
X99134580Y-93651185D01*
X99139596Y-93646901D01*
X99152816Y-93636195D01*
X99155380Y-93634119D01*
X99169729Y-93619770D01*
X99174513Y-93615229D01*
X99219985Y-93574286D01*
X99219986Y-93574284D01*
X99224888Y-93569871D01*
X99233041Y-93558649D01*
X99245878Y-93543621D01*
X101341290Y-91448209D01*
X101393336Y-91416874D01*
X101521458Y-91377459D01*
X101599400Y-91353481D01*
X101663185Y-91320559D01*
X101792774Y-91253672D01*
X101797759Y-91251099D01*
X101802201Y-91247690D01*
X101802205Y-91247688D01*
X101970410Y-91118620D01*
X101974854Y-91115210D01*
X101978620Y-91111071D01*
X101978630Y-91111062D01*
X102004307Y-91082843D01*
X102064947Y-91045921D01*
X102135923Y-91047644D01*
X102194700Y-91087467D01*
X102222616Y-91152745D01*
X102223500Y-91167643D01*
X102223500Y-97278963D01*
X102211694Y-97332214D01*
X102198425Y-97360670D01*
X102141793Y-97572023D01*
X102122723Y-97790000D01*
X102141793Y-98007977D01*
X102143217Y-98013290D01*
X102186241Y-98173857D01*
X102198425Y-98219330D01*
X102200747Y-98224310D01*
X102200748Y-98224312D01*
X102274385Y-98382225D01*
X102290898Y-98417638D01*
X102416402Y-98596877D01*
X102450019Y-98630494D01*
X102483600Y-98691992D01*
X102483687Y-98693646D01*
X102486792Y-98705232D01*
X102487274Y-98707031D01*
X102490878Y-98726479D01*
X102492326Y-98740256D01*
X102494366Y-98746533D01*
X102494366Y-98746535D01*
X102513265Y-98804701D01*
X102515138Y-98811025D01*
X102530970Y-98870109D01*
X102530972Y-98870115D01*
X102532680Y-98876488D01*
X102535676Y-98882367D01*
X102535677Y-98882371D01*
X102538973Y-98888840D01*
X102546536Y-98907097D01*
X102550821Y-98920284D01*
X102554121Y-98925999D01*
X102554121Y-98926000D01*
X102584703Y-98978971D01*
X102587849Y-98984766D01*
X102605037Y-99018498D01*
X102618617Y-99045149D01*
X102622771Y-99050278D01*
X102622771Y-99050279D01*
X102627339Y-99055920D01*
X102638534Y-99072209D01*
X102645467Y-99084216D01*
X102649888Y-99089126D01*
X102690815Y-99134580D01*
X102695099Y-99139596D01*
X102701842Y-99147922D01*
X102707881Y-99155380D01*
X102722230Y-99169729D01*
X102726771Y-99174513D01*
X102772129Y-99224888D01*
X102783351Y-99233041D01*
X102798379Y-99245878D01*
X103998125Y-100445624D01*
X104010968Y-100460661D01*
X104019112Y-100471871D01*
X104024022Y-100476292D01*
X104069477Y-100517220D01*
X104074261Y-100521761D01*
X104088620Y-100536120D01*
X104091180Y-100538193D01*
X104091181Y-100538194D01*
X104104411Y-100548908D01*
X104109421Y-100553188D01*
X104154874Y-100594113D01*
X104154879Y-100594117D01*
X104159784Y-100598533D01*
X104165500Y-100601833D01*
X104171786Y-100605462D01*
X104188083Y-100616663D01*
X104198851Y-100625383D01*
X104204731Y-100628379D01*
X104204734Y-100628381D01*
X104259237Y-100656151D01*
X104265031Y-100659297D01*
X104323716Y-100693179D01*
X104330001Y-100695221D01*
X104330005Y-100695223D01*
X104336906Y-100697466D01*
X104355163Y-100705028D01*
X104361036Y-100708020D01*
X104367513Y-100711320D01*
X104374695Y-100713244D01*
X104375108Y-100713497D01*
X104380054Y-100715395D01*
X104379707Y-100716300D01*
X104435316Y-100750196D01*
X104466337Y-100814057D01*
X104459111Y-100881641D01*
X104409699Y-101005493D01*
X104409376Y-101006583D01*
X104410227Y-101016105D01*
X104425384Y-101021000D01*
X105288333Y-101021000D01*
X105303143Y-101021873D01*
X105465283Y-101041064D01*
X105465289Y-101041064D01*
X105468970Y-101041500D01*
X105843807Y-101041500D01*
X106004136Y-101026768D01*
X106009700Y-101025199D01*
X106015375Y-101024147D01*
X106015472Y-101024671D01*
X106042014Y-101021000D01*
X106903485Y-101021000D01*
X106917016Y-101017027D01*
X106917890Y-101010944D01*
X106856079Y-100843398D01*
X106851129Y-100833020D01*
X106753630Y-100669138D01*
X106735990Y-100600367D01*
X106755352Y-100537482D01*
X106840865Y-100401952D01*
X106920921Y-100201290D01*
X106930594Y-100152663D01*
X106963500Y-100089755D01*
X107025195Y-100054622D01*
X107043186Y-100051725D01*
X107151977Y-100042207D01*
X107300042Y-100002533D01*
X107358020Y-99986998D01*
X107358022Y-99986997D01*
X107363330Y-99985575D01*
X107368312Y-99983252D01*
X107556652Y-99895428D01*
X107556657Y-99895425D01*
X107561639Y-99893102D01*
X107682556Y-99808435D01*
X107736366Y-99770757D01*
X107736369Y-99770755D01*
X107740877Y-99767598D01*
X107895598Y-99612877D01*
X108021102Y-99433638D01*
X108026135Y-99422846D01*
X108111252Y-99240312D01*
X108111253Y-99240310D01*
X108113575Y-99235330D01*
X108170207Y-99023977D01*
X108189277Y-98806000D01*
X108170207Y-98588023D01*
X108128683Y-98433052D01*
X108114998Y-98381980D01*
X108114997Y-98381978D01*
X108113575Y-98376670D01*
X108100425Y-98348470D01*
X108023425Y-98183343D01*
X108023423Y-98183340D01*
X108021102Y-98178362D01*
X107895598Y-97999123D01*
X107740877Y-97844402D01*
X107736369Y-97841245D01*
X107736366Y-97841243D01*
X107566148Y-97722055D01*
X107566146Y-97722054D01*
X107561639Y-97718898D01*
X107556657Y-97716575D01*
X107556652Y-97716572D01*
X107399250Y-97643175D01*
X107345965Y-97596258D01*
X107326500Y-97528980D01*
X107326500Y-92881189D01*
X107346502Y-92813068D01*
X107363405Y-92792094D01*
X107704621Y-92450878D01*
X107719649Y-92438041D01*
X107730871Y-92429888D01*
X107776229Y-92379513D01*
X107780770Y-92374729D01*
X107795119Y-92360380D01*
X107807901Y-92344596D01*
X107812185Y-92339580D01*
X107853112Y-92294126D01*
X107857533Y-92289216D01*
X107864466Y-92277209D01*
X107875661Y-92260920D01*
X107880229Y-92255279D01*
X107880229Y-92255278D01*
X107884383Y-92250149D01*
X107887381Y-92244266D01*
X107915151Y-92189766D01*
X107918297Y-92183971D01*
X107948879Y-92131000D01*
X107948879Y-92130999D01*
X107952179Y-92125284D01*
X107956464Y-92112097D01*
X107964027Y-92093840D01*
X107967323Y-92087371D01*
X107967324Y-92087367D01*
X107970320Y-92081488D01*
X107987862Y-92016020D01*
X107989729Y-92009719D01*
X108010674Y-91945256D01*
X108012123Y-91931467D01*
X108015726Y-91912029D01*
X108016146Y-91910460D01*
X108019312Y-91898646D01*
X108019658Y-91892045D01*
X108022858Y-91830989D01*
X108023375Y-91824415D01*
X108025156Y-91807466D01*
X108025156Y-91807464D01*
X108025500Y-91804192D01*
X108025500Y-91783867D01*
X108025673Y-91777273D01*
X108028874Y-91716204D01*
X108028874Y-91716199D01*
X108029219Y-91709612D01*
X108027051Y-91695923D01*
X108025500Y-91676213D01*
X108025500Y-91108297D01*
X108045502Y-91040176D01*
X108058306Y-91023498D01*
X108121313Y-90954254D01*
X108121315Y-90954251D01*
X108125086Y-90950107D01*
X108130194Y-90941965D01*
X108240722Y-90765768D01*
X108243707Y-90761010D01*
X108326966Y-90553895D01*
X108372233Y-90335310D01*
X108375500Y-90278651D01*
X108375500Y-89584370D01*
X108372732Y-89553349D01*
X108361210Y-89424256D01*
X108360711Y-89418661D01*
X108301808Y-89203349D01*
X108297114Y-89193506D01*
X108238528Y-89070680D01*
X108205708Y-89001871D01*
X108075448Y-88820595D01*
X107964811Y-88713380D01*
X107919174Y-88669154D01*
X107919171Y-88669152D01*
X107915146Y-88665251D01*
X107729868Y-88540750D01*
X107709063Y-88531617D01*
X107586801Y-88477948D01*
X107525471Y-88451026D01*
X107520023Y-88449718D01*
X107520017Y-88449716D01*
X107313872Y-88400225D01*
X107313871Y-88400225D01*
X107308415Y-88398915D01*
X107224197Y-88394059D01*
X107091169Y-88386389D01*
X107091166Y-88386389D01*
X107085562Y-88386066D01*
X106863956Y-88412883D01*
X106650600Y-88478519D01*
X106452241Y-88580901D01*
X106447799Y-88584310D01*
X106447795Y-88584312D01*
X106318050Y-88683869D01*
X106275146Y-88716790D01*
X106271375Y-88720935D01*
X106271371Y-88720938D01*
X106218545Y-88778993D01*
X106157905Y-88815916D01*
X106086929Y-88814193D01*
X106037666Y-88784678D01*
X105918858Y-88669544D01*
X105910176Y-88662514D01*
X105734279Y-88544316D01*
X105724490Y-88538935D01*
X105530447Y-88453755D01*
X105519859Y-88450192D01*
X105467617Y-88437650D01*
X105453531Y-88438355D01*
X105450000Y-88447235D01*
X105450000Y-91380804D01*
X105453973Y-91394335D01*
X105461421Y-91395406D01*
X105593848Y-91354665D01*
X105604193Y-91350444D01*
X105792507Y-91253247D01*
X105801938Y-91247262D01*
X105970071Y-91118250D01*
X105978287Y-91110694D01*
X106005306Y-91081001D01*
X106065946Y-91044078D01*
X106136922Y-91045801D01*
X106195699Y-91085623D01*
X106223616Y-91150901D01*
X106224500Y-91165800D01*
X106224500Y-91331811D01*
X106204498Y-91399932D01*
X106187595Y-91420906D01*
X105846379Y-91762122D01*
X105831351Y-91774959D01*
X105820129Y-91783112D01*
X105815716Y-91788014D01*
X105815714Y-91788015D01*
X105774771Y-91833487D01*
X105770230Y-91838271D01*
X105755881Y-91852620D01*
X105753805Y-91855184D01*
X105743099Y-91868404D01*
X105738815Y-91873420D01*
X105710354Y-91905029D01*
X105693467Y-91923784D01*
X105686534Y-91935791D01*
X105675339Y-91952080D01*
X105666617Y-91962851D01*
X105663621Y-91968731D01*
X105663619Y-91968734D01*
X105635849Y-92023234D01*
X105632703Y-92029029D01*
X105602417Y-92081488D01*
X105598821Y-92087716D01*
X105594977Y-92099547D01*
X105594536Y-92100903D01*
X105586973Y-92119160D01*
X105580680Y-92131512D01*
X105578972Y-92137885D01*
X105578970Y-92137891D01*
X105563138Y-92196975D01*
X105561265Y-92203299D01*
X105546043Y-92250149D01*
X105540326Y-92267744D01*
X105539636Y-92274305D01*
X105539636Y-92274307D01*
X105538878Y-92281521D01*
X105535275Y-92300963D01*
X105531687Y-92314354D01*
X105531342Y-92320943D01*
X105531341Y-92320948D01*
X105530102Y-92344596D01*
X105528524Y-92374729D01*
X105528142Y-92382017D01*
X105527624Y-92388600D01*
X105525844Y-92405530D01*
X105525843Y-92405541D01*
X105525500Y-92408808D01*
X105525500Y-92429126D01*
X105525327Y-92435720D01*
X105522819Y-92483588D01*
X105521781Y-92503388D01*
X105522813Y-92509904D01*
X105523949Y-92517076D01*
X105525500Y-92536787D01*
X105525500Y-98217213D01*
X105523949Y-98236923D01*
X105521781Y-98250612D01*
X105522126Y-98257200D01*
X105522126Y-98257204D01*
X105525327Y-98318280D01*
X105525500Y-98324874D01*
X105525500Y-98345192D01*
X105525843Y-98348459D01*
X105525844Y-98348470D01*
X105527624Y-98365400D01*
X105528141Y-98371966D01*
X105531687Y-98439646D01*
X105535274Y-98453031D01*
X105538878Y-98472479D01*
X105540326Y-98486256D01*
X105542365Y-98492531D01*
X105554407Y-98529592D01*
X105556435Y-98600560D01*
X105519773Y-98661358D01*
X105456061Y-98692683D01*
X105446104Y-98694000D01*
X105425997Y-98695847D01*
X105329618Y-98704703D01*
X105329615Y-98704704D01*
X105323864Y-98705232D01*
X105115934Y-98763875D01*
X105027765Y-98807355D01*
X104957825Y-98819545D01*
X104892395Y-98791986D01*
X104882943Y-98783444D01*
X104544036Y-98444537D01*
X104510010Y-98382225D01*
X104515075Y-98311410D01*
X104518936Y-98302192D01*
X104555252Y-98224312D01*
X104555253Y-98224310D01*
X104557575Y-98219330D01*
X104569760Y-98173857D01*
X104612783Y-98013290D01*
X104614207Y-98007977D01*
X104633277Y-97790000D01*
X104614207Y-97572023D01*
X104557575Y-97360670D01*
X104511814Y-97262536D01*
X104467425Y-97167343D01*
X104467423Y-97167340D01*
X104465102Y-97162362D01*
X104339598Y-96983123D01*
X104184877Y-96828402D01*
X104180369Y-96825245D01*
X104180366Y-96825243D01*
X104078229Y-96753726D01*
X104033901Y-96698269D01*
X104024500Y-96650513D01*
X104024500Y-91162858D01*
X104044502Y-91094737D01*
X104098158Y-91048244D01*
X104168432Y-91038140D01*
X104238185Y-91072374D01*
X104331142Y-91162456D01*
X104339824Y-91169486D01*
X104515721Y-91287684D01*
X104525510Y-91293065D01*
X104719553Y-91378245D01*
X104730141Y-91381808D01*
X104782383Y-91394350D01*
X104796469Y-91393645D01*
X104800000Y-91384765D01*
X104800000Y-88451196D01*
X104796027Y-88437665D01*
X104788579Y-88436594D01*
X104656152Y-88477335D01*
X104645807Y-88481556D01*
X104457493Y-88578753D01*
X104448062Y-88584738D01*
X104279929Y-88713750D01*
X104271712Y-88721306D01*
X104219240Y-88778972D01*
X104158600Y-88815894D01*
X104087624Y-88814171D01*
X104038362Y-88784656D01*
X103919174Y-88669154D01*
X103919171Y-88669152D01*
X103915146Y-88665251D01*
X103729868Y-88540750D01*
X103709063Y-88531617D01*
X103586801Y-88477948D01*
X103525471Y-88451026D01*
X103520023Y-88449718D01*
X103520017Y-88449716D01*
X103313867Y-88400224D01*
X103313868Y-88400224D01*
X103308415Y-88398915D01*
X103306669Y-88398814D01*
X103243306Y-88369584D01*
X103205152Y-88309711D01*
X103205424Y-88238715D01*
X103211988Y-88221426D01*
X103285252Y-88064312D01*
X103285253Y-88064310D01*
X103287575Y-88059330D01*
X103295322Y-88030420D01*
X103342783Y-87853290D01*
X103344207Y-87847977D01*
X103363277Y-87630000D01*
X103344207Y-87412023D01*
X103287575Y-87200670D01*
X103285254Y-87195693D01*
X103285252Y-87195687D01*
X103282249Y-87189248D01*
X103271589Y-87119056D01*
X103300570Y-87054244D01*
X103359991Y-87015389D01*
X103396445Y-87010000D01*
X109168896Y-87010000D01*
X109185342Y-87011078D01*
G37*
G04 #@! TD.AperFunction*
G04 #@! TD*
M02*
