M48
; DRILL file {KiCad 5.99.0-unknown-bf85ddd577~142~ubuntu20.04.1} date Thu 11 Nov 2021 05:07:11 PM
; FORMAT={-:-/ absolute / metric / decimal}
; #@! TF.CreationDate,2021-11-11T17:07:11-05:00
; #@! TF.GenerationSoftware,Kicad,Pcbnew,5.99.0-unknown-bf85ddd577~142~ubuntu20.04.1
; #@! TF.FileFunction,MixedPlating,1,2
FMAT,2
METRIC
; #@! TA.AperFunction,Plated,PTH,ViaDrill
T1C0.700
; #@! TA.AperFunction,Plated,PTH,ComponentDrill
T2C0.700
; #@! TA.AperFunction,Plated,PTH,ComponentDrill
T3C0.750
; #@! TA.AperFunction,NonPlated,NPTH,ComponentDrill
T4C1.400
; #@! TA.AperFunction,NonPlated,NPTH,ComponentDrill
T5C3.200
%
G90
G05
T1
X96.266Y-95.25
X100.584Y-92.964
X102.108Y-97.028
X104.648Y-98.806
X106.934Y-98.806
X108.458Y-105.664
X108.585Y-96.901
X108.712Y-102.743
X109.855Y-104.267
T2
X111.749Y-102.765
X111.749Y-104.215
X111.749Y-105.665
T3
X99.125Y-89.916
X101.125Y-89.916
X103.125Y-89.916
X105.125Y-89.916
X105.664Y-99.866
X105.664Y-101.346
X105.664Y-102.866
X107.125Y-89.916
T4
X109.749Y-94.965
X109.749Y-106.965
X124.989Y-94.965
X124.989Y-106.965
T5
X98.552Y-101.6
T0
M30
