G04 #@! TF.GenerationSoftware,KiCad,Pcbnew,5.99.0-unknown-bf85ddd577~142~ubuntu20.04.1*
G04 #@! TF.CreationDate,2021-11-07T09:16:22-05:00*
G04 #@! TF.ProjectId,microTouch,6d696372-6f54-46f7-9563-682e6b696361,rev?*
G04 #@! TF.SameCoordinates,Original*
G04 #@! TF.FileFunction,Copper,L1,Top*
G04 #@! TF.FilePolarity,Positive*
%FSLAX46Y46*%
G04 Gerber Fmt 4.6, Leading zero omitted, Abs format (unit mm)*
G04 Created by KiCad (PCBNEW 5.99.0-unknown-bf85ddd577~142~ubuntu20.04.1) date 2021-11-07 09:16:22*
%MOMM*%
%LPD*%
G01*
G04 APERTURE LIST*
G04 Aperture macros list*
%AMRoundRect*
0 Rectangle with rounded corners*
0 $1 Rounding radius*
0 $2 $3 $4 $5 $6 $7 $8 $9 X,Y pos of 4 corners*
0 Add a 4 corners polygon primitive as box body*
4,1,4,$2,$3,$4,$5,$6,$7,$8,$9,$2,$3,0*
0 Add four circle primitives for the rounded corners*
1,1,$1+$1,$2,$3*
1,1,$1+$1,$4,$5*
1,1,$1+$1,$6,$7*
1,1,$1+$1,$8,$9*
0 Add four rect primitives between the rounded corners*
20,1,$1+$1,$2,$3,$4,$5,0*
20,1,$1+$1,$4,$5,$6,$7,0*
20,1,$1+$1,$6,$7,$8,$9,0*
20,1,$1+$1,$8,$9,$2,$3,0*%
G04 Aperture macros list end*
G04 #@! TA.AperFunction,SMDPad,CuDef*
%ADD10RoundRect,0.250000X-0.450000X0.350000X-0.450000X-0.350000X0.450000X-0.350000X0.450000X0.350000X0*%
G04 #@! TD*
G04 #@! TA.AperFunction,SMDPad,CuDef*
%ADD11RoundRect,0.250000X0.450000X-0.325000X0.450000X0.325000X-0.450000X0.325000X-0.450000X-0.325000X0*%
G04 #@! TD*
G04 #@! TA.AperFunction,WasherPad*
%ADD12C,1.524000*%
G04 #@! TD*
G04 #@! TA.AperFunction,ComponentPad*
%ADD13O,2.000000X1.000000*%
G04 #@! TD*
G04 #@! TA.AperFunction,ComponentPad*
%ADD14RoundRect,0.250000X0.350000X0.625000X-0.350000X0.625000X-0.350000X-0.625000X0.350000X-0.625000X0*%
G04 #@! TD*
G04 #@! TA.AperFunction,ComponentPad*
%ADD15O,1.200000X1.750000*%
G04 #@! TD*
G04 #@! TA.AperFunction,ComponentPad*
%ADD16O,1.524000X2.000000*%
G04 #@! TD*
G04 #@! TA.AperFunction,ViaPad*
%ADD17C,1.200000*%
G04 #@! TD*
G04 #@! TA.AperFunction,Conductor*
%ADD18C,0.500000*%
G04 #@! TD*
G04 APERTURE END LIST*
D10*
G04 #@! TO.P,R3,1*
G04 #@! TO.N,Net-(D1-Pad1)*
X106553000Y-98163500D03*
G04 #@! TO.P,R3,2*
G04 #@! TO.N,GND*
X106553000Y-100163500D03*
G04 #@! TD*
G04 #@! TO.P,R2,1*
G04 #@! TO.N,/SIG*
X106553000Y-102505000D03*
G04 #@! TO.P,R2,2*
G04 #@! TO.N,/VCC*
X106553000Y-104505000D03*
G04 #@! TD*
G04 #@! TO.P,R1,1*
G04 #@! TO.N,/VCC*
X106553000Y-106799500D03*
G04 #@! TO.P,R1,2*
G04 #@! TO.N,Net-(R1-Pad2)*
X106553000Y-108799500D03*
G04 #@! TD*
D11*
G04 #@! TO.P,D1,1,K*
G04 #@! TO.N,Net-(D1-Pad1)*
X106553000Y-96021000D03*
G04 #@! TO.P,D1,2,A*
G04 #@! TO.N,/SIG*
X106553000Y-93971000D03*
G04 #@! TD*
D12*
G04 #@! TO.P,J1,*
G04 #@! TO.N,*
X109749000Y-107219000D03*
X124989000Y-107219000D03*
X124989000Y-95219000D03*
X109749000Y-95219000D03*
D13*
G04 #@! TO.P,J1,1,Pin_1*
G04 #@! TO.N,/SERVO*
X111749000Y-105919000D03*
G04 #@! TO.P,J1,2,Pin_2*
G04 #@! TO.N,/VCC*
X111749000Y-104469000D03*
G04 #@! TO.P,J1,3,Pin_3*
G04 #@! TO.N,GND*
X111749000Y-103019000D03*
G04 #@! TD*
D14*
G04 #@! TO.P,J2,1,Pin_1*
G04 #@! TO.N,/VCC*
X114252000Y-90085000D03*
D15*
G04 #@! TO.P,J2,2,Pin_2*
G04 #@! TO.N,/SIG*
X112252000Y-90085000D03*
G04 #@! TO.P,J2,3,Pin_3*
G04 #@! TO.N,GND*
X110252000Y-90085000D03*
G04 #@! TO.P,J2,4,Pin_4*
G04 #@! TO.N,/SERVO*
X108252000Y-90085000D03*
G04 #@! TD*
D16*
G04 #@! TO.P,U1,4,E*
G04 #@! TO.N,GND*
X103358000Y-95866000D03*
G04 #@! TO.P,U1,3,C*
G04 #@! TO.N,/SIG*
X100818000Y-95866000D03*
G04 #@! TO.P,U1,2,A*
G04 #@! TO.N,Net-(R1-Pad2)*
X100818000Y-106826000D03*
G04 #@! TO.P,U1,1,K*
G04 #@! TO.N,GND*
X103358000Y-106826000D03*
G04 #@! TD*
D17*
G04 #@! TO.N,Net-(R1-Pad2)*
X100838000Y-108331000D03*
G04 #@! TO.N,GND*
X110236000Y-88773000D03*
X104648000Y-104394000D03*
X109347000Y-102997000D03*
X103378000Y-98044000D03*
G04 #@! TO.N,/VCC*
X114300000Y-91694000D03*
G04 #@! TO.N,/SIG*
X112268000Y-91694000D03*
G04 #@! TO.N,/SERVO*
X108204000Y-105791000D03*
G04 #@! TO.N,/SIG*
X100838000Y-97282000D03*
G04 #@! TD*
D18*
G04 #@! TO.N,Net-(R1-Pad2)*
X100838000Y-108331000D02*
X101219000Y-108712000D01*
X101219000Y-108712000D02*
X106553000Y-108712000D01*
G04 #@! TO.N,/SIG*
X100838000Y-97282000D02*
X100838000Y-100457000D01*
X100838000Y-100457000D02*
X102973500Y-102592500D01*
X102973500Y-102592500D02*
X106553000Y-102592500D01*
X100818000Y-96266000D02*
X100818000Y-94889000D01*
X100818000Y-94889000D02*
X101586000Y-94121000D01*
X101586000Y-94121000D02*
X106553000Y-94121000D01*
X108458000Y-91948000D02*
X112014000Y-91948000D01*
X112014000Y-91948000D02*
X112268000Y-91694000D01*
X106553000Y-94121000D02*
X106553000Y-93853000D01*
X106553000Y-93853000D02*
X108458000Y-91948000D01*
G04 #@! TO.N,/SERVO*
X108204000Y-105791000D02*
X108331000Y-105664000D01*
X108331000Y-105664000D02*
X111494000Y-105664000D01*
X111494000Y-105664000D02*
X111749000Y-105919000D01*
G04 #@! TO.N,/VCC*
X114300000Y-91694000D02*
X113030000Y-92964000D01*
X113030000Y-92964000D02*
X108966000Y-92964000D01*
X107950000Y-104394000D02*
X107875000Y-104469000D01*
X108966000Y-92964000D02*
X107950000Y-93980000D01*
X107950000Y-93980000D02*
X107950000Y-104394000D01*
X111749000Y-104469000D02*
X106501500Y-104469000D01*
X106501500Y-104469000D02*
X106553000Y-104520500D01*
X106553000Y-104520500D02*
X106553000Y-106887000D01*
G04 #@! TO.N,Net-(D1-Pad1)*
X106553000Y-98251000D02*
X106553000Y-95871000D01*
G04 #@! TD*
G04 #@! TA.AperFunction,Conductor*
G04 #@! TO.N,GND*
G36*
X116415317Y-87011078D02*
G01*
X116435587Y-87013747D01*
X116435591Y-87013747D01*
X116443118Y-87014738D01*
X116453852Y-87013553D01*
X116481782Y-87013584D01*
X116539815Y-87020123D01*
X116573833Y-87023956D01*
X116601335Y-87030233D01*
X116705587Y-87066712D01*
X116731001Y-87078951D01*
X116815430Y-87132001D01*
X116824519Y-87137712D01*
X116846578Y-87155304D01*
X116924670Y-87233396D01*
X116942262Y-87255455D01*
X117001022Y-87348971D01*
X117013262Y-87374387D01*
X117049740Y-87478635D01*
X117056018Y-87506140D01*
X117065650Y-87591620D01*
X117065493Y-87608004D01*
X117066307Y-87608013D01*
X117066228Y-87615611D01*
X117065236Y-87623142D01*
X117066070Y-87630692D01*
X117069213Y-87659165D01*
X117069974Y-87672992D01*
X117069974Y-92019832D01*
X117068717Y-92037586D01*
X117065344Y-92061286D01*
X117065200Y-92074999D01*
X117065696Y-92079095D01*
X117065696Y-92079099D01*
X117066211Y-92083350D01*
X117066854Y-92090251D01*
X117081693Y-92316657D01*
X117082315Y-92326148D01*
X117083117Y-92330181D01*
X117083118Y-92330187D01*
X117130611Y-92568949D01*
X117131417Y-92572999D01*
X117132744Y-92576908D01*
X117132745Y-92576912D01*
X117177446Y-92708596D01*
X117212319Y-92811329D01*
X117214143Y-92815027D01*
X117310724Y-93010874D01*
X117323637Y-93037060D01*
X117463467Y-93246330D01*
X117629415Y-93435559D01*
X117818644Y-93601507D01*
X118027914Y-93741337D01*
X118031613Y-93743161D01*
X118031618Y-93743164D01*
X118122292Y-93787879D01*
X118253645Y-93852655D01*
X118257550Y-93853980D01*
X118257551Y-93853981D01*
X118488062Y-93932229D01*
X118488066Y-93932230D01*
X118491975Y-93933557D01*
X118496019Y-93934361D01*
X118496025Y-93934363D01*
X118734787Y-93981856D01*
X118734793Y-93981857D01*
X118738826Y-93982659D01*
X118742931Y-93982928D01*
X118742938Y-93982929D01*
X118829573Y-93988607D01*
X118899801Y-93993210D01*
X118901537Y-93993377D01*
X118907860Y-93995000D01*
X118922988Y-93995000D01*
X118931228Y-93995270D01*
X118939022Y-93995781D01*
X118953144Y-93996706D01*
X118962643Y-93997692D01*
X118976262Y-93999630D01*
X118982925Y-93999700D01*
X118985842Y-93999731D01*
X118985848Y-93999731D01*
X118989975Y-93999774D01*
X119021879Y-93995913D01*
X119037018Y-93995000D01*
X123910132Y-93995000D01*
X123978253Y-94015002D01*
X124024746Y-94068658D01*
X124034850Y-94138932D01*
X124001226Y-94208050D01*
X123887519Y-94327038D01*
X123884605Y-94331310D01*
X123884604Y-94331311D01*
X123843884Y-94391005D01*
X123756629Y-94518916D01*
X123658835Y-94729595D01*
X123596764Y-94953417D01*
X123593121Y-94987511D01*
X123592279Y-94995388D01*
X123565152Y-95060998D01*
X123506860Y-95101526D01*
X123466992Y-95108000D01*
X111782715Y-95108000D01*
X111775343Y-95107784D01*
X111766561Y-95107269D01*
X111716053Y-95104309D01*
X111708273Y-95105828D01*
X111708270Y-95105828D01*
X111661034Y-95115050D01*
X111652684Y-95116391D01*
X111604932Y-95122423D01*
X111604929Y-95122424D01*
X111597067Y-95123417D01*
X111589697Y-95126335D01*
X111587361Y-95127260D01*
X111565118Y-95133775D01*
X111562643Y-95134258D01*
X111562642Y-95134258D01*
X111554868Y-95135776D01*
X111547712Y-95139181D01*
X111547709Y-95139182D01*
X111504252Y-95159859D01*
X111496501Y-95163233D01*
X111451744Y-95180954D01*
X111451739Y-95180957D01*
X111444371Y-95183874D01*
X111435924Y-95190012D01*
X111415997Y-95201853D01*
X111406572Y-95206338D01*
X111367203Y-95239193D01*
X111302090Y-95267482D01*
X111232015Y-95256078D01*
X111179230Y-95208598D01*
X111160897Y-95152779D01*
X111151080Y-95033382D01*
X111147309Y-94987511D01*
X111090725Y-94762240D01*
X111088668Y-94757510D01*
X111088666Y-94757503D01*
X111000168Y-94553971D01*
X111000166Y-94553968D01*
X110998108Y-94549234D01*
X110891912Y-94385080D01*
X110874755Y-94358559D01*
X110874753Y-94358556D01*
X110871945Y-94354216D01*
X110843815Y-94323301D01*
X110719102Y-94186244D01*
X110719100Y-94186243D01*
X110715624Y-94182422D01*
X110711573Y-94179223D01*
X110711569Y-94179219D01*
X110597815Y-94089382D01*
X110556752Y-94031465D01*
X110553520Y-93960542D01*
X110589145Y-93899130D01*
X110652317Y-93866728D01*
X110675907Y-93864500D01*
X112949213Y-93864500D01*
X112968923Y-93866051D01*
X112982612Y-93868219D01*
X112989200Y-93867874D01*
X112989204Y-93867874D01*
X113050280Y-93864673D01*
X113056874Y-93864500D01*
X113077192Y-93864500D01*
X113080459Y-93864157D01*
X113080470Y-93864156D01*
X113097400Y-93862376D01*
X113103966Y-93861859D01*
X113133627Y-93860305D01*
X113165052Y-93858659D01*
X113165057Y-93858658D01*
X113171646Y-93858313D01*
X113185037Y-93854725D01*
X113204479Y-93851122D01*
X113211693Y-93850364D01*
X113211695Y-93850364D01*
X113218256Y-93849674D01*
X113224533Y-93847634D01*
X113224535Y-93847634D01*
X113282701Y-93828735D01*
X113289025Y-93826862D01*
X113348109Y-93811030D01*
X113348115Y-93811028D01*
X113354488Y-93809320D01*
X113360367Y-93806324D01*
X113360371Y-93806323D01*
X113366840Y-93803027D01*
X113385097Y-93795464D01*
X113386453Y-93795023D01*
X113398284Y-93791179D01*
X113404000Y-93787879D01*
X113456971Y-93757297D01*
X113462766Y-93754151D01*
X113517266Y-93726381D01*
X113517269Y-93726379D01*
X113523149Y-93723383D01*
X113533920Y-93714661D01*
X113550209Y-93703466D01*
X113562216Y-93696533D01*
X113612580Y-93651185D01*
X113617596Y-93646901D01*
X113630816Y-93636195D01*
X113633380Y-93634119D01*
X113647729Y-93619770D01*
X113652513Y-93615229D01*
X113697985Y-93574286D01*
X113697986Y-93574284D01*
X113702888Y-93569871D01*
X113711041Y-93558649D01*
X113723878Y-93543621D01*
X114287540Y-92979959D01*
X114349852Y-92945933D01*
X114365651Y-92943533D01*
X114517977Y-92930207D01*
X114691842Y-92883620D01*
X114724020Y-92874998D01*
X114724022Y-92874997D01*
X114729330Y-92873575D01*
X114734312Y-92871252D01*
X114922652Y-92783428D01*
X114922657Y-92783425D01*
X114927639Y-92781102D01*
X114967513Y-92753182D01*
X115102366Y-92658757D01*
X115102369Y-92658755D01*
X115106877Y-92655598D01*
X115261598Y-92500877D01*
X115387102Y-92321638D01*
X115479575Y-92123330D01*
X115489367Y-92086788D01*
X115507307Y-92019832D01*
X115536207Y-91911977D01*
X115555277Y-91694000D01*
X115536207Y-91476023D01*
X115479575Y-91264670D01*
X115434089Y-91167125D01*
X115423428Y-91096933D01*
X115436017Y-91056673D01*
X115444322Y-91040372D01*
X115447320Y-91034488D01*
X115449028Y-91028114D01*
X115494818Y-90857223D01*
X115494819Y-90857217D01*
X115496312Y-90851645D01*
X115500562Y-90797651D01*
X115502307Y-90775477D01*
X115502307Y-90775470D01*
X115502500Y-90773021D01*
X115502499Y-89396980D01*
X115496312Y-89318355D01*
X115447320Y-89135512D01*
X115401732Y-89046040D01*
X115364380Y-88972732D01*
X115364378Y-88972729D01*
X115361383Y-88966851D01*
X115357230Y-88961722D01*
X115357227Y-88961718D01*
X115246412Y-88824874D01*
X115242257Y-88819743D01*
X115153357Y-88747753D01*
X115100282Y-88704773D01*
X115100278Y-88704770D01*
X115095149Y-88700617D01*
X115089271Y-88697622D01*
X115089268Y-88697620D01*
X115012334Y-88658420D01*
X114926488Y-88614680D01*
X114920114Y-88612972D01*
X114749223Y-88567182D01*
X114749217Y-88567181D01*
X114743645Y-88565688D01*
X114733747Y-88564909D01*
X114667477Y-88559693D01*
X114667470Y-88559693D01*
X114665021Y-88559500D01*
X114252168Y-88559500D01*
X113838980Y-88559501D01*
X113790057Y-88563351D01*
X113766109Y-88565235D01*
X113766107Y-88565235D01*
X113760355Y-88565688D01*
X113702429Y-88581209D01*
X113604850Y-88607355D01*
X113577512Y-88614680D01*
X113491666Y-88658420D01*
X113414732Y-88697620D01*
X113414729Y-88697622D01*
X113408851Y-88700617D01*
X113403722Y-88704770D01*
X113403718Y-88704773D01*
X113350643Y-88747753D01*
X113261743Y-88819743D01*
X113252527Y-88831124D01*
X113245290Y-88840061D01*
X113186876Y-88880412D01*
X113115918Y-88882776D01*
X113059685Y-88851247D01*
X113046180Y-88838159D01*
X113046172Y-88838153D01*
X113042146Y-88834251D01*
X112856868Y-88709750D01*
X112836063Y-88700617D01*
X112715102Y-88647519D01*
X112652471Y-88620026D01*
X112647023Y-88618718D01*
X112647017Y-88618716D01*
X112440872Y-88569225D01*
X112440871Y-88569225D01*
X112435415Y-88567915D01*
X112351197Y-88563059D01*
X112218169Y-88555389D01*
X112218166Y-88555389D01*
X112212562Y-88555066D01*
X111990956Y-88581883D01*
X111777600Y-88647519D01*
X111579241Y-88749901D01*
X111574799Y-88753310D01*
X111574795Y-88753312D01*
X111411213Y-88878833D01*
X111402146Y-88885790D01*
X111398376Y-88889933D01*
X111398371Y-88889938D01*
X111345545Y-88947993D01*
X111284905Y-88984916D01*
X111213929Y-88983193D01*
X111164666Y-88953678D01*
X111045858Y-88838544D01*
X111037176Y-88831514D01*
X110861279Y-88713316D01*
X110851490Y-88707935D01*
X110657447Y-88622755D01*
X110646859Y-88619192D01*
X110594617Y-88606650D01*
X110580531Y-88607355D01*
X110577000Y-88616235D01*
X110577000Y-90284000D01*
X110556998Y-90352121D01*
X110503342Y-90398614D01*
X110451000Y-90410000D01*
X110053000Y-90410000D01*
X109984879Y-90389998D01*
X109938386Y-90336342D01*
X109927000Y-90284000D01*
X109927000Y-88620196D01*
X109923027Y-88606665D01*
X109915579Y-88605594D01*
X109783152Y-88646335D01*
X109772807Y-88650556D01*
X109584493Y-88747753D01*
X109575062Y-88753738D01*
X109406929Y-88882750D01*
X109398712Y-88890306D01*
X109346240Y-88947972D01*
X109285600Y-88984894D01*
X109214624Y-88983171D01*
X109165362Y-88953656D01*
X109046174Y-88838154D01*
X109046171Y-88838152D01*
X109042146Y-88834251D01*
X108856868Y-88709750D01*
X108836063Y-88700617D01*
X108715102Y-88647519D01*
X108652471Y-88620026D01*
X108647023Y-88618718D01*
X108647017Y-88618716D01*
X108440872Y-88569225D01*
X108440871Y-88569225D01*
X108435415Y-88567915D01*
X108351197Y-88563059D01*
X108218169Y-88555389D01*
X108218166Y-88555389D01*
X108212562Y-88555066D01*
X107990956Y-88581883D01*
X107777600Y-88647519D01*
X107579241Y-88749901D01*
X107574799Y-88753310D01*
X107574795Y-88753312D01*
X107411213Y-88878833D01*
X107402146Y-88885790D01*
X107251914Y-89050893D01*
X107133293Y-89239990D01*
X107050034Y-89447105D01*
X107048897Y-89452593D01*
X107048896Y-89452598D01*
X107020926Y-89587661D01*
X107004767Y-89665690D01*
X107001500Y-89722349D01*
X107001500Y-90416630D01*
X107001749Y-90419417D01*
X107001749Y-90419423D01*
X107006122Y-90468423D01*
X107016289Y-90582339D01*
X107075192Y-90797651D01*
X107171292Y-90999129D01*
X107301552Y-91180405D01*
X107461854Y-91335749D01*
X107466505Y-91338874D01*
X107466512Y-91338880D01*
X107535061Y-91384942D01*
X107580447Y-91439538D01*
X107589111Y-91510004D01*
X107553881Y-91578619D01*
X106423905Y-92708596D01*
X106361593Y-92742621D01*
X106334810Y-92745501D01*
X106039980Y-92745501D01*
X105991057Y-92749351D01*
X105967109Y-92751235D01*
X105967107Y-92751235D01*
X105961355Y-92751688D01*
X105778512Y-92800680D01*
X105692666Y-92844420D01*
X105615732Y-92883620D01*
X105615729Y-92883622D01*
X105609851Y-92886617D01*
X105604722Y-92890770D01*
X105604718Y-92890773D01*
X105470427Y-92999521D01*
X105462743Y-93005743D01*
X105343617Y-93152851D01*
X105340620Y-93158733D01*
X105337767Y-93163126D01*
X105283890Y-93209362D01*
X105232096Y-93220500D01*
X101666787Y-93220500D01*
X101647076Y-93218949D01*
X101639904Y-93217813D01*
X101633388Y-93216781D01*
X101626800Y-93217126D01*
X101626796Y-93217126D01*
X101565720Y-93220327D01*
X101559126Y-93220500D01*
X101538808Y-93220500D01*
X101535541Y-93220843D01*
X101535530Y-93220844D01*
X101518600Y-93222624D01*
X101512034Y-93223141D01*
X101482373Y-93224695D01*
X101450948Y-93226341D01*
X101450943Y-93226342D01*
X101444354Y-93226687D01*
X101430963Y-93230275D01*
X101411521Y-93233878D01*
X101404307Y-93234636D01*
X101404305Y-93234636D01*
X101397744Y-93235326D01*
X101391467Y-93237366D01*
X101391465Y-93237366D01*
X101333299Y-93256265D01*
X101326975Y-93258138D01*
X101267891Y-93273970D01*
X101267885Y-93273972D01*
X101261512Y-93275680D01*
X101255633Y-93278676D01*
X101255629Y-93278677D01*
X101249160Y-93281973D01*
X101230903Y-93289536D01*
X101217716Y-93293821D01*
X101212001Y-93297121D01*
X101212000Y-93297121D01*
X101159029Y-93327703D01*
X101153234Y-93330849D01*
X101098734Y-93358619D01*
X101098731Y-93358621D01*
X101092851Y-93361617D01*
X101087722Y-93365771D01*
X101087721Y-93365771D01*
X101082080Y-93370339D01*
X101065791Y-93381534D01*
X101053784Y-93388467D01*
X101048874Y-93392888D01*
X101003420Y-93433815D01*
X100998404Y-93438099D01*
X100998187Y-93438275D01*
X100982620Y-93450881D01*
X100968271Y-93465230D01*
X100963487Y-93469771D01*
X100913112Y-93515129D01*
X100904959Y-93526351D01*
X100892122Y-93541379D01*
X100238379Y-94195122D01*
X100223351Y-94207959D01*
X100212129Y-94216112D01*
X100207716Y-94221014D01*
X100207714Y-94221015D01*
X100166771Y-94266487D01*
X100162230Y-94271271D01*
X100147881Y-94285620D01*
X100145805Y-94288184D01*
X100135099Y-94301404D01*
X100130815Y-94306420D01*
X100108403Y-94331311D01*
X100085467Y-94356784D01*
X100078534Y-94368791D01*
X100067339Y-94385080D01*
X100058617Y-94395851D01*
X100055623Y-94401726D01*
X100055619Y-94401733D01*
X100044865Y-94422840D01*
X99997964Y-94473356D01*
X99989078Y-94478749D01*
X99982751Y-94482588D01*
X99978723Y-94486083D01*
X99978722Y-94486084D01*
X99900490Y-94553971D01*
X99801703Y-94639694D01*
X99798320Y-94643820D01*
X99798316Y-94643824D01*
X99653097Y-94820931D01*
X99653093Y-94820937D01*
X99649713Y-94825059D01*
X99531128Y-95033382D01*
X99449339Y-95258707D01*
X99448390Y-95263956D01*
X99448389Y-95263959D01*
X99442339Y-95297416D01*
X99406684Y-95494591D01*
X99406489Y-95498730D01*
X99406488Y-95498737D01*
X99405570Y-95518210D01*
X99405500Y-95519699D01*
X99405500Y-96164187D01*
X99405725Y-96166836D01*
X99419790Y-96332596D01*
X99420660Y-96342852D01*
X99421998Y-96348007D01*
X99421999Y-96348013D01*
X99479539Y-96569705D01*
X99480881Y-96574874D01*
X99483073Y-96579740D01*
X99483074Y-96579743D01*
X99523952Y-96670488D01*
X99579334Y-96793432D01*
X99582318Y-96797865D01*
X99582319Y-96797866D01*
X99615231Y-96846752D01*
X99636682Y-96914431D01*
X99632418Y-96949728D01*
X99601793Y-97064023D01*
X99582723Y-97282000D01*
X99601793Y-97499977D01*
X99658425Y-97711330D01*
X99660747Y-97716310D01*
X99660748Y-97716312D01*
X99676681Y-97750479D01*
X99750898Y-97909638D01*
X99876402Y-98088877D01*
X99900595Y-98113070D01*
X99934621Y-98175382D01*
X99937500Y-98202165D01*
X99937500Y-100376213D01*
X99935949Y-100395923D01*
X99933781Y-100409612D01*
X99934126Y-100416200D01*
X99934126Y-100416204D01*
X99937327Y-100477280D01*
X99937500Y-100483874D01*
X99937500Y-100504192D01*
X99937843Y-100507459D01*
X99937844Y-100507470D01*
X99939624Y-100524400D01*
X99940141Y-100530966D01*
X99943687Y-100598646D01*
X99947274Y-100612031D01*
X99950878Y-100631479D01*
X99952326Y-100645256D01*
X99954366Y-100651533D01*
X99954366Y-100651535D01*
X99973265Y-100709701D01*
X99975138Y-100716025D01*
X99990970Y-100775109D01*
X99990972Y-100775115D01*
X99992680Y-100781488D01*
X99995676Y-100787367D01*
X99995677Y-100787371D01*
X99998973Y-100793840D01*
X100006536Y-100812097D01*
X100010821Y-100825284D01*
X100014121Y-100830999D01*
X100014121Y-100831000D01*
X100044703Y-100883971D01*
X100047849Y-100889766D01*
X100075619Y-100944266D01*
X100078617Y-100950149D01*
X100082771Y-100955278D01*
X100082771Y-100955279D01*
X100087339Y-100960920D01*
X100098534Y-100977209D01*
X100105467Y-100989216D01*
X100109888Y-100994126D01*
X100150815Y-101039580D01*
X100155099Y-101044596D01*
X100167881Y-101060380D01*
X100182230Y-101074729D01*
X100186771Y-101079513D01*
X100221283Y-101117842D01*
X100232129Y-101129888D01*
X100243351Y-101138041D01*
X100258379Y-101150878D01*
X102279622Y-103172121D01*
X102292459Y-103187149D01*
X102300612Y-103198371D01*
X102305514Y-103202784D01*
X102305515Y-103202786D01*
X102350987Y-103243729D01*
X102355771Y-103248270D01*
X102370120Y-103262619D01*
X102372684Y-103264695D01*
X102385904Y-103275401D01*
X102390920Y-103279685D01*
X102441284Y-103325033D01*
X102453291Y-103331966D01*
X102469580Y-103343161D01*
X102480351Y-103351883D01*
X102486231Y-103354879D01*
X102486234Y-103354881D01*
X102540734Y-103382651D01*
X102546529Y-103385797D01*
X102569206Y-103398889D01*
X102605216Y-103419679D01*
X102617047Y-103423523D01*
X102618403Y-103423964D01*
X102636660Y-103431527D01*
X102643129Y-103434823D01*
X102643133Y-103434824D01*
X102649012Y-103437820D01*
X102655385Y-103439528D01*
X102655391Y-103439530D01*
X102714475Y-103455362D01*
X102720799Y-103457235D01*
X102778965Y-103476134D01*
X102778967Y-103476134D01*
X102785244Y-103478174D01*
X102791805Y-103478864D01*
X102791807Y-103478864D01*
X102799021Y-103479622D01*
X102818463Y-103483225D01*
X102831854Y-103486813D01*
X102838443Y-103487158D01*
X102838448Y-103487159D01*
X102869873Y-103488805D01*
X102899534Y-103490359D01*
X102906100Y-103490876D01*
X102923030Y-103492656D01*
X102923041Y-103492657D01*
X102926308Y-103493000D01*
X102946626Y-103493000D01*
X102953220Y-103493173D01*
X103014296Y-103496374D01*
X103014300Y-103496374D01*
X103020888Y-103496719D01*
X103034577Y-103494551D01*
X103054287Y-103493000D01*
X105224037Y-103493000D01*
X105292158Y-103513002D01*
X105338651Y-103566658D01*
X105348755Y-103636932D01*
X105336304Y-103676203D01*
X105257680Y-103830512D01*
X105255972Y-103836885D01*
X105255972Y-103836886D01*
X105210182Y-104007777D01*
X105210181Y-104007783D01*
X105208688Y-104013355D01*
X105202500Y-104091979D01*
X105202501Y-104918020D01*
X105208688Y-104996645D01*
X105257680Y-105179488D01*
X105279476Y-105222265D01*
X105330015Y-105321453D01*
X105343617Y-105348149D01*
X105347770Y-105353278D01*
X105347773Y-105353282D01*
X105374915Y-105386799D01*
X105462743Y-105495257D01*
X105467874Y-105499412D01*
X105535692Y-105554330D01*
X105576044Y-105612744D01*
X105578410Y-105683701D01*
X105542037Y-105744673D01*
X105535693Y-105750169D01*
X105462743Y-105809243D01*
X105458588Y-105814374D01*
X105347773Y-105951218D01*
X105347770Y-105951222D01*
X105343617Y-105956351D01*
X105340622Y-105962229D01*
X105340620Y-105962232D01*
X105301420Y-106039166D01*
X105257680Y-106125012D01*
X105255972Y-106131385D01*
X105255972Y-106131386D01*
X105210182Y-106302277D01*
X105210181Y-106302283D01*
X105208688Y-106307855D01*
X105208235Y-106313611D01*
X105205838Y-106344072D01*
X105202500Y-106386479D01*
X105202501Y-107212520D01*
X105208688Y-107291145D01*
X105257680Y-107473988D01*
X105260676Y-107479868D01*
X105336304Y-107628297D01*
X105349408Y-107698074D01*
X105322708Y-107763859D01*
X105264680Y-107804765D01*
X105224037Y-107811500D01*
X104768626Y-107811500D01*
X104700505Y-107791498D01*
X104654012Y-107737842D01*
X104643908Y-107667568D01*
X104650187Y-107642509D01*
X104724355Y-107438178D01*
X104727126Y-107427910D01*
X104768077Y-107201445D01*
X104769012Y-107193215D01*
X104769930Y-107173742D01*
X104770000Y-107170767D01*
X104770000Y-107169115D01*
X104765525Y-107153876D01*
X104764135Y-107152671D01*
X104756452Y-107151000D01*
X103159000Y-107151000D01*
X103090879Y-107130998D01*
X103044386Y-107077342D01*
X103033000Y-107025000D01*
X103033000Y-106482885D01*
X103683000Y-106482885D01*
X103687475Y-106498124D01*
X103688865Y-106499329D01*
X103696548Y-106501000D01*
X104749608Y-106501000D01*
X104764286Y-106496690D01*
X104766349Y-106484807D01*
X104755296Y-106354544D01*
X104753506Y-106344072D01*
X104695988Y-106122464D01*
X104692452Y-106112424D01*
X104598417Y-105903673D01*
X104593248Y-105894387D01*
X104465384Y-105704464D01*
X104458723Y-105696178D01*
X104300681Y-105530508D01*
X104292724Y-105523468D01*
X104109034Y-105386799D01*
X104099997Y-105381195D01*
X103895905Y-105277430D01*
X103886054Y-105273430D01*
X103700300Y-105215752D01*
X103686201Y-105215534D01*
X103683000Y-105222265D01*
X103683000Y-106482885D01*
X103033000Y-106482885D01*
X103033000Y-105231528D01*
X103029027Y-105217997D01*
X103018420Y-105216472D01*
X102955997Y-105229570D01*
X102945818Y-105232625D01*
X102732875Y-105316719D01*
X102723339Y-105321453D01*
X102527611Y-105440223D01*
X102519013Y-105446494D01*
X102346100Y-105596540D01*
X102338674Y-105604175D01*
X102193516Y-105781209D01*
X102189389Y-105787215D01*
X102134321Y-105832027D01*
X102063769Y-105839954D01*
X102000130Y-105808478D01*
X101981027Y-105786217D01*
X101962138Y-105758160D01*
X101922795Y-105699722D01*
X101913633Y-105690117D01*
X101761017Y-105530135D01*
X101757335Y-105526275D01*
X101649554Y-105446084D01*
X101569296Y-105386370D01*
X101569293Y-105386368D01*
X101565016Y-105383186D01*
X101433409Y-105316274D01*
X101356094Y-105276965D01*
X101356093Y-105276965D01*
X101351338Y-105274547D01*
X101122410Y-105203463D01*
X101117123Y-105202762D01*
X101117122Y-105202762D01*
X100890062Y-105172667D01*
X100890058Y-105172667D01*
X100884778Y-105171967D01*
X100879449Y-105172167D01*
X100879447Y-105172167D01*
X100765008Y-105176463D01*
X100645237Y-105180960D01*
X100410636Y-105230184D01*
X100405680Y-105232141D01*
X100405674Y-105232143D01*
X100246009Y-105295199D01*
X100187682Y-105318233D01*
X100138382Y-105348149D01*
X99987312Y-105439820D01*
X99987309Y-105439822D01*
X99982751Y-105442588D01*
X99978723Y-105446083D01*
X99978722Y-105446084D01*
X99817574Y-105585922D01*
X99801703Y-105599694D01*
X99798320Y-105603820D01*
X99798316Y-105603824D01*
X99653097Y-105780931D01*
X99653093Y-105780937D01*
X99649713Y-105785059D01*
X99647074Y-105789695D01*
X99647072Y-105789698D01*
X99582194Y-105903673D01*
X99531128Y-105993382D01*
X99449339Y-106218707D01*
X99406684Y-106454591D01*
X99405500Y-106479699D01*
X99405500Y-107124187D01*
X99405725Y-107126836D01*
X99420140Y-107296720D01*
X99420660Y-107302852D01*
X99421998Y-107308007D01*
X99421999Y-107308013D01*
X99475812Y-107515345D01*
X99480881Y-107534874D01*
X99483073Y-107539740D01*
X99483074Y-107539743D01*
X99503123Y-107584249D01*
X99579334Y-107753432D01*
X99616908Y-107809243D01*
X99632289Y-107832089D01*
X99653740Y-107899767D01*
X99649476Y-107935067D01*
X99601793Y-108113023D01*
X99582723Y-108331000D01*
X99601793Y-108548977D01*
X99658425Y-108760330D01*
X99750898Y-108958638D01*
X99876402Y-109137877D01*
X100031123Y-109292598D01*
X100035631Y-109295755D01*
X100035634Y-109295757D01*
X100205852Y-109414945D01*
X100210361Y-109418102D01*
X100215343Y-109420425D01*
X100215348Y-109420428D01*
X100403688Y-109508252D01*
X100408670Y-109510575D01*
X100413978Y-109511997D01*
X100413980Y-109511998D01*
X100479745Y-109529620D01*
X100620023Y-109567207D01*
X100838000Y-109586277D01*
X100936685Y-109577643D01*
X100986600Y-109583331D01*
X101030744Y-109597674D01*
X101044087Y-109599076D01*
X101044533Y-109599123D01*
X101063971Y-109602726D01*
X101065540Y-109603146D01*
X101077354Y-109606312D01*
X101083954Y-109606658D01*
X101083955Y-109606658D01*
X101145011Y-109609858D01*
X101151585Y-109610375D01*
X101168534Y-109612156D01*
X101168536Y-109612156D01*
X101171808Y-109612500D01*
X101192133Y-109612500D01*
X101198727Y-109612673D01*
X101259796Y-109615874D01*
X101259801Y-109615874D01*
X101266388Y-109616219D01*
X101280077Y-109614051D01*
X101299787Y-109612500D01*
X105259105Y-109612500D01*
X105327226Y-109632502D01*
X105357024Y-109659205D01*
X105462743Y-109789757D01*
X105467874Y-109793912D01*
X105604718Y-109904727D01*
X105604722Y-109904730D01*
X105609851Y-109908883D01*
X105615729Y-109911878D01*
X105615732Y-109911880D01*
X105654041Y-109931399D01*
X105778512Y-109994820D01*
X105784885Y-109996528D01*
X105784886Y-109996528D01*
X105955777Y-110042318D01*
X105955783Y-110042319D01*
X105961355Y-110043812D01*
X105967111Y-110044265D01*
X106037523Y-110049807D01*
X106037530Y-110049807D01*
X106039979Y-110050000D01*
X106050661Y-110050000D01*
X106561376Y-110049999D01*
X106629496Y-110070001D01*
X106675989Y-110123656D01*
X106684954Y-110200580D01*
X106677341Y-110238852D01*
X106677072Y-110242963D01*
X106677071Y-110242967D01*
X106666791Y-110399814D01*
X106666623Y-110401563D01*
X106665000Y-110407886D01*
X106665000Y-110423014D01*
X106664730Y-110431254D01*
X106663294Y-110453166D01*
X106662308Y-110462669D01*
X106660370Y-110476288D01*
X106660226Y-110490001D01*
X106660723Y-110494107D01*
X106664087Y-110521906D01*
X106665000Y-110537044D01*
X106665000Y-112343896D01*
X106663922Y-112360342D01*
X106660262Y-112388143D01*
X106661096Y-112395696D01*
X106662672Y-112409978D01*
X106663281Y-112429984D01*
X106647030Y-112760792D01*
X106645819Y-112773093D01*
X106597079Y-113101672D01*
X106592989Y-113129243D01*
X106590580Y-113141358D01*
X106528606Y-113388772D01*
X106503094Y-113490622D01*
X106499505Y-113502454D01*
X106378208Y-113841456D01*
X106373476Y-113852880D01*
X106219537Y-114178356D01*
X106213708Y-114189261D01*
X106028607Y-114498083D01*
X106021737Y-114508364D01*
X105807267Y-114797545D01*
X105799423Y-114807104D01*
X105557627Y-115073884D01*
X105548889Y-115082622D01*
X105286812Y-115320156D01*
X105282104Y-115324423D01*
X105272545Y-115332267D01*
X104983364Y-115546737D01*
X104973083Y-115553607D01*
X104664261Y-115738708D01*
X104653356Y-115744537D01*
X104327880Y-115898476D01*
X104316456Y-115903208D01*
X103977454Y-116024505D01*
X103965624Y-116028094D01*
X103616358Y-116115580D01*
X103604252Y-116117987D01*
X103248093Y-116170819D01*
X103235797Y-116172030D01*
X103072190Y-116180067D01*
X102876182Y-116189696D01*
X102863818Y-116189696D01*
X102667810Y-116180067D01*
X102504203Y-116172030D01*
X102491907Y-116170819D01*
X102135748Y-116117987D01*
X102123642Y-116115580D01*
X101774376Y-116028094D01*
X101762546Y-116024505D01*
X101423544Y-115903208D01*
X101412120Y-115898476D01*
X101086644Y-115744537D01*
X101075739Y-115738708D01*
X100766917Y-115553607D01*
X100756636Y-115546737D01*
X100467455Y-115332267D01*
X100457896Y-115324423D01*
X100453188Y-115320156D01*
X100191111Y-115082622D01*
X100182373Y-115073884D01*
X99940577Y-114807104D01*
X99932733Y-114797545D01*
X99718263Y-114508364D01*
X99711393Y-114498083D01*
X99526292Y-114189261D01*
X99520463Y-114178356D01*
X99366524Y-113852880D01*
X99361792Y-113841456D01*
X99240495Y-113502454D01*
X99236906Y-113490622D01*
X99211394Y-113388772D01*
X99149420Y-113141358D01*
X99147011Y-113129243D01*
X99142922Y-113101672D01*
X99094181Y-112773093D01*
X99092970Y-112760792D01*
X99081239Y-112522000D01*
X100614671Y-112522000D01*
X100614941Y-112526119D01*
X100630323Y-112760792D01*
X100633966Y-112816380D01*
X100691519Y-113105722D01*
X100692845Y-113109628D01*
X100692846Y-113109632D01*
X100703620Y-113141371D01*
X100786348Y-113385077D01*
X100916828Y-113649664D01*
X101080727Y-113894957D01*
X101083441Y-113898051D01*
X101083445Y-113898057D01*
X101272533Y-114113669D01*
X101275242Y-114116758D01*
X101278331Y-114119467D01*
X101493943Y-114308555D01*
X101493949Y-114308559D01*
X101497043Y-114311273D01*
X101500469Y-114313562D01*
X101500474Y-114313566D01*
X101684539Y-114436554D01*
X101742335Y-114475172D01*
X101746034Y-114476996D01*
X101746039Y-114476999D01*
X102003228Y-114603830D01*
X102006923Y-114605652D01*
X102010821Y-114606975D01*
X102010823Y-114606976D01*
X102282368Y-114699154D01*
X102282372Y-114699155D01*
X102286278Y-114700481D01*
X102290322Y-114701285D01*
X102290328Y-114701287D01*
X102571577Y-114757230D01*
X102571580Y-114757230D01*
X102575620Y-114758034D01*
X102579731Y-114758303D01*
X102579735Y-114758304D01*
X102865881Y-114777059D01*
X102870000Y-114777329D01*
X102874119Y-114777059D01*
X103160265Y-114758304D01*
X103160269Y-114758303D01*
X103164380Y-114758034D01*
X103168420Y-114757230D01*
X103168423Y-114757230D01*
X103449672Y-114701287D01*
X103449678Y-114701285D01*
X103453722Y-114700481D01*
X103457628Y-114699155D01*
X103457632Y-114699154D01*
X103729177Y-114606976D01*
X103729179Y-114606975D01*
X103733077Y-114605652D01*
X103736772Y-114603830D01*
X103993961Y-114476999D01*
X103993966Y-114476996D01*
X103997665Y-114475172D01*
X104055461Y-114436554D01*
X104239526Y-114313566D01*
X104239531Y-114313562D01*
X104242957Y-114311273D01*
X104246051Y-114308559D01*
X104246057Y-114308555D01*
X104461669Y-114119467D01*
X104464758Y-114116758D01*
X104467467Y-114113669D01*
X104656555Y-113898057D01*
X104656559Y-113898051D01*
X104659273Y-113894957D01*
X104823172Y-113649664D01*
X104953652Y-113385077D01*
X105036380Y-113141371D01*
X105047154Y-113109632D01*
X105047155Y-113109628D01*
X105048481Y-113105722D01*
X105106034Y-112816380D01*
X105109678Y-112760792D01*
X105125059Y-112526119D01*
X105125329Y-112522000D01*
X105117163Y-112397413D01*
X105106304Y-112231735D01*
X105106303Y-112231731D01*
X105106034Y-112227620D01*
X105048481Y-111938278D01*
X104953652Y-111658923D01*
X104823172Y-111394336D01*
X104659273Y-111149043D01*
X104656559Y-111145949D01*
X104656555Y-111145943D01*
X104467467Y-110930331D01*
X104464758Y-110927242D01*
X104461669Y-110924533D01*
X104246057Y-110735445D01*
X104246051Y-110735441D01*
X104242957Y-110732727D01*
X104239527Y-110730435D01*
X104239526Y-110730434D01*
X104001098Y-110571122D01*
X103997665Y-110568828D01*
X103993966Y-110567004D01*
X103993961Y-110567001D01*
X103736772Y-110440170D01*
X103736770Y-110440169D01*
X103733077Y-110438348D01*
X103623903Y-110401288D01*
X103457632Y-110344846D01*
X103457628Y-110344845D01*
X103453722Y-110343519D01*
X103449678Y-110342715D01*
X103449672Y-110342713D01*
X103168423Y-110286770D01*
X103168420Y-110286770D01*
X103164380Y-110285966D01*
X103160269Y-110285697D01*
X103160265Y-110285696D01*
X102874119Y-110266941D01*
X102870000Y-110266671D01*
X102865881Y-110266941D01*
X102579735Y-110285696D01*
X102579731Y-110285697D01*
X102575620Y-110285966D01*
X102571580Y-110286770D01*
X102571577Y-110286770D01*
X102290328Y-110342713D01*
X102290322Y-110342715D01*
X102286278Y-110343519D01*
X102282372Y-110344845D01*
X102282368Y-110344846D01*
X102116097Y-110401288D01*
X102006923Y-110438348D01*
X102003230Y-110440169D01*
X102003228Y-110440170D01*
X101746040Y-110567001D01*
X101746035Y-110567004D01*
X101742336Y-110568828D01*
X101497043Y-110732727D01*
X101493949Y-110735441D01*
X101493943Y-110735445D01*
X101278331Y-110924533D01*
X101275242Y-110927242D01*
X101272533Y-110930331D01*
X101083445Y-111145943D01*
X101083441Y-111145949D01*
X101080727Y-111149043D01*
X100916828Y-111394336D01*
X100786348Y-111658923D01*
X100691519Y-111938278D01*
X100633966Y-112227620D01*
X100633697Y-112231731D01*
X100633696Y-112231735D01*
X100622837Y-112397413D01*
X100614671Y-112522000D01*
X99081239Y-112522000D01*
X99077280Y-112441399D01*
X99078384Y-112417470D01*
X99079049Y-112412798D01*
X99079049Y-112412792D01*
X99079630Y-112408713D01*
X99079774Y-112395000D01*
X99075913Y-112363095D01*
X99075000Y-112347957D01*
X99075000Y-90221104D01*
X99076078Y-90204658D01*
X99078747Y-90184388D01*
X99078747Y-90184384D01*
X99079738Y-90176857D01*
X99078981Y-90170000D01*
X99979671Y-90170000D01*
X99979941Y-90174119D01*
X99997870Y-90447651D01*
X99998966Y-90464380D01*
X100056519Y-90753722D01*
X100057845Y-90757628D01*
X100057846Y-90757632D01*
X100091653Y-90857223D01*
X100151348Y-91033077D01*
X100153169Y-91036770D01*
X100153170Y-91036772D01*
X100268176Y-91269980D01*
X100281828Y-91297664D01*
X100445727Y-91542957D01*
X100448441Y-91546051D01*
X100448445Y-91546057D01*
X100582990Y-91699475D01*
X100640242Y-91764758D01*
X100643331Y-91767467D01*
X100858943Y-91956555D01*
X100858949Y-91956559D01*
X100862043Y-91959273D01*
X100865469Y-91961562D01*
X100865474Y-91961566D01*
X100981276Y-92038942D01*
X101107335Y-92123172D01*
X101111034Y-92124996D01*
X101111039Y-92124999D01*
X101368228Y-92251830D01*
X101371923Y-92253652D01*
X101375821Y-92254975D01*
X101375823Y-92254976D01*
X101647368Y-92347154D01*
X101647372Y-92347155D01*
X101651278Y-92348481D01*
X101655322Y-92349285D01*
X101655328Y-92349287D01*
X101936577Y-92405230D01*
X101936580Y-92405230D01*
X101940620Y-92406034D01*
X101944731Y-92406303D01*
X101944735Y-92406304D01*
X102230881Y-92425059D01*
X102235000Y-92425329D01*
X102239119Y-92425059D01*
X102525265Y-92406304D01*
X102525269Y-92406303D01*
X102529380Y-92406034D01*
X102533420Y-92405230D01*
X102533423Y-92405230D01*
X102814672Y-92349287D01*
X102814678Y-92349285D01*
X102818722Y-92348481D01*
X102822628Y-92347155D01*
X102822632Y-92347154D01*
X103094177Y-92254976D01*
X103094179Y-92254975D01*
X103098077Y-92253652D01*
X103101772Y-92251830D01*
X103358961Y-92124999D01*
X103358966Y-92124996D01*
X103362665Y-92123172D01*
X103488724Y-92038942D01*
X103604526Y-91961566D01*
X103604531Y-91961562D01*
X103607957Y-91959273D01*
X103611051Y-91956559D01*
X103611057Y-91956555D01*
X103826669Y-91767467D01*
X103829758Y-91764758D01*
X103887010Y-91699475D01*
X104021555Y-91546057D01*
X104021559Y-91546051D01*
X104024273Y-91542957D01*
X104188172Y-91297664D01*
X104201825Y-91269980D01*
X104316830Y-91036772D01*
X104316831Y-91036770D01*
X104318652Y-91033077D01*
X104378347Y-90857223D01*
X104412154Y-90757632D01*
X104412155Y-90757628D01*
X104413481Y-90753722D01*
X104471034Y-90464380D01*
X104472131Y-90447651D01*
X104490059Y-90174119D01*
X104490329Y-90170000D01*
X104471034Y-89875620D01*
X104452196Y-89780915D01*
X104414287Y-89590328D01*
X104414285Y-89590322D01*
X104413481Y-89586278D01*
X104368103Y-89452598D01*
X104319976Y-89310823D01*
X104319975Y-89310821D01*
X104318652Y-89306923D01*
X104237265Y-89141886D01*
X104189999Y-89046040D01*
X104189996Y-89046035D01*
X104188172Y-89042336D01*
X104024273Y-88797043D01*
X104021559Y-88793949D01*
X104021555Y-88793943D01*
X103832467Y-88578331D01*
X103829758Y-88575242D01*
X103811808Y-88559500D01*
X103611057Y-88383445D01*
X103611051Y-88383441D01*
X103607957Y-88380727D01*
X103604527Y-88378435D01*
X103604526Y-88378434D01*
X103366098Y-88219122D01*
X103362665Y-88216828D01*
X103358966Y-88215004D01*
X103358961Y-88215001D01*
X103101772Y-88088170D01*
X103101770Y-88088169D01*
X103098077Y-88086348D01*
X103094177Y-88085024D01*
X102822632Y-87992846D01*
X102822628Y-87992845D01*
X102818722Y-87991519D01*
X102814678Y-87990715D01*
X102814672Y-87990713D01*
X102533423Y-87934770D01*
X102533420Y-87934770D01*
X102529380Y-87933966D01*
X102525269Y-87933697D01*
X102525265Y-87933696D01*
X102239119Y-87914941D01*
X102235000Y-87914671D01*
X102230881Y-87914941D01*
X101944735Y-87933696D01*
X101944731Y-87933697D01*
X101940620Y-87933966D01*
X101936580Y-87934770D01*
X101936577Y-87934770D01*
X101655328Y-87990713D01*
X101655322Y-87990715D01*
X101651278Y-87991519D01*
X101647372Y-87992845D01*
X101647368Y-87992846D01*
X101375823Y-88085024D01*
X101371923Y-88086348D01*
X101368230Y-88088169D01*
X101368228Y-88088170D01*
X101111040Y-88215001D01*
X101111035Y-88215004D01*
X101107336Y-88216828D01*
X100862043Y-88380727D01*
X100858949Y-88383441D01*
X100858943Y-88383445D01*
X100658192Y-88559500D01*
X100640242Y-88575242D01*
X100637533Y-88578331D01*
X100448445Y-88793943D01*
X100448441Y-88793949D01*
X100445727Y-88797043D01*
X100281828Y-89042336D01*
X100280004Y-89046035D01*
X100280001Y-89046040D01*
X100232735Y-89141886D01*
X100151348Y-89306923D01*
X100150025Y-89310821D01*
X100150024Y-89310823D01*
X100101898Y-89452598D01*
X100056519Y-89586278D01*
X100055715Y-89590322D01*
X100055713Y-89590328D01*
X100017804Y-89780915D01*
X99998966Y-89875620D01*
X99979671Y-90170000D01*
X99078981Y-90170000D01*
X99077467Y-90156287D01*
X99077406Y-90155731D01*
X99076818Y-90135311D01*
X99091965Y-89846289D01*
X99093343Y-89833172D01*
X99105983Y-89753370D01*
X99143020Y-89519522D01*
X99145762Y-89506622D01*
X99217206Y-89239990D01*
X99227954Y-89199878D01*
X99232029Y-89187336D01*
X99238350Y-89170871D01*
X99345828Y-88890881D01*
X99351192Y-88878833D01*
X99495363Y-88595880D01*
X99501957Y-88584459D01*
X99674916Y-88318126D01*
X99682664Y-88307463D01*
X99757539Y-88215001D01*
X99882507Y-88060678D01*
X99891332Y-88050877D01*
X100115877Y-87826332D01*
X100125678Y-87817507D01*
X100131533Y-87812766D01*
X100372466Y-87617662D01*
X100383126Y-87609916D01*
X100649464Y-87436954D01*
X100660880Y-87430363D01*
X100943833Y-87286192D01*
X100955881Y-87280828D01*
X101079445Y-87233396D01*
X101252344Y-87167027D01*
X101264880Y-87162953D01*
X101571622Y-87080762D01*
X101584522Y-87078020D01*
X101670512Y-87064401D01*
X101898178Y-87028342D01*
X101911286Y-87026965D01*
X102192791Y-87012212D01*
X102215831Y-87013117D01*
X102220613Y-87013747D01*
X102220616Y-87013747D01*
X102228143Y-87014738D01*
X102264166Y-87010761D01*
X102277993Y-87010000D01*
X116398871Y-87010000D01*
X116415317Y-87011078D01*
G37*
G04 #@! TD.AperFunction*
G04 #@! TA.AperFunction,Conductor*
G36*
X109062753Y-102232484D02*
G01*
X109088903Y-102257040D01*
X109095846Y-102260857D01*
X109095847Y-102260858D01*
X109096584Y-102261263D01*
X109116190Y-102274588D01*
X109116835Y-102275122D01*
X109116842Y-102275126D01*
X109122945Y-102280175D01*
X109175200Y-102304764D01*
X109182213Y-102308338D01*
X109232817Y-102336158D01*
X109240493Y-102338129D01*
X109240496Y-102338130D01*
X109241306Y-102338338D01*
X109263622Y-102346373D01*
X109271543Y-102350100D01*
X109321426Y-102359615D01*
X109328244Y-102360916D01*
X109335972Y-102362643D01*
X109391886Y-102377000D01*
X109400650Y-102377000D01*
X109424258Y-102379232D01*
X109432862Y-102380873D01*
X109490464Y-102377249D01*
X109498375Y-102377000D01*
X110080973Y-102377000D01*
X110149094Y-102397002D01*
X110195587Y-102450658D01*
X110205691Y-102520932D01*
X110198003Y-102549690D01*
X110145107Y-102682273D01*
X110145719Y-102689107D01*
X110160871Y-102694000D01*
X110984000Y-102694000D01*
X111052121Y-102714002D01*
X111098614Y-102767658D01*
X111110000Y-102820000D01*
X111110000Y-103217357D01*
X111089998Y-103285478D01*
X111036342Y-103331971D01*
X111018200Y-103338627D01*
X111015920Y-103339270D01*
X110981720Y-103344000D01*
X110161164Y-103344000D01*
X110147633Y-103347973D01*
X110146759Y-103354056D01*
X110163299Y-103398889D01*
X110168111Y-103469722D01*
X110133864Y-103531912D01*
X110071431Y-103565715D01*
X110045087Y-103568500D01*
X108976500Y-103568500D01*
X108908379Y-103548498D01*
X108861886Y-103494842D01*
X108850500Y-103442500D01*
X108850500Y-102324333D01*
X108870502Y-102256212D01*
X108924158Y-102209719D01*
X108994432Y-102199615D01*
X109062753Y-102232484D01*
G37*
G04 #@! TD.AperFunction*
G04 #@! TA.AperFunction,Conductor*
G36*
X105298527Y-95041502D02*
G01*
X105345020Y-95095158D01*
X105355124Y-95165432D01*
X105342673Y-95204703D01*
X105295434Y-95297416D01*
X105257680Y-95371512D01*
X105255972Y-95377885D01*
X105255972Y-95377886D01*
X105210182Y-95548777D01*
X105210181Y-95548783D01*
X105208688Y-95554355D01*
X105202500Y-95632979D01*
X105202501Y-96409020D01*
X105208688Y-96487645D01*
X105225379Y-96549938D01*
X105248140Y-96634882D01*
X105257680Y-96670488D01*
X105291603Y-96737065D01*
X105331383Y-96815138D01*
X105343617Y-96839149D01*
X105347770Y-96844278D01*
X105347773Y-96844282D01*
X105394527Y-96902018D01*
X105462743Y-96986257D01*
X105467874Y-96990412D01*
X105468117Y-96990655D01*
X105502143Y-97052967D01*
X105497078Y-97123782D01*
X105468117Y-97168845D01*
X105467874Y-97169088D01*
X105462743Y-97173243D01*
X105458588Y-97178374D01*
X105347773Y-97315218D01*
X105347770Y-97315222D01*
X105343617Y-97320351D01*
X105340622Y-97326229D01*
X105340620Y-97326232D01*
X105324247Y-97358367D01*
X105257680Y-97489012D01*
X105255972Y-97495385D01*
X105255972Y-97495386D01*
X105210182Y-97666277D01*
X105210181Y-97666283D01*
X105208688Y-97671855D01*
X105202500Y-97750479D01*
X105202501Y-98576520D01*
X105208688Y-98655145D01*
X105257680Y-98837988D01*
X105343617Y-99006649D01*
X105347770Y-99011778D01*
X105347773Y-99011782D01*
X105406743Y-99084603D01*
X105434069Y-99150130D01*
X105421629Y-99220028D01*
X105406743Y-99243191D01*
X105348197Y-99315490D01*
X105341043Y-99326506D01*
X105261146Y-99483313D01*
X105256442Y-99495566D01*
X105210679Y-99666356D01*
X105208732Y-99677690D01*
X105203193Y-99748062D01*
X105203000Y-99752988D01*
X105203000Y-99820385D01*
X105207475Y-99835624D01*
X105208865Y-99836829D01*
X105216548Y-99838500D01*
X106752000Y-99838500D01*
X106820121Y-99858502D01*
X106866614Y-99912158D01*
X106878000Y-99964500D01*
X106878000Y-100362500D01*
X106857998Y-100430621D01*
X106804342Y-100477114D01*
X106752000Y-100488500D01*
X105221115Y-100488500D01*
X105205876Y-100492975D01*
X105204671Y-100494365D01*
X105203000Y-100502048D01*
X105203000Y-100574013D01*
X105203193Y-100578938D01*
X105208732Y-100649310D01*
X105210679Y-100660644D01*
X105256442Y-100831434D01*
X105261146Y-100843687D01*
X105341043Y-101000494D01*
X105348193Y-101011505D01*
X105458948Y-101148275D01*
X105468229Y-101157556D01*
X105565109Y-101236008D01*
X105605461Y-101294422D01*
X105607827Y-101365379D01*
X105571454Y-101426351D01*
X105565116Y-101431842D01*
X105462743Y-101514743D01*
X105390275Y-101604234D01*
X105357025Y-101645294D01*
X105298611Y-101685646D01*
X105259105Y-101692000D01*
X103398689Y-101692000D01*
X103330568Y-101671998D01*
X103309594Y-101655095D01*
X101775405Y-100120906D01*
X101741379Y-100058594D01*
X101738500Y-100031811D01*
X101738500Y-98202165D01*
X101758502Y-98134044D01*
X101775405Y-98113070D01*
X101799598Y-98088877D01*
X101925102Y-97909638D01*
X101999320Y-97750479D01*
X102015252Y-97716312D01*
X102015253Y-97716310D01*
X102017575Y-97711330D01*
X102074207Y-97499977D01*
X102093277Y-97282000D01*
X102080467Y-97135581D01*
X102094456Y-97065977D01*
X102143856Y-97014984D01*
X102212982Y-96998794D01*
X102279887Y-97022546D01*
X102297158Y-97037628D01*
X102415319Y-97161492D01*
X102423276Y-97168532D01*
X102606966Y-97305201D01*
X102616003Y-97310805D01*
X102820095Y-97414570D01*
X102829946Y-97418570D01*
X103015700Y-97476248D01*
X103029799Y-97476466D01*
X103033000Y-97469735D01*
X103033000Y-97460472D01*
X103683000Y-97460472D01*
X103686973Y-97474003D01*
X103697580Y-97475528D01*
X103760003Y-97462430D01*
X103770182Y-97459375D01*
X103983125Y-97375281D01*
X103992661Y-97370547D01*
X104188389Y-97251777D01*
X104196987Y-97245506D01*
X104369900Y-97095460D01*
X104377326Y-97087825D01*
X104522488Y-96910785D01*
X104528514Y-96902018D01*
X104641773Y-96703051D01*
X104646238Y-96693387D01*
X104724355Y-96478178D01*
X104727126Y-96467910D01*
X104768077Y-96241445D01*
X104769012Y-96233215D01*
X104769930Y-96213742D01*
X104770000Y-96210767D01*
X104770000Y-96209115D01*
X104765525Y-96193876D01*
X104764135Y-96192671D01*
X104756452Y-96191000D01*
X103701115Y-96191000D01*
X103685876Y-96195475D01*
X103684671Y-96196865D01*
X103683000Y-96204548D01*
X103683000Y-97460472D01*
X103033000Y-97460472D01*
X103033000Y-95667000D01*
X103053002Y-95598879D01*
X103106658Y-95552386D01*
X103159000Y-95541000D01*
X104749608Y-95541000D01*
X104764286Y-95536690D01*
X104766349Y-95524807D01*
X104755296Y-95394544D01*
X104753506Y-95384072D01*
X104700320Y-95179154D01*
X104702567Y-95108193D01*
X104742822Y-95049712D01*
X104808304Y-95022277D01*
X104822279Y-95021500D01*
X105230406Y-95021500D01*
X105298527Y-95041502D01*
G37*
G04 #@! TD.AperFunction*
G04 #@! TD*
M02*
