G04 #@! TF.GenerationSoftware,KiCad,Pcbnew,5.99.0-unknown-bf85ddd577~142~ubuntu20.04.1*
G04 #@! TF.CreationDate,2021-11-09T17:07:53-05:00*
G04 #@! TF.ProjectId,microTouch,6d696372-6f54-46f7-9563-682e6b696361,rev?*
G04 #@! TF.SameCoordinates,Original*
G04 #@! TF.FileFunction,Copper,L1,Top*
G04 #@! TF.FilePolarity,Positive*
%FSLAX46Y46*%
G04 Gerber Fmt 4.6, Leading zero omitted, Abs format (unit mm)*
G04 Created by KiCad (PCBNEW 5.99.0-unknown-bf85ddd577~142~ubuntu20.04.1) date 2021-11-09 17:07:53*
%MOMM*%
%LPD*%
G01*
G04 APERTURE LIST*
G04 Aperture macros list*
%AMRoundRect*
0 Rectangle with rounded corners*
0 $1 Rounding radius*
0 $2 $3 $4 $5 $6 $7 $8 $9 X,Y pos of 4 corners*
0 Add a 4 corners polygon primitive as box body*
4,1,4,$2,$3,$4,$5,$6,$7,$8,$9,$2,$3,0*
0 Add four circle primitives for the rounded corners*
1,1,$1+$1,$2,$3*
1,1,$1+$1,$4,$5*
1,1,$1+$1,$6,$7*
1,1,$1+$1,$8,$9*
0 Add four rect primitives between the rounded corners*
20,1,$1+$1,$2,$3,$4,$5,0*
20,1,$1+$1,$4,$5,$6,$7,0*
20,1,$1+$1,$6,$7,$8,$9,0*
20,1,$1+$1,$8,$9,$2,$3,0*%
G04 Aperture macros list end*
G04 #@! TA.AperFunction,ComponentPad*
%ADD10O,1.524000X2.000000*%
G04 #@! TD*
G04 #@! TA.AperFunction,SMDPad,CuDef*
%ADD11RoundRect,0.250000X-0.450000X0.350000X-0.450000X-0.350000X0.450000X-0.350000X0.450000X0.350000X0*%
G04 #@! TD*
G04 #@! TA.AperFunction,SMDPad,CuDef*
%ADD12RoundRect,0.250000X0.450000X-0.325000X0.450000X0.325000X-0.450000X0.325000X-0.450000X-0.325000X0*%
G04 #@! TD*
G04 #@! TA.AperFunction,ComponentPad*
%ADD13O,2.000000X1.000000*%
G04 #@! TD*
G04 #@! TA.AperFunction,WasherPad*
%ADD14C,1.524000*%
G04 #@! TD*
G04 #@! TA.AperFunction,ComponentPad*
%ADD15RoundRect,0.250000X0.350000X0.625000X-0.350000X0.625000X-0.350000X-0.625000X0.350000X-0.625000X0*%
G04 #@! TD*
G04 #@! TA.AperFunction,ComponentPad*
%ADD16O,1.200000X1.750000*%
G04 #@! TD*
G04 #@! TA.AperFunction,ViaPad*
%ADD17C,1.200000*%
G04 #@! TD*
G04 #@! TA.AperFunction,Conductor*
%ADD18C,0.500000*%
G04 #@! TD*
G04 APERTURE END LIST*
D10*
G04 #@! TO.P,U1,1,A*
G04 #@! TO.N,Net-(R1-Pad2)*
X100818000Y-106826000D03*
G04 #@! TO.P,U1,2,K*
G04 #@! TO.N,GND*
X103358000Y-106826000D03*
G04 #@! TO.P,U1,3*
G04 #@! TO.N,/SIG*
X103358000Y-95866000D03*
G04 #@! TO.P,U1,4*
G04 #@! TO.N,GND*
X100818000Y-95866000D03*
G04 #@! TD*
D11*
G04 #@! TO.P,R3,2*
G04 #@! TO.N,GND*
X106553000Y-99282000D03*
G04 #@! TO.P,R3,1*
G04 #@! TO.N,Net-(D1-Pad1)*
X106553000Y-97282000D03*
G04 #@! TD*
G04 #@! TO.P,R2,2*
G04 #@! TO.N,/VCC*
X106553000Y-103616000D03*
G04 #@! TO.P,R2,1*
G04 #@! TO.N,/SIG*
X106553000Y-101616000D03*
G04 #@! TD*
G04 #@! TO.P,R1,1*
G04 #@! TO.N,/VCC*
X106553000Y-106188000D03*
G04 #@! TO.P,R1,2*
G04 #@! TO.N,Net-(R1-Pad2)*
X106553000Y-108188000D03*
G04 #@! TD*
D12*
G04 #@! TO.P,D1,1,K*
G04 #@! TO.N,Net-(D1-Pad1)*
X106553000Y-95259000D03*
G04 #@! TO.P,D1,2,A*
G04 #@! TO.N,/SIG*
X106553000Y-93209000D03*
G04 #@! TD*
D13*
G04 #@! TO.P,J1,3,Pin_3*
G04 #@! TO.N,GND*
X111749000Y-103019000D03*
G04 #@! TO.P,J1,2,Pin_2*
G04 #@! TO.N,/VCC*
X111749000Y-104469000D03*
G04 #@! TO.P,J1,1,Pin_1*
G04 #@! TO.N,/SERVO*
X111749000Y-105919000D03*
D14*
G04 #@! TO.P,J1,*
G04 #@! TO.N,*
X109749000Y-95219000D03*
X124989000Y-95219000D03*
X124989000Y-107219000D03*
X109749000Y-107219000D03*
G04 #@! TD*
D15*
G04 #@! TO.P,J2,1,Pin_1*
G04 #@! TO.N,/VCC*
X114252000Y-90085000D03*
D16*
G04 #@! TO.P,J2,2,Pin_2*
G04 #@! TO.N,/SIG*
X112252000Y-90085000D03*
G04 #@! TO.P,J2,3,Pin_3*
G04 #@! TO.N,GND*
X110252000Y-90085000D03*
G04 #@! TO.P,J2,4,Pin_4*
G04 #@! TO.N,/SERVO*
X108252000Y-90085000D03*
G04 #@! TD*
D17*
G04 #@! TO.N,GND*
X104902000Y-99314000D03*
G04 #@! TO.N,Net-(R1-Pad2)*
X100838000Y-108331000D03*
G04 #@! TO.N,GND*
X110236000Y-88773000D03*
X104648000Y-104394000D03*
X109347000Y-102997000D03*
G04 #@! TO.N,/VCC*
X114300000Y-91694000D03*
G04 #@! TO.N,/SIG*
X112268000Y-91694000D03*
G04 #@! TO.N,/SERVO*
X108331000Y-105791000D03*
G04 #@! TO.N,/SIG*
X103378000Y-97409000D03*
G04 #@! TD*
D18*
G04 #@! TO.N,/SIG*
X103358000Y-96266000D02*
X103358000Y-94381000D01*
X104530000Y-93209000D02*
X106689000Y-93209000D01*
X103358000Y-94381000D02*
X104530000Y-93209000D01*
X106689000Y-93209000D02*
X108204000Y-91694000D01*
X108204000Y-91694000D02*
X112268000Y-91694000D01*
X103378000Y-97409000D02*
X102743000Y-98044000D01*
X102743000Y-98044000D02*
X102743000Y-99568000D01*
X104791000Y-101616000D02*
X106553000Y-101616000D01*
X102743000Y-99568000D02*
X104791000Y-101616000D01*
G04 #@! TO.N,Net-(D1-Pad1)*
X106553000Y-95132000D02*
X106553000Y-97282000D01*
G04 #@! TO.N,/SERVO*
X108331000Y-105791000D02*
X108458000Y-105664000D01*
X108458000Y-105664000D02*
X111494000Y-105664000D01*
X111494000Y-105664000D02*
X111749000Y-105919000D01*
G04 #@! TO.N,/VCC*
X106553000Y-103616000D02*
X106553000Y-106188000D01*
G04 #@! TO.N,Net-(R1-Pad2)*
X100838000Y-108331000D02*
X101219000Y-108712000D01*
X101219000Y-108712000D02*
X106029000Y-108712000D01*
X106029000Y-108712000D02*
X106553000Y-108188000D01*
G04 #@! TO.N,/VCC*
X111749000Y-104469000D02*
X107406000Y-104469000D01*
X107406000Y-104469000D02*
X106553000Y-103616000D01*
X114300000Y-91694000D02*
X113030000Y-92964000D01*
X113030000Y-92964000D02*
X108966000Y-92964000D01*
X107950000Y-104394000D02*
X107875000Y-104469000D01*
X108966000Y-92964000D02*
X107950000Y-93980000D01*
X107950000Y-93980000D02*
X107950000Y-104394000D01*
G04 #@! TD*
G04 #@! TA.AperFunction,Conductor*
G04 #@! TO.N,GND*
G36*
X116415317Y-87011078D02*
G01*
X116435587Y-87013747D01*
X116435591Y-87013747D01*
X116443118Y-87014738D01*
X116453852Y-87013553D01*
X116481782Y-87013584D01*
X116539815Y-87020123D01*
X116573833Y-87023956D01*
X116601335Y-87030233D01*
X116705587Y-87066712D01*
X116731001Y-87078951D01*
X116815430Y-87132001D01*
X116824519Y-87137712D01*
X116846578Y-87155304D01*
X116924670Y-87233396D01*
X116942262Y-87255455D01*
X117001022Y-87348971D01*
X117013262Y-87374387D01*
X117049740Y-87478635D01*
X117056018Y-87506140D01*
X117065650Y-87591620D01*
X117065493Y-87608004D01*
X117066307Y-87608013D01*
X117066228Y-87615611D01*
X117065236Y-87623142D01*
X117066070Y-87630692D01*
X117069213Y-87659165D01*
X117069974Y-87672992D01*
X117069974Y-92019832D01*
X117068717Y-92037586D01*
X117065344Y-92061286D01*
X117065200Y-92074999D01*
X117065696Y-92079095D01*
X117065696Y-92079099D01*
X117066211Y-92083350D01*
X117066854Y-92090251D01*
X117081799Y-92318274D01*
X117082315Y-92326148D01*
X117083117Y-92330181D01*
X117083118Y-92330187D01*
X117130611Y-92568949D01*
X117131417Y-92572999D01*
X117132744Y-92576908D01*
X117132745Y-92576912D01*
X117195040Y-92760427D01*
X117212319Y-92811329D01*
X117323637Y-93037060D01*
X117463467Y-93246330D01*
X117629415Y-93435559D01*
X117818644Y-93601507D01*
X118027914Y-93741337D01*
X118031613Y-93743161D01*
X118031618Y-93743164D01*
X118106688Y-93780184D01*
X118253645Y-93852655D01*
X118257550Y-93853980D01*
X118257551Y-93853981D01*
X118488062Y-93932229D01*
X118488066Y-93932230D01*
X118491975Y-93933557D01*
X118496019Y-93934361D01*
X118496025Y-93934363D01*
X118734787Y-93981856D01*
X118734793Y-93981857D01*
X118738826Y-93982659D01*
X118742931Y-93982928D01*
X118742938Y-93982929D01*
X118829573Y-93988607D01*
X118899801Y-93993210D01*
X118901537Y-93993377D01*
X118907860Y-93995000D01*
X118922988Y-93995000D01*
X118931228Y-93995270D01*
X118939022Y-93995781D01*
X118953144Y-93996706D01*
X118962643Y-93997692D01*
X118976262Y-93999630D01*
X118982925Y-93999700D01*
X118985842Y-93999731D01*
X118985848Y-93999731D01*
X118989975Y-93999774D01*
X119021879Y-93995913D01*
X119037018Y-93995000D01*
X123910132Y-93995000D01*
X123978253Y-94015002D01*
X124024746Y-94068658D01*
X124034850Y-94138932D01*
X124001226Y-94208050D01*
X123953496Y-94257997D01*
X123896701Y-94317430D01*
X123887519Y-94327038D01*
X123884605Y-94331310D01*
X123884604Y-94331311D01*
X123866017Y-94358559D01*
X123756629Y-94518916D01*
X123658835Y-94729595D01*
X123657453Y-94734577D01*
X123657453Y-94734578D01*
X123655586Y-94741310D01*
X123596764Y-94953417D01*
X123593121Y-94987511D01*
X123592279Y-94995388D01*
X123565152Y-95060998D01*
X123506860Y-95101526D01*
X123466992Y-95108000D01*
X111782715Y-95108000D01*
X111775343Y-95107784D01*
X111766561Y-95107269D01*
X111716053Y-95104309D01*
X111708273Y-95105828D01*
X111708270Y-95105828D01*
X111661034Y-95115050D01*
X111652684Y-95116391D01*
X111604932Y-95122423D01*
X111604929Y-95122424D01*
X111597067Y-95123417D01*
X111589697Y-95126335D01*
X111587361Y-95127260D01*
X111565118Y-95133775D01*
X111562643Y-95134258D01*
X111562642Y-95134258D01*
X111554868Y-95135776D01*
X111547712Y-95139181D01*
X111547709Y-95139182D01*
X111504252Y-95159859D01*
X111496501Y-95163233D01*
X111451744Y-95180954D01*
X111451739Y-95180957D01*
X111444371Y-95183874D01*
X111435924Y-95190012D01*
X111415997Y-95201853D01*
X111406572Y-95206338D01*
X111367203Y-95239193D01*
X111302090Y-95267482D01*
X111232015Y-95256078D01*
X111179230Y-95208598D01*
X111160897Y-95152779D01*
X111150716Y-95028949D01*
X111147309Y-94987511D01*
X111106504Y-94825059D01*
X111091984Y-94767251D01*
X111091983Y-94767247D01*
X111090725Y-94762240D01*
X111088668Y-94757510D01*
X111088666Y-94757503D01*
X111000168Y-94553971D01*
X111000166Y-94553968D01*
X110998108Y-94549234D01*
X110892224Y-94385562D01*
X110874755Y-94358559D01*
X110874753Y-94358556D01*
X110871945Y-94354216D01*
X110850393Y-94330530D01*
X110719102Y-94186244D01*
X110719100Y-94186243D01*
X110715624Y-94182422D01*
X110711573Y-94179223D01*
X110711569Y-94179219D01*
X110597815Y-94089382D01*
X110556752Y-94031465D01*
X110553520Y-93960542D01*
X110589145Y-93899130D01*
X110652317Y-93866728D01*
X110675907Y-93864500D01*
X112949213Y-93864500D01*
X112968923Y-93866051D01*
X112982612Y-93868219D01*
X112989200Y-93867874D01*
X112989204Y-93867874D01*
X113050280Y-93864673D01*
X113056874Y-93864500D01*
X113077192Y-93864500D01*
X113080459Y-93864157D01*
X113080470Y-93864156D01*
X113097400Y-93862376D01*
X113103966Y-93861859D01*
X113133627Y-93860305D01*
X113165052Y-93858659D01*
X113165057Y-93858658D01*
X113171646Y-93858313D01*
X113185037Y-93854725D01*
X113204479Y-93851122D01*
X113211693Y-93850364D01*
X113211695Y-93850364D01*
X113218256Y-93849674D01*
X113224533Y-93847634D01*
X113224535Y-93847634D01*
X113282701Y-93828735D01*
X113289025Y-93826862D01*
X113348109Y-93811030D01*
X113348115Y-93811028D01*
X113354488Y-93809320D01*
X113360367Y-93806324D01*
X113360371Y-93806323D01*
X113366840Y-93803027D01*
X113385097Y-93795464D01*
X113386453Y-93795023D01*
X113398284Y-93791179D01*
X113417328Y-93780184D01*
X113456971Y-93757297D01*
X113462766Y-93754151D01*
X113517266Y-93726381D01*
X113517269Y-93726379D01*
X113523149Y-93723383D01*
X113533920Y-93714661D01*
X113550209Y-93703466D01*
X113562216Y-93696533D01*
X113612580Y-93651185D01*
X113617596Y-93646901D01*
X113630816Y-93636195D01*
X113633380Y-93634119D01*
X113647729Y-93619770D01*
X113652513Y-93615229D01*
X113697985Y-93574286D01*
X113697986Y-93574284D01*
X113702888Y-93569871D01*
X113711041Y-93558649D01*
X113723878Y-93543621D01*
X114287540Y-92979959D01*
X114349852Y-92945933D01*
X114365651Y-92943533D01*
X114517977Y-92930207D01*
X114658255Y-92892620D01*
X114724020Y-92874998D01*
X114724022Y-92874997D01*
X114729330Y-92873575D01*
X114734312Y-92871252D01*
X114922652Y-92783428D01*
X114922657Y-92783425D01*
X114927639Y-92781102D01*
X115031867Y-92708121D01*
X115102366Y-92658757D01*
X115102369Y-92658755D01*
X115106877Y-92655598D01*
X115261598Y-92500877D01*
X115387102Y-92321638D01*
X115390505Y-92314342D01*
X115477252Y-92128312D01*
X115477253Y-92128310D01*
X115479575Y-92123330D01*
X115489367Y-92086788D01*
X115517814Y-91980621D01*
X115536207Y-91911977D01*
X115555277Y-91694000D01*
X115536207Y-91476023D01*
X115479575Y-91264670D01*
X115434089Y-91167125D01*
X115423428Y-91096933D01*
X115436017Y-91056673D01*
X115444322Y-91040372D01*
X115447320Y-91034488D01*
X115458151Y-90994067D01*
X115494818Y-90857223D01*
X115494819Y-90857217D01*
X115496312Y-90851645D01*
X115500888Y-90793500D01*
X115502307Y-90775477D01*
X115502307Y-90775470D01*
X115502500Y-90773021D01*
X115502499Y-89396980D01*
X115496312Y-89318355D01*
X115447320Y-89135512D01*
X115401732Y-89046040D01*
X115364380Y-88972732D01*
X115364378Y-88972729D01*
X115361383Y-88966851D01*
X115357230Y-88961722D01*
X115357227Y-88961718D01*
X115246412Y-88824874D01*
X115242257Y-88819743D01*
X115153357Y-88747753D01*
X115100282Y-88704773D01*
X115100278Y-88704770D01*
X115095149Y-88700617D01*
X115089271Y-88697622D01*
X115089268Y-88697620D01*
X115012334Y-88658420D01*
X114926488Y-88614680D01*
X114920114Y-88612972D01*
X114749223Y-88567182D01*
X114749217Y-88567181D01*
X114743645Y-88565688D01*
X114733747Y-88564909D01*
X114667477Y-88559693D01*
X114667470Y-88559693D01*
X114665021Y-88559500D01*
X114252168Y-88559500D01*
X113838980Y-88559501D01*
X113790057Y-88563351D01*
X113766109Y-88565235D01*
X113766107Y-88565235D01*
X113760355Y-88565688D01*
X113702429Y-88581209D01*
X113604850Y-88607355D01*
X113577512Y-88614680D01*
X113491666Y-88658420D01*
X113414732Y-88697620D01*
X113414729Y-88697622D01*
X113408851Y-88700617D01*
X113403722Y-88704770D01*
X113403718Y-88704773D01*
X113350643Y-88747753D01*
X113261743Y-88819743D01*
X113252527Y-88831124D01*
X113245290Y-88840061D01*
X113186876Y-88880412D01*
X113115918Y-88882776D01*
X113059685Y-88851247D01*
X113046180Y-88838159D01*
X113046172Y-88838153D01*
X113042146Y-88834251D01*
X112856868Y-88709750D01*
X112836063Y-88700617D01*
X112715102Y-88647519D01*
X112652471Y-88620026D01*
X112647023Y-88618718D01*
X112647017Y-88618716D01*
X112440872Y-88569225D01*
X112440871Y-88569225D01*
X112435415Y-88567915D01*
X112351197Y-88563059D01*
X112218169Y-88555389D01*
X112218166Y-88555389D01*
X112212562Y-88555066D01*
X111990956Y-88581883D01*
X111777600Y-88647519D01*
X111579241Y-88749901D01*
X111574799Y-88753310D01*
X111574795Y-88753312D01*
X111411213Y-88878833D01*
X111402146Y-88885790D01*
X111398376Y-88889933D01*
X111398371Y-88889938D01*
X111345545Y-88947993D01*
X111284905Y-88984916D01*
X111213929Y-88983193D01*
X111164666Y-88953678D01*
X111045858Y-88838544D01*
X111037176Y-88831514D01*
X110861279Y-88713316D01*
X110851490Y-88707935D01*
X110657447Y-88622755D01*
X110646859Y-88619192D01*
X110594617Y-88606650D01*
X110580531Y-88607355D01*
X110577000Y-88616235D01*
X110577000Y-90284000D01*
X110556998Y-90352121D01*
X110503342Y-90398614D01*
X110451000Y-90410000D01*
X110053000Y-90410000D01*
X109984879Y-90389998D01*
X109938386Y-90336342D01*
X109927000Y-90284000D01*
X109927000Y-88620196D01*
X109923027Y-88606665D01*
X109915579Y-88605594D01*
X109783152Y-88646335D01*
X109772807Y-88650556D01*
X109584493Y-88747753D01*
X109575062Y-88753738D01*
X109406929Y-88882750D01*
X109398712Y-88890306D01*
X109346240Y-88947972D01*
X109285600Y-88984894D01*
X109214624Y-88983171D01*
X109165362Y-88953656D01*
X109046174Y-88838154D01*
X109046171Y-88838152D01*
X109042146Y-88834251D01*
X108856868Y-88709750D01*
X108836063Y-88700617D01*
X108715102Y-88647519D01*
X108652471Y-88620026D01*
X108647023Y-88618718D01*
X108647017Y-88618716D01*
X108440872Y-88569225D01*
X108440871Y-88569225D01*
X108435415Y-88567915D01*
X108351197Y-88563059D01*
X108218169Y-88555389D01*
X108218166Y-88555389D01*
X108212562Y-88555066D01*
X107990956Y-88581883D01*
X107777600Y-88647519D01*
X107579241Y-88749901D01*
X107574799Y-88753310D01*
X107574795Y-88753312D01*
X107411213Y-88878833D01*
X107402146Y-88885790D01*
X107251914Y-89050893D01*
X107133293Y-89239990D01*
X107050034Y-89447105D01*
X107048897Y-89452593D01*
X107048896Y-89452598D01*
X107020926Y-89587661D01*
X107004767Y-89665690D01*
X107001500Y-89722349D01*
X107001500Y-90416630D01*
X107001749Y-90419417D01*
X107001749Y-90419423D01*
X107006122Y-90468423D01*
X107016289Y-90582339D01*
X107075192Y-90797651D01*
X107171292Y-90999129D01*
X107174561Y-91003679D01*
X107174568Y-91003690D01*
X107298687Y-91176419D01*
X107322195Y-91243410D01*
X107305753Y-91312477D01*
X107285460Y-91339040D01*
X106677905Y-91946595D01*
X106615593Y-91980621D01*
X106588810Y-91983500D01*
X106067150Y-91983501D01*
X106039980Y-91983501D01*
X105991057Y-91987351D01*
X105967109Y-91989235D01*
X105967107Y-91989235D01*
X105961355Y-91989688D01*
X105778512Y-92038680D01*
X105707232Y-92074999D01*
X105615732Y-92121620D01*
X105615729Y-92121622D01*
X105609851Y-92124617D01*
X105604722Y-92128770D01*
X105604718Y-92128773D01*
X105506811Y-92208057D01*
X105462743Y-92243743D01*
X105458588Y-92248874D01*
X105458583Y-92248879D01*
X105448126Y-92261793D01*
X105389713Y-92302146D01*
X105350205Y-92308500D01*
X104610787Y-92308500D01*
X104591076Y-92306949D01*
X104583904Y-92305813D01*
X104577388Y-92304781D01*
X104570801Y-92305126D01*
X104570796Y-92305126D01*
X104509727Y-92308327D01*
X104503133Y-92308500D01*
X104482808Y-92308500D01*
X104479536Y-92308844D01*
X104479534Y-92308844D01*
X104462585Y-92310625D01*
X104456011Y-92311142D01*
X104394955Y-92314342D01*
X104394954Y-92314342D01*
X104388354Y-92314688D01*
X104376540Y-92317854D01*
X104374971Y-92318274D01*
X104355533Y-92321877D01*
X104341744Y-92323326D01*
X104277281Y-92344271D01*
X104270980Y-92346138D01*
X104205512Y-92363680D01*
X104199633Y-92366676D01*
X104199629Y-92366677D01*
X104193160Y-92369973D01*
X104174903Y-92377536D01*
X104161716Y-92381821D01*
X104156001Y-92385121D01*
X104156000Y-92385121D01*
X104103029Y-92415703D01*
X104097234Y-92418849D01*
X104042734Y-92446619D01*
X104042731Y-92446621D01*
X104036851Y-92449617D01*
X104031722Y-92453771D01*
X104031721Y-92453771D01*
X104026080Y-92458339D01*
X104009791Y-92469534D01*
X103997784Y-92476467D01*
X103992874Y-92480888D01*
X103947420Y-92521815D01*
X103942404Y-92526099D01*
X103934078Y-92532842D01*
X103926620Y-92538881D01*
X103912271Y-92553230D01*
X103907487Y-92557771D01*
X103857112Y-92603129D01*
X103848959Y-92614351D01*
X103836122Y-92629379D01*
X102778379Y-93687122D01*
X102763351Y-93699959D01*
X102752129Y-93708112D01*
X102747716Y-93713014D01*
X102747714Y-93713015D01*
X102706771Y-93758487D01*
X102702230Y-93763271D01*
X102687881Y-93777620D01*
X102685805Y-93780184D01*
X102675099Y-93793404D01*
X102670815Y-93798420D01*
X102625467Y-93848784D01*
X102618534Y-93860791D01*
X102607339Y-93877080D01*
X102598617Y-93887851D01*
X102595621Y-93893731D01*
X102595619Y-93893734D01*
X102567849Y-93948234D01*
X102564703Y-93954029D01*
X102539774Y-93997208D01*
X102530821Y-94012716D01*
X102526977Y-94024547D01*
X102526536Y-94025903D01*
X102518973Y-94044160D01*
X102512680Y-94056512D01*
X102510972Y-94062885D01*
X102510970Y-94062891D01*
X102495138Y-94121975D01*
X102493265Y-94128299D01*
X102474438Y-94186244D01*
X102472326Y-94192744D01*
X102471636Y-94199305D01*
X102471636Y-94199307D01*
X102470878Y-94206521D01*
X102467275Y-94225963D01*
X102463687Y-94239354D01*
X102463342Y-94245943D01*
X102463341Y-94245948D01*
X102460142Y-94307017D01*
X102459624Y-94313600D01*
X102457844Y-94330530D01*
X102457843Y-94330541D01*
X102457500Y-94333808D01*
X102457500Y-94354126D01*
X102457327Y-94360720D01*
X102454158Y-94421195D01*
X102453781Y-94428388D01*
X102454813Y-94434904D01*
X102455949Y-94442076D01*
X102457500Y-94461787D01*
X102457500Y-94481722D01*
X102437498Y-94549843D01*
X102414081Y-94576887D01*
X102376485Y-94609512D01*
X102341703Y-94639694D01*
X102338320Y-94643820D01*
X102338316Y-94643824D01*
X102211809Y-94798111D01*
X102189713Y-94825059D01*
X102188232Y-94827661D01*
X102133705Y-94872026D01*
X102063152Y-94879947D01*
X101999516Y-94848466D01*
X101980420Y-94826212D01*
X101925384Y-94744463D01*
X101918723Y-94736178D01*
X101760681Y-94570508D01*
X101752724Y-94563468D01*
X101569034Y-94426799D01*
X101559997Y-94421195D01*
X101355905Y-94317430D01*
X101346054Y-94313430D01*
X101160300Y-94255752D01*
X101146201Y-94255534D01*
X101143000Y-94262265D01*
X101143000Y-97460472D01*
X101146973Y-97474003D01*
X101157580Y-97475528D01*
X101220003Y-97462430D01*
X101230182Y-97459375D01*
X101443125Y-97375281D01*
X101452661Y-97370547D01*
X101648389Y-97251777D01*
X101656987Y-97245506D01*
X101829900Y-97095460D01*
X101837319Y-97087831D01*
X101960367Y-96937762D01*
X102019027Y-96897768D01*
X102089997Y-96895836D01*
X102150746Y-96932580D01*
X102181985Y-96996334D01*
X102179509Y-97050264D01*
X102141793Y-97191023D01*
X102136478Y-97251777D01*
X102128518Y-97342758D01*
X102102654Y-97408876D01*
X102096635Y-97416085D01*
X102091773Y-97421485D01*
X102087230Y-97426271D01*
X102072881Y-97440620D01*
X102070805Y-97443184D01*
X102060099Y-97456404D01*
X102055815Y-97461420D01*
X102010467Y-97511784D01*
X102003534Y-97523791D01*
X101992339Y-97540080D01*
X101983617Y-97550851D01*
X101980621Y-97556731D01*
X101980619Y-97556734D01*
X101952849Y-97611234D01*
X101949703Y-97617029D01*
X101919121Y-97670000D01*
X101915821Y-97675716D01*
X101911977Y-97687547D01*
X101911536Y-97688903D01*
X101903973Y-97707160D01*
X101897680Y-97719512D01*
X101895972Y-97725885D01*
X101895970Y-97725891D01*
X101880138Y-97784975D01*
X101878265Y-97791299D01*
X101862984Y-97838330D01*
X101857326Y-97855744D01*
X101856636Y-97862305D01*
X101856636Y-97862307D01*
X101855878Y-97869521D01*
X101852275Y-97888963D01*
X101848687Y-97902354D01*
X101845543Y-97962367D01*
X101845142Y-97970017D01*
X101844624Y-97976600D01*
X101842844Y-97993530D01*
X101842843Y-97993541D01*
X101842500Y-97996808D01*
X101842500Y-98017126D01*
X101842327Y-98023720D01*
X101838781Y-98091388D01*
X101839813Y-98097904D01*
X101840949Y-98105076D01*
X101842500Y-98124787D01*
X101842500Y-99487213D01*
X101840949Y-99506923D01*
X101838781Y-99520612D01*
X101839126Y-99527200D01*
X101839126Y-99527204D01*
X101842327Y-99588280D01*
X101842500Y-99594874D01*
X101842500Y-99615192D01*
X101842843Y-99618459D01*
X101842844Y-99618470D01*
X101844624Y-99635400D01*
X101845141Y-99641966D01*
X101848687Y-99709646D01*
X101852274Y-99723031D01*
X101855878Y-99742479D01*
X101857326Y-99756256D01*
X101859366Y-99762533D01*
X101859366Y-99762535D01*
X101878265Y-99820701D01*
X101880138Y-99827025D01*
X101895970Y-99886109D01*
X101895972Y-99886115D01*
X101897680Y-99892488D01*
X101900676Y-99898367D01*
X101900677Y-99898371D01*
X101903973Y-99904840D01*
X101911536Y-99923097D01*
X101915821Y-99936284D01*
X101919121Y-99941999D01*
X101919121Y-99942000D01*
X101949703Y-99994971D01*
X101952849Y-100000766D01*
X101980619Y-100055266D01*
X101983617Y-100061149D01*
X101987771Y-100066278D01*
X101987771Y-100066279D01*
X101992339Y-100071920D01*
X102003534Y-100088209D01*
X102010467Y-100100216D01*
X102014888Y-100105126D01*
X102055815Y-100150580D01*
X102060099Y-100155596D01*
X102072881Y-100171380D01*
X102087230Y-100185729D01*
X102091771Y-100190513D01*
X102137129Y-100240888D01*
X102148351Y-100249041D01*
X102163379Y-100261878D01*
X104097122Y-102195621D01*
X104109959Y-102210649D01*
X104118112Y-102221871D01*
X104123014Y-102226284D01*
X104123015Y-102226286D01*
X104168487Y-102267229D01*
X104173271Y-102271770D01*
X104187620Y-102286119D01*
X104190184Y-102288195D01*
X104203404Y-102298901D01*
X104208420Y-102303185D01*
X104258784Y-102348533D01*
X104270791Y-102355466D01*
X104287080Y-102366661D01*
X104297851Y-102375383D01*
X104303731Y-102378379D01*
X104303734Y-102378381D01*
X104358234Y-102406151D01*
X104364029Y-102409297D01*
X104417000Y-102439879D01*
X104422716Y-102443179D01*
X104434547Y-102447023D01*
X104435903Y-102447464D01*
X104454160Y-102455027D01*
X104460629Y-102458323D01*
X104460633Y-102458324D01*
X104466512Y-102461320D01*
X104531980Y-102478862D01*
X104538281Y-102480729D01*
X104602744Y-102501674D01*
X104616087Y-102503076D01*
X104616533Y-102503123D01*
X104635971Y-102506726D01*
X104637540Y-102507146D01*
X104649354Y-102510312D01*
X104655954Y-102510658D01*
X104655955Y-102510658D01*
X104717011Y-102513858D01*
X104723585Y-102514375D01*
X104740534Y-102516156D01*
X104740536Y-102516156D01*
X104743808Y-102516500D01*
X104764133Y-102516500D01*
X104770727Y-102516673D01*
X104831796Y-102519874D01*
X104831801Y-102519874D01*
X104838388Y-102520219D01*
X104852077Y-102518051D01*
X104871787Y-102516500D01*
X105287042Y-102516500D01*
X105355163Y-102536502D01*
X105401656Y-102590158D01*
X105411760Y-102660432D01*
X105384964Y-102721792D01*
X105343617Y-102772851D01*
X105257680Y-102941512D01*
X105255972Y-102947885D01*
X105255972Y-102947886D01*
X105210182Y-103118777D01*
X105210181Y-103118783D01*
X105208688Y-103124355D01*
X105202500Y-103202979D01*
X105202501Y-104029020D01*
X105208688Y-104107645D01*
X105257680Y-104290488D01*
X105343617Y-104459149D01*
X105347770Y-104464278D01*
X105347773Y-104464282D01*
X105449396Y-104589775D01*
X105462743Y-104606257D01*
X105605796Y-104722099D01*
X105646147Y-104780512D01*
X105652500Y-104820018D01*
X105652500Y-104983982D01*
X105632498Y-105052103D01*
X105605797Y-105081900D01*
X105462743Y-105197743D01*
X105458588Y-105202874D01*
X105347773Y-105339718D01*
X105347770Y-105339722D01*
X105343617Y-105344851D01*
X105257680Y-105513512D01*
X105255972Y-105519885D01*
X105255972Y-105519886D01*
X105210182Y-105690777D01*
X105210181Y-105690783D01*
X105208688Y-105696355D01*
X105208235Y-105702111D01*
X105203824Y-105758160D01*
X105202500Y-105774979D01*
X105202501Y-106601020D01*
X105208688Y-106679645D01*
X105257680Y-106862488D01*
X105286195Y-106918452D01*
X105340484Y-107025000D01*
X105343617Y-107031149D01*
X105406423Y-107108708D01*
X105433748Y-107174233D01*
X105421309Y-107244131D01*
X105406427Y-107267288D01*
X105343617Y-107344851D01*
X105340622Y-107350729D01*
X105340620Y-107350732D01*
X105307234Y-107416256D01*
X105257680Y-107513512D01*
X105255972Y-107519885D01*
X105255972Y-107519886D01*
X105210181Y-107690781D01*
X105210180Y-107690787D01*
X105208688Y-107696355D01*
X105208235Y-107702108D01*
X105207423Y-107706836D01*
X105176175Y-107770586D01*
X105115421Y-107807322D01*
X105083243Y-107811500D01*
X104768626Y-107811500D01*
X104700505Y-107791498D01*
X104654012Y-107737842D01*
X104643908Y-107667568D01*
X104650187Y-107642509D01*
X104724355Y-107438178D01*
X104727126Y-107427910D01*
X104768077Y-107201445D01*
X104769012Y-107193215D01*
X104769930Y-107173742D01*
X104770000Y-107170767D01*
X104770000Y-107169115D01*
X104765525Y-107153876D01*
X104764135Y-107152671D01*
X104756452Y-107151000D01*
X103159000Y-107151000D01*
X103090879Y-107130998D01*
X103044386Y-107077342D01*
X103033000Y-107025000D01*
X103033000Y-106482885D01*
X103683000Y-106482885D01*
X103687475Y-106498124D01*
X103688865Y-106499329D01*
X103696548Y-106501000D01*
X104749608Y-106501000D01*
X104764286Y-106496690D01*
X104766349Y-106484807D01*
X104755296Y-106354544D01*
X104753506Y-106344072D01*
X104695988Y-106122464D01*
X104692452Y-106112424D01*
X104598417Y-105903673D01*
X104593248Y-105894387D01*
X104465384Y-105704464D01*
X104458723Y-105696178D01*
X104300681Y-105530508D01*
X104292724Y-105523468D01*
X104109034Y-105386799D01*
X104099997Y-105381195D01*
X103895905Y-105277430D01*
X103886054Y-105273430D01*
X103700300Y-105215752D01*
X103686201Y-105215534D01*
X103683000Y-105222265D01*
X103683000Y-106482885D01*
X103033000Y-106482885D01*
X103033000Y-105231528D01*
X103029027Y-105217997D01*
X103018420Y-105216472D01*
X102955997Y-105229570D01*
X102945818Y-105232625D01*
X102732875Y-105316719D01*
X102723339Y-105321453D01*
X102527611Y-105440223D01*
X102519013Y-105446494D01*
X102346100Y-105596540D01*
X102338674Y-105604175D01*
X102193516Y-105781209D01*
X102189389Y-105787215D01*
X102134321Y-105832027D01*
X102063769Y-105839954D01*
X102000130Y-105808478D01*
X101981027Y-105786217D01*
X101944304Y-105731671D01*
X101922795Y-105699722D01*
X101906611Y-105682756D01*
X101761017Y-105530135D01*
X101757335Y-105526275D01*
X101649554Y-105446084D01*
X101569296Y-105386370D01*
X101569293Y-105386368D01*
X101565016Y-105383186D01*
X101433409Y-105316274D01*
X101356094Y-105276965D01*
X101356093Y-105276965D01*
X101351338Y-105274547D01*
X101122410Y-105203463D01*
X101117123Y-105202762D01*
X101117122Y-105202762D01*
X100890062Y-105172667D01*
X100890058Y-105172667D01*
X100884778Y-105171967D01*
X100879449Y-105172167D01*
X100879447Y-105172167D01*
X100765008Y-105176463D01*
X100645237Y-105180960D01*
X100410636Y-105230184D01*
X100405680Y-105232141D01*
X100405674Y-105232143D01*
X100246009Y-105295199D01*
X100187682Y-105318233D01*
X100182376Y-105321453D01*
X99987312Y-105439820D01*
X99987309Y-105439822D01*
X99982751Y-105442588D01*
X99978723Y-105446083D01*
X99978722Y-105446084D01*
X99817574Y-105585922D01*
X99801703Y-105599694D01*
X99798320Y-105603820D01*
X99798316Y-105603824D01*
X99653097Y-105780931D01*
X99653093Y-105780937D01*
X99649713Y-105785059D01*
X99647074Y-105789695D01*
X99647072Y-105789698D01*
X99582194Y-105903673D01*
X99531128Y-105993382D01*
X99449339Y-106218707D01*
X99406684Y-106454591D01*
X99405500Y-106479699D01*
X99405500Y-107124187D01*
X99409842Y-107175363D01*
X99419702Y-107291558D01*
X99420660Y-107302852D01*
X99421998Y-107308007D01*
X99421999Y-107308013D01*
X99477921Y-107523471D01*
X99480881Y-107534874D01*
X99483073Y-107539740D01*
X99483074Y-107539743D01*
X99503123Y-107584249D01*
X99579334Y-107753432D01*
X99593841Y-107774980D01*
X99632289Y-107832089D01*
X99653740Y-107899767D01*
X99649476Y-107935067D01*
X99601793Y-108113023D01*
X99582723Y-108331000D01*
X99601793Y-108548977D01*
X99658425Y-108760330D01*
X99750898Y-108958638D01*
X99876402Y-109137877D01*
X100031123Y-109292598D01*
X100035631Y-109295755D01*
X100035634Y-109295757D01*
X100205852Y-109414945D01*
X100210361Y-109418102D01*
X100215343Y-109420425D01*
X100215348Y-109420428D01*
X100393813Y-109503647D01*
X100408670Y-109510575D01*
X100413978Y-109511997D01*
X100413980Y-109511998D01*
X100473477Y-109527940D01*
X100620023Y-109567207D01*
X100838000Y-109586277D01*
X100936685Y-109577643D01*
X100986600Y-109583331D01*
X101030744Y-109597674D01*
X101044087Y-109599076D01*
X101044533Y-109599123D01*
X101063971Y-109602726D01*
X101065540Y-109603146D01*
X101077354Y-109606312D01*
X101083954Y-109606658D01*
X101083955Y-109606658D01*
X101145011Y-109609858D01*
X101151585Y-109610375D01*
X101168534Y-109612156D01*
X101168536Y-109612156D01*
X101171808Y-109612500D01*
X101192133Y-109612500D01*
X101198727Y-109612673D01*
X101259796Y-109615874D01*
X101259801Y-109615874D01*
X101266388Y-109616219D01*
X101280077Y-109614051D01*
X101299787Y-109612500D01*
X105948213Y-109612500D01*
X105967923Y-109614051D01*
X105981612Y-109616219D01*
X105988200Y-109615874D01*
X105988204Y-109615874D01*
X106049280Y-109612673D01*
X106055874Y-109612500D01*
X106076192Y-109612500D01*
X106079459Y-109612157D01*
X106079470Y-109612156D01*
X106096400Y-109610376D01*
X106102966Y-109609859D01*
X106132627Y-109608305D01*
X106164052Y-109606659D01*
X106164057Y-109606658D01*
X106170646Y-109606313D01*
X106184037Y-109602725D01*
X106203479Y-109599122D01*
X106210693Y-109598364D01*
X106210695Y-109598364D01*
X106217256Y-109597674D01*
X106223533Y-109595634D01*
X106223535Y-109595634D01*
X106281701Y-109576735D01*
X106288025Y-109574862D01*
X106347109Y-109559030D01*
X106347115Y-109559028D01*
X106353488Y-109557320D01*
X106359367Y-109554324D01*
X106359371Y-109554323D01*
X106365840Y-109551027D01*
X106384097Y-109543464D01*
X106385453Y-109543023D01*
X106397284Y-109539179D01*
X106416751Y-109527940D01*
X106455971Y-109505297D01*
X106461766Y-109502151D01*
X106516266Y-109474381D01*
X106516269Y-109474379D01*
X106522149Y-109471383D01*
X106528084Y-109466577D01*
X106528639Y-109466345D01*
X106532816Y-109463633D01*
X106533312Y-109464397D01*
X106593612Y-109439253D01*
X106607376Y-109438499D01*
X106760146Y-109438499D01*
X106828267Y-109458501D01*
X106874760Y-109512157D01*
X106884864Y-109582431D01*
X106873152Y-109620227D01*
X106807345Y-109753671D01*
X106806020Y-109757576D01*
X106806019Y-109757577D01*
X106747015Y-109931399D01*
X106726443Y-109992001D01*
X106725639Y-109996045D01*
X106725637Y-109996051D01*
X106680894Y-110220992D01*
X106677341Y-110238852D01*
X106677072Y-110242957D01*
X106677071Y-110242964D01*
X106666791Y-110399814D01*
X106666623Y-110401563D01*
X106665000Y-110407886D01*
X106665000Y-110423014D01*
X106664730Y-110431254D01*
X106663294Y-110453166D01*
X106662308Y-110462669D01*
X106660370Y-110476288D01*
X106660226Y-110490001D01*
X106660723Y-110494107D01*
X106664087Y-110521906D01*
X106665000Y-110537044D01*
X106665000Y-112343896D01*
X106663922Y-112360342D01*
X106660262Y-112388143D01*
X106661096Y-112395696D01*
X106662672Y-112409978D01*
X106663281Y-112429984D01*
X106647030Y-112760792D01*
X106645819Y-112773093D01*
X106597079Y-113101672D01*
X106592989Y-113129243D01*
X106590580Y-113141358D01*
X106528606Y-113388772D01*
X106503094Y-113490622D01*
X106499505Y-113502454D01*
X106378208Y-113841456D01*
X106373476Y-113852880D01*
X106219537Y-114178356D01*
X106213708Y-114189261D01*
X106028607Y-114498083D01*
X106021737Y-114508364D01*
X105807267Y-114797545D01*
X105799423Y-114807104D01*
X105557627Y-115073884D01*
X105548889Y-115082622D01*
X105286812Y-115320156D01*
X105282104Y-115324423D01*
X105272545Y-115332267D01*
X104983364Y-115546737D01*
X104973083Y-115553607D01*
X104664261Y-115738708D01*
X104653356Y-115744537D01*
X104327880Y-115898476D01*
X104316456Y-115903208D01*
X103977454Y-116024505D01*
X103965624Y-116028094D01*
X103616358Y-116115580D01*
X103604252Y-116117987D01*
X103248093Y-116170819D01*
X103235797Y-116172030D01*
X103072190Y-116180067D01*
X102876182Y-116189696D01*
X102863818Y-116189696D01*
X102667810Y-116180067D01*
X102504203Y-116172030D01*
X102491907Y-116170819D01*
X102135748Y-116117987D01*
X102123642Y-116115580D01*
X101774376Y-116028094D01*
X101762546Y-116024505D01*
X101423544Y-115903208D01*
X101412120Y-115898476D01*
X101086644Y-115744537D01*
X101075739Y-115738708D01*
X100766917Y-115553607D01*
X100756636Y-115546737D01*
X100467455Y-115332267D01*
X100457896Y-115324423D01*
X100453188Y-115320156D01*
X100191111Y-115082622D01*
X100182373Y-115073884D01*
X99940577Y-114807104D01*
X99932733Y-114797545D01*
X99718263Y-114508364D01*
X99711393Y-114498083D01*
X99526292Y-114189261D01*
X99520463Y-114178356D01*
X99366524Y-113852880D01*
X99361792Y-113841456D01*
X99240495Y-113502454D01*
X99236906Y-113490622D01*
X99211394Y-113388772D01*
X99149420Y-113141358D01*
X99147011Y-113129243D01*
X99142922Y-113101672D01*
X99094181Y-112773093D01*
X99092970Y-112760792D01*
X99081239Y-112522000D01*
X100614671Y-112522000D01*
X100614941Y-112526119D01*
X100630323Y-112760792D01*
X100633966Y-112816380D01*
X100691519Y-113105722D01*
X100692845Y-113109628D01*
X100692846Y-113109632D01*
X100703620Y-113141371D01*
X100786348Y-113385077D01*
X100916828Y-113649664D01*
X101080727Y-113894957D01*
X101083441Y-113898051D01*
X101083445Y-113898057D01*
X101272533Y-114113669D01*
X101275242Y-114116758D01*
X101278331Y-114119467D01*
X101493943Y-114308555D01*
X101493949Y-114308559D01*
X101497043Y-114311273D01*
X101500469Y-114313562D01*
X101500474Y-114313566D01*
X101684539Y-114436554D01*
X101742335Y-114475172D01*
X101746034Y-114476996D01*
X101746039Y-114476999D01*
X102003228Y-114603830D01*
X102006923Y-114605652D01*
X102010821Y-114606975D01*
X102010823Y-114606976D01*
X102282368Y-114699154D01*
X102282372Y-114699155D01*
X102286278Y-114700481D01*
X102290322Y-114701285D01*
X102290328Y-114701287D01*
X102571577Y-114757230D01*
X102571580Y-114757230D01*
X102575620Y-114758034D01*
X102579731Y-114758303D01*
X102579735Y-114758304D01*
X102865881Y-114777059D01*
X102870000Y-114777329D01*
X102874119Y-114777059D01*
X103160265Y-114758304D01*
X103160269Y-114758303D01*
X103164380Y-114758034D01*
X103168420Y-114757230D01*
X103168423Y-114757230D01*
X103449672Y-114701287D01*
X103449678Y-114701285D01*
X103453722Y-114700481D01*
X103457628Y-114699155D01*
X103457632Y-114699154D01*
X103729177Y-114606976D01*
X103729179Y-114606975D01*
X103733077Y-114605652D01*
X103736772Y-114603830D01*
X103993961Y-114476999D01*
X103993966Y-114476996D01*
X103997665Y-114475172D01*
X104055461Y-114436554D01*
X104239526Y-114313566D01*
X104239531Y-114313562D01*
X104242957Y-114311273D01*
X104246051Y-114308559D01*
X104246057Y-114308555D01*
X104461669Y-114119467D01*
X104464758Y-114116758D01*
X104467467Y-114113669D01*
X104656555Y-113898057D01*
X104656559Y-113898051D01*
X104659273Y-113894957D01*
X104823172Y-113649664D01*
X104953652Y-113385077D01*
X105036380Y-113141371D01*
X105047154Y-113109632D01*
X105047155Y-113109628D01*
X105048481Y-113105722D01*
X105106034Y-112816380D01*
X105109678Y-112760792D01*
X105125059Y-112526119D01*
X105125329Y-112522000D01*
X105117163Y-112397413D01*
X105106304Y-112231735D01*
X105106303Y-112231731D01*
X105106034Y-112227620D01*
X105048481Y-111938278D01*
X104953652Y-111658923D01*
X104823172Y-111394336D01*
X104659273Y-111149043D01*
X104656559Y-111145949D01*
X104656555Y-111145943D01*
X104467467Y-110930331D01*
X104464758Y-110927242D01*
X104461669Y-110924533D01*
X104246057Y-110735445D01*
X104246051Y-110735441D01*
X104242957Y-110732727D01*
X104239527Y-110730435D01*
X104239526Y-110730434D01*
X104001098Y-110571122D01*
X103997665Y-110568828D01*
X103993966Y-110567004D01*
X103993961Y-110567001D01*
X103736772Y-110440170D01*
X103736770Y-110440169D01*
X103733077Y-110438348D01*
X103623903Y-110401288D01*
X103457632Y-110344846D01*
X103457628Y-110344845D01*
X103453722Y-110343519D01*
X103449678Y-110342715D01*
X103449672Y-110342713D01*
X103168423Y-110286770D01*
X103168420Y-110286770D01*
X103164380Y-110285966D01*
X103160269Y-110285697D01*
X103160265Y-110285696D01*
X102874119Y-110266941D01*
X102870000Y-110266671D01*
X102865881Y-110266941D01*
X102579735Y-110285696D01*
X102579731Y-110285697D01*
X102575620Y-110285966D01*
X102571580Y-110286770D01*
X102571577Y-110286770D01*
X102290328Y-110342713D01*
X102290322Y-110342715D01*
X102286278Y-110343519D01*
X102282372Y-110344845D01*
X102282368Y-110344846D01*
X102116097Y-110401288D01*
X102006923Y-110438348D01*
X102003230Y-110440169D01*
X102003228Y-110440170D01*
X101746040Y-110567001D01*
X101746035Y-110567004D01*
X101742336Y-110568828D01*
X101497043Y-110732727D01*
X101493949Y-110735441D01*
X101493943Y-110735445D01*
X101278331Y-110924533D01*
X101275242Y-110927242D01*
X101272533Y-110930331D01*
X101083445Y-111145943D01*
X101083441Y-111145949D01*
X101080727Y-111149043D01*
X100916828Y-111394336D01*
X100786348Y-111658923D01*
X100691519Y-111938278D01*
X100633966Y-112227620D01*
X100633697Y-112231731D01*
X100633696Y-112231735D01*
X100622837Y-112397413D01*
X100614671Y-112522000D01*
X99081239Y-112522000D01*
X99077280Y-112441399D01*
X99078384Y-112417470D01*
X99079049Y-112412798D01*
X99079049Y-112412792D01*
X99079630Y-112408713D01*
X99079774Y-112395000D01*
X99075913Y-112363095D01*
X99075000Y-112347957D01*
X99075000Y-96207193D01*
X99409651Y-96207193D01*
X99420704Y-96337456D01*
X99422494Y-96347928D01*
X99480012Y-96569536D01*
X99483548Y-96579576D01*
X99577583Y-96788327D01*
X99582752Y-96797613D01*
X99710616Y-96987536D01*
X99717277Y-96995822D01*
X99875319Y-97161492D01*
X99883276Y-97168532D01*
X100066966Y-97305201D01*
X100076003Y-97310805D01*
X100280095Y-97414570D01*
X100289946Y-97418570D01*
X100475700Y-97476248D01*
X100489799Y-97476466D01*
X100493000Y-97469735D01*
X100493000Y-96209115D01*
X100488525Y-96193876D01*
X100487135Y-96192671D01*
X100479452Y-96191000D01*
X99426392Y-96191000D01*
X99411714Y-96195310D01*
X99409651Y-96207193D01*
X99075000Y-96207193D01*
X99075000Y-95522885D01*
X99406000Y-95522885D01*
X99410475Y-95538124D01*
X99411865Y-95539329D01*
X99419548Y-95541000D01*
X100474885Y-95541000D01*
X100490124Y-95536525D01*
X100491329Y-95535135D01*
X100493000Y-95527452D01*
X100493000Y-94271528D01*
X100489027Y-94257997D01*
X100478420Y-94256472D01*
X100415997Y-94269570D01*
X100405818Y-94272625D01*
X100192875Y-94356719D01*
X100183339Y-94361453D01*
X99987611Y-94480223D01*
X99979013Y-94486494D01*
X99806100Y-94636540D01*
X99798674Y-94644175D01*
X99653512Y-94821215D01*
X99647486Y-94829982D01*
X99534227Y-95028949D01*
X99529762Y-95038613D01*
X99451645Y-95253822D01*
X99448874Y-95264090D01*
X99407923Y-95490555D01*
X99406988Y-95498785D01*
X99406070Y-95518258D01*
X99406000Y-95521233D01*
X99406000Y-95522885D01*
X99075000Y-95522885D01*
X99075000Y-90221104D01*
X99076078Y-90204658D01*
X99078747Y-90184388D01*
X99078747Y-90184384D01*
X99079738Y-90176857D01*
X99078981Y-90170000D01*
X99979671Y-90170000D01*
X99979941Y-90174119D01*
X99997870Y-90447651D01*
X99998966Y-90464380D01*
X100056519Y-90753722D01*
X100057845Y-90757628D01*
X100057846Y-90757632D01*
X100091653Y-90857223D01*
X100151348Y-91033077D01*
X100153169Y-91036770D01*
X100153170Y-91036772D01*
X100268176Y-91269980D01*
X100281828Y-91297664D01*
X100445727Y-91542957D01*
X100448441Y-91546051D01*
X100448445Y-91546057D01*
X100582990Y-91699475D01*
X100640242Y-91764758D01*
X100643331Y-91767467D01*
X100858943Y-91956555D01*
X100858949Y-91956559D01*
X100862043Y-91959273D01*
X100865469Y-91961562D01*
X100865474Y-91961566D01*
X101008605Y-92057203D01*
X101107335Y-92123172D01*
X101111034Y-92124996D01*
X101111039Y-92124999D01*
X101351829Y-92243743D01*
X101371923Y-92253652D01*
X101375821Y-92254975D01*
X101375823Y-92254976D01*
X101647368Y-92347154D01*
X101647372Y-92347155D01*
X101651278Y-92348481D01*
X101655322Y-92349285D01*
X101655328Y-92349287D01*
X101936577Y-92405230D01*
X101936580Y-92405230D01*
X101940620Y-92406034D01*
X101944731Y-92406303D01*
X101944735Y-92406304D01*
X102230881Y-92425059D01*
X102235000Y-92425329D01*
X102239119Y-92425059D01*
X102525265Y-92406304D01*
X102525269Y-92406303D01*
X102529380Y-92406034D01*
X102533420Y-92405230D01*
X102533423Y-92405230D01*
X102814672Y-92349287D01*
X102814678Y-92349285D01*
X102818722Y-92348481D01*
X102822628Y-92347155D01*
X102822632Y-92347154D01*
X103094177Y-92254976D01*
X103094179Y-92254975D01*
X103098077Y-92253652D01*
X103118171Y-92243743D01*
X103358961Y-92124999D01*
X103358966Y-92124996D01*
X103362665Y-92123172D01*
X103461395Y-92057203D01*
X103604526Y-91961566D01*
X103604531Y-91961562D01*
X103607957Y-91959273D01*
X103611051Y-91956559D01*
X103611057Y-91956555D01*
X103826669Y-91767467D01*
X103829758Y-91764758D01*
X103887010Y-91699475D01*
X104021555Y-91546057D01*
X104021559Y-91546051D01*
X104024273Y-91542957D01*
X104188172Y-91297664D01*
X104201825Y-91269980D01*
X104316830Y-91036772D01*
X104316831Y-91036770D01*
X104318652Y-91033077D01*
X104378347Y-90857223D01*
X104412154Y-90757632D01*
X104412155Y-90757628D01*
X104413481Y-90753722D01*
X104471034Y-90464380D01*
X104472131Y-90447651D01*
X104490059Y-90174119D01*
X104490329Y-90170000D01*
X104471034Y-89875620D01*
X104452196Y-89780915D01*
X104414287Y-89590328D01*
X104414285Y-89590322D01*
X104413481Y-89586278D01*
X104368103Y-89452598D01*
X104319976Y-89310823D01*
X104319975Y-89310821D01*
X104318652Y-89306923D01*
X104237265Y-89141886D01*
X104189999Y-89046040D01*
X104189996Y-89046035D01*
X104188172Y-89042336D01*
X104024273Y-88797043D01*
X104021559Y-88793949D01*
X104021555Y-88793943D01*
X103832467Y-88578331D01*
X103829758Y-88575242D01*
X103811808Y-88559500D01*
X103611057Y-88383445D01*
X103611051Y-88383441D01*
X103607957Y-88380727D01*
X103604527Y-88378435D01*
X103604526Y-88378434D01*
X103366098Y-88219122D01*
X103362665Y-88216828D01*
X103358966Y-88215004D01*
X103358961Y-88215001D01*
X103101772Y-88088170D01*
X103101770Y-88088169D01*
X103098077Y-88086348D01*
X103094177Y-88085024D01*
X102822632Y-87992846D01*
X102822628Y-87992845D01*
X102818722Y-87991519D01*
X102814678Y-87990715D01*
X102814672Y-87990713D01*
X102533423Y-87934770D01*
X102533420Y-87934770D01*
X102529380Y-87933966D01*
X102525269Y-87933697D01*
X102525265Y-87933696D01*
X102239119Y-87914941D01*
X102235000Y-87914671D01*
X102230881Y-87914941D01*
X101944735Y-87933696D01*
X101944731Y-87933697D01*
X101940620Y-87933966D01*
X101936580Y-87934770D01*
X101936577Y-87934770D01*
X101655328Y-87990713D01*
X101655322Y-87990715D01*
X101651278Y-87991519D01*
X101647372Y-87992845D01*
X101647368Y-87992846D01*
X101375823Y-88085024D01*
X101371923Y-88086348D01*
X101368230Y-88088169D01*
X101368228Y-88088170D01*
X101111040Y-88215001D01*
X101111035Y-88215004D01*
X101107336Y-88216828D01*
X100862043Y-88380727D01*
X100858949Y-88383441D01*
X100858943Y-88383445D01*
X100658192Y-88559500D01*
X100640242Y-88575242D01*
X100637533Y-88578331D01*
X100448445Y-88793943D01*
X100448441Y-88793949D01*
X100445727Y-88797043D01*
X100281828Y-89042336D01*
X100280004Y-89046035D01*
X100280001Y-89046040D01*
X100232735Y-89141886D01*
X100151348Y-89306923D01*
X100150025Y-89310821D01*
X100150024Y-89310823D01*
X100101898Y-89452598D01*
X100056519Y-89586278D01*
X100055715Y-89590322D01*
X100055713Y-89590328D01*
X100017804Y-89780915D01*
X99998966Y-89875620D01*
X99979671Y-90170000D01*
X99078981Y-90170000D01*
X99077467Y-90156287D01*
X99077406Y-90155731D01*
X99076818Y-90135311D01*
X99091965Y-89846289D01*
X99093343Y-89833172D01*
X99105983Y-89753370D01*
X99143020Y-89519522D01*
X99145762Y-89506622D01*
X99217206Y-89239990D01*
X99227954Y-89199878D01*
X99232029Y-89187336D01*
X99238350Y-89170871D01*
X99345828Y-88890881D01*
X99351192Y-88878833D01*
X99495363Y-88595880D01*
X99501957Y-88584459D01*
X99674916Y-88318126D01*
X99682664Y-88307463D01*
X99757539Y-88215001D01*
X99882507Y-88060678D01*
X99891332Y-88050877D01*
X100115877Y-87826332D01*
X100125678Y-87817507D01*
X100131533Y-87812766D01*
X100372466Y-87617662D01*
X100383126Y-87609916D01*
X100649464Y-87436954D01*
X100660880Y-87430363D01*
X100943833Y-87286192D01*
X100955881Y-87280828D01*
X101079445Y-87233396D01*
X101252344Y-87167027D01*
X101264880Y-87162953D01*
X101571622Y-87080762D01*
X101584522Y-87078020D01*
X101670512Y-87064401D01*
X101898178Y-87028342D01*
X101911286Y-87026965D01*
X102192791Y-87012212D01*
X102215831Y-87013117D01*
X102220613Y-87013747D01*
X102220616Y-87013747D01*
X102228143Y-87014738D01*
X102264166Y-87010761D01*
X102277993Y-87010000D01*
X116398871Y-87010000D01*
X116415317Y-87011078D01*
G37*
G04 #@! TD.AperFunction*
G04 #@! TA.AperFunction,Conductor*
G36*
X109062753Y-102232484D02*
G01*
X109088903Y-102257040D01*
X109095846Y-102260857D01*
X109095847Y-102260858D01*
X109096584Y-102261263D01*
X109116190Y-102274588D01*
X109116835Y-102275122D01*
X109116842Y-102275126D01*
X109122945Y-102280175D01*
X109175200Y-102304764D01*
X109182213Y-102308338D01*
X109232817Y-102336158D01*
X109240493Y-102338129D01*
X109240496Y-102338130D01*
X109241306Y-102338338D01*
X109263622Y-102346373D01*
X109271543Y-102350100D01*
X109321426Y-102359615D01*
X109328244Y-102360916D01*
X109335972Y-102362643D01*
X109391886Y-102377000D01*
X109400650Y-102377000D01*
X109424258Y-102379232D01*
X109432862Y-102380873D01*
X109490464Y-102377249D01*
X109498375Y-102377000D01*
X110080973Y-102377000D01*
X110149094Y-102397002D01*
X110195587Y-102450658D01*
X110205691Y-102520932D01*
X110198003Y-102549690D01*
X110145107Y-102682273D01*
X110145719Y-102689107D01*
X110160871Y-102694000D01*
X110984000Y-102694000D01*
X111052121Y-102714002D01*
X111098614Y-102767658D01*
X111110000Y-102820000D01*
X111110000Y-103217357D01*
X111089998Y-103285478D01*
X111036342Y-103331971D01*
X111018200Y-103338627D01*
X111015920Y-103339270D01*
X110981720Y-103344000D01*
X110161164Y-103344000D01*
X110147633Y-103347973D01*
X110146759Y-103354056D01*
X110163299Y-103398889D01*
X110168111Y-103469722D01*
X110133864Y-103531912D01*
X110071431Y-103565715D01*
X110045087Y-103568500D01*
X108976500Y-103568500D01*
X108908379Y-103548498D01*
X108861886Y-103494842D01*
X108850500Y-103442500D01*
X108850500Y-102324333D01*
X108870502Y-102256212D01*
X108924158Y-102209719D01*
X108994432Y-102199615D01*
X109062753Y-102232484D01*
G37*
G04 #@! TD.AperFunction*
G04 #@! TA.AperFunction,Conductor*
G36*
X105415897Y-94129502D02*
G01*
X105462390Y-94183158D01*
X105472494Y-94253432D01*
X105445696Y-94314794D01*
X105347773Y-94435718D01*
X105347770Y-94435722D01*
X105343617Y-94440851D01*
X105340622Y-94446729D01*
X105340620Y-94446732D01*
X105323556Y-94480223D01*
X105257680Y-94609512D01*
X105255972Y-94615885D01*
X105255972Y-94615886D01*
X105210182Y-94786777D01*
X105210181Y-94786783D01*
X105208688Y-94792355D01*
X105208235Y-94798111D01*
X105205727Y-94829982D01*
X105202500Y-94870979D01*
X105202501Y-95647020D01*
X105208688Y-95725645D01*
X105257680Y-95908488D01*
X105343617Y-96077149D01*
X105425858Y-96178707D01*
X105453182Y-96244233D01*
X105440742Y-96314132D01*
X105425859Y-96337291D01*
X105343617Y-96438851D01*
X105340622Y-96444729D01*
X105340620Y-96444732D01*
X105311141Y-96502588D01*
X105257680Y-96607512D01*
X105255972Y-96613885D01*
X105255972Y-96613886D01*
X105210182Y-96784777D01*
X105210181Y-96784783D01*
X105208688Y-96790355D01*
X105208235Y-96796111D01*
X105203766Y-96852897D01*
X105202500Y-96868979D01*
X105202501Y-97695020D01*
X105208688Y-97773645D01*
X105257680Y-97956488D01*
X105343617Y-98125149D01*
X105347770Y-98130278D01*
X105347773Y-98130282D01*
X105406743Y-98203103D01*
X105434069Y-98268630D01*
X105421629Y-98338528D01*
X105406743Y-98361691D01*
X105348197Y-98433990D01*
X105341043Y-98445006D01*
X105261146Y-98601813D01*
X105256442Y-98614066D01*
X105210679Y-98784856D01*
X105208732Y-98796190D01*
X105203193Y-98866562D01*
X105203000Y-98871488D01*
X105203000Y-98938885D01*
X105207475Y-98954124D01*
X105208865Y-98955329D01*
X105216548Y-98957000D01*
X106752000Y-98957000D01*
X106820121Y-98977002D01*
X106866614Y-99030658D01*
X106878000Y-99083000D01*
X106878000Y-99481000D01*
X106857998Y-99549121D01*
X106804342Y-99595614D01*
X106752000Y-99607000D01*
X105221115Y-99607000D01*
X105205876Y-99611475D01*
X105204671Y-99612865D01*
X105203000Y-99620548D01*
X105203000Y-99692513D01*
X105203193Y-99697438D01*
X105208732Y-99767810D01*
X105210679Y-99779144D01*
X105256442Y-99949934D01*
X105261146Y-99962187D01*
X105341043Y-100118994D01*
X105348193Y-100130005D01*
X105458948Y-100266775D01*
X105468225Y-100276052D01*
X105560479Y-100350758D01*
X105600830Y-100409172D01*
X105603196Y-100480129D01*
X105566823Y-100541101D01*
X105560483Y-100546594D01*
X105462743Y-100625743D01*
X105458588Y-100630874D01*
X105458587Y-100630875D01*
X105427880Y-100668795D01*
X105369466Y-100709147D01*
X105329960Y-100715500D01*
X105216189Y-100715500D01*
X105148068Y-100695498D01*
X105127094Y-100678595D01*
X103680405Y-99231906D01*
X103646379Y-99169594D01*
X103643500Y-99142811D01*
X103643500Y-98729157D01*
X103663502Y-98661036D01*
X103717158Y-98614543D01*
X103736888Y-98607451D01*
X103802012Y-98590001D01*
X103802023Y-98589997D01*
X103807330Y-98588575D01*
X103812312Y-98586252D01*
X104000652Y-98498428D01*
X104000657Y-98498425D01*
X104005639Y-98496102D01*
X104010148Y-98492945D01*
X104180366Y-98373757D01*
X104180369Y-98373755D01*
X104184877Y-98370598D01*
X104339598Y-98215877D01*
X104465102Y-98036638D01*
X104493099Y-97976600D01*
X104555252Y-97843312D01*
X104555253Y-97843310D01*
X104557575Y-97838330D01*
X104571872Y-97784975D01*
X104589412Y-97719512D01*
X104614207Y-97626977D01*
X104633277Y-97409000D01*
X104614207Y-97191023D01*
X104557575Y-96979670D01*
X104552357Y-96968480D01*
X104541696Y-96898288D01*
X104557049Y-96852900D01*
X104644872Y-96698618D01*
X104726661Y-96473293D01*
X104727887Y-96466516D01*
X104756371Y-96308996D01*
X104769316Y-96237409D01*
X104769937Y-96224257D01*
X104770430Y-96213790D01*
X104770430Y-96213781D01*
X104770500Y-96212301D01*
X104770500Y-95567813D01*
X104755340Y-95389148D01*
X104754002Y-95383993D01*
X104754001Y-95383987D01*
X104696461Y-95162295D01*
X104696460Y-95162291D01*
X104695119Y-95157126D01*
X104681666Y-95127260D01*
X104598861Y-94943441D01*
X104596666Y-94938568D01*
X104462795Y-94739722D01*
X104454969Y-94731518D01*
X104422423Y-94668421D01*
X104429156Y-94597744D01*
X104457046Y-94555453D01*
X104866094Y-94146405D01*
X104928406Y-94112379D01*
X104955189Y-94109500D01*
X105347776Y-94109500D01*
X105415897Y-94129502D01*
G37*
G04 #@! TD.AperFunction*
G04 #@! TD*
M02*
