G04 #@! TF.GenerationSoftware,KiCad,Pcbnew,5.99.0-unknown-bf85ddd577~142~ubuntu20.04.1*
G04 #@! TF.CreationDate,2021-11-11T17:07:09-05:00*
G04 #@! TF.ProjectId,microTouch,6d696372-6f54-46f7-9563-682e6b696361,rev?*
G04 #@! TF.SameCoordinates,Original*
G04 #@! TF.FileFunction,Copper,L2,Bot*
G04 #@! TF.FilePolarity,Positive*
%FSLAX46Y46*%
G04 Gerber Fmt 4.6, Leading zero omitted, Abs format (unit mm)*
G04 Created by KiCad (PCBNEW 5.99.0-unknown-bf85ddd577~142~ubuntu20.04.1) date 2021-11-11 17:07:09*
%MOMM*%
%LPD*%
G01*
G04 APERTURE LIST*
G04 Aperture macros list*
%AMRoundRect*
0 Rectangle with rounded corners*
0 $1 Rounding radius*
0 $2 $3 $4 $5 $6 $7 $8 $9 X,Y pos of 4 corners*
0 Add a 4 corners polygon primitive as box body*
4,1,4,$2,$3,$4,$5,$6,$7,$8,$9,$2,$3,0*
0 Add four circle primitives for the rounded corners*
1,1,$1+$1,$2,$3*
1,1,$1+$1,$4,$5*
1,1,$1+$1,$6,$7*
1,1,$1+$1,$8,$9*
0 Add four rect primitives between the rounded corners*
20,1,$1+$1,$2,$3,$4,$5,0*
20,1,$1+$1,$4,$5,$6,$7,0*
20,1,$1+$1,$6,$7,$8,$9,0*
20,1,$1+$1,$8,$9,$2,$3,0*%
%AMFreePoly0*
4,1,20,0.000000,0.744959,0.073905,0.744508,0.209726,0.703889,0.328688,0.626782,0.421226,0.519385,0.479903,0.390333,0.500000,0.250000,0.500000,-0.250000,0.499851,-0.262216,0.476331,-0.402017,0.414519,-0.529596,0.319384,-0.634700,0.198574,-0.708877,0.061801,-0.746166,0.000000,-0.745033,0.000000,-0.750000,-0.500000,-0.750000,-0.500000,0.750000,0.000000,0.750000,0.000000,0.744959,
0.000000,0.744959,$1*%
%AMFreePoly1*
4,1,22,0.500000,-0.750000,0.000000,-0.750000,0.000000,-0.745033,-0.079941,-0.743568,-0.215256,-0.701293,-0.333266,-0.622738,-0.424486,-0.514219,-0.481581,-0.384460,-0.499164,-0.250000,-0.500000,-0.250000,-0.500000,0.250000,-0.499164,0.250000,-0.499963,0.256109,-0.478152,0.396186,-0.417904,0.524511,-0.324060,0.630769,-0.204165,0.706417,-0.067858,0.745374,0.000000,0.744959,0.000000,0.750000,
0.500000,0.750000,0.500000,-0.750000,0.500000,-0.750000,$1*%
G04 Aperture macros list end*
G04 #@! TA.AperFunction,ComponentPad*
%ADD10O,1.300000X1.050000*%
G04 #@! TD*
G04 #@! TA.AperFunction,ComponentPad*
%ADD11RoundRect,0.249900X0.400100X-0.275100X0.400100X0.275100X-0.400100X0.275100X-0.400100X-0.275100X0*%
G04 #@! TD*
G04 #@! TA.AperFunction,SMDPad,CuDef*
%ADD12FreePoly0,0.000000*%
G04 #@! TD*
G04 #@! TA.AperFunction,SMDPad,CuDef*
%ADD13FreePoly1,0.000000*%
G04 #@! TD*
G04 #@! TA.AperFunction,ComponentPad*
%ADD14RoundRect,0.250000X-0.350000X-0.625000X0.350000X-0.625000X0.350000X0.625000X-0.350000X0.625000X0*%
G04 #@! TD*
G04 #@! TA.AperFunction,ComponentPad*
%ADD15O,1.200000X1.750000*%
G04 #@! TD*
G04 #@! TA.AperFunction,ComponentPad*
%ADD16O,2.000000X1.000000*%
G04 #@! TD*
G04 #@! TA.AperFunction,WasherPad*
%ADD17C,1.524000*%
G04 #@! TD*
G04 #@! TA.AperFunction,ViaPad*
%ADD18C,1.200000*%
G04 #@! TD*
G04 #@! TA.AperFunction,Conductor*
%ADD19C,0.500000*%
G04 #@! TD*
G04 APERTURE END LIST*
G04 #@! TO.C,JP1*
G36*
X97136000Y-93264000D02*
G01*
X96636000Y-93264000D01*
X96636000Y-92664000D01*
X97136000Y-92664000D01*
X97136000Y-93264000D01*
G37*
G04 #@! TD*
D10*
G04 #@! TO.P,U1,2,GND*
G04 #@! TO.N,GND*
X105664000Y-101346000D03*
G04 #@! TO.P,U1,3,OUT*
G04 #@! TO.N,/SIG*
X105664000Y-99866000D03*
D11*
G04 #@! TO.P,U1,1,VIN*
G04 #@! TO.N,/5V*
X105664000Y-102866000D03*
G04 #@! TD*
D12*
G04 #@! TO.P,JP1,2,B*
G04 #@! TO.N,/5V*
X97536000Y-92964000D03*
D13*
G04 #@! TO.P,JP1,1,A*
G04 #@! TO.N,/VSIG*
X96236000Y-92964000D03*
G04 #@! TD*
D14*
G04 #@! TO.P,J2,1,Pin_1*
G04 #@! TO.N,/VSIG*
X99125000Y-89916000D03*
D15*
G04 #@! TO.P,J2,2,Pin_2*
G04 #@! TO.N,/5V*
X101125000Y-89916000D03*
G04 #@! TO.P,J2,3,Pin_3*
G04 #@! TO.N,/SIG*
X103125000Y-89916000D03*
G04 #@! TO.P,J2,4,Pin_4*
G04 #@! TO.N,GND*
X105125000Y-89916000D03*
G04 #@! TO.P,J2,5,Pin_5*
G04 #@! TO.N,/SERVO*
X107125000Y-89916000D03*
G04 #@! TD*
D16*
G04 #@! TO.P,J1,3,Pin_3*
G04 #@! TO.N,GND*
X111749000Y-102765000D03*
G04 #@! TO.P,J1,2,Pin_2*
G04 #@! TO.N,/5V*
X111749000Y-104215000D03*
G04 #@! TO.P,J1,1,Pin_1*
G04 #@! TO.N,/SERVO*
X111749000Y-105665000D03*
D17*
G04 #@! TO.P,J1,*
G04 #@! TO.N,*
X124989000Y-94965000D03*
X124989000Y-106965000D03*
X109749000Y-106965000D03*
X109749000Y-94965000D03*
G04 #@! TD*
D18*
G04 #@! TO.N,/5V*
X109855000Y-104267000D03*
G04 #@! TO.N,GND*
X108712000Y-102743000D03*
G04 #@! TO.N,/SIG*
X102108000Y-97028000D03*
G04 #@! TO.N,GND*
X108585000Y-96901000D03*
G04 #@! TO.N,/5V*
X100584000Y-92964000D03*
G04 #@! TO.N,/VSIG*
X96266000Y-95250000D03*
G04 #@! TO.N,/SERVO*
X106934000Y-98806000D03*
X108458000Y-105664000D03*
G04 #@! TO.N,/SIG*
X104648000Y-98806000D03*
G04 #@! TD*
D19*
G04 #@! TO.N,/SIG*
X104648000Y-98806000D02*
X104648000Y-98850000D01*
X104648000Y-98850000D02*
X105664000Y-99866000D01*
X102108000Y-97028000D02*
X102108000Y-95123000D01*
X102108000Y-95123000D02*
X103124000Y-94107000D01*
X103124000Y-94107000D02*
X103124000Y-89917000D01*
G04 #@! TO.N,/5V*
X105664000Y-102866000D02*
X104390000Y-102866000D01*
X104390000Y-102866000D02*
X97536000Y-96012000D01*
X97536000Y-96012000D02*
X97536000Y-92964000D01*
G04 #@! TO.N,/SERVO*
X106934000Y-98806000D02*
X106426000Y-98298000D01*
X106426000Y-98298000D02*
X106426000Y-92456000D01*
X106426000Y-92456000D02*
X107125000Y-91757000D01*
X107125000Y-91757000D02*
X107125000Y-89916000D01*
G04 #@! TO.N,/5V*
X109855000Y-104267000D02*
X107065000Y-104267000D01*
X107065000Y-104267000D02*
X105664000Y-102866000D01*
G04 #@! TO.N,GND*
X108712000Y-102743000D02*
X107315000Y-101346000D01*
X107315000Y-101346000D02*
X105664000Y-101346000D01*
X108712000Y-102743000D02*
X111727000Y-102743000D01*
X111727000Y-102743000D02*
X111749000Y-102765000D01*
G04 #@! TO.N,/SERVO*
X108458000Y-105664000D02*
X111748000Y-105664000D01*
X111748000Y-105664000D02*
X111749000Y-105665000D01*
G04 #@! TO.N,/5V*
X109855000Y-104267000D02*
X111697000Y-104267000D01*
X111697000Y-104267000D02*
X111749000Y-104215000D01*
G04 #@! TO.N,/VSIG*
X96236000Y-92964000D02*
X96236000Y-91216000D01*
X96236000Y-91216000D02*
X97536000Y-89916000D01*
X97536000Y-89916000D02*
X99125000Y-89916000D01*
G04 #@! TO.N,/5V*
X100585000Y-92964000D02*
X100585000Y-92012000D01*
X100585000Y-92012000D02*
X101125000Y-91472000D01*
X101125000Y-91472000D02*
X101125000Y-89916000D01*
G04 #@! TO.N,/VSIG*
X96266000Y-95250000D02*
X96236000Y-95220000D01*
X96236000Y-95220000D02*
X96236000Y-92964000D01*
G04 #@! TO.N,/5V*
X97536000Y-92964000D02*
X100585000Y-92964000D01*
X100584000Y-92964000D02*
X100585000Y-92964000D01*
G04 #@! TD*
G04 #@! TA.AperFunction,Conductor*
G04 #@! TO.N,GND*
G36*
X100246925Y-87009753D02*
G01*
X100247886Y-87010000D01*
X100262567Y-87010000D01*
X100284243Y-87011878D01*
X100295667Y-87013873D01*
X100303247Y-87013357D01*
X100336725Y-87011078D01*
X100348286Y-87010291D01*
X100356844Y-87010000D01*
X109168896Y-87010000D01*
X109185342Y-87011078D01*
X109205612Y-87013747D01*
X109205616Y-87013747D01*
X109213143Y-87014738D01*
X109223162Y-87013632D01*
X109234269Y-87012406D01*
X109254689Y-87011818D01*
X109475961Y-87023414D01*
X109543714Y-87026965D01*
X109556822Y-87028342D01*
X109784488Y-87064401D01*
X109870478Y-87078020D01*
X109883378Y-87080762D01*
X110190120Y-87162953D01*
X110202656Y-87167027D01*
X110464261Y-87267447D01*
X110499119Y-87280828D01*
X110511167Y-87286192D01*
X110794120Y-87430363D01*
X110805536Y-87436954D01*
X111071874Y-87609916D01*
X111082534Y-87617662D01*
X111323467Y-87812766D01*
X111329322Y-87817507D01*
X111339123Y-87826332D01*
X111563668Y-88050877D01*
X111572493Y-88060678D01*
X111714057Y-88235494D01*
X111772336Y-88307463D01*
X111780084Y-88318126D01*
X111953043Y-88584459D01*
X111959637Y-88595880D01*
X112103808Y-88878833D01*
X112109172Y-88890881D01*
X112221486Y-89183467D01*
X112222971Y-89187336D01*
X112227046Y-89199878D01*
X112229426Y-89208760D01*
X112309238Y-89506622D01*
X112311980Y-89519522D01*
X112361657Y-89833172D01*
X112363035Y-89846289D01*
X112377588Y-90123971D01*
X112376504Y-90148319D01*
X112375370Y-90156287D01*
X112375301Y-90162846D01*
X112375262Y-90163143D01*
X112375295Y-90163441D01*
X112375226Y-90170000D01*
X112375721Y-90174093D01*
X112375874Y-90176879D01*
X112376148Y-90180055D01*
X112393121Y-90503904D01*
X112393634Y-90507144D01*
X112393635Y-90507152D01*
X112412879Y-90628651D01*
X112445427Y-90834149D01*
X112531966Y-91157117D01*
X112533151Y-91160205D01*
X112533152Y-91160207D01*
X112568867Y-91253247D01*
X112651791Y-91469271D01*
X112653289Y-91472211D01*
X112799568Y-91759299D01*
X112803588Y-91767189D01*
X112805384Y-91769955D01*
X112805386Y-91769958D01*
X112884670Y-91892045D01*
X112985694Y-92047608D01*
X113196115Y-92307456D01*
X113432544Y-92543885D01*
X113692392Y-92754306D01*
X113782878Y-92813068D01*
X113879962Y-92876115D01*
X113972811Y-92936412D01*
X113975745Y-92937907D01*
X113975752Y-92937911D01*
X114267789Y-93086711D01*
X114270729Y-93088209D01*
X114582883Y-93208034D01*
X114905851Y-93294573D01*
X115081242Y-93322352D01*
X115232848Y-93346365D01*
X115232856Y-93346366D01*
X115236096Y-93346879D01*
X115539885Y-93362800D01*
X115551034Y-93363883D01*
X115556287Y-93364630D01*
X115562468Y-93364695D01*
X115565867Y-93364731D01*
X115565873Y-93364731D01*
X115570000Y-93364774D01*
X115601904Y-93360913D01*
X115617043Y-93360000D01*
X124561668Y-93360000D01*
X124629789Y-93380002D01*
X124676282Y-93433658D01*
X124686386Y-93503932D01*
X124656892Y-93568512D01*
X124600813Y-93605765D01*
X124439758Y-93658406D01*
X124358424Y-93700746D01*
X124271546Y-93745972D01*
X124233733Y-93765656D01*
X124229600Y-93768759D01*
X124229597Y-93768761D01*
X124075444Y-93884502D01*
X124047990Y-93905115D01*
X124044418Y-93908853D01*
X123908482Y-94051102D01*
X123887519Y-94073038D01*
X123756629Y-94264916D01*
X123658835Y-94475595D01*
X123657453Y-94480577D01*
X123657453Y-94480578D01*
X123628258Y-94585851D01*
X123596764Y-94699417D01*
X123572082Y-94930371D01*
X123572379Y-94935523D01*
X123572379Y-94935526D01*
X123573273Y-94951018D01*
X123573698Y-94958387D01*
X123574641Y-94974746D01*
X123558594Y-95043905D01*
X123507704Y-95093410D01*
X123448850Y-95108000D01*
X111782715Y-95108000D01*
X111775343Y-95107784D01*
X111766561Y-95107269D01*
X111716053Y-95104309D01*
X111708273Y-95105828D01*
X111708270Y-95105828D01*
X111661034Y-95115050D01*
X111652684Y-95116391D01*
X111604932Y-95122423D01*
X111604929Y-95122424D01*
X111597067Y-95123417D01*
X111589697Y-95126335D01*
X111587361Y-95127260D01*
X111565118Y-95133775D01*
X111562643Y-95134258D01*
X111562642Y-95134258D01*
X111554868Y-95135776D01*
X111547712Y-95139181D01*
X111547709Y-95139182D01*
X111504252Y-95159859D01*
X111496501Y-95163233D01*
X111451744Y-95180954D01*
X111451739Y-95180957D01*
X111444371Y-95183874D01*
X111435924Y-95190012D01*
X111415997Y-95201853D01*
X111406572Y-95206338D01*
X111363515Y-95242271D01*
X111356859Y-95247456D01*
X111350535Y-95252050D01*
X111283666Y-95275904D01*
X111214515Y-95259819D01*
X111165038Y-95208902D01*
X111151559Y-95133664D01*
X111164649Y-95034237D01*
X111164731Y-95030885D01*
X111166259Y-94968365D01*
X111166259Y-94968361D01*
X111166341Y-94965000D01*
X111152271Y-94793863D01*
X111147733Y-94738662D01*
X111147732Y-94738656D01*
X111147309Y-94733511D01*
X111110225Y-94585874D01*
X111091984Y-94513251D01*
X111091983Y-94513247D01*
X111090725Y-94508240D01*
X111088668Y-94503510D01*
X111088666Y-94503503D01*
X111000168Y-94299971D01*
X111000166Y-94299968D01*
X110998108Y-94295234D01*
X110899995Y-94143575D01*
X110874755Y-94104559D01*
X110874753Y-94104556D01*
X110871945Y-94100216D01*
X110843815Y-94069301D01*
X110719102Y-93932244D01*
X110719100Y-93932243D01*
X110715624Y-93928422D01*
X110711573Y-93925223D01*
X110711569Y-93925219D01*
X110537399Y-93787668D01*
X110537394Y-93787665D01*
X110533345Y-93784467D01*
X110528829Y-93781974D01*
X110528826Y-93781972D01*
X110334525Y-93674712D01*
X110334521Y-93674710D01*
X110330001Y-93672215D01*
X110325132Y-93670491D01*
X110325128Y-93670489D01*
X110115923Y-93596406D01*
X110115921Y-93596405D01*
X110111054Y-93594682D01*
X109964139Y-93568512D01*
X109887472Y-93554855D01*
X109887468Y-93554855D01*
X109882384Y-93553949D01*
X109809601Y-93553060D01*
X109655301Y-93551175D01*
X109655299Y-93551175D01*
X109650131Y-93551112D01*
X109420534Y-93586245D01*
X109199758Y-93658406D01*
X109118424Y-93700746D01*
X109031546Y-93745972D01*
X108993733Y-93765656D01*
X108989600Y-93768759D01*
X108989597Y-93768761D01*
X108835444Y-93884502D01*
X108807990Y-93905115D01*
X108804418Y-93908853D01*
X108668482Y-94051102D01*
X108647519Y-94073038D01*
X108516629Y-94264916D01*
X108418835Y-94475595D01*
X108417453Y-94480577D01*
X108417453Y-94480578D01*
X108388258Y-94585851D01*
X108356764Y-94699417D01*
X108332082Y-94930371D01*
X108332379Y-94935524D01*
X108332379Y-94935527D01*
X108343155Y-95122423D01*
X108345452Y-95162256D01*
X108346589Y-95167302D01*
X108346590Y-95167308D01*
X108368498Y-95264519D01*
X108396516Y-95388843D01*
X108483902Y-95604047D01*
X108605262Y-95802090D01*
X108757338Y-95977651D01*
X108936047Y-96126018D01*
X109136587Y-96243204D01*
X109141412Y-96245046D01*
X109141413Y-96245047D01*
X109170876Y-96256298D01*
X109353574Y-96326064D01*
X109358640Y-96327095D01*
X109358641Y-96327095D01*
X109382377Y-96331924D01*
X109581181Y-96372371D01*
X109712296Y-96377179D01*
X109808131Y-96380693D01*
X109808135Y-96380693D01*
X109813295Y-96380882D01*
X109818415Y-96380226D01*
X109818417Y-96380226D01*
X109889180Y-96371161D01*
X110043682Y-96351369D01*
X110048630Y-96349884D01*
X110048637Y-96349883D01*
X110177588Y-96311195D01*
X110266155Y-96284624D01*
X110299466Y-96268305D01*
X110369440Y-96256298D01*
X110434798Y-96284028D01*
X110474787Y-96342691D01*
X110476714Y-96413661D01*
X110457152Y-96455078D01*
X109454034Y-97848297D01*
X108976008Y-98512222D01*
X108965606Y-98524852D01*
X108949385Y-98542125D01*
X108949382Y-98542129D01*
X108943960Y-98547903D01*
X108923874Y-98584438D01*
X108923255Y-98585490D01*
X108922608Y-98586389D01*
X108903839Y-98620881D01*
X108903578Y-98621356D01*
X108868515Y-98685134D01*
X108868512Y-98685141D01*
X108864842Y-98691817D01*
X108864489Y-98693192D01*
X108863812Y-98694436D01*
X108844107Y-98772575D01*
X108824000Y-98850886D01*
X108824000Y-98852307D01*
X108823654Y-98853679D01*
X108823687Y-98861298D01*
X108823999Y-98934045D01*
X108824000Y-98934586D01*
X108824000Y-101653650D01*
X108821768Y-101677258D01*
X108820127Y-101685862D01*
X108823751Y-101743463D01*
X108824000Y-101751375D01*
X108824000Y-101767894D01*
X108824496Y-101771820D01*
X108826070Y-101784280D01*
X108826814Y-101792155D01*
X108830439Y-101849766D01*
X108833146Y-101858096D01*
X108838318Y-101881233D01*
X108839417Y-101889933D01*
X108842334Y-101897299D01*
X108842335Y-101897305D01*
X108860670Y-101943612D01*
X108863351Y-101951060D01*
X108881188Y-102005956D01*
X108885883Y-102013354D01*
X108896649Y-102034484D01*
X108899874Y-102042629D01*
X108904532Y-102049040D01*
X108904533Y-102049042D01*
X108933805Y-102089331D01*
X108938254Y-102095878D01*
X108969186Y-102144619D01*
X108974966Y-102150047D01*
X108975575Y-102150619D01*
X108991254Y-102168404D01*
X108991742Y-102169076D01*
X108991748Y-102169082D01*
X108996405Y-102175492D01*
X109002513Y-102180545D01*
X109040882Y-102212287D01*
X109046818Y-102217520D01*
X109083127Y-102251616D01*
X109088903Y-102257040D01*
X109095846Y-102260857D01*
X109095847Y-102260858D01*
X109096584Y-102261263D01*
X109116190Y-102274588D01*
X109116835Y-102275122D01*
X109116842Y-102275126D01*
X109122945Y-102280175D01*
X109175200Y-102304764D01*
X109182213Y-102308338D01*
X109232817Y-102336158D01*
X109240493Y-102338129D01*
X109240496Y-102338130D01*
X109241306Y-102338338D01*
X109263622Y-102346373D01*
X109271543Y-102350100D01*
X109321426Y-102359615D01*
X109328244Y-102360916D01*
X109335972Y-102362643D01*
X109391886Y-102377000D01*
X109400650Y-102377000D01*
X109424258Y-102379232D01*
X109432862Y-102380873D01*
X109490464Y-102377249D01*
X109498375Y-102377000D01*
X110036884Y-102377000D01*
X110105005Y-102397002D01*
X110136386Y-102425699D01*
X110143017Y-102434235D01*
X110160871Y-102440000D01*
X110984000Y-102440000D01*
X111052121Y-102460002D01*
X111098614Y-102513658D01*
X111110000Y-102566000D01*
X111110000Y-102963357D01*
X111089998Y-103031478D01*
X111036342Y-103077971D01*
X111018200Y-103084627D01*
X111015920Y-103085270D01*
X110981720Y-103090000D01*
X110310529Y-103090000D01*
X110277918Y-103085707D01*
X110274608Y-103084820D01*
X110072977Y-103030793D01*
X109855000Y-103011723D01*
X109637023Y-103030793D01*
X109496745Y-103068380D01*
X109430980Y-103086002D01*
X109430978Y-103086003D01*
X109425670Y-103087425D01*
X109420690Y-103089747D01*
X109420688Y-103089748D01*
X109232343Y-103177575D01*
X109232340Y-103177577D01*
X109227362Y-103179898D01*
X109048123Y-103305402D01*
X109023930Y-103329595D01*
X108961618Y-103363621D01*
X108934835Y-103366500D01*
X107490189Y-103366500D01*
X107422068Y-103346498D01*
X107401094Y-103329595D01*
X107001405Y-102929906D01*
X106967379Y-102867594D01*
X106964500Y-102840811D01*
X106964500Y-102527874D01*
X106964308Y-102525428D01*
X106964307Y-102525415D01*
X106958767Y-102455024D01*
X106958767Y-102455022D01*
X106958314Y-102449270D01*
X106929383Y-102341299D01*
X106911036Y-102272828D01*
X106911035Y-102272824D01*
X106909326Y-102266448D01*
X106906331Y-102260569D01*
X106906329Y-102260565D01*
X106847251Y-102144619D01*
X106823399Y-102097806D01*
X106819128Y-102092531D01*
X106813156Y-102085157D01*
X106785830Y-102019629D01*
X106798270Y-101949731D01*
X106804515Y-101938626D01*
X106837335Y-101886610D01*
X106842559Y-101876359D01*
X106918300Y-101686511D01*
X106918624Y-101685417D01*
X106917773Y-101675895D01*
X106902616Y-101671000D01*
X104520690Y-101671000D01*
X104452569Y-101650998D01*
X104431595Y-101634095D01*
X101603500Y-98806000D01*
X103392723Y-98806000D01*
X103411793Y-99023977D01*
X103468425Y-99235330D01*
X103470747Y-99240310D01*
X103470748Y-99240312D01*
X103555866Y-99422846D01*
X103560898Y-99433638D01*
X103686402Y-99612877D01*
X103841123Y-99767598D01*
X103845631Y-99770755D01*
X103845634Y-99770757D01*
X103899444Y-99808435D01*
X104020361Y-99893102D01*
X104025343Y-99895425D01*
X104025348Y-99895428D01*
X104125990Y-99942357D01*
X104218670Y-99985575D01*
X104223981Y-99986998D01*
X104223984Y-99986999D01*
X104295971Y-100006288D01*
X104356594Y-100043240D01*
X104387540Y-100106657D01*
X104395446Y-100152664D01*
X104398690Y-100171545D01*
X104473466Y-100374234D01*
X104476418Y-100379196D01*
X104574357Y-100543818D01*
X104591997Y-100612589D01*
X104572634Y-100675476D01*
X104490663Y-100805392D01*
X104485442Y-100815640D01*
X104409700Y-101005489D01*
X104409376Y-101006583D01*
X104410227Y-101016105D01*
X104425384Y-101021000D01*
X105288333Y-101021000D01*
X105303143Y-101021873D01*
X105465283Y-101041064D01*
X105465289Y-101041064D01*
X105468970Y-101041500D01*
X105843807Y-101041500D01*
X106004136Y-101026768D01*
X106009700Y-101025199D01*
X106015375Y-101024147D01*
X106015472Y-101024671D01*
X106042014Y-101021000D01*
X106903485Y-101021000D01*
X106917016Y-101017027D01*
X106917890Y-101010944D01*
X106856079Y-100843398D01*
X106851129Y-100833020D01*
X106753630Y-100669138D01*
X106735990Y-100600367D01*
X106755352Y-100537482D01*
X106840865Y-100401952D01*
X106920921Y-100201290D01*
X106930594Y-100152663D01*
X106963500Y-100089755D01*
X107025195Y-100054622D01*
X107043186Y-100051725D01*
X107151977Y-100042207D01*
X107358016Y-99986999D01*
X107358020Y-99986998D01*
X107358022Y-99986997D01*
X107363330Y-99985575D01*
X107368316Y-99983250D01*
X107556652Y-99895428D01*
X107556657Y-99895425D01*
X107561639Y-99893102D01*
X107682556Y-99808435D01*
X107736366Y-99770757D01*
X107736369Y-99770755D01*
X107740877Y-99767598D01*
X107895598Y-99612877D01*
X108021102Y-99433638D01*
X108026135Y-99422846D01*
X108111252Y-99240312D01*
X108111253Y-99240310D01*
X108113575Y-99235330D01*
X108170207Y-99023977D01*
X108189277Y-98806000D01*
X108170207Y-98588023D01*
X108113575Y-98376670D01*
X108061356Y-98264686D01*
X108023425Y-98183343D01*
X108023423Y-98183340D01*
X108021102Y-98178362D01*
X107895598Y-97999123D01*
X107740877Y-97844402D01*
X107736369Y-97841245D01*
X107736366Y-97841243D01*
X107566148Y-97722055D01*
X107566145Y-97722053D01*
X107561639Y-97718898D01*
X107556657Y-97716575D01*
X107556652Y-97716572D01*
X107417766Y-97651809D01*
X107399249Y-97643175D01*
X107345965Y-97596258D01*
X107326500Y-97528980D01*
X107326500Y-92881189D01*
X107346502Y-92813068D01*
X107363405Y-92792094D01*
X107704621Y-92450878D01*
X107719649Y-92438041D01*
X107730871Y-92429888D01*
X107776229Y-92379513D01*
X107780770Y-92374729D01*
X107795119Y-92360380D01*
X107807901Y-92344596D01*
X107812185Y-92339580D01*
X107853112Y-92294126D01*
X107857533Y-92289216D01*
X107864466Y-92277209D01*
X107875661Y-92260920D01*
X107880229Y-92255279D01*
X107880229Y-92255278D01*
X107884383Y-92250149D01*
X107887381Y-92244266D01*
X107915151Y-92189766D01*
X107918297Y-92183971D01*
X107948879Y-92131000D01*
X107948879Y-92130999D01*
X107952179Y-92125284D01*
X107956464Y-92112097D01*
X107964027Y-92093840D01*
X107967323Y-92087371D01*
X107967324Y-92087367D01*
X107970320Y-92081488D01*
X107987862Y-92016020D01*
X107989729Y-92009719D01*
X108010674Y-91945256D01*
X108012123Y-91931467D01*
X108015726Y-91912029D01*
X108017404Y-91905766D01*
X108019312Y-91898646D01*
X108019658Y-91892045D01*
X108022858Y-91830989D01*
X108023375Y-91824415D01*
X108025156Y-91807466D01*
X108025156Y-91807464D01*
X108025500Y-91804192D01*
X108025500Y-91783867D01*
X108025673Y-91777273D01*
X108028874Y-91716204D01*
X108028874Y-91716199D01*
X108029219Y-91709612D01*
X108027051Y-91695923D01*
X108025500Y-91676213D01*
X108025500Y-91108297D01*
X108045502Y-91040176D01*
X108058306Y-91023498D01*
X108121313Y-90954254D01*
X108121315Y-90954251D01*
X108125086Y-90950107D01*
X108130194Y-90941965D01*
X108240722Y-90765768D01*
X108243707Y-90761010D01*
X108326966Y-90553895D01*
X108372233Y-90335310D01*
X108375500Y-90278651D01*
X108375500Y-89584370D01*
X108372732Y-89553349D01*
X108361210Y-89424256D01*
X108360711Y-89418661D01*
X108301808Y-89203349D01*
X108297114Y-89193506D01*
X108238528Y-89070680D01*
X108205708Y-89001871D01*
X108075448Y-88820595D01*
X107972609Y-88720937D01*
X107919174Y-88669154D01*
X107919171Y-88669152D01*
X107915146Y-88665251D01*
X107729868Y-88540750D01*
X107709063Y-88531617D01*
X107588102Y-88478519D01*
X107525471Y-88451026D01*
X107520023Y-88449718D01*
X107520017Y-88449716D01*
X107313872Y-88400225D01*
X107313871Y-88400225D01*
X107308415Y-88398915D01*
X107224197Y-88394059D01*
X107091169Y-88386389D01*
X107091166Y-88386389D01*
X107085562Y-88386066D01*
X106863956Y-88412883D01*
X106650600Y-88478519D01*
X106452241Y-88580901D01*
X106447799Y-88584310D01*
X106447795Y-88584312D01*
X106333837Y-88671755D01*
X106275146Y-88716790D01*
X106271375Y-88720935D01*
X106271371Y-88720938D01*
X106218545Y-88778993D01*
X106157905Y-88815916D01*
X106086929Y-88814193D01*
X106037666Y-88784678D01*
X105918858Y-88669544D01*
X105910176Y-88662514D01*
X105734279Y-88544316D01*
X105724490Y-88538935D01*
X105530447Y-88453755D01*
X105519859Y-88450192D01*
X105467617Y-88437650D01*
X105453531Y-88438355D01*
X105450000Y-88447235D01*
X105450000Y-91380804D01*
X105453973Y-91394335D01*
X105461421Y-91395406D01*
X105593848Y-91354665D01*
X105604193Y-91350444D01*
X105792507Y-91253247D01*
X105801938Y-91247262D01*
X105970071Y-91118250D01*
X105978287Y-91110694D01*
X106005306Y-91081001D01*
X106065946Y-91044078D01*
X106136922Y-91045801D01*
X106195699Y-91085623D01*
X106223616Y-91150901D01*
X106224500Y-91165800D01*
X106224500Y-91331811D01*
X106204498Y-91399932D01*
X106187595Y-91420906D01*
X105846379Y-91762122D01*
X105831351Y-91774959D01*
X105820129Y-91783112D01*
X105815716Y-91788014D01*
X105815714Y-91788015D01*
X105774771Y-91833487D01*
X105770230Y-91838271D01*
X105755881Y-91852620D01*
X105753805Y-91855184D01*
X105743099Y-91868404D01*
X105738815Y-91873420D01*
X105715809Y-91898971D01*
X105693467Y-91923784D01*
X105686534Y-91935791D01*
X105675339Y-91952080D01*
X105666617Y-91962851D01*
X105663621Y-91968731D01*
X105663619Y-91968734D01*
X105635849Y-92023234D01*
X105632703Y-92029029D01*
X105605943Y-92075380D01*
X105598821Y-92087716D01*
X105594977Y-92099547D01*
X105594536Y-92100903D01*
X105586973Y-92119160D01*
X105580680Y-92131512D01*
X105578972Y-92137885D01*
X105578970Y-92137891D01*
X105563138Y-92196975D01*
X105561265Y-92203299D01*
X105542543Y-92260920D01*
X105540326Y-92267744D01*
X105539636Y-92274305D01*
X105539636Y-92274307D01*
X105538878Y-92281521D01*
X105535275Y-92300963D01*
X105531687Y-92314354D01*
X105531342Y-92320943D01*
X105531341Y-92320948D01*
X105530102Y-92344596D01*
X105528524Y-92374729D01*
X105528142Y-92382017D01*
X105527624Y-92388600D01*
X105525844Y-92405530D01*
X105525843Y-92405541D01*
X105525500Y-92408808D01*
X105525500Y-92429126D01*
X105525327Y-92435720D01*
X105522819Y-92483588D01*
X105521781Y-92503388D01*
X105522813Y-92509904D01*
X105523949Y-92517076D01*
X105525500Y-92536787D01*
X105525500Y-97651809D01*
X105505498Y-97719930D01*
X105451842Y-97766423D01*
X105381568Y-97776527D01*
X105327229Y-97755022D01*
X105275639Y-97718898D01*
X105270657Y-97716575D01*
X105270652Y-97716572D01*
X105082312Y-97628748D01*
X105082311Y-97628747D01*
X105077330Y-97626425D01*
X105072022Y-97625003D01*
X105072020Y-97625002D01*
X104964745Y-97596258D01*
X104865977Y-97569793D01*
X104648000Y-97550723D01*
X104430023Y-97569793D01*
X104331255Y-97596258D01*
X104223980Y-97625002D01*
X104223978Y-97625003D01*
X104218670Y-97626425D01*
X104213690Y-97628747D01*
X104213688Y-97628748D01*
X104025343Y-97716575D01*
X104025340Y-97716577D01*
X104020362Y-97718898D01*
X103841123Y-97844402D01*
X103686402Y-97999123D01*
X103560898Y-98178362D01*
X103558577Y-98183340D01*
X103558575Y-98183343D01*
X103520644Y-98264686D01*
X103468425Y-98376670D01*
X103411793Y-98588023D01*
X103392723Y-98806000D01*
X101603500Y-98806000D01*
X98473405Y-95675906D01*
X98439379Y-95613594D01*
X98436500Y-95586811D01*
X98436500Y-93990500D01*
X98456502Y-93922379D01*
X98510158Y-93875886D01*
X98562500Y-93864500D01*
X99663835Y-93864500D01*
X99731956Y-93884502D01*
X99752930Y-93901405D01*
X99777123Y-93925598D01*
X99781631Y-93928755D01*
X99781634Y-93928757D01*
X99920816Y-94026213D01*
X99956361Y-94051102D01*
X99961343Y-94053425D01*
X99961348Y-94053428D01*
X100119723Y-94127279D01*
X100154670Y-94143575D01*
X100159978Y-94144997D01*
X100159980Y-94144998D01*
X100194293Y-94154192D01*
X100366023Y-94200207D01*
X100584000Y-94219277D01*
X100801977Y-94200207D01*
X100973707Y-94154192D01*
X101008020Y-94144998D01*
X101008022Y-94144997D01*
X101013330Y-94143575D01*
X101048277Y-94127279D01*
X101206652Y-94053428D01*
X101206657Y-94053425D01*
X101211639Y-94051102D01*
X101247184Y-94026213D01*
X101386366Y-93928757D01*
X101386369Y-93928755D01*
X101390877Y-93925598D01*
X101545598Y-93770877D01*
X101671102Y-93591638D01*
X101673982Y-93585463D01*
X101761252Y-93398312D01*
X101761253Y-93398310D01*
X101763575Y-93393330D01*
X101771460Y-93363905D01*
X101813225Y-93208034D01*
X101820207Y-93181977D01*
X101839277Y-92964000D01*
X101820207Y-92746023D01*
X101763575Y-92534670D01*
X101671102Y-92336362D01*
X101668846Y-92333140D01*
X101652222Y-92264614D01*
X101675443Y-92197523D01*
X101688984Y-92181515D01*
X101704621Y-92165878D01*
X101719649Y-92153041D01*
X101730871Y-92144888D01*
X101754175Y-92119007D01*
X101776229Y-92094513D01*
X101780770Y-92089729D01*
X101795119Y-92075380D01*
X101804739Y-92063500D01*
X101807901Y-92059596D01*
X101812185Y-92054580D01*
X101853112Y-92009126D01*
X101857533Y-92004216D01*
X101864466Y-91992209D01*
X101875661Y-91975920D01*
X101880229Y-91970279D01*
X101880229Y-91970278D01*
X101884383Y-91965149D01*
X101888168Y-91957721D01*
X101915151Y-91904766D01*
X101918297Y-91898971D01*
X101948879Y-91846000D01*
X101948879Y-91845999D01*
X101952179Y-91840284D01*
X101956023Y-91828453D01*
X101956464Y-91827097D01*
X101964027Y-91808840D01*
X101967323Y-91802371D01*
X101967324Y-91802367D01*
X101970320Y-91796488D01*
X101975793Y-91776063D01*
X102012744Y-91715440D01*
X102076605Y-91684418D01*
X102147099Y-91692846D01*
X102201846Y-91738048D01*
X102223500Y-91808673D01*
X102223500Y-93681811D01*
X102203498Y-93749932D01*
X102186595Y-93770906D01*
X101528379Y-94429122D01*
X101513351Y-94441959D01*
X101502129Y-94450112D01*
X101497716Y-94455014D01*
X101497714Y-94455015D01*
X101456771Y-94500487D01*
X101452230Y-94505271D01*
X101437881Y-94519620D01*
X101435805Y-94522184D01*
X101425099Y-94535404D01*
X101420815Y-94540420D01*
X101375467Y-94590784D01*
X101368534Y-94602791D01*
X101357339Y-94619080D01*
X101348617Y-94629851D01*
X101345621Y-94635731D01*
X101345619Y-94635734D01*
X101317849Y-94690234D01*
X101314703Y-94696029D01*
X101284121Y-94749000D01*
X101280821Y-94754716D01*
X101276977Y-94766547D01*
X101276536Y-94767903D01*
X101268973Y-94786160D01*
X101262680Y-94798512D01*
X101260972Y-94804885D01*
X101260970Y-94804891D01*
X101245138Y-94863975D01*
X101243265Y-94870299D01*
X101228385Y-94916096D01*
X101222326Y-94934744D01*
X101221636Y-94941305D01*
X101221636Y-94941307D01*
X101220878Y-94948521D01*
X101217275Y-94967963D01*
X101213687Y-94981354D01*
X101213342Y-94987943D01*
X101213341Y-94987948D01*
X101212105Y-95011549D01*
X101210410Y-95043905D01*
X101210142Y-95049017D01*
X101209624Y-95055600D01*
X101207844Y-95072530D01*
X101207843Y-95072541D01*
X101207500Y-95075808D01*
X101207500Y-95096126D01*
X101207327Y-95102720D01*
X101204333Y-95159859D01*
X101203781Y-95170388D01*
X101204813Y-95176904D01*
X101205949Y-95184076D01*
X101207500Y-95203787D01*
X101207500Y-96107835D01*
X101187498Y-96175956D01*
X101170595Y-96196930D01*
X101146402Y-96221123D01*
X101020898Y-96400362D01*
X101018577Y-96405340D01*
X101018575Y-96405343D01*
X100980194Y-96487652D01*
X100928425Y-96598670D01*
X100927003Y-96603978D01*
X100927002Y-96603980D01*
X100916359Y-96643699D01*
X100871793Y-96810023D01*
X100852723Y-97028000D01*
X100871793Y-97245977D01*
X100928425Y-97457330D01*
X100930747Y-97462310D01*
X100930748Y-97462312D01*
X101007276Y-97626425D01*
X101020898Y-97655638D01*
X101146402Y-97834877D01*
X101301123Y-97989598D01*
X101305631Y-97992755D01*
X101305634Y-97992757D01*
X101475852Y-98111945D01*
X101480361Y-98115102D01*
X101485343Y-98117425D01*
X101485348Y-98117428D01*
X101626704Y-98183343D01*
X101678670Y-98207575D01*
X101683978Y-98208997D01*
X101683980Y-98208998D01*
X101749745Y-98226620D01*
X101890023Y-98264207D01*
X102108000Y-98283277D01*
X102325977Y-98264207D01*
X102466255Y-98226620D01*
X102532020Y-98208998D01*
X102532022Y-98208997D01*
X102537330Y-98207575D01*
X102589296Y-98183343D01*
X102730652Y-98117428D01*
X102730657Y-98117425D01*
X102735639Y-98115102D01*
X102740148Y-98111945D01*
X102910366Y-97992757D01*
X102910369Y-97992755D01*
X102914877Y-97989598D01*
X103069598Y-97834877D01*
X103195102Y-97655638D01*
X103208725Y-97626425D01*
X103285252Y-97462312D01*
X103285253Y-97462310D01*
X103287575Y-97457330D01*
X103344207Y-97245977D01*
X103363277Y-97028000D01*
X103344207Y-96810023D01*
X103299641Y-96643699D01*
X103288998Y-96603980D01*
X103288997Y-96603978D01*
X103287575Y-96598670D01*
X103235806Y-96487652D01*
X103197425Y-96405343D01*
X103197423Y-96405340D01*
X103195102Y-96400362D01*
X103069598Y-96221123D01*
X103045405Y-96196930D01*
X103011379Y-96134618D01*
X103008500Y-96107835D01*
X103008500Y-95548189D01*
X103028502Y-95480068D01*
X103045405Y-95459094D01*
X103703621Y-94800878D01*
X103718649Y-94788041D01*
X103729871Y-94779888D01*
X103740663Y-94767903D01*
X103775229Y-94729513D01*
X103779770Y-94724729D01*
X103794119Y-94710380D01*
X103802997Y-94699417D01*
X103806901Y-94694596D01*
X103811185Y-94689580D01*
X103852112Y-94644126D01*
X103856533Y-94639216D01*
X103863466Y-94627209D01*
X103874661Y-94610920D01*
X103879229Y-94605279D01*
X103879229Y-94605278D01*
X103883383Y-94600149D01*
X103890657Y-94585874D01*
X103914151Y-94539766D01*
X103917297Y-94533971D01*
X103947879Y-94481000D01*
X103947879Y-94480999D01*
X103951179Y-94475284D01*
X103955464Y-94462097D01*
X103963027Y-94443840D01*
X103966323Y-94437371D01*
X103966324Y-94437367D01*
X103969320Y-94431488D01*
X103986860Y-94366028D01*
X103988734Y-94359702D01*
X104004101Y-94312407D01*
X104009674Y-94295256D01*
X104011122Y-94281477D01*
X104014726Y-94262030D01*
X104018313Y-94248645D01*
X104021859Y-94180980D01*
X104022376Y-94174405D01*
X104024156Y-94157466D01*
X104024156Y-94157463D01*
X104024500Y-94154192D01*
X104024500Y-94133873D01*
X104024673Y-94127279D01*
X104027874Y-94066204D01*
X104027874Y-94066200D01*
X104028219Y-94059612D01*
X104026051Y-94045923D01*
X104024500Y-94026213D01*
X104024500Y-91162858D01*
X104044502Y-91094737D01*
X104098158Y-91048244D01*
X104168432Y-91038140D01*
X104238185Y-91072374D01*
X104331142Y-91162456D01*
X104339824Y-91169486D01*
X104515721Y-91287684D01*
X104525510Y-91293065D01*
X104719553Y-91378245D01*
X104730141Y-91381808D01*
X104782383Y-91394350D01*
X104796469Y-91393645D01*
X104800000Y-91384765D01*
X104800000Y-88451196D01*
X104796027Y-88437665D01*
X104788579Y-88436594D01*
X104656152Y-88477335D01*
X104645807Y-88481556D01*
X104457493Y-88578753D01*
X104448062Y-88584738D01*
X104279929Y-88713750D01*
X104271712Y-88721306D01*
X104219240Y-88778972D01*
X104158600Y-88815894D01*
X104087624Y-88814171D01*
X104038362Y-88784656D01*
X103919174Y-88669154D01*
X103919171Y-88669152D01*
X103915146Y-88665251D01*
X103729868Y-88540750D01*
X103709063Y-88531617D01*
X103588102Y-88478519D01*
X103525471Y-88451026D01*
X103520023Y-88449718D01*
X103520017Y-88449716D01*
X103313872Y-88400225D01*
X103313871Y-88400225D01*
X103308415Y-88398915D01*
X103224197Y-88394059D01*
X103091169Y-88386389D01*
X103091166Y-88386389D01*
X103085562Y-88386066D01*
X102863956Y-88412883D01*
X102650600Y-88478519D01*
X102452241Y-88580901D01*
X102447799Y-88584310D01*
X102447795Y-88584312D01*
X102333837Y-88671755D01*
X102275146Y-88716790D01*
X102271380Y-88720928D01*
X102271371Y-88720937D01*
X102218882Y-88778623D01*
X102158242Y-88815546D01*
X102087266Y-88813823D01*
X102038003Y-88784308D01*
X101919174Y-88669154D01*
X101919171Y-88669152D01*
X101915146Y-88665251D01*
X101729868Y-88540750D01*
X101709063Y-88531617D01*
X101588102Y-88478519D01*
X101525471Y-88451026D01*
X101520023Y-88449718D01*
X101520017Y-88449716D01*
X101313872Y-88400225D01*
X101313871Y-88400225D01*
X101308415Y-88398915D01*
X101224197Y-88394059D01*
X101091169Y-88386389D01*
X101091166Y-88386389D01*
X101085562Y-88386066D01*
X100863956Y-88412883D01*
X100650600Y-88478519D01*
X100452241Y-88580901D01*
X100447799Y-88584310D01*
X100447795Y-88584312D01*
X100306898Y-88692426D01*
X100240677Y-88718026D01*
X100171129Y-88703761D01*
X100132272Y-88671755D01*
X100119415Y-88655878D01*
X100115257Y-88650743D01*
X100033748Y-88584738D01*
X99973282Y-88535773D01*
X99973278Y-88535770D01*
X99968149Y-88531617D01*
X99962271Y-88528622D01*
X99962268Y-88528620D01*
X99885334Y-88489420D01*
X99799488Y-88445680D01*
X99793114Y-88443972D01*
X99622223Y-88398182D01*
X99622217Y-88398181D01*
X99616645Y-88396688D01*
X99606747Y-88395909D01*
X99540477Y-88390693D01*
X99540470Y-88390693D01*
X99538021Y-88390500D01*
X99125168Y-88390500D01*
X98711980Y-88390501D01*
X98663057Y-88394351D01*
X98639109Y-88396235D01*
X98639107Y-88396235D01*
X98633355Y-88396688D01*
X98625044Y-88398915D01*
X98477850Y-88438355D01*
X98450512Y-88445680D01*
X98364666Y-88489420D01*
X98287732Y-88528620D01*
X98287729Y-88528622D01*
X98281851Y-88531617D01*
X98276722Y-88535770D01*
X98276718Y-88535773D01*
X98216252Y-88584738D01*
X98134743Y-88650743D01*
X98130588Y-88655874D01*
X98019773Y-88792718D01*
X98019770Y-88792722D01*
X98015617Y-88797851D01*
X98012620Y-88803733D01*
X97939773Y-88946703D01*
X97891025Y-88998318D01*
X97827506Y-89015500D01*
X97616787Y-89015500D01*
X97597076Y-89013949D01*
X97589904Y-89012813D01*
X97583388Y-89011781D01*
X97576800Y-89012126D01*
X97576796Y-89012126D01*
X97515721Y-89015327D01*
X97509127Y-89015500D01*
X97488808Y-89015500D01*
X97485537Y-89015844D01*
X97485534Y-89015844D01*
X97468595Y-89017624D01*
X97462020Y-89018141D01*
X97438075Y-89019396D01*
X97394355Y-89021687D01*
X97380964Y-89025275D01*
X97361523Y-89028878D01*
X97360319Y-89029004D01*
X97354315Y-89029635D01*
X97354311Y-89029636D01*
X97347744Y-89030326D01*
X97309962Y-89042603D01*
X97283298Y-89051266D01*
X97276972Y-89053140D01*
X97217885Y-89068972D01*
X97217882Y-89068973D01*
X97211512Y-89070680D01*
X97205633Y-89073676D01*
X97205629Y-89073677D01*
X97199160Y-89076973D01*
X97180903Y-89084536D01*
X97167716Y-89088821D01*
X97162001Y-89092121D01*
X97162000Y-89092121D01*
X97109029Y-89122703D01*
X97103234Y-89125849D01*
X97054456Y-89150704D01*
X97042851Y-89156617D01*
X97037718Y-89160774D01*
X97032083Y-89165337D01*
X97015786Y-89176538D01*
X97003784Y-89183467D01*
X96998879Y-89187883D01*
X96998874Y-89187887D01*
X96953421Y-89228812D01*
X96948411Y-89233092D01*
X96932620Y-89245880D01*
X96918261Y-89260239D01*
X96913477Y-89264780D01*
X96863112Y-89310129D01*
X96854968Y-89321339D01*
X96842125Y-89336376D01*
X96178821Y-89999680D01*
X96116509Y-90033706D01*
X96045694Y-90028641D01*
X95988858Y-89986094D01*
X95964047Y-89919574D01*
X95973830Y-89861148D01*
X96117493Y-89524359D01*
X96122381Y-89514187D01*
X96304944Y-89174209D01*
X96310723Y-89164515D01*
X96522978Y-88842229D01*
X96529602Y-88833091D01*
X96544636Y-88814193D01*
X96659704Y-88669544D01*
X96769837Y-88531100D01*
X96777251Y-88522592D01*
X97043547Y-88243305D01*
X97051693Y-88235494D01*
X97341909Y-87981158D01*
X97350721Y-87974107D01*
X97662537Y-87746754D01*
X97671945Y-87740520D01*
X98002851Y-87541982D01*
X98012779Y-87536615D01*
X98360129Y-87368480D01*
X98370481Y-87364029D01*
X98731479Y-87227650D01*
X98742202Y-87224139D01*
X99113954Y-87120609D01*
X99124951Y-87118071D01*
X99380726Y-87070996D01*
X99504483Y-87048219D01*
X99515657Y-87046676D01*
X99899895Y-87011066D01*
X99911163Y-87010528D01*
X99991993Y-87010301D01*
X100244298Y-87009592D01*
X100246925Y-87009753D01*
G37*
G04 #@! TD.AperFunction*
G04 #@! TD*
M02*
