G04 #@! TF.GenerationSoftware,KiCad,Pcbnew,5.99.0-unknown-43c85771eb~143~ubuntu20.04.1*
G04 #@! TF.CreationDate,2021-11-17T21:23:18-05:00*
G04 #@! TF.ProjectId,microTouch,6d696372-6f54-46f7-9563-682e6b696361,rev?*
G04 #@! TF.SameCoordinates,Original*
G04 #@! TF.FileFunction,Profile,NP*
%FSLAX46Y46*%
G04 Gerber Fmt 4.6, Leading zero omitted, Abs format (unit mm)*
G04 Created by KiCad (PCBNEW 5.99.0-unknown-43c85771eb~143~ubuntu20.04.1) date 2021-11-17 21:23:18*
%MOMM*%
%LPD*%
G01*
G04 APERTURE LIST*
G04 #@! TA.AperFunction,Profile*
%ADD10C,0.250000*%
G04 #@! TD*
G04 APERTURE END LIST*
D10*
X129540000Y-95250000D02*
G75*
G03*
X127000000Y-92710000I-2540001J-1D01*
G01*
X124841000Y-96774000D02*
X125857000Y-96774000D01*
X123825000Y-95758000D02*
X124841000Y-96774000D01*
X95032102Y-104140000D02*
X95032102Y-91440000D01*
X125857000Y-96774000D02*
X125857000Y-105537000D01*
X113030000Y-90170000D02*
G75*
G03*
X115570000Y-92710000I2540001J1D01*
G01*
X95032102Y-104140000D02*
G75*
G03*
X100330000Y-109220000I5084480J-1D01*
G01*
X123698000Y-106934000D02*
X111760000Y-106934000D01*
X109474000Y-101727000D02*
X109474000Y-98933000D01*
X111760000Y-101727000D02*
X109474000Y-101727000D01*
X124841000Y-105537000D02*
X123698000Y-106934000D01*
X129540000Y-95250000D02*
X129540000Y-106680000D01*
X100330000Y-86360000D02*
X109220000Y-86360000D01*
X125857000Y-105537000D02*
X124841000Y-105537000D01*
X127000000Y-109220000D02*
X100330000Y-109220000D01*
X109474000Y-98933000D02*
X111760000Y-95758000D01*
X111760000Y-95758000D02*
X123825000Y-95758000D01*
X127000000Y-109220000D02*
G75*
G03*
X129540000Y-106680000I-1J2540001D01*
G01*
X115570000Y-92710000D02*
X127000000Y-92710000D01*
X111760000Y-106934000D02*
X111760000Y-101727000D01*
X100330000Y-86360000D02*
G75*
G03*
X95032102Y-91440000I-213416J-5080001D01*
G01*
X113030000Y-90170000D02*
G75*
G03*
X109220000Y-86360000I-3809999J1D01*
G01*
M02*
