G04 #@! TF.GenerationSoftware,KiCad,Pcbnew,5.99.0-unknown-bf85ddd577~142~ubuntu20.04.1*
G04 #@! TF.CreationDate,2021-11-06T19:56:36-04:00*
G04 #@! TF.ProjectId,microTouch,6d696372-6f54-46f7-9563-682e6b696361,rev?*
G04 #@! TF.SameCoordinates,Original*
G04 #@! TF.FileFunction,Profile,NP*
%FSLAX46Y46*%
G04 Gerber Fmt 4.6, Leading zero omitted, Abs format (unit mm)*
G04 Created by KiCad (PCBNEW 5.99.0-unknown-bf85ddd577~142~ubuntu20.04.1) date 2021-11-06 19:56:36*
%MOMM*%
%LPD*%
G01*
G04 APERTURE LIST*
G04 #@! TA.AperFunction,Profile*
%ADD10C,0.100000*%
G04 #@! TD*
G04 APERTURE END LIST*
D10*
X98425000Y-112395000D02*
X98425000Y-90170000D01*
X107315000Y-110490000D02*
X107315000Y-112395000D01*
X98425000Y-112395000D02*
G75*
G03*
X107315000Y-112395000I4445000J0D01*
G01*
X108585000Y-109220000D02*
G75*
G03*
X107315000Y-110490000I0J-1270000D01*
G01*
X127000000Y-109220000D02*
X108585000Y-109220000D01*
X127000000Y-109220000D02*
G75*
G03*
X129540000Y-106680000I0J2540000D01*
G01*
X129540000Y-95885000D02*
X129540000Y-106680000D01*
X129540000Y-95885000D02*
G75*
G03*
X127000000Y-93345000I-2540000J0D01*
G01*
X118989974Y-93345000D02*
X127000000Y-93345000D01*
X117719974Y-92075000D02*
G75*
G03*
X118989974Y-93345000I1270000J0D01*
G01*
X117719974Y-87630000D02*
X117719974Y-92075000D01*
X117719974Y-87630000D02*
G75*
G03*
X116449974Y-86360000I-1270000J0D01*
G01*
X102235000Y-86360000D02*
X116449974Y-86360000D01*
X102235000Y-86360000D02*
G75*
G03*
X98425000Y-90170000I0J-3810000D01*
G01*
X111760000Y-106934000D02*
X111760000Y-101727000D01*
X123698000Y-106934000D02*
X111760000Y-106934000D01*
X124841000Y-105537000D02*
X123698000Y-106934000D01*
X125857000Y-105537000D02*
X124841000Y-105537000D01*
X125857000Y-96774000D02*
X125857000Y-105537000D01*
X124841000Y-96774000D02*
X125857000Y-96774000D01*
X123825000Y-95758000D02*
X124841000Y-96774000D01*
X111760000Y-95758000D02*
X123825000Y-95758000D01*
X109474000Y-98933000D02*
X111760000Y-95758000D01*
X109474000Y-101727000D02*
X109474000Y-98933000D01*
X111760000Y-101727000D02*
X109474000Y-101727000D01*
M02*
