G04 #@! TF.GenerationSoftware,KiCad,Pcbnew,5.99.0-unknown-bf85ddd577~142~ubuntu20.04.1*
G04 #@! TF.CreationDate,2021-11-06T13:40:24-04:00*
G04 #@! TF.ProjectId,microTouch,6d696372-6f54-46f7-9563-682e6b696361,rev?*
G04 #@! TF.SameCoordinates,Original*
G04 #@! TF.FileFunction,Copper,L1,Top*
G04 #@! TF.FilePolarity,Positive*
%FSLAX46Y46*%
G04 Gerber Fmt 4.6, Leading zero omitted, Abs format (unit mm)*
G04 Created by KiCad (PCBNEW 5.99.0-unknown-bf85ddd577~142~ubuntu20.04.1) date 2021-11-06 13:40:24*
%MOMM*%
%LPD*%
G01*
G04 APERTURE LIST*
G04 Aperture macros list*
%AMRoundRect*
0 Rectangle with rounded corners*
0 $1 Rounding radius*
0 $2 $3 $4 $5 $6 $7 $8 $9 X,Y pos of 4 corners*
0 Add a 4 corners polygon primitive as box body*
4,1,4,$2,$3,$4,$5,$6,$7,$8,$9,$2,$3,0*
0 Add four circle primitives for the rounded corners*
1,1,$1+$1,$2,$3*
1,1,$1+$1,$4,$5*
1,1,$1+$1,$6,$7*
1,1,$1+$1,$8,$9*
0 Add four rect primitives between the rounded corners*
20,1,$1+$1,$2,$3,$4,$5,0*
20,1,$1+$1,$4,$5,$6,$7,0*
20,1,$1+$1,$6,$7,$8,$9,0*
20,1,$1+$1,$8,$9,$2,$3,0*%
G04 Aperture macros list end*
G04 #@! TA.AperFunction,ComponentPad*
%ADD10RoundRect,0.250000X-0.350000X-0.625000X0.350000X-0.625000X0.350000X0.625000X-0.350000X0.625000X0*%
G04 #@! TD*
G04 #@! TA.AperFunction,ComponentPad*
%ADD11O,1.200000X1.750000*%
G04 #@! TD*
G04 #@! TA.AperFunction,SMDPad,CuDef*
%ADD12RoundRect,0.237500X0.250000X0.237500X-0.250000X0.237500X-0.250000X-0.237500X0.250000X-0.237500X0*%
G04 #@! TD*
G04 #@! TA.AperFunction,SMDPad,CuDef*
%ADD13RoundRect,0.237500X-0.250000X-0.237500X0.250000X-0.237500X0.250000X0.237500X-0.250000X0.237500X0*%
G04 #@! TD*
G04 #@! TA.AperFunction,SMDPad,CuDef*
%ADD14RoundRect,0.237500X-0.287500X-0.237500X0.287500X-0.237500X0.287500X0.237500X-0.287500X0.237500X0*%
G04 #@! TD*
G04 #@! TA.AperFunction,ComponentPad*
%ADD15O,2.000000X1.524000*%
G04 #@! TD*
G04 #@! TA.AperFunction,SMDPad,CuDef*
%ADD16O,1.000000X3.000000*%
G04 #@! TD*
G04 #@! TA.AperFunction,WasherPad*
%ADD17C,1.524000*%
G04 #@! TD*
G04 #@! TA.AperFunction,ViaPad*
%ADD18C,1.200000*%
G04 #@! TD*
G04 #@! TA.AperFunction,Conductor*
%ADD19C,0.500000*%
G04 #@! TD*
G04 APERTURE END LIST*
D10*
G04 #@! TO.P,J2,1,Pin_1*
G04 #@! TO.N,/VCC*
X115951000Y-117475000D03*
D11*
G04 #@! TO.P,J2,2,Pin_2*
G04 #@! TO.N,/SIG*
X117951000Y-117475000D03*
G04 #@! TO.P,J2,3,Pin_3*
G04 #@! TO.N,GND*
X119951000Y-117475000D03*
G04 #@! TO.P,J2,4,Pin_4*
G04 #@! TO.N,/SERVO*
X121951000Y-117475000D03*
G04 #@! TD*
D12*
G04 #@! TO.P,R3,1*
G04 #@! TO.N,Net-(D1-Pad1)*
X114323500Y-113919000D03*
G04 #@! TO.P,R3,2*
G04 #@! TO.N,GND*
X112498500Y-113919000D03*
G04 #@! TD*
D13*
G04 #@! TO.P,R2,1*
G04 #@! TO.N,/SIG*
X119610500Y-113919000D03*
G04 #@! TO.P,R2,2*
G04 #@! TO.N,/VCC*
X121435500Y-113919000D03*
G04 #@! TD*
G04 #@! TO.P,R1,1*
G04 #@! TO.N,/VCC*
X123166500Y-113919000D03*
G04 #@! TO.P,R1,2*
G04 #@! TO.N,Net-(R1-Pad2)*
X124991500Y-113919000D03*
G04 #@! TD*
D14*
G04 #@! TO.P,D1,1,K*
G04 #@! TO.N,Net-(D1-Pad1)*
X116092000Y-113919000D03*
G04 #@! TO.P,D1,2,A*
G04 #@! TO.N,/SIG*
X117842000Y-113919000D03*
G04 #@! TD*
D15*
G04 #@! TO.P,U1,1,K*
G04 #@! TO.N,GND*
X124479000Y-108351000D03*
G04 #@! TO.P,U1,2,A*
G04 #@! TO.N,Net-(R1-Pad2)*
X124479000Y-110891000D03*
G04 #@! TO.P,U1,3,C*
G04 #@! TO.N,/SIG*
X113519000Y-110891000D03*
G04 #@! TO.P,U1,4,E*
G04 #@! TO.N,GND*
X113519000Y-108351000D03*
G04 #@! TD*
D16*
G04 #@! TO.P,J1,3,Pin_3*
G04 #@! TO.N,GND*
X119499000Y-104102500D03*
G04 #@! TO.P,J1,2,Pin_2*
G04 #@! TO.N,/VCC*
X121249000Y-104102500D03*
G04 #@! TO.P,J1,1,Pin_1*
G04 #@! TO.N,/SERVO*
X122999000Y-104102500D03*
D17*
G04 #@! TO.P,J1,*
G04 #@! TO.N,*
X112999000Y-100852500D03*
X112999000Y-85612500D03*
X124999000Y-85612500D03*
X124999000Y-100852500D03*
G04 #@! TD*
D18*
G04 #@! TO.N,GND*
X117729000Y-103632000D03*
X118237000Y-106045000D03*
G04 #@! TO.N,/SERVO*
X122555000Y-112395000D03*
G04 #@! TO.N,Net-(R1-Pad2)*
X125095000Y-112903000D03*
G04 #@! TO.N,/VCC*
X115951000Y-115951000D03*
G04 #@! TO.N,/SIG*
X117951000Y-112871000D03*
G04 #@! TD*
D19*
G04 #@! TO.N,/SERVO*
X122555000Y-106807000D02*
X122555000Y-112395000D01*
X122999000Y-104102500D02*
X122999000Y-106363000D01*
X122999000Y-106363000D02*
X122555000Y-106807000D01*
G04 #@! TO.N,/VCC*
X121435500Y-113919000D02*
X121285000Y-113768500D01*
X121285000Y-113768500D02*
X121285000Y-104138500D01*
X121285000Y-104138500D02*
X121249000Y-104102500D01*
G04 #@! TO.N,Net-(R1-Pad2)*
X125095000Y-112903000D02*
X125095000Y-113815500D01*
X125095000Y-113815500D02*
X124991500Y-113919000D01*
G04 #@! TO.N,Net-(D1-Pad1)*
X114323500Y-113919000D02*
X116092000Y-113919000D01*
G04 #@! TO.N,/VCC*
X116459000Y-115443000D02*
X115951000Y-115951000D01*
X120777000Y-115189000D02*
X120523000Y-115443000D01*
X121435500Y-113919000D02*
X121435500Y-114530500D01*
X121435500Y-114530500D02*
X120777000Y-115189000D01*
X120523000Y-115443000D02*
X116459000Y-115443000D01*
X121435500Y-113919000D02*
X123166500Y-113919000D01*
G04 #@! TO.N,/SIG*
X117842000Y-113919000D02*
X117842000Y-112980000D01*
X117842000Y-112980000D02*
X117951000Y-112871000D01*
X119610500Y-113919000D02*
X117842000Y-113919000D01*
G04 #@! TD*
G04 #@! TA.AperFunction,Conductor*
G04 #@! TO.N,GND*
G36*
X112218570Y-102032523D02*
G01*
X112276362Y-102066294D01*
X112386587Y-102130704D01*
X112391412Y-102132546D01*
X112391413Y-102132547D01*
X112414364Y-102141311D01*
X112603574Y-102213564D01*
X112608640Y-102214595D01*
X112608641Y-102214595D01*
X112663152Y-102225685D01*
X112831181Y-102259871D01*
X112962296Y-102264679D01*
X113058131Y-102268193D01*
X113058135Y-102268193D01*
X113063295Y-102268382D01*
X113068414Y-102267726D01*
X113068419Y-102267726D01*
X113148013Y-102257530D01*
X113218123Y-102268715D01*
X113271056Y-102316028D01*
X113284000Y-102344959D01*
X113284000Y-102362000D01*
X113960890Y-102362000D01*
X114029011Y-102382002D01*
X114048536Y-102399314D01*
X114049187Y-102398620D01*
X114055575Y-102404619D01*
X114071254Y-102422404D01*
X114071742Y-102423076D01*
X114071748Y-102423082D01*
X114076405Y-102429492D01*
X114082513Y-102434545D01*
X114120882Y-102466287D01*
X114126818Y-102471520D01*
X114155858Y-102498790D01*
X114168903Y-102511040D01*
X114175846Y-102514857D01*
X114175847Y-102514858D01*
X114176584Y-102515263D01*
X114196190Y-102528588D01*
X114196835Y-102529122D01*
X114196842Y-102529126D01*
X114202945Y-102534175D01*
X114255200Y-102558764D01*
X114262213Y-102562338D01*
X114312817Y-102590158D01*
X114320493Y-102592129D01*
X114320496Y-102592130D01*
X114321306Y-102592338D01*
X114343622Y-102600373D01*
X114351543Y-102604100D01*
X114401426Y-102613615D01*
X114408244Y-102614916D01*
X114415972Y-102616643D01*
X114471886Y-102631000D01*
X114480650Y-102631000D01*
X114504258Y-102633232D01*
X114512862Y-102634873D01*
X114570464Y-102631249D01*
X114578375Y-102631000D01*
X118270097Y-102631000D01*
X118338218Y-102651002D01*
X118384711Y-102704658D01*
X118394815Y-102774932D01*
X118390430Y-102794364D01*
X118371024Y-102856862D01*
X118368632Y-102868114D01*
X118349436Y-103030298D01*
X118349000Y-103037701D01*
X118349000Y-103759385D01*
X118353475Y-103774624D01*
X118354865Y-103775829D01*
X118362548Y-103777500D01*
X119698000Y-103777500D01*
X119766121Y-103797502D01*
X119812614Y-103851158D01*
X119824000Y-103903500D01*
X119824000Y-106190336D01*
X119827973Y-106203867D01*
X119834056Y-106204741D01*
X119990793Y-106146918D01*
X120001171Y-106141968D01*
X120172883Y-106039811D01*
X120184440Y-106031414D01*
X120251308Y-106007556D01*
X120320460Y-106023638D01*
X120369939Y-106074552D01*
X120384500Y-106133351D01*
X120384500Y-112746253D01*
X120364498Y-112814374D01*
X120310842Y-112860867D01*
X120240568Y-112870971D01*
X120201299Y-112858520D01*
X120180484Y-112847914D01*
X120055310Y-112814374D01*
X120005757Y-112801096D01*
X120005751Y-112801095D01*
X120000179Y-112799602D01*
X119992860Y-112799026D01*
X119925103Y-112793693D01*
X119925094Y-112793693D01*
X119922646Y-112793500D01*
X119314955Y-112793500D01*
X119246834Y-112773498D01*
X119200341Y-112719842D01*
X119189434Y-112678480D01*
X119187686Y-112658503D01*
X119187207Y-112653023D01*
X119149620Y-112512745D01*
X119131998Y-112446980D01*
X119131997Y-112446978D01*
X119130575Y-112441670D01*
X119109366Y-112396187D01*
X119040425Y-112248343D01*
X119040423Y-112248340D01*
X119038102Y-112243362D01*
X118912598Y-112064123D01*
X118757877Y-111909402D01*
X118753369Y-111906245D01*
X118753366Y-111906243D01*
X118583148Y-111787055D01*
X118583145Y-111787053D01*
X118578639Y-111783898D01*
X118573657Y-111781575D01*
X118573652Y-111781572D01*
X118385312Y-111693748D01*
X118385311Y-111693747D01*
X118380330Y-111691425D01*
X118375022Y-111690003D01*
X118375020Y-111690002D01*
X118309255Y-111672380D01*
X118168977Y-111634793D01*
X117951000Y-111615723D01*
X117733023Y-111634793D01*
X117592745Y-111672380D01*
X117526980Y-111690002D01*
X117526978Y-111690003D01*
X117521670Y-111691425D01*
X117516690Y-111693747D01*
X117516688Y-111693748D01*
X117328343Y-111781575D01*
X117328340Y-111781577D01*
X117323362Y-111783898D01*
X117144123Y-111909402D01*
X116989402Y-112064123D01*
X116863898Y-112243362D01*
X116861577Y-112248340D01*
X116861575Y-112248343D01*
X116792634Y-112396187D01*
X116771425Y-112441670D01*
X116770003Y-112446978D01*
X116770002Y-112446980D01*
X116752380Y-112512745D01*
X116714793Y-112653023D01*
X116711994Y-112685023D01*
X116710870Y-112697867D01*
X116685007Y-112763986D01*
X116627504Y-112805626D01*
X116552738Y-112808594D01*
X116524757Y-112801096D01*
X116524751Y-112801095D01*
X116519179Y-112799602D01*
X116511860Y-112799026D01*
X116444103Y-112793693D01*
X116444094Y-112793693D01*
X116441646Y-112793500D01*
X115742354Y-112793500D01*
X115739906Y-112793693D01*
X115739897Y-112793693D01*
X115672140Y-112799026D01*
X115664821Y-112799602D01*
X115659249Y-112801095D01*
X115659243Y-112801096D01*
X115609690Y-112814374D01*
X115484516Y-112847914D01*
X115478625Y-112850915D01*
X115478624Y-112850916D01*
X115439265Y-112870971D01*
X115318197Y-112932659D01*
X115268292Y-112973071D01*
X115202767Y-113000396D01*
X115132869Y-112987957D01*
X115109712Y-112973075D01*
X115059803Y-112932659D01*
X114938735Y-112870971D01*
X114899376Y-112850916D01*
X114899375Y-112850915D01*
X114893484Y-112847914D01*
X114768310Y-112814374D01*
X114718757Y-112801096D01*
X114718751Y-112801095D01*
X114713179Y-112799602D01*
X114705860Y-112799026D01*
X114638103Y-112793693D01*
X114638094Y-112793693D01*
X114635646Y-112793500D01*
X114011354Y-112793500D01*
X114008906Y-112793693D01*
X114008897Y-112793693D01*
X113941140Y-112799026D01*
X113933821Y-112799602D01*
X113928249Y-112801095D01*
X113928243Y-112801096D01*
X113878690Y-112814374D01*
X113753516Y-112847914D01*
X113747625Y-112850915D01*
X113747624Y-112850916D01*
X113708265Y-112870971D01*
X113587197Y-112932659D01*
X113537294Y-112973070D01*
X113489897Y-113011451D01*
X113424370Y-113038777D01*
X113354472Y-113026337D01*
X113331308Y-113011451D01*
X113239657Y-112937233D01*
X113228648Y-112930083D01*
X113074183Y-112851379D01*
X113061930Y-112846675D01*
X112893678Y-112801592D01*
X112882345Y-112799645D01*
X112841558Y-112796435D01*
X112826469Y-112799605D01*
X112823500Y-112811068D01*
X112823500Y-115024870D01*
X112827844Y-115039665D01*
X112839504Y-115041726D01*
X112882346Y-115038355D01*
X112893675Y-115036408D01*
X113061930Y-114991325D01*
X113074183Y-114986621D01*
X113228648Y-114907917D01*
X113239657Y-114900767D01*
X113331308Y-114826549D01*
X113396835Y-114799223D01*
X113466734Y-114811662D01*
X113489896Y-114826549D01*
X113587197Y-114905341D01*
X113637249Y-114930844D01*
X113746716Y-114986621D01*
X113753516Y-114990086D01*
X113837063Y-115012472D01*
X113928243Y-115036904D01*
X113928249Y-115036905D01*
X113933821Y-115038398D01*
X113939577Y-115038851D01*
X114008897Y-115044307D01*
X114008906Y-115044307D01*
X114011354Y-115044500D01*
X114635646Y-115044500D01*
X114638094Y-115044307D01*
X114638103Y-115044307D01*
X114707423Y-115038851D01*
X114713179Y-115038398D01*
X114718753Y-115036905D01*
X114718756Y-115036904D01*
X114809937Y-115012472D01*
X114880914Y-115014162D01*
X114939709Y-115053956D01*
X114967657Y-115119221D01*
X114955883Y-115189234D01*
X114945761Y-115206449D01*
X114863898Y-115323362D01*
X114861577Y-115328340D01*
X114861575Y-115328343D01*
X114784936Y-115492696D01*
X114771425Y-115521670D01*
X114714793Y-115733023D01*
X114695723Y-115951000D01*
X114714793Y-116168977D01*
X114732389Y-116234647D01*
X114765837Y-116359474D01*
X114771425Y-116380330D01*
X114773748Y-116385312D01*
X114775631Y-116390485D01*
X114774291Y-116390973D01*
X114783938Y-116454498D01*
X114771350Y-116494755D01*
X114758679Y-116519624D01*
X114758676Y-116519633D01*
X114755680Y-116525512D01*
X114753972Y-116531885D01*
X114753972Y-116531886D01*
X114708182Y-116702777D01*
X114708181Y-116702783D01*
X114706688Y-116708355D01*
X114706235Y-116714111D01*
X114702013Y-116767760D01*
X114700500Y-116786979D01*
X114700501Y-118163020D01*
X114706688Y-118241645D01*
X114755680Y-118424488D01*
X114799420Y-118510334D01*
X114833302Y-118576829D01*
X114841617Y-118593149D01*
X114845770Y-118598278D01*
X114845773Y-118598282D01*
X114944290Y-118719939D01*
X114960743Y-118740257D01*
X114965874Y-118744412D01*
X115102718Y-118855227D01*
X115102722Y-118855230D01*
X115107851Y-118859383D01*
X115113729Y-118862378D01*
X115113732Y-118862380D01*
X115190666Y-118901580D01*
X115276512Y-118945320D01*
X115282885Y-118947028D01*
X115282886Y-118947028D01*
X115453777Y-118992818D01*
X115453783Y-118992819D01*
X115459355Y-118994312D01*
X115465111Y-118994765D01*
X115535523Y-119000307D01*
X115535530Y-119000307D01*
X115537979Y-119000500D01*
X115950832Y-119000500D01*
X116364020Y-119000499D01*
X116412943Y-118996649D01*
X116436891Y-118994765D01*
X116436893Y-118994765D01*
X116442645Y-118994312D01*
X116591578Y-118954406D01*
X116619114Y-118947028D01*
X116619115Y-118947028D01*
X116625488Y-118945320D01*
X116711334Y-118901580D01*
X116788268Y-118862380D01*
X116788271Y-118862378D01*
X116794149Y-118859383D01*
X116799278Y-118855230D01*
X116799282Y-118855227D01*
X116936126Y-118744412D01*
X116941257Y-118740257D01*
X116957710Y-118719939D01*
X117016124Y-118679588D01*
X117087082Y-118677224D01*
X117143315Y-118708753D01*
X117156820Y-118721841D01*
X117156826Y-118721846D01*
X117160854Y-118725749D01*
X117346132Y-118850250D01*
X117351278Y-118852509D01*
X117351280Y-118852510D01*
X117368564Y-118860097D01*
X117550529Y-118939974D01*
X117555977Y-118941282D01*
X117555983Y-118941284D01*
X117762128Y-118990775D01*
X117762129Y-118990775D01*
X117767585Y-118992085D01*
X117851803Y-118996941D01*
X117984831Y-119004611D01*
X117984834Y-119004611D01*
X117990438Y-119004934D01*
X118212044Y-118978117D01*
X118425400Y-118912481D01*
X118623759Y-118810099D01*
X118628201Y-118806690D01*
X118628205Y-118806688D01*
X118796410Y-118677620D01*
X118800854Y-118674210D01*
X118804625Y-118670065D01*
X118804629Y-118670062D01*
X118857455Y-118612007D01*
X118918095Y-118575084D01*
X118989071Y-118576807D01*
X119038334Y-118606322D01*
X119157142Y-118721456D01*
X119165824Y-118728486D01*
X119341721Y-118846684D01*
X119351510Y-118852065D01*
X119545553Y-118937245D01*
X119556141Y-118940808D01*
X119608383Y-118953350D01*
X119622469Y-118952645D01*
X119626000Y-118943765D01*
X119626000Y-117276000D01*
X119646002Y-117207879D01*
X119699658Y-117161386D01*
X119752000Y-117150000D01*
X120150000Y-117150000D01*
X120218121Y-117170002D01*
X120264614Y-117223658D01*
X120276000Y-117276000D01*
X120276000Y-118939804D01*
X120279973Y-118953335D01*
X120287421Y-118954406D01*
X120419848Y-118913665D01*
X120430193Y-118909444D01*
X120618507Y-118812247D01*
X120627938Y-118806262D01*
X120796071Y-118677250D01*
X120804288Y-118669694D01*
X120856760Y-118612028D01*
X120917400Y-118575106D01*
X120988376Y-118576829D01*
X121037638Y-118606344D01*
X121154859Y-118719939D01*
X121160854Y-118725749D01*
X121346132Y-118850250D01*
X121351278Y-118852509D01*
X121351280Y-118852510D01*
X121368564Y-118860097D01*
X121550529Y-118939974D01*
X121555977Y-118941282D01*
X121555983Y-118941284D01*
X121762128Y-118990775D01*
X121762129Y-118990775D01*
X121767585Y-118992085D01*
X121851803Y-118996941D01*
X121984831Y-119004611D01*
X121984834Y-119004611D01*
X121990438Y-119004934D01*
X122212044Y-118978117D01*
X122425400Y-118912481D01*
X122623759Y-118810099D01*
X122628201Y-118806690D01*
X122628205Y-118806688D01*
X122796410Y-118677620D01*
X122800854Y-118674210D01*
X122951086Y-118509107D01*
X123069707Y-118320010D01*
X123152966Y-118112895D01*
X123170667Y-118027423D01*
X123197296Y-117898834D01*
X123198233Y-117894310D01*
X123200442Y-117856000D01*
X123201395Y-117839474D01*
X123201395Y-117839470D01*
X123201500Y-117837651D01*
X123201500Y-117729000D01*
X125887671Y-117729000D01*
X125887941Y-117733119D01*
X125903621Y-117972339D01*
X125906966Y-118023380D01*
X125907770Y-118027420D01*
X125907770Y-118027423D01*
X125949237Y-118235891D01*
X125964519Y-118312722D01*
X125965845Y-118316628D01*
X125965846Y-118316632D01*
X126058024Y-118588177D01*
X126059348Y-118592077D01*
X126061169Y-118595770D01*
X126061170Y-118595772D01*
X126168134Y-118812672D01*
X126189828Y-118856664D01*
X126353727Y-119101957D01*
X126356441Y-119105051D01*
X126356445Y-119105057D01*
X126529561Y-119302456D01*
X126548242Y-119323758D01*
X126551331Y-119326467D01*
X126766943Y-119515555D01*
X126766949Y-119515559D01*
X126770043Y-119518273D01*
X126773469Y-119520562D01*
X126773474Y-119520566D01*
X126951256Y-119639356D01*
X127015335Y-119682172D01*
X127019034Y-119683996D01*
X127019039Y-119683999D01*
X127276228Y-119810830D01*
X127279923Y-119812652D01*
X127283821Y-119813975D01*
X127283823Y-119813976D01*
X127555368Y-119906154D01*
X127555372Y-119906155D01*
X127559278Y-119907481D01*
X127563322Y-119908285D01*
X127563328Y-119908287D01*
X127844577Y-119964230D01*
X127844580Y-119964230D01*
X127848620Y-119965034D01*
X127852731Y-119965303D01*
X127852735Y-119965304D01*
X128138881Y-119984059D01*
X128143000Y-119984329D01*
X128147119Y-119984059D01*
X128433265Y-119965304D01*
X128433269Y-119965303D01*
X128437380Y-119965034D01*
X128441420Y-119964230D01*
X128441423Y-119964230D01*
X128722672Y-119908287D01*
X128722678Y-119908285D01*
X128726722Y-119907481D01*
X128730628Y-119906155D01*
X128730632Y-119906154D01*
X129002177Y-119813976D01*
X129002179Y-119813975D01*
X129006077Y-119812652D01*
X129009772Y-119810830D01*
X129266961Y-119683999D01*
X129266966Y-119683996D01*
X129270665Y-119682172D01*
X129334744Y-119639356D01*
X129512526Y-119520566D01*
X129512531Y-119520562D01*
X129515957Y-119518273D01*
X129519051Y-119515559D01*
X129519057Y-119515555D01*
X129734669Y-119326467D01*
X129737758Y-119323758D01*
X129756439Y-119302456D01*
X129929555Y-119105057D01*
X129929559Y-119105051D01*
X129932273Y-119101957D01*
X130096172Y-118856664D01*
X130117867Y-118812672D01*
X130224830Y-118595772D01*
X130224831Y-118595770D01*
X130226652Y-118592077D01*
X130227976Y-118588177D01*
X130320154Y-118316632D01*
X130320155Y-118316628D01*
X130321481Y-118312722D01*
X130336764Y-118235891D01*
X130378230Y-118027423D01*
X130378230Y-118027420D01*
X130379034Y-118023380D01*
X130382380Y-117972339D01*
X130398059Y-117733119D01*
X130398329Y-117729000D01*
X130396708Y-117704270D01*
X130379304Y-117438735D01*
X130379303Y-117438731D01*
X130379034Y-117434620D01*
X130324685Y-117161386D01*
X130322287Y-117149328D01*
X130322285Y-117149322D01*
X130321481Y-117145278D01*
X130311418Y-117115632D01*
X130227976Y-116869823D01*
X130227975Y-116869821D01*
X130226652Y-116865923D01*
X130186510Y-116784523D01*
X130097999Y-116605040D01*
X130097996Y-116605035D01*
X130096172Y-116601336D01*
X129932273Y-116356043D01*
X129929559Y-116352949D01*
X129929555Y-116352943D01*
X129740467Y-116137331D01*
X129737758Y-116134242D01*
X129713672Y-116113119D01*
X129519057Y-115942445D01*
X129519051Y-115942441D01*
X129515957Y-115939727D01*
X129512527Y-115937435D01*
X129512526Y-115937434D01*
X129274098Y-115778122D01*
X129270665Y-115775828D01*
X129266966Y-115774004D01*
X129266961Y-115774001D01*
X129009772Y-115647170D01*
X129009770Y-115647169D01*
X129006077Y-115645348D01*
X129002177Y-115644024D01*
X128730632Y-115551846D01*
X128730628Y-115551845D01*
X128726722Y-115550519D01*
X128722678Y-115549715D01*
X128722672Y-115549713D01*
X128441423Y-115493770D01*
X128441420Y-115493770D01*
X128437380Y-115492966D01*
X128433269Y-115492697D01*
X128433265Y-115492696D01*
X128147119Y-115473941D01*
X128143000Y-115473671D01*
X128138881Y-115473941D01*
X127852735Y-115492696D01*
X127852731Y-115492697D01*
X127848620Y-115492966D01*
X127844580Y-115493770D01*
X127844577Y-115493770D01*
X127563328Y-115549713D01*
X127563322Y-115549715D01*
X127559278Y-115550519D01*
X127555372Y-115551845D01*
X127555368Y-115551846D01*
X127283823Y-115644024D01*
X127279923Y-115645348D01*
X127276230Y-115647169D01*
X127276228Y-115647170D01*
X127019040Y-115774001D01*
X127019035Y-115774004D01*
X127015336Y-115775828D01*
X126770043Y-115939727D01*
X126766949Y-115942441D01*
X126766943Y-115942445D01*
X126572328Y-116113119D01*
X126548242Y-116134242D01*
X126545533Y-116137331D01*
X126356445Y-116352943D01*
X126356441Y-116352949D01*
X126353727Y-116356043D01*
X126189828Y-116601336D01*
X126188004Y-116605035D01*
X126188001Y-116605040D01*
X126099490Y-116784523D01*
X126059348Y-116865923D01*
X126058025Y-116869821D01*
X126058024Y-116869823D01*
X125974583Y-117115632D01*
X125964519Y-117145278D01*
X125963715Y-117149322D01*
X125963713Y-117149328D01*
X125961315Y-117161386D01*
X125906966Y-117434620D01*
X125906697Y-117438731D01*
X125906696Y-117438735D01*
X125889292Y-117704270D01*
X125887671Y-117729000D01*
X123201500Y-117729000D01*
X123201500Y-117143370D01*
X123199025Y-117115632D01*
X123187210Y-116983256D01*
X123186711Y-116977661D01*
X123184731Y-116970420D01*
X123129288Y-116767760D01*
X123127808Y-116762349D01*
X123124003Y-116754370D01*
X123064676Y-116629990D01*
X123031708Y-116560871D01*
X122901448Y-116379595D01*
X122807260Y-116288320D01*
X122745174Y-116228154D01*
X122745171Y-116228152D01*
X122741146Y-116224251D01*
X122555868Y-116099750D01*
X122351471Y-116010026D01*
X122346023Y-116008718D01*
X122346017Y-116008716D01*
X122139872Y-115959225D01*
X122139871Y-115959225D01*
X122134415Y-115957915D01*
X122050197Y-115953059D01*
X121917169Y-115945389D01*
X121917166Y-115945389D01*
X121911562Y-115945066D01*
X121689956Y-115971883D01*
X121684598Y-115973531D01*
X121684590Y-115973533D01*
X121564774Y-116010393D01*
X121493784Y-116011305D01*
X121433569Y-115973692D01*
X121403249Y-115909495D01*
X121412449Y-115839097D01*
X121438631Y-115800868D01*
X121447119Y-115792380D01*
X122015125Y-115224375D01*
X122030159Y-115211534D01*
X122036032Y-115207267D01*
X122041371Y-115203388D01*
X122054116Y-115189234D01*
X122086720Y-115153023D01*
X122091261Y-115148239D01*
X122105620Y-115133880D01*
X122118408Y-115118089D01*
X122122688Y-115113079D01*
X122163613Y-115067626D01*
X122163617Y-115067621D01*
X122168033Y-115062716D01*
X122174962Y-115050714D01*
X122186163Y-115034417D01*
X122190726Y-115028782D01*
X122194883Y-115023649D01*
X122200796Y-115012044D01*
X122225651Y-114963266D01*
X122228796Y-114957474D01*
X122239703Y-114938581D01*
X122291084Y-114889586D01*
X122360797Y-114876147D01*
X122418212Y-114899613D01*
X122419527Y-114897588D01*
X122425060Y-114901181D01*
X122430197Y-114905341D01*
X122480249Y-114930844D01*
X122589716Y-114986621D01*
X122596516Y-114990086D01*
X122680063Y-115012472D01*
X122771243Y-115036904D01*
X122771249Y-115036905D01*
X122776821Y-115038398D01*
X122782577Y-115038851D01*
X122851897Y-115044307D01*
X122851906Y-115044307D01*
X122854354Y-115044500D01*
X123478646Y-115044500D01*
X123481094Y-115044307D01*
X123481103Y-115044307D01*
X123550423Y-115038851D01*
X123556179Y-115038398D01*
X123561751Y-115036905D01*
X123561757Y-115036904D01*
X123652937Y-115012472D01*
X123736484Y-114990086D01*
X123743285Y-114986621D01*
X123852751Y-114930844D01*
X123902803Y-114905341D01*
X123999707Y-114826869D01*
X124065233Y-114799545D01*
X124135132Y-114811985D01*
X124158290Y-114826868D01*
X124255197Y-114905341D01*
X124305249Y-114930844D01*
X124414716Y-114986621D01*
X124421516Y-114990086D01*
X124505063Y-115012472D01*
X124596243Y-115036904D01*
X124596249Y-115036905D01*
X124601821Y-115038398D01*
X124607577Y-115038851D01*
X124676897Y-115044307D01*
X124676906Y-115044307D01*
X124679354Y-115044500D01*
X125303646Y-115044500D01*
X125306094Y-115044307D01*
X125306103Y-115044307D01*
X125375423Y-115038851D01*
X125381179Y-115038398D01*
X125386751Y-115036905D01*
X125386757Y-115036904D01*
X125477937Y-115012472D01*
X125561484Y-114990086D01*
X125568285Y-114986621D01*
X125677751Y-114930844D01*
X125727803Y-114905341D01*
X125872869Y-114787869D01*
X125990341Y-114642803D01*
X126056841Y-114512292D01*
X126072084Y-114482376D01*
X126072085Y-114482375D01*
X126075086Y-114476484D01*
X126109569Y-114347792D01*
X126121904Y-114301757D01*
X126121905Y-114301751D01*
X126123398Y-114296179D01*
X126126245Y-114260003D01*
X126129307Y-114221103D01*
X126129307Y-114221094D01*
X126129500Y-114218646D01*
X126129500Y-113645489D01*
X126152287Y-113573218D01*
X126182102Y-113530638D01*
X126184425Y-113525656D01*
X126184428Y-113525651D01*
X126229576Y-113428830D01*
X126276493Y-113375545D01*
X126344771Y-113356084D01*
X126412731Y-113376626D01*
X126438501Y-113399001D01*
X126528441Y-113501559D01*
X126717670Y-113667507D01*
X126926940Y-113807337D01*
X126930639Y-113809161D01*
X126930644Y-113809164D01*
X127045840Y-113865972D01*
X127152671Y-113918655D01*
X127156576Y-113919980D01*
X127156577Y-113919981D01*
X127387088Y-113998229D01*
X127387092Y-113998230D01*
X127391001Y-113999557D01*
X127395045Y-114000361D01*
X127395051Y-114000363D01*
X127633813Y-114047856D01*
X127633819Y-114047857D01*
X127637852Y-114048659D01*
X127641957Y-114048928D01*
X127641964Y-114048929D01*
X127786002Y-114058369D01*
X127852173Y-114062707D01*
X127861669Y-114063692D01*
X127875288Y-114065630D01*
X127881846Y-114065699D01*
X127882143Y-114065738D01*
X127882441Y-114065705D01*
X127889001Y-114065774D01*
X127893098Y-114065278D01*
X127893103Y-114065278D01*
X127906434Y-114063665D01*
X127927749Y-114062904D01*
X128254797Y-114078971D01*
X128267093Y-114080181D01*
X128623252Y-114133013D01*
X128635358Y-114135420D01*
X128957758Y-114216177D01*
X128984622Y-114222906D01*
X128996454Y-114226495D01*
X129335456Y-114347792D01*
X129346880Y-114352524D01*
X129672356Y-114506463D01*
X129683261Y-114512292D01*
X129992083Y-114697393D01*
X130002364Y-114704263D01*
X130130838Y-114799545D01*
X130267321Y-114900767D01*
X130291545Y-114918733D01*
X130301104Y-114926577D01*
X130567889Y-115168378D01*
X130576622Y-115177111D01*
X130816691Y-115441985D01*
X130818423Y-115443896D01*
X130826267Y-115453455D01*
X131040737Y-115742636D01*
X131047607Y-115752917D01*
X131232708Y-116061739D01*
X131238537Y-116072644D01*
X131392476Y-116398120D01*
X131397208Y-116409544D01*
X131518505Y-116748546D01*
X131522094Y-116760376D01*
X131609580Y-117109642D01*
X131611987Y-117121748D01*
X131659008Y-117438735D01*
X131664818Y-117477902D01*
X131666030Y-117490208D01*
X131683696Y-117849818D01*
X131683696Y-117862182D01*
X131674067Y-118058190D01*
X131669039Y-118160549D01*
X131666030Y-118221792D01*
X131664819Y-118234093D01*
X131613979Y-118576829D01*
X131611989Y-118590243D01*
X131609580Y-118602358D01*
X131523245Y-118947028D01*
X131522094Y-118951622D01*
X131518505Y-118963454D01*
X131397208Y-119302456D01*
X131392476Y-119313880D01*
X131238537Y-119639356D01*
X131232708Y-119650261D01*
X131047607Y-119959083D01*
X131040737Y-119969364D01*
X130826267Y-120258545D01*
X130818423Y-120268104D01*
X130576627Y-120534884D01*
X130567889Y-120543622D01*
X130305812Y-120781156D01*
X130301104Y-120785423D01*
X130291545Y-120793267D01*
X130002364Y-121007737D01*
X129992083Y-121014607D01*
X129683261Y-121199708D01*
X129672356Y-121205537D01*
X129346880Y-121359476D01*
X129335456Y-121364208D01*
X128996454Y-121485505D01*
X128984624Y-121489094D01*
X128635358Y-121576580D01*
X128623252Y-121578987D01*
X128267093Y-121631819D01*
X128254797Y-121633030D01*
X128035612Y-121643797D01*
X127931558Y-121648909D01*
X127908931Y-121647983D01*
X127903389Y-121647253D01*
X127903384Y-121647253D01*
X127895857Y-121646262D01*
X127859894Y-121650232D01*
X127859834Y-121650239D01*
X127846007Y-121651000D01*
X110160104Y-121651000D01*
X110143658Y-121649922D01*
X110123388Y-121647253D01*
X110123384Y-121647253D01*
X110115857Y-121646262D01*
X110105109Y-121647449D01*
X110094022Y-121648672D01*
X110074016Y-121649281D01*
X109891303Y-121640305D01*
X109743203Y-121633030D01*
X109730907Y-121631819D01*
X109374748Y-121578987D01*
X109362642Y-121576580D01*
X109013376Y-121489094D01*
X109001546Y-121485505D01*
X108662544Y-121364208D01*
X108651120Y-121359476D01*
X108325644Y-121205537D01*
X108314739Y-121199708D01*
X108005917Y-121014607D01*
X107995636Y-121007737D01*
X107706455Y-120793267D01*
X107696896Y-120785423D01*
X107692188Y-120781156D01*
X107430111Y-120543622D01*
X107421373Y-120534884D01*
X107179577Y-120268104D01*
X107171733Y-120258545D01*
X106957263Y-119969364D01*
X106950393Y-119959083D01*
X106765292Y-119650261D01*
X106759463Y-119639356D01*
X106605524Y-119313880D01*
X106600792Y-119302456D01*
X106479495Y-118963454D01*
X106475906Y-118951622D01*
X106474755Y-118947028D01*
X106388420Y-118602358D01*
X106386011Y-118590243D01*
X106384022Y-118576829D01*
X106333181Y-118234093D01*
X106331970Y-118221792D01*
X106328962Y-118160549D01*
X106323933Y-118058190D01*
X106314304Y-117862182D01*
X106314304Y-117849818D01*
X106320239Y-117729000D01*
X107599671Y-117729000D01*
X107599941Y-117733119D01*
X107615621Y-117972339D01*
X107618966Y-118023380D01*
X107619770Y-118027420D01*
X107619770Y-118027423D01*
X107661237Y-118235891D01*
X107676519Y-118312722D01*
X107677845Y-118316628D01*
X107677846Y-118316632D01*
X107770024Y-118588177D01*
X107771348Y-118592077D01*
X107773169Y-118595770D01*
X107773170Y-118595772D01*
X107880134Y-118812672D01*
X107901828Y-118856664D01*
X108065727Y-119101957D01*
X108068441Y-119105051D01*
X108068445Y-119105057D01*
X108241561Y-119302456D01*
X108260242Y-119323758D01*
X108263331Y-119326467D01*
X108478943Y-119515555D01*
X108478949Y-119515559D01*
X108482043Y-119518273D01*
X108485469Y-119520562D01*
X108485474Y-119520566D01*
X108663256Y-119639356D01*
X108727335Y-119682172D01*
X108731034Y-119683996D01*
X108731039Y-119683999D01*
X108988228Y-119810830D01*
X108991923Y-119812652D01*
X108995821Y-119813975D01*
X108995823Y-119813976D01*
X109267368Y-119906154D01*
X109267372Y-119906155D01*
X109271278Y-119907481D01*
X109275322Y-119908285D01*
X109275328Y-119908287D01*
X109556577Y-119964230D01*
X109556580Y-119964230D01*
X109560620Y-119965034D01*
X109564731Y-119965303D01*
X109564735Y-119965304D01*
X109850881Y-119984059D01*
X109855000Y-119984329D01*
X109859119Y-119984059D01*
X110145265Y-119965304D01*
X110145269Y-119965303D01*
X110149380Y-119965034D01*
X110153420Y-119964230D01*
X110153423Y-119964230D01*
X110434672Y-119908287D01*
X110434678Y-119908285D01*
X110438722Y-119907481D01*
X110442628Y-119906155D01*
X110442632Y-119906154D01*
X110714177Y-119813976D01*
X110714179Y-119813975D01*
X110718077Y-119812652D01*
X110721772Y-119810830D01*
X110978961Y-119683999D01*
X110978966Y-119683996D01*
X110982665Y-119682172D01*
X111046744Y-119639356D01*
X111224526Y-119520566D01*
X111224531Y-119520562D01*
X111227957Y-119518273D01*
X111231051Y-119515559D01*
X111231057Y-119515555D01*
X111446669Y-119326467D01*
X111449758Y-119323758D01*
X111468439Y-119302456D01*
X111641555Y-119105057D01*
X111641559Y-119105051D01*
X111644273Y-119101957D01*
X111808172Y-118856664D01*
X111829867Y-118812672D01*
X111936830Y-118595772D01*
X111936831Y-118595770D01*
X111938652Y-118592077D01*
X111939976Y-118588177D01*
X112032154Y-118316632D01*
X112032155Y-118316628D01*
X112033481Y-118312722D01*
X112048764Y-118235891D01*
X112090230Y-118027423D01*
X112090230Y-118027420D01*
X112091034Y-118023380D01*
X112094380Y-117972339D01*
X112110059Y-117733119D01*
X112110329Y-117729000D01*
X112108708Y-117704270D01*
X112091304Y-117438735D01*
X112091303Y-117438731D01*
X112091034Y-117434620D01*
X112036685Y-117161386D01*
X112034287Y-117149328D01*
X112034285Y-117149322D01*
X112033481Y-117145278D01*
X112023418Y-117115632D01*
X111939976Y-116869823D01*
X111939975Y-116869821D01*
X111938652Y-116865923D01*
X111898510Y-116784523D01*
X111809999Y-116605040D01*
X111809996Y-116605035D01*
X111808172Y-116601336D01*
X111644273Y-116356043D01*
X111641559Y-116352949D01*
X111641555Y-116352943D01*
X111452467Y-116137331D01*
X111449758Y-116134242D01*
X111425672Y-116113119D01*
X111231057Y-115942445D01*
X111231051Y-115942441D01*
X111227957Y-115939727D01*
X111224527Y-115937435D01*
X111224526Y-115937434D01*
X110986098Y-115778122D01*
X110982665Y-115775828D01*
X110978966Y-115774004D01*
X110978961Y-115774001D01*
X110721772Y-115647170D01*
X110721770Y-115647169D01*
X110718077Y-115645348D01*
X110714177Y-115644024D01*
X110442632Y-115551846D01*
X110442628Y-115551845D01*
X110438722Y-115550519D01*
X110434678Y-115549715D01*
X110434672Y-115549713D01*
X110153423Y-115493770D01*
X110153420Y-115493770D01*
X110149380Y-115492966D01*
X110145269Y-115492697D01*
X110145265Y-115492696D01*
X109859119Y-115473941D01*
X109855000Y-115473671D01*
X109850881Y-115473941D01*
X109564735Y-115492696D01*
X109564731Y-115492697D01*
X109560620Y-115492966D01*
X109556580Y-115493770D01*
X109556577Y-115493770D01*
X109275328Y-115549713D01*
X109275322Y-115549715D01*
X109271278Y-115550519D01*
X109267372Y-115551845D01*
X109267368Y-115551846D01*
X108995823Y-115644024D01*
X108991923Y-115645348D01*
X108988230Y-115647169D01*
X108988228Y-115647170D01*
X108731040Y-115774001D01*
X108731035Y-115774004D01*
X108727336Y-115775828D01*
X108482043Y-115939727D01*
X108478949Y-115942441D01*
X108478943Y-115942445D01*
X108284328Y-116113119D01*
X108260242Y-116134242D01*
X108257533Y-116137331D01*
X108068445Y-116352943D01*
X108068441Y-116352949D01*
X108065727Y-116356043D01*
X107901828Y-116601336D01*
X107900004Y-116605035D01*
X107900001Y-116605040D01*
X107811490Y-116784523D01*
X107771348Y-116865923D01*
X107770025Y-116869821D01*
X107770024Y-116869823D01*
X107686583Y-117115632D01*
X107676519Y-117145278D01*
X107675715Y-117149322D01*
X107675713Y-117149328D01*
X107673315Y-117161386D01*
X107618966Y-117434620D01*
X107618697Y-117438731D01*
X107618696Y-117438735D01*
X107601292Y-117704270D01*
X107599671Y-117729000D01*
X106320239Y-117729000D01*
X106331970Y-117490208D01*
X106333182Y-117477902D01*
X106338992Y-117438735D01*
X106386013Y-117121748D01*
X106388420Y-117109642D01*
X106475906Y-116760376D01*
X106479495Y-116748546D01*
X106600792Y-116409544D01*
X106605524Y-116398120D01*
X106759463Y-116072644D01*
X106765292Y-116061739D01*
X106950393Y-115752917D01*
X106957263Y-115742636D01*
X107171733Y-115453455D01*
X107179577Y-115443896D01*
X107181309Y-115441985D01*
X107421378Y-115177111D01*
X107430111Y-115168378D01*
X107696896Y-114926577D01*
X107706455Y-114918733D01*
X107730680Y-114900767D01*
X107867162Y-114799545D01*
X107995636Y-114704263D01*
X108005917Y-114697393D01*
X108314739Y-114512292D01*
X108325644Y-114506463D01*
X108651120Y-114352524D01*
X108662544Y-114347792D01*
X108907898Y-114260003D01*
X111364257Y-114260003D01*
X111366645Y-114290345D01*
X111368592Y-114301676D01*
X111413675Y-114469930D01*
X111418379Y-114482183D01*
X111497083Y-114636648D01*
X111504236Y-114647663D01*
X111613331Y-114782383D01*
X111622617Y-114791669D01*
X111757337Y-114900764D01*
X111768352Y-114907917D01*
X111922817Y-114986621D01*
X111935070Y-114991325D01*
X112103322Y-115036408D01*
X112114655Y-115038355D01*
X112155442Y-115041565D01*
X112170531Y-115038395D01*
X112173500Y-115026932D01*
X112173500Y-114262115D01*
X112169025Y-114246876D01*
X112167635Y-114245671D01*
X112159952Y-114244000D01*
X111381113Y-114244000D01*
X111366318Y-114248344D01*
X111364257Y-114260003D01*
X108907898Y-114260003D01*
X109001546Y-114226495D01*
X109013378Y-114222906D01*
X109040242Y-114216177D01*
X109362642Y-114135420D01*
X109374748Y-114133013D01*
X109730907Y-114080181D01*
X109743203Y-114078970D01*
X109866127Y-114072932D01*
X110062600Y-114063280D01*
X110086532Y-114064384D01*
X110095286Y-114065630D01*
X110101846Y-114065699D01*
X110102143Y-114065738D01*
X110102441Y-114065705D01*
X110108999Y-114065774D01*
X110113096Y-114065278D01*
X110113098Y-114065278D01*
X110115296Y-114065012D01*
X110117355Y-114064762D01*
X110124251Y-114064120D01*
X110131194Y-114063665D01*
X110150815Y-114062379D01*
X110356036Y-114048929D01*
X110356043Y-114048928D01*
X110360148Y-114048659D01*
X110364181Y-114047857D01*
X110364187Y-114047856D01*
X110602949Y-114000363D01*
X110602955Y-114000361D01*
X110606999Y-113999557D01*
X110610908Y-113998230D01*
X110610912Y-113998229D01*
X110841423Y-113919981D01*
X110841424Y-113919980D01*
X110845329Y-113918655D01*
X110952160Y-113865972D01*
X111067356Y-113809164D01*
X111067361Y-113809161D01*
X111071060Y-113807337D01*
X111280330Y-113667507D01*
X111328494Y-113625268D01*
X111392899Y-113595391D01*
X111411572Y-113594000D01*
X112155385Y-113594000D01*
X112170624Y-113589525D01*
X112171829Y-113588135D01*
X112173500Y-113580452D01*
X112173500Y-112813130D01*
X112169156Y-112798335D01*
X112157496Y-112796274D01*
X112114661Y-112799645D01*
X112109032Y-112800612D01*
X112038508Y-112792436D01*
X111983599Y-112747430D01*
X111961739Y-112679882D01*
X111965987Y-112643816D01*
X111966232Y-112642904D01*
X111967557Y-112638999D01*
X111968361Y-112634959D01*
X112015856Y-112396187D01*
X112015857Y-112396181D01*
X112016659Y-112392148D01*
X112027210Y-112231173D01*
X112027377Y-112229437D01*
X112029000Y-112223114D01*
X112029000Y-112207986D01*
X112029270Y-112199746D01*
X112030706Y-112177834D01*
X112031693Y-112168322D01*
X112033630Y-112154712D01*
X112033774Y-112140999D01*
X112029913Y-112109094D01*
X112029000Y-112093956D01*
X112029000Y-111940868D01*
X112049002Y-111872747D01*
X112102658Y-111826254D01*
X112172932Y-111816150D01*
X112237512Y-111845644D01*
X112250165Y-111858287D01*
X112292694Y-111907297D01*
X112296820Y-111910680D01*
X112296824Y-111910684D01*
X112473931Y-112055903D01*
X112473937Y-112055907D01*
X112478059Y-112059287D01*
X112482695Y-112061926D01*
X112482698Y-112061928D01*
X112621606Y-112140999D01*
X112686382Y-112177872D01*
X112911707Y-112259661D01*
X112916956Y-112260610D01*
X112916959Y-112260611D01*
X112999244Y-112275490D01*
X113147591Y-112302316D01*
X113151730Y-112302511D01*
X113151737Y-112302512D01*
X113171210Y-112303430D01*
X113171219Y-112303430D01*
X113172699Y-112303500D01*
X113817187Y-112303500D01*
X113886819Y-112297592D01*
X113990541Y-112288791D01*
X113990545Y-112288790D01*
X113995852Y-112288340D01*
X114001007Y-112287002D01*
X114001013Y-112287001D01*
X114222705Y-112229461D01*
X114222709Y-112229460D01*
X114227874Y-112228119D01*
X114232740Y-112225927D01*
X114232743Y-112225926D01*
X114412099Y-112145132D01*
X114446432Y-112129666D01*
X114645278Y-111995795D01*
X114702857Y-111940868D01*
X114802677Y-111845644D01*
X114818725Y-111830335D01*
X114896167Y-111726249D01*
X114958630Y-111642296D01*
X114958632Y-111642293D01*
X114961814Y-111638016D01*
X115070453Y-111424338D01*
X115141537Y-111195410D01*
X115173033Y-110957778D01*
X115164040Y-110718237D01*
X115114816Y-110483636D01*
X115112859Y-110478680D01*
X115112857Y-110478674D01*
X115028726Y-110265643D01*
X115026767Y-110260682D01*
X114902412Y-110055751D01*
X114815632Y-109955746D01*
X114748806Y-109878736D01*
X114748804Y-109878734D01*
X114745306Y-109874703D01*
X114741180Y-109871320D01*
X114741176Y-109871316D01*
X114564067Y-109726096D01*
X114564066Y-109726095D01*
X114559941Y-109722713D01*
X114557339Y-109721232D01*
X114512974Y-109666705D01*
X114505053Y-109596152D01*
X114536534Y-109532516D01*
X114558788Y-109513420D01*
X114640537Y-109458384D01*
X114648822Y-109451723D01*
X114814492Y-109293681D01*
X114821532Y-109285724D01*
X114958201Y-109102034D01*
X114963805Y-109092997D01*
X115067570Y-108888905D01*
X115071570Y-108879054D01*
X115129248Y-108693300D01*
X115129466Y-108679201D01*
X115122735Y-108676000D01*
X113320000Y-108676000D01*
X113251879Y-108655998D01*
X113205386Y-108602342D01*
X113194000Y-108550000D01*
X113194000Y-108007885D01*
X113844000Y-108007885D01*
X113848475Y-108023124D01*
X113849865Y-108024329D01*
X113857548Y-108026000D01*
X115113472Y-108026000D01*
X115127003Y-108022027D01*
X115128528Y-108011420D01*
X115115430Y-107948997D01*
X115112375Y-107938818D01*
X115028281Y-107725875D01*
X115023547Y-107716339D01*
X114904777Y-107520611D01*
X114898506Y-107512013D01*
X114748460Y-107339100D01*
X114740825Y-107331674D01*
X114563785Y-107186512D01*
X114555018Y-107180486D01*
X114356051Y-107067227D01*
X114346387Y-107062762D01*
X114131178Y-106984645D01*
X114120910Y-106981874D01*
X113894445Y-106940923D01*
X113886215Y-106939988D01*
X113866742Y-106939070D01*
X113863767Y-106939000D01*
X113862115Y-106939000D01*
X113846876Y-106943475D01*
X113845671Y-106944865D01*
X113844000Y-106952548D01*
X113844000Y-108007885D01*
X113194000Y-108007885D01*
X113194000Y-106959392D01*
X113189690Y-106944714D01*
X113177807Y-106942651D01*
X113047544Y-106953704D01*
X113037072Y-106955494D01*
X112815464Y-107013012D01*
X112805424Y-107016548D01*
X112596673Y-107110583D01*
X112587387Y-107115752D01*
X112397464Y-107243616D01*
X112389178Y-107250277D01*
X112241972Y-107390705D01*
X112178875Y-107423252D01*
X112108198Y-107416521D01*
X112052381Y-107372647D01*
X112029000Y-107299535D01*
X112029000Y-105153223D01*
X118349000Y-105153223D01*
X118349266Y-105159012D01*
X118362883Y-105307215D01*
X118364980Y-105318529D01*
X118419215Y-105510830D01*
X118423337Y-105521569D01*
X118511708Y-105700767D01*
X118517718Y-105710575D01*
X118637269Y-105870673D01*
X118644959Y-105879213D01*
X118791685Y-106014846D01*
X118800810Y-106021847D01*
X118969791Y-106128466D01*
X118980035Y-106133686D01*
X119162274Y-106206392D01*
X119169107Y-106205781D01*
X119174000Y-106190629D01*
X119174000Y-104445615D01*
X119169525Y-104430376D01*
X119168135Y-104429171D01*
X119160452Y-104427500D01*
X118367115Y-104427500D01*
X118351876Y-104431975D01*
X118350671Y-104433365D01*
X118349000Y-104441048D01*
X118349000Y-105153223D01*
X112029000Y-105153223D01*
X112029000Y-102141311D01*
X112049002Y-102073190D01*
X112102658Y-102026697D01*
X112172932Y-102016593D01*
X112218570Y-102032523D01*
G37*
G04 #@! TD.AperFunction*
G04 #@! TA.AperFunction,Conductor*
G36*
X125905913Y-102031185D02*
G01*
X125954947Y-102082528D01*
X125969000Y-102140354D01*
X125969000Y-107301896D01*
X125948998Y-107370017D01*
X125895342Y-107416510D01*
X125825068Y-107426614D01*
X125760488Y-107397120D01*
X125747834Y-107384476D01*
X125708453Y-107339093D01*
X125700825Y-107331674D01*
X125523785Y-107186512D01*
X125515018Y-107180486D01*
X125316051Y-107067227D01*
X125306387Y-107062762D01*
X125091178Y-106984645D01*
X125080910Y-106981874D01*
X124854445Y-106940923D01*
X124846215Y-106939988D01*
X124826742Y-106939070D01*
X124823767Y-106939000D01*
X124822115Y-106939000D01*
X124806876Y-106943475D01*
X124805671Y-106944865D01*
X124804000Y-106952548D01*
X124804000Y-108550000D01*
X124783998Y-108618121D01*
X124730342Y-108664614D01*
X124678000Y-108676000D01*
X124280000Y-108676000D01*
X124211879Y-108655998D01*
X124165386Y-108602342D01*
X124154000Y-108550000D01*
X124154000Y-106959392D01*
X124149690Y-106944714D01*
X124137807Y-106942651D01*
X124007544Y-106953704D01*
X123997072Y-106955494D01*
X123934988Y-106971608D01*
X123864027Y-106969361D01*
X123805545Y-106929106D01*
X123778111Y-106863624D01*
X123790435Y-106793705D01*
X123794214Y-106786650D01*
X123822879Y-106737000D01*
X123822879Y-106736999D01*
X123826179Y-106731284D01*
X123830464Y-106718097D01*
X123838027Y-106699840D01*
X123841323Y-106693371D01*
X123841324Y-106693367D01*
X123844320Y-106687488D01*
X123861860Y-106622028D01*
X123863734Y-106615702D01*
X123882632Y-106557539D01*
X123884674Y-106551256D01*
X123886122Y-106537477D01*
X123889726Y-106518030D01*
X123893313Y-106504645D01*
X123896859Y-106436980D01*
X123897376Y-106430405D01*
X123899156Y-106413466D01*
X123899156Y-106413463D01*
X123899500Y-106410192D01*
X123899500Y-106389873D01*
X123899673Y-106383279D01*
X123902874Y-106322204D01*
X123902874Y-106322200D01*
X123903219Y-106315612D01*
X123901051Y-106301923D01*
X123899500Y-106282213D01*
X123899500Y-105862407D01*
X123919502Y-105794286D01*
X123926550Y-105784402D01*
X123964448Y-105736328D01*
X123968024Y-105731792D01*
X124066477Y-105544664D01*
X124129180Y-105342727D01*
X124149500Y-105171045D01*
X124149500Y-103048859D01*
X124135081Y-102891940D01*
X124128362Y-102868114D01*
X124107562Y-102794364D01*
X124077686Y-102688431D01*
X124075132Y-102683253D01*
X124075129Y-102683244D01*
X124006327Y-102543728D01*
X123994137Y-102473786D01*
X124021696Y-102408356D01*
X124080254Y-102368213D01*
X124119333Y-102362000D01*
X124968000Y-102362000D01*
X124968000Y-102354206D01*
X124974685Y-102346491D01*
X124998310Y-102303227D01*
X125060622Y-102269203D01*
X125071394Y-102267345D01*
X125208417Y-102249792D01*
X125293682Y-102238869D01*
X125298630Y-102237384D01*
X125298637Y-102237383D01*
X125427588Y-102198695D01*
X125516155Y-102172124D01*
X125579052Y-102141311D01*
X125720096Y-102072214D01*
X125720100Y-102072212D01*
X125724739Y-102069939D01*
X125728946Y-102066938D01*
X125728953Y-102066934D01*
X125769831Y-102037776D01*
X125836904Y-102014502D01*
X125905913Y-102031185D01*
G37*
G04 #@! TD.AperFunction*
G04 #@! TD*
M02*
