M48
; DRILL file {KiCad 5.99.0-unknown-bf85ddd577~142~ubuntu20.04.1} date Sat 06 Nov 2021 01:40:27 PM
; FORMAT={-:-/ absolute / metric / decimal}
; #@! TF.CreationDate,2021-11-06T13:40:27-04:00
; #@! TF.GenerationSoftware,Kicad,Pcbnew,5.99.0-unknown-bf85ddd577~142~ubuntu20.04.1
; #@! TF.FileFunction,MixedPlating,1,2
FMAT,2
METRIC
; #@! TA.AperFunction,Plated,PTH,ViaDrill
T1C0.700
; #@! TA.AperFunction,Plated,PTH,ComponentDrill
T2C0.750
; #@! TA.AperFunction,Plated,PTH,ComponentDrill
T3C0.762
; #@! TA.AperFunction,NonPlated,NPTH,ComponentDrill
T4C1.400
; #@! TA.AperFunction,NonPlated,NPTH,ComponentDrill
T5C3.200
%
G90
G05
T1
X115.951Y-115.951
X117.729Y-103.632
X117.951Y-112.871
X118.237Y-106.045
X122.555Y-112.395
X125.095Y-112.903
T2
X115.951Y-117.475
X117.951Y-117.475
X119.951Y-117.475
X121.951Y-117.475
T3
X113.919Y-108.351
X113.919Y-110.891
X124.079Y-108.351
X124.079Y-110.891
T4
X112.999Y-85.612
X112.999Y-100.852
X124.999Y-85.612
X124.999Y-100.852
T5
X109.855Y-117.729
X128.143Y-117.729
T0
M30
