G04 #@! TF.GenerationSoftware,KiCad,Pcbnew,5.99.0-unknown-bf85ddd577~142~ubuntu20.04.1*
G04 #@! TF.CreationDate,2021-11-06T19:56:36-04:00*
G04 #@! TF.ProjectId,microTouch,6d696372-6f54-46f7-9563-682e6b696361,rev?*
G04 #@! TF.SameCoordinates,Original*
G04 #@! TF.FileFunction,Copper,L1,Top*
G04 #@! TF.FilePolarity,Positive*
%FSLAX46Y46*%
G04 Gerber Fmt 4.6, Leading zero omitted, Abs format (unit mm)*
G04 Created by KiCad (PCBNEW 5.99.0-unknown-bf85ddd577~142~ubuntu20.04.1) date 2021-11-06 19:56:36*
%MOMM*%
%LPD*%
G01*
G04 APERTURE LIST*
G04 Aperture macros list*
%AMRoundRect*
0 Rectangle with rounded corners*
0 $1 Rounding radius*
0 $2 $3 $4 $5 $6 $7 $8 $9 X,Y pos of 4 corners*
0 Add a 4 corners polygon primitive as box body*
4,1,4,$2,$3,$4,$5,$6,$7,$8,$9,$2,$3,0*
0 Add four circle primitives for the rounded corners*
1,1,$1+$1,$2,$3*
1,1,$1+$1,$4,$5*
1,1,$1+$1,$6,$7*
1,1,$1+$1,$8,$9*
0 Add four rect primitives between the rounded corners*
20,1,$1+$1,$2,$3,$4,$5,0*
20,1,$1+$1,$4,$5,$6,$7,0*
20,1,$1+$1,$6,$7,$8,$9,0*
20,1,$1+$1,$8,$9,$2,$3,0*%
G04 Aperture macros list end*
G04 #@! TA.AperFunction,WasherPad*
%ADD10C,1.524000*%
G04 #@! TD*
G04 #@! TA.AperFunction,ComponentPad*
%ADD11O,2.000000X1.000000*%
G04 #@! TD*
G04 #@! TA.AperFunction,ComponentPad*
%ADD12RoundRect,0.250000X0.350000X0.625000X-0.350000X0.625000X-0.350000X-0.625000X0.350000X-0.625000X0*%
G04 #@! TD*
G04 #@! TA.AperFunction,ComponentPad*
%ADD13O,1.200000X1.750000*%
G04 #@! TD*
G04 #@! TA.AperFunction,SMDPad,CuDef*
%ADD14RoundRect,0.237500X0.237500X-0.287500X0.237500X0.287500X-0.237500X0.287500X-0.237500X-0.287500X0*%
G04 #@! TD*
G04 #@! TA.AperFunction,SMDPad,CuDef*
%ADD15RoundRect,0.237500X-0.237500X0.250000X-0.237500X-0.250000X0.237500X-0.250000X0.237500X0.250000X0*%
G04 #@! TD*
G04 #@! TA.AperFunction,ComponentPad*
%ADD16O,1.524000X2.000000*%
G04 #@! TD*
G04 #@! TA.AperFunction,ViaPad*
%ADD17C,1.200000*%
G04 #@! TD*
G04 #@! TA.AperFunction,Conductor*
%ADD18C,0.500000*%
G04 #@! TD*
G04 APERTURE END LIST*
D10*
G04 #@! TO.P,J1,*
G04 #@! TO.N,*
X109749000Y-107219000D03*
X124989000Y-107219000D03*
X124989000Y-95219000D03*
X109749000Y-95219000D03*
D11*
G04 #@! TO.P,J1,1,Pin_1*
G04 #@! TO.N,/SERVO*
X111749000Y-105919000D03*
G04 #@! TO.P,J1,2,Pin_2*
G04 #@! TO.N,/VCC*
X111749000Y-104469000D03*
G04 #@! TO.P,J1,3,Pin_3*
G04 #@! TO.N,GND*
X111749000Y-103019000D03*
G04 #@! TD*
D12*
G04 #@! TO.P,J2,1,Pin_1*
G04 #@! TO.N,/VCC*
X114252000Y-90085000D03*
D13*
G04 #@! TO.P,J2,2,Pin_2*
G04 #@! TO.N,/SIG*
X112252000Y-90085000D03*
G04 #@! TO.P,J2,3,Pin_3*
G04 #@! TO.N,GND*
X110252000Y-90085000D03*
G04 #@! TO.P,J2,4,Pin_4*
G04 #@! TO.N,/SERVO*
X108252000Y-90085000D03*
G04 #@! TD*
D14*
G04 #@! TO.P,D1,1,K*
G04 #@! TO.N,Net-(D1-Pad1)*
X106553000Y-95871000D03*
G04 #@! TO.P,D1,2,A*
G04 #@! TO.N,/SIG*
X106553000Y-94121000D03*
G04 #@! TD*
D15*
G04 #@! TO.P,R2,1*
G04 #@! TO.N,/SIG*
X106553000Y-102592500D03*
G04 #@! TO.P,R2,2*
G04 #@! TO.N,/VCC*
X106553000Y-104417500D03*
G04 #@! TD*
D16*
G04 #@! TO.P,U1,4,E*
G04 #@! TO.N,GND*
X103612000Y-95866000D03*
G04 #@! TO.P,U1,3,C*
G04 #@! TO.N,/SIG*
X101072000Y-95866000D03*
G04 #@! TO.P,U1,2,A*
G04 #@! TO.N,Net-(R1-Pad2)*
X101072000Y-106826000D03*
G04 #@! TO.P,U1,1,K*
G04 #@! TO.N,GND*
X103612000Y-106826000D03*
G04 #@! TD*
D15*
G04 #@! TO.P,R3,1*
G04 #@! TO.N,Net-(D1-Pad1)*
X106553000Y-98251000D03*
G04 #@! TO.P,R3,2*
G04 #@! TO.N,GND*
X106553000Y-100076000D03*
G04 #@! TD*
G04 #@! TO.P,R1,1*
G04 #@! TO.N,/VCC*
X106553000Y-106887000D03*
G04 #@! TO.P,R1,2*
G04 #@! TO.N,Net-(R1-Pad2)*
X106553000Y-108712000D03*
G04 #@! TD*
D17*
G04 #@! TO.N,Net-(R1-Pad2)*
X101092000Y-108331000D03*
G04 #@! TO.N,GND*
X110236000Y-87884000D03*
X104648000Y-104394000D03*
X108966000Y-102870000D03*
X103632000Y-98298000D03*
G04 #@! TO.N,/VCC*
X114300000Y-91694000D03*
G04 #@! TO.N,/SIG*
X112268000Y-91694000D03*
G04 #@! TO.N,/SERVO*
X107950000Y-105918000D03*
G04 #@! TO.N,/SIG*
X101072000Y-97282000D03*
G04 #@! TD*
D18*
G04 #@! TO.N,Net-(R1-Pad2)*
X101473000Y-108712000D02*
X101092000Y-108331000D01*
X106553000Y-108712000D02*
X101473000Y-108712000D01*
G04 #@! TO.N,/SERVO*
X107950000Y-105918000D02*
X108204000Y-105664000D01*
X111494000Y-105664000D02*
X111749000Y-105919000D01*
X108204000Y-105664000D02*
X111494000Y-105664000D01*
G04 #@! TO.N,/VCC*
X114300000Y-91694000D02*
X113030000Y-92964000D01*
X107696000Y-94234000D02*
X107696000Y-103274500D01*
X113030000Y-92964000D02*
X108966000Y-92964000D01*
X108966000Y-92964000D02*
X107696000Y-94234000D01*
X107696000Y-103274500D02*
X107390250Y-103580250D01*
G04 #@! TO.N,/SIG*
X112268000Y-91694000D02*
X112014000Y-91948000D01*
X112014000Y-91948000D02*
X108458000Y-91948000D01*
X106553000Y-93853000D02*
X106553000Y-94121000D01*
X108458000Y-91948000D02*
X106553000Y-93853000D01*
G04 #@! TO.N,/VCC*
X107390250Y-103580250D02*
X106553000Y-104417500D01*
X111749000Y-104469000D02*
X108279000Y-104469000D01*
X108279000Y-104469000D02*
X107390250Y-103580250D01*
G04 #@! TO.N,/SIG*
X101072000Y-100691000D02*
X102973500Y-102592500D01*
X101072000Y-97282000D02*
X101072000Y-100691000D01*
X102973500Y-102592500D02*
X106553000Y-102592500D01*
X101072000Y-96266000D02*
X101072000Y-94635000D01*
X101072000Y-94635000D02*
X101586000Y-94121000D01*
X101586000Y-94121000D02*
X106553000Y-94121000D01*
G04 #@! TO.N,Net-(D1-Pad1)*
X106553000Y-98251000D02*
X106553000Y-95871000D01*
G04 #@! TO.N,/VCC*
X106553000Y-104417500D02*
X106553000Y-106887000D01*
G04 #@! TD*
G04 #@! TA.AperFunction,Conductor*
G04 #@! TO.N,GND*
G36*
X116415317Y-87011078D02*
G01*
X116435587Y-87013747D01*
X116435591Y-87013747D01*
X116443118Y-87014738D01*
X116453852Y-87013553D01*
X116481782Y-87013584D01*
X116539815Y-87020123D01*
X116573833Y-87023956D01*
X116601335Y-87030233D01*
X116705587Y-87066712D01*
X116731001Y-87078951D01*
X116815430Y-87132001D01*
X116824519Y-87137712D01*
X116846578Y-87155304D01*
X116924670Y-87233396D01*
X116942262Y-87255455D01*
X117001022Y-87348971D01*
X117013262Y-87374387D01*
X117049740Y-87478635D01*
X117056018Y-87506140D01*
X117065650Y-87591620D01*
X117065493Y-87608004D01*
X117066307Y-87608013D01*
X117066228Y-87615611D01*
X117065236Y-87623142D01*
X117066070Y-87630692D01*
X117069213Y-87659165D01*
X117069974Y-87672992D01*
X117069974Y-92019832D01*
X117068717Y-92037586D01*
X117065344Y-92061286D01*
X117065200Y-92074999D01*
X117065696Y-92079095D01*
X117065696Y-92079099D01*
X117066211Y-92083350D01*
X117066854Y-92090251D01*
X117081693Y-92316657D01*
X117082315Y-92326148D01*
X117083117Y-92330181D01*
X117083118Y-92330187D01*
X117130611Y-92568949D01*
X117131417Y-92572999D01*
X117132744Y-92576908D01*
X117132745Y-92576912D01*
X117195040Y-92760427D01*
X117212319Y-92811329D01*
X117214143Y-92815027D01*
X117305319Y-92999914D01*
X117323637Y-93037060D01*
X117463467Y-93246330D01*
X117629415Y-93435559D01*
X117818644Y-93601507D01*
X118027914Y-93741337D01*
X118031613Y-93743161D01*
X118031618Y-93743164D01*
X118122292Y-93787879D01*
X118253645Y-93852655D01*
X118257550Y-93853980D01*
X118257551Y-93853981D01*
X118488062Y-93932229D01*
X118488066Y-93932230D01*
X118491975Y-93933557D01*
X118496019Y-93934361D01*
X118496025Y-93934363D01*
X118734787Y-93981856D01*
X118734793Y-93981857D01*
X118738826Y-93982659D01*
X118742931Y-93982928D01*
X118742938Y-93982929D01*
X118829573Y-93988607D01*
X118899801Y-93993210D01*
X118901537Y-93993377D01*
X118907860Y-93995000D01*
X118922988Y-93995000D01*
X118931228Y-93995270D01*
X118939022Y-93995781D01*
X118953144Y-93996706D01*
X118962643Y-93997692D01*
X118976262Y-93999630D01*
X118982925Y-93999700D01*
X118985842Y-93999731D01*
X118985848Y-93999731D01*
X118989975Y-93999774D01*
X119021879Y-93995913D01*
X119037018Y-93995000D01*
X123910132Y-93995000D01*
X123978253Y-94015002D01*
X124024746Y-94068658D01*
X124034850Y-94138932D01*
X124001226Y-94208050D01*
X123945164Y-94266716D01*
X123908934Y-94304629D01*
X123887519Y-94327038D01*
X123884605Y-94331310D01*
X123884604Y-94331311D01*
X123850728Y-94380972D01*
X123756629Y-94518916D01*
X123658835Y-94729595D01*
X123596764Y-94953417D01*
X123593121Y-94987511D01*
X123592279Y-94995388D01*
X123565152Y-95060998D01*
X123506860Y-95101526D01*
X123466992Y-95108000D01*
X111782715Y-95108000D01*
X111775343Y-95107784D01*
X111766561Y-95107269D01*
X111716053Y-95104309D01*
X111708273Y-95105828D01*
X111708270Y-95105828D01*
X111661034Y-95115050D01*
X111652684Y-95116391D01*
X111604932Y-95122423D01*
X111604929Y-95122424D01*
X111597067Y-95123417D01*
X111589697Y-95126335D01*
X111587361Y-95127260D01*
X111565118Y-95133775D01*
X111562643Y-95134258D01*
X111562642Y-95134258D01*
X111554868Y-95135776D01*
X111547712Y-95139181D01*
X111547709Y-95139182D01*
X111504252Y-95159859D01*
X111496501Y-95163233D01*
X111451744Y-95180954D01*
X111451739Y-95180957D01*
X111444371Y-95183874D01*
X111435924Y-95190012D01*
X111415997Y-95201853D01*
X111406572Y-95206338D01*
X111367203Y-95239193D01*
X111302090Y-95267482D01*
X111232015Y-95256078D01*
X111179230Y-95208598D01*
X111160897Y-95152779D01*
X111151080Y-95033382D01*
X111147309Y-94987511D01*
X111090725Y-94762240D01*
X111088668Y-94757510D01*
X111088666Y-94757503D01*
X111000168Y-94553971D01*
X111000166Y-94553968D01*
X110998108Y-94549234D01*
X110890113Y-94382299D01*
X110874755Y-94358559D01*
X110874753Y-94358556D01*
X110871945Y-94354216D01*
X110843815Y-94323301D01*
X110719102Y-94186244D01*
X110719100Y-94186243D01*
X110715624Y-94182422D01*
X110711573Y-94179223D01*
X110711569Y-94179219D01*
X110597815Y-94089382D01*
X110556752Y-94031465D01*
X110553520Y-93960542D01*
X110589145Y-93899130D01*
X110652317Y-93866728D01*
X110675907Y-93864500D01*
X112949213Y-93864500D01*
X112968923Y-93866051D01*
X112982612Y-93868219D01*
X112989200Y-93867874D01*
X112989204Y-93867874D01*
X113050280Y-93864673D01*
X113056874Y-93864500D01*
X113077192Y-93864500D01*
X113080459Y-93864157D01*
X113080470Y-93864156D01*
X113097400Y-93862376D01*
X113103966Y-93861859D01*
X113133627Y-93860305D01*
X113165052Y-93858659D01*
X113165057Y-93858658D01*
X113171646Y-93858313D01*
X113185037Y-93854725D01*
X113204479Y-93851122D01*
X113211693Y-93850364D01*
X113211695Y-93850364D01*
X113218256Y-93849674D01*
X113224533Y-93847634D01*
X113224535Y-93847634D01*
X113282701Y-93828735D01*
X113289025Y-93826862D01*
X113348109Y-93811030D01*
X113348115Y-93811028D01*
X113354488Y-93809320D01*
X113360367Y-93806324D01*
X113360371Y-93806323D01*
X113366840Y-93803027D01*
X113385097Y-93795464D01*
X113386453Y-93795023D01*
X113398284Y-93791179D01*
X113404000Y-93787879D01*
X113456971Y-93757297D01*
X113462766Y-93754151D01*
X113517266Y-93726381D01*
X113517269Y-93726379D01*
X113523149Y-93723383D01*
X113533920Y-93714661D01*
X113550209Y-93703466D01*
X113562216Y-93696533D01*
X113612580Y-93651185D01*
X113617596Y-93646901D01*
X113630816Y-93636195D01*
X113633380Y-93634119D01*
X113647729Y-93619770D01*
X113652513Y-93615229D01*
X113697985Y-93574286D01*
X113697986Y-93574284D01*
X113702888Y-93569871D01*
X113711041Y-93558649D01*
X113723878Y-93543621D01*
X114287540Y-92979959D01*
X114349852Y-92945933D01*
X114365651Y-92943533D01*
X114517977Y-92930207D01*
X114658255Y-92892620D01*
X114724020Y-92874998D01*
X114724022Y-92874997D01*
X114729330Y-92873575D01*
X114734312Y-92871252D01*
X114922652Y-92783428D01*
X114922657Y-92783425D01*
X114927639Y-92781102D01*
X115031867Y-92708121D01*
X115102366Y-92658757D01*
X115102369Y-92658755D01*
X115106877Y-92655598D01*
X115261598Y-92500877D01*
X115387102Y-92321638D01*
X115479575Y-92123330D01*
X115489367Y-92086788D01*
X115507307Y-92019832D01*
X115536207Y-91911977D01*
X115555277Y-91694000D01*
X115536207Y-91476023D01*
X115479575Y-91264670D01*
X115434089Y-91167125D01*
X115423428Y-91096933D01*
X115436017Y-91056673D01*
X115444322Y-91040372D01*
X115447320Y-91034488D01*
X115449028Y-91028114D01*
X115494818Y-90857223D01*
X115494819Y-90857217D01*
X115496312Y-90851645D01*
X115500562Y-90797651D01*
X115502307Y-90775477D01*
X115502307Y-90775470D01*
X115502500Y-90773021D01*
X115502499Y-89396980D01*
X115496312Y-89318355D01*
X115447320Y-89135512D01*
X115401732Y-89046040D01*
X115364380Y-88972732D01*
X115364378Y-88972729D01*
X115361383Y-88966851D01*
X115357230Y-88961722D01*
X115357227Y-88961718D01*
X115246412Y-88824874D01*
X115242257Y-88819743D01*
X115153357Y-88747753D01*
X115100282Y-88704773D01*
X115100278Y-88704770D01*
X115095149Y-88700617D01*
X115089271Y-88697622D01*
X115089268Y-88697620D01*
X115012334Y-88658420D01*
X114926488Y-88614680D01*
X114920114Y-88612972D01*
X114749223Y-88567182D01*
X114749217Y-88567181D01*
X114743645Y-88565688D01*
X114733747Y-88564909D01*
X114667477Y-88559693D01*
X114667470Y-88559693D01*
X114665021Y-88559500D01*
X114252168Y-88559500D01*
X113838980Y-88559501D01*
X113790057Y-88563351D01*
X113766109Y-88565235D01*
X113766107Y-88565235D01*
X113760355Y-88565688D01*
X113702429Y-88581209D01*
X113604850Y-88607355D01*
X113577512Y-88614680D01*
X113491666Y-88658420D01*
X113414732Y-88697620D01*
X113414729Y-88697622D01*
X113408851Y-88700617D01*
X113403722Y-88704770D01*
X113403718Y-88704773D01*
X113350643Y-88747753D01*
X113261743Y-88819743D01*
X113252527Y-88831124D01*
X113245290Y-88840061D01*
X113186876Y-88880412D01*
X113115918Y-88882776D01*
X113059685Y-88851247D01*
X113046180Y-88838159D01*
X113046172Y-88838153D01*
X113042146Y-88834251D01*
X112856868Y-88709750D01*
X112836063Y-88700617D01*
X112715102Y-88647519D01*
X112652471Y-88620026D01*
X112647023Y-88618718D01*
X112647017Y-88618716D01*
X112440872Y-88569225D01*
X112440871Y-88569225D01*
X112435415Y-88567915D01*
X112351197Y-88563059D01*
X112218169Y-88555389D01*
X112218166Y-88555389D01*
X112212562Y-88555066D01*
X111990956Y-88581883D01*
X111777600Y-88647519D01*
X111579241Y-88749901D01*
X111574799Y-88753310D01*
X111574795Y-88753312D01*
X111411213Y-88878833D01*
X111402146Y-88885790D01*
X111398376Y-88889933D01*
X111398371Y-88889938D01*
X111345545Y-88947993D01*
X111284905Y-88984916D01*
X111213929Y-88983193D01*
X111164666Y-88953678D01*
X111045858Y-88838544D01*
X111037176Y-88831514D01*
X110861279Y-88713316D01*
X110851490Y-88707935D01*
X110657447Y-88622755D01*
X110646859Y-88619192D01*
X110594617Y-88606650D01*
X110580531Y-88607355D01*
X110577000Y-88616235D01*
X110577000Y-90284000D01*
X110556998Y-90352121D01*
X110503342Y-90398614D01*
X110451000Y-90410000D01*
X110053000Y-90410000D01*
X109984879Y-90389998D01*
X109938386Y-90336342D01*
X109927000Y-90284000D01*
X109927000Y-88620196D01*
X109923027Y-88606665D01*
X109915579Y-88605594D01*
X109783152Y-88646335D01*
X109772807Y-88650556D01*
X109584493Y-88747753D01*
X109575062Y-88753738D01*
X109406929Y-88882750D01*
X109398712Y-88890306D01*
X109346240Y-88947972D01*
X109285600Y-88984894D01*
X109214624Y-88983171D01*
X109165362Y-88953656D01*
X109046174Y-88838154D01*
X109046171Y-88838152D01*
X109042146Y-88834251D01*
X108856868Y-88709750D01*
X108836063Y-88700617D01*
X108715102Y-88647519D01*
X108652471Y-88620026D01*
X108647023Y-88618718D01*
X108647017Y-88618716D01*
X108440872Y-88569225D01*
X108440871Y-88569225D01*
X108435415Y-88567915D01*
X108351197Y-88563059D01*
X108218169Y-88555389D01*
X108218166Y-88555389D01*
X108212562Y-88555066D01*
X107990956Y-88581883D01*
X107777600Y-88647519D01*
X107579241Y-88749901D01*
X107574799Y-88753310D01*
X107574795Y-88753312D01*
X107411213Y-88878833D01*
X107402146Y-88885790D01*
X107251914Y-89050893D01*
X107133293Y-89239990D01*
X107050034Y-89447105D01*
X107048897Y-89452593D01*
X107048896Y-89452598D01*
X107020926Y-89587661D01*
X107004767Y-89665690D01*
X107001500Y-89722349D01*
X107001500Y-90416630D01*
X107001749Y-90419417D01*
X107001749Y-90419423D01*
X107006122Y-90468423D01*
X107016289Y-90582339D01*
X107075192Y-90797651D01*
X107171292Y-90999129D01*
X107301552Y-91180405D01*
X107461854Y-91335749D01*
X107466505Y-91338874D01*
X107466512Y-91338880D01*
X107535061Y-91384942D01*
X107580447Y-91439538D01*
X107589111Y-91510004D01*
X107553881Y-91578619D01*
X106206632Y-92925869D01*
X106150148Y-92958481D01*
X105995516Y-92999914D01*
X105829197Y-93084659D01*
X105824060Y-93088819D01*
X105696123Y-93192420D01*
X105630596Y-93219746D01*
X105616829Y-93220500D01*
X101666787Y-93220500D01*
X101647076Y-93218949D01*
X101639904Y-93217813D01*
X101633388Y-93216781D01*
X101626800Y-93217126D01*
X101626796Y-93217126D01*
X101565721Y-93220327D01*
X101559127Y-93220500D01*
X101538808Y-93220500D01*
X101535537Y-93220844D01*
X101535534Y-93220844D01*
X101518595Y-93222624D01*
X101512020Y-93223141D01*
X101488075Y-93224396D01*
X101444355Y-93226687D01*
X101430964Y-93230275D01*
X101411523Y-93233878D01*
X101410319Y-93234004D01*
X101404315Y-93234635D01*
X101404311Y-93234636D01*
X101397744Y-93235326D01*
X101374447Y-93242896D01*
X101333298Y-93256266D01*
X101326972Y-93258140D01*
X101267885Y-93273972D01*
X101267882Y-93273973D01*
X101261512Y-93275680D01*
X101255633Y-93278676D01*
X101255629Y-93278677D01*
X101249160Y-93281973D01*
X101230903Y-93289536D01*
X101217716Y-93293821D01*
X101212001Y-93297121D01*
X101212000Y-93297121D01*
X101159029Y-93327703D01*
X101153234Y-93330849D01*
X101104456Y-93355704D01*
X101092851Y-93361617D01*
X101087718Y-93365774D01*
X101082083Y-93370337D01*
X101065786Y-93381538D01*
X101053784Y-93388467D01*
X101048879Y-93392883D01*
X101048874Y-93392887D01*
X101003421Y-93433812D01*
X100998411Y-93438092D01*
X100982620Y-93450880D01*
X100968261Y-93465239D01*
X100963477Y-93469780D01*
X100913112Y-93515129D01*
X100909233Y-93520468D01*
X100904966Y-93526341D01*
X100892125Y-93541375D01*
X100492374Y-93941126D01*
X100477351Y-93953959D01*
X100466129Y-93962112D01*
X100436273Y-93995270D01*
X100420772Y-94012486D01*
X100416231Y-94017270D01*
X100401881Y-94031620D01*
X100399805Y-94034184D01*
X100389099Y-94047404D01*
X100384815Y-94052420D01*
X100339467Y-94102784D01*
X100332534Y-94114791D01*
X100321339Y-94131080D01*
X100312617Y-94141851D01*
X100309621Y-94147731D01*
X100309619Y-94147734D01*
X100281849Y-94202234D01*
X100278703Y-94208029D01*
X100257613Y-94244559D01*
X100244821Y-94266716D01*
X100240977Y-94278547D01*
X100240536Y-94279903D01*
X100232973Y-94298160D01*
X100226680Y-94310512D01*
X100224972Y-94316885D01*
X100224970Y-94316891D01*
X100209138Y-94375975D01*
X100207265Y-94382299D01*
X100188366Y-94440465D01*
X100186326Y-94446744D01*
X100185636Y-94453305D01*
X100185636Y-94453307D01*
X100184878Y-94460521D01*
X100181275Y-94479963D01*
X100177687Y-94493354D01*
X100177566Y-94495667D01*
X100147836Y-94558383D01*
X100136379Y-94569686D01*
X100101358Y-94600077D01*
X100055703Y-94639694D01*
X100052320Y-94643820D01*
X100052316Y-94643824D01*
X99907097Y-94820931D01*
X99907093Y-94820937D01*
X99903713Y-94825059D01*
X99785128Y-95033382D01*
X99703339Y-95258707D01*
X99702390Y-95263956D01*
X99702389Y-95263959D01*
X99696339Y-95297416D01*
X99660684Y-95494591D01*
X99660489Y-95498730D01*
X99660488Y-95498737D01*
X99659570Y-95518210D01*
X99659500Y-95519699D01*
X99659500Y-96164187D01*
X99659725Y-96166836D01*
X99673790Y-96332596D01*
X99674660Y-96342852D01*
X99675998Y-96348007D01*
X99675999Y-96348013D01*
X99733539Y-96569705D01*
X99734881Y-96574874D01*
X99737073Y-96579740D01*
X99737074Y-96579743D01*
X99772842Y-96659145D01*
X99833334Y-96793432D01*
X99854926Y-96825504D01*
X99876376Y-96893180D01*
X99872113Y-96928477D01*
X99835793Y-97064023D01*
X99816723Y-97282000D01*
X99835793Y-97499977D01*
X99892425Y-97711330D01*
X99984898Y-97909638D01*
X100110402Y-98088877D01*
X100134595Y-98113070D01*
X100168621Y-98175382D01*
X100171500Y-98202165D01*
X100171500Y-100610213D01*
X100169949Y-100629923D01*
X100167781Y-100643612D01*
X100168126Y-100650200D01*
X100168126Y-100650204D01*
X100171327Y-100711280D01*
X100171500Y-100717874D01*
X100171500Y-100738192D01*
X100171843Y-100741459D01*
X100171844Y-100741470D01*
X100173624Y-100758400D01*
X100174142Y-100764983D01*
X100176876Y-100817163D01*
X100177687Y-100832646D01*
X100181274Y-100846031D01*
X100184878Y-100865479D01*
X100186326Y-100879256D01*
X100188366Y-100885533D01*
X100188366Y-100885535D01*
X100207265Y-100943701D01*
X100209138Y-100950025D01*
X100224970Y-101009109D01*
X100224972Y-101009115D01*
X100226680Y-101015488D01*
X100229676Y-101021367D01*
X100229677Y-101021371D01*
X100232973Y-101027840D01*
X100240536Y-101046097D01*
X100244821Y-101059284D01*
X100248121Y-101064999D01*
X100248121Y-101065000D01*
X100278703Y-101117971D01*
X100281849Y-101123766D01*
X100309619Y-101178266D01*
X100312617Y-101184149D01*
X100316771Y-101189278D01*
X100316771Y-101189279D01*
X100321339Y-101194920D01*
X100332534Y-101211209D01*
X100339467Y-101223216D01*
X100343888Y-101228126D01*
X100384815Y-101273580D01*
X100389099Y-101278596D01*
X100401881Y-101294380D01*
X100416230Y-101308729D01*
X100420771Y-101313513D01*
X100466129Y-101363888D01*
X100477351Y-101372041D01*
X100492379Y-101384878D01*
X102279622Y-103172121D01*
X102292459Y-103187149D01*
X102300612Y-103198371D01*
X102305514Y-103202784D01*
X102305515Y-103202786D01*
X102350987Y-103243729D01*
X102355771Y-103248270D01*
X102370120Y-103262619D01*
X102372684Y-103264695D01*
X102385904Y-103275401D01*
X102390920Y-103279685D01*
X102441284Y-103325033D01*
X102453291Y-103331966D01*
X102469580Y-103343161D01*
X102480351Y-103351883D01*
X102486231Y-103354879D01*
X102486234Y-103354881D01*
X102540734Y-103382651D01*
X102546529Y-103385797D01*
X102569206Y-103398889D01*
X102605216Y-103419679D01*
X102614806Y-103422795D01*
X102618403Y-103423964D01*
X102636660Y-103431527D01*
X102643129Y-103434823D01*
X102643133Y-103434824D01*
X102649012Y-103437820D01*
X102655385Y-103439528D01*
X102655391Y-103439530D01*
X102714475Y-103455362D01*
X102720799Y-103457235D01*
X102778965Y-103476134D01*
X102778967Y-103476134D01*
X102785244Y-103478174D01*
X102791805Y-103478864D01*
X102791807Y-103478864D01*
X102799021Y-103479622D01*
X102818463Y-103483225D01*
X102831854Y-103486813D01*
X102838443Y-103487158D01*
X102838448Y-103487159D01*
X102869873Y-103488805D01*
X102899534Y-103490359D01*
X102906100Y-103490876D01*
X102923030Y-103492656D01*
X102923041Y-103492657D01*
X102926308Y-103493000D01*
X102946626Y-103493000D01*
X102953220Y-103493173D01*
X103014296Y-103496374D01*
X103014300Y-103496374D01*
X103020888Y-103496719D01*
X103034577Y-103494551D01*
X103054287Y-103493000D01*
X105457636Y-103493000D01*
X105525757Y-103513002D01*
X105572250Y-103566658D01*
X105582354Y-103636932D01*
X105565874Y-103680797D01*
X105566659Y-103681197D01*
X105481914Y-103847516D01*
X105458335Y-103935514D01*
X105435096Y-104022243D01*
X105435095Y-104022249D01*
X105433602Y-104027821D01*
X105427500Y-104105354D01*
X105427500Y-104729646D01*
X105433602Y-104807179D01*
X105435095Y-104812751D01*
X105435096Y-104812757D01*
X105453608Y-104881843D01*
X105481914Y-104987484D01*
X105566659Y-105153803D01*
X105600168Y-105195183D01*
X105624420Y-105225132D01*
X105651746Y-105290659D01*
X105652500Y-105304426D01*
X105652500Y-106000074D01*
X105632498Y-106068195D01*
X105624420Y-106079368D01*
X105566659Y-106150697D01*
X105481914Y-106317016D01*
X105471859Y-106354544D01*
X105435096Y-106491743D01*
X105435095Y-106491749D01*
X105433602Y-106497321D01*
X105433149Y-106503077D01*
X105429144Y-106553971D01*
X105427500Y-106574854D01*
X105427500Y-107199146D01*
X105427693Y-107201594D01*
X105427693Y-107201603D01*
X105431473Y-107249629D01*
X105433602Y-107276679D01*
X105435095Y-107282251D01*
X105435096Y-107282257D01*
X105451680Y-107344149D01*
X105481914Y-107456984D01*
X105484915Y-107462875D01*
X105484916Y-107462876D01*
X105566659Y-107623303D01*
X105565419Y-107623935D01*
X105583635Y-107684903D01*
X105563956Y-107753118D01*
X105510521Y-107799864D01*
X105457636Y-107811500D01*
X105022626Y-107811500D01*
X104954505Y-107791498D01*
X104908012Y-107737842D01*
X104897908Y-107667568D01*
X104904187Y-107642509D01*
X104978355Y-107438178D01*
X104981126Y-107427910D01*
X105022077Y-107201445D01*
X105023012Y-107193215D01*
X105023930Y-107173742D01*
X105024000Y-107170767D01*
X105024000Y-107169115D01*
X105019525Y-107153876D01*
X105018135Y-107152671D01*
X105010452Y-107151000D01*
X103413000Y-107151000D01*
X103344879Y-107130998D01*
X103298386Y-107077342D01*
X103287000Y-107025000D01*
X103287000Y-106482885D01*
X103937000Y-106482885D01*
X103941475Y-106498124D01*
X103942865Y-106499329D01*
X103950548Y-106501000D01*
X105003608Y-106501000D01*
X105018286Y-106496690D01*
X105020349Y-106484807D01*
X105009296Y-106354544D01*
X105007506Y-106344072D01*
X104949988Y-106122464D01*
X104946452Y-106112424D01*
X104852417Y-105903673D01*
X104847248Y-105894387D01*
X104719384Y-105704464D01*
X104712723Y-105696178D01*
X104554681Y-105530508D01*
X104546724Y-105523468D01*
X104363034Y-105386799D01*
X104353997Y-105381195D01*
X104149905Y-105277430D01*
X104140054Y-105273430D01*
X103954300Y-105215752D01*
X103940201Y-105215534D01*
X103937000Y-105222265D01*
X103937000Y-106482885D01*
X103287000Y-106482885D01*
X103287000Y-105231528D01*
X103283027Y-105217997D01*
X103272420Y-105216472D01*
X103209997Y-105229570D01*
X103199818Y-105232625D01*
X102986875Y-105316719D01*
X102977339Y-105321453D01*
X102781611Y-105440223D01*
X102773013Y-105446494D01*
X102600100Y-105596540D01*
X102592674Y-105604175D01*
X102447516Y-105781209D01*
X102443389Y-105787215D01*
X102388321Y-105832027D01*
X102317769Y-105839954D01*
X102254130Y-105808478D01*
X102235027Y-105786217D01*
X102198304Y-105731671D01*
X102176795Y-105699722D01*
X102160611Y-105682756D01*
X102015017Y-105530135D01*
X102011335Y-105526275D01*
X101903554Y-105446084D01*
X101823296Y-105386370D01*
X101823293Y-105386368D01*
X101819016Y-105383186D01*
X101637028Y-105290659D01*
X101610094Y-105276965D01*
X101610093Y-105276965D01*
X101605338Y-105274547D01*
X101376410Y-105203463D01*
X101371123Y-105202762D01*
X101371122Y-105202762D01*
X101144062Y-105172667D01*
X101144058Y-105172667D01*
X101138778Y-105171967D01*
X101133449Y-105172167D01*
X101133447Y-105172167D01*
X101019008Y-105176463D01*
X100899237Y-105180960D01*
X100664636Y-105230184D01*
X100659680Y-105232141D01*
X100659674Y-105232143D01*
X100511504Y-105290659D01*
X100441682Y-105318233D01*
X100436376Y-105321453D01*
X100241312Y-105439820D01*
X100241309Y-105439822D01*
X100236751Y-105442588D01*
X100232723Y-105446083D01*
X100232722Y-105446084D01*
X100071574Y-105585922D01*
X100055703Y-105599694D01*
X100052320Y-105603820D01*
X100052316Y-105603824D01*
X99907097Y-105780931D01*
X99907093Y-105780937D01*
X99903713Y-105785059D01*
X99901074Y-105789695D01*
X99901072Y-105789698D01*
X99836194Y-105903673D01*
X99785128Y-105993382D01*
X99703339Y-106218707D01*
X99660684Y-106454591D01*
X99659500Y-106479699D01*
X99659500Y-107124187D01*
X99661775Y-107151000D01*
X99673702Y-107291558D01*
X99674660Y-107302852D01*
X99675998Y-107308007D01*
X99675999Y-107308013D01*
X99729812Y-107515345D01*
X99734881Y-107534874D01*
X99737073Y-107539740D01*
X99737074Y-107539743D01*
X99778573Y-107631867D01*
X99833334Y-107753432D01*
X99858962Y-107791498D01*
X99886289Y-107832089D01*
X99907740Y-107899767D01*
X99903476Y-107935067D01*
X99855793Y-108113023D01*
X99836723Y-108331000D01*
X99855793Y-108548977D01*
X99861426Y-108570000D01*
X99899323Y-108711431D01*
X99912425Y-108760330D01*
X100004898Y-108958638D01*
X100130402Y-109137877D01*
X100285123Y-109292598D01*
X100289631Y-109295755D01*
X100289634Y-109295757D01*
X100459852Y-109414945D01*
X100464361Y-109418102D01*
X100469343Y-109420425D01*
X100469348Y-109420428D01*
X100657688Y-109508252D01*
X100662670Y-109510575D01*
X100667978Y-109511997D01*
X100667980Y-109511998D01*
X100733745Y-109529620D01*
X100874023Y-109567207D01*
X101092000Y-109586277D01*
X101190685Y-109577643D01*
X101240600Y-109583331D01*
X101284744Y-109597674D01*
X101298087Y-109599076D01*
X101298533Y-109599123D01*
X101317971Y-109602726D01*
X101319540Y-109603146D01*
X101331354Y-109606312D01*
X101337954Y-109606658D01*
X101337955Y-109606658D01*
X101399011Y-109609858D01*
X101405585Y-109610375D01*
X101422534Y-109612156D01*
X101422536Y-109612156D01*
X101425808Y-109612500D01*
X101446133Y-109612500D01*
X101452727Y-109612673D01*
X101513796Y-109615874D01*
X101513801Y-109615874D01*
X101520388Y-109616219D01*
X101534077Y-109614051D01*
X101553787Y-109612500D01*
X105663138Y-109612500D01*
X105731259Y-109632502D01*
X105742431Y-109640579D01*
X105829197Y-109710841D01*
X105995516Y-109795586D01*
X106083514Y-109819165D01*
X106170243Y-109842404D01*
X106170249Y-109842405D01*
X106175821Y-109843898D01*
X106181577Y-109844351D01*
X106250897Y-109849807D01*
X106250906Y-109849807D01*
X106253354Y-109850000D01*
X106601157Y-109850000D01*
X106669278Y-109870002D01*
X106715771Y-109923658D01*
X106724736Y-110000581D01*
X106704277Y-110103436D01*
X106677341Y-110238852D01*
X106677072Y-110242957D01*
X106677071Y-110242964D01*
X106666791Y-110399814D01*
X106666623Y-110401563D01*
X106665000Y-110407886D01*
X106665000Y-110423014D01*
X106664730Y-110431254D01*
X106663294Y-110453166D01*
X106662308Y-110462669D01*
X106660370Y-110476288D01*
X106660226Y-110490001D01*
X106660723Y-110494107D01*
X106664087Y-110521906D01*
X106665000Y-110537044D01*
X106665000Y-112343896D01*
X106663922Y-112360342D01*
X106660262Y-112388143D01*
X106661096Y-112395696D01*
X106662672Y-112409978D01*
X106663281Y-112429984D01*
X106647030Y-112760792D01*
X106645819Y-112773093D01*
X106597079Y-113101672D01*
X106592989Y-113129243D01*
X106590580Y-113141358D01*
X106528606Y-113388772D01*
X106503094Y-113490622D01*
X106499505Y-113502454D01*
X106378208Y-113841456D01*
X106373476Y-113852880D01*
X106219537Y-114178356D01*
X106213708Y-114189261D01*
X106028607Y-114498083D01*
X106021737Y-114508364D01*
X105807267Y-114797545D01*
X105799423Y-114807104D01*
X105557627Y-115073884D01*
X105548889Y-115082622D01*
X105286812Y-115320156D01*
X105282104Y-115324423D01*
X105272545Y-115332267D01*
X104983364Y-115546737D01*
X104973083Y-115553607D01*
X104664261Y-115738708D01*
X104653356Y-115744537D01*
X104327880Y-115898476D01*
X104316456Y-115903208D01*
X103977454Y-116024505D01*
X103965624Y-116028094D01*
X103616358Y-116115580D01*
X103604252Y-116117987D01*
X103248093Y-116170819D01*
X103235797Y-116172030D01*
X103072190Y-116180067D01*
X102876182Y-116189696D01*
X102863818Y-116189696D01*
X102667810Y-116180067D01*
X102504203Y-116172030D01*
X102491907Y-116170819D01*
X102135748Y-116117987D01*
X102123642Y-116115580D01*
X101774376Y-116028094D01*
X101762546Y-116024505D01*
X101423544Y-115903208D01*
X101412120Y-115898476D01*
X101086644Y-115744537D01*
X101075739Y-115738708D01*
X100766917Y-115553607D01*
X100756636Y-115546737D01*
X100467455Y-115332267D01*
X100457896Y-115324423D01*
X100453188Y-115320156D01*
X100191111Y-115082622D01*
X100182373Y-115073884D01*
X99940577Y-114807104D01*
X99932733Y-114797545D01*
X99718263Y-114508364D01*
X99711393Y-114498083D01*
X99526292Y-114189261D01*
X99520463Y-114178356D01*
X99366524Y-113852880D01*
X99361792Y-113841456D01*
X99240495Y-113502454D01*
X99236906Y-113490622D01*
X99211394Y-113388772D01*
X99149420Y-113141358D01*
X99147011Y-113129243D01*
X99142922Y-113101672D01*
X99094181Y-112773093D01*
X99092970Y-112760792D01*
X99081239Y-112522000D01*
X100614671Y-112522000D01*
X100614941Y-112526119D01*
X100630323Y-112760792D01*
X100633966Y-112816380D01*
X100691519Y-113105722D01*
X100692845Y-113109628D01*
X100692846Y-113109632D01*
X100703620Y-113141371D01*
X100786348Y-113385077D01*
X100916828Y-113649664D01*
X101080727Y-113894957D01*
X101083441Y-113898051D01*
X101083445Y-113898057D01*
X101272533Y-114113669D01*
X101275242Y-114116758D01*
X101278331Y-114119467D01*
X101493943Y-114308555D01*
X101493949Y-114308559D01*
X101497043Y-114311273D01*
X101500469Y-114313562D01*
X101500474Y-114313566D01*
X101684539Y-114436554D01*
X101742335Y-114475172D01*
X101746034Y-114476996D01*
X101746039Y-114476999D01*
X102003228Y-114603830D01*
X102006923Y-114605652D01*
X102010821Y-114606975D01*
X102010823Y-114606976D01*
X102282368Y-114699154D01*
X102282372Y-114699155D01*
X102286278Y-114700481D01*
X102290322Y-114701285D01*
X102290328Y-114701287D01*
X102571577Y-114757230D01*
X102571580Y-114757230D01*
X102575620Y-114758034D01*
X102579731Y-114758303D01*
X102579735Y-114758304D01*
X102865881Y-114777059D01*
X102870000Y-114777329D01*
X102874119Y-114777059D01*
X103160265Y-114758304D01*
X103160269Y-114758303D01*
X103164380Y-114758034D01*
X103168420Y-114757230D01*
X103168423Y-114757230D01*
X103449672Y-114701287D01*
X103449678Y-114701285D01*
X103453722Y-114700481D01*
X103457628Y-114699155D01*
X103457632Y-114699154D01*
X103729177Y-114606976D01*
X103729179Y-114606975D01*
X103733077Y-114605652D01*
X103736772Y-114603830D01*
X103993961Y-114476999D01*
X103993966Y-114476996D01*
X103997665Y-114475172D01*
X104055461Y-114436554D01*
X104239526Y-114313566D01*
X104239531Y-114313562D01*
X104242957Y-114311273D01*
X104246051Y-114308559D01*
X104246057Y-114308555D01*
X104461669Y-114119467D01*
X104464758Y-114116758D01*
X104467467Y-114113669D01*
X104656555Y-113898057D01*
X104656559Y-113898051D01*
X104659273Y-113894957D01*
X104823172Y-113649664D01*
X104953652Y-113385077D01*
X105036380Y-113141371D01*
X105047154Y-113109632D01*
X105047155Y-113109628D01*
X105048481Y-113105722D01*
X105106034Y-112816380D01*
X105109678Y-112760792D01*
X105125059Y-112526119D01*
X105125329Y-112522000D01*
X105117163Y-112397413D01*
X105106304Y-112231735D01*
X105106303Y-112231731D01*
X105106034Y-112227620D01*
X105048481Y-111938278D01*
X104953652Y-111658923D01*
X104823172Y-111394336D01*
X104659273Y-111149043D01*
X104656559Y-111145949D01*
X104656555Y-111145943D01*
X104467467Y-110930331D01*
X104464758Y-110927242D01*
X104461669Y-110924533D01*
X104246057Y-110735445D01*
X104246051Y-110735441D01*
X104242957Y-110732727D01*
X104239527Y-110730435D01*
X104239526Y-110730434D01*
X104001098Y-110571122D01*
X103997665Y-110568828D01*
X103993966Y-110567004D01*
X103993961Y-110567001D01*
X103736772Y-110440170D01*
X103736770Y-110440169D01*
X103733077Y-110438348D01*
X103623903Y-110401288D01*
X103457632Y-110344846D01*
X103457628Y-110344845D01*
X103453722Y-110343519D01*
X103449678Y-110342715D01*
X103449672Y-110342713D01*
X103168423Y-110286770D01*
X103168420Y-110286770D01*
X103164380Y-110285966D01*
X103160269Y-110285697D01*
X103160265Y-110285696D01*
X102874119Y-110266941D01*
X102870000Y-110266671D01*
X102865881Y-110266941D01*
X102579735Y-110285696D01*
X102579731Y-110285697D01*
X102575620Y-110285966D01*
X102571580Y-110286770D01*
X102571577Y-110286770D01*
X102290328Y-110342713D01*
X102290322Y-110342715D01*
X102286278Y-110343519D01*
X102282372Y-110344845D01*
X102282368Y-110344846D01*
X102116097Y-110401288D01*
X102006923Y-110438348D01*
X102003230Y-110440169D01*
X102003228Y-110440170D01*
X101746040Y-110567001D01*
X101746035Y-110567004D01*
X101742336Y-110568828D01*
X101497043Y-110732727D01*
X101493949Y-110735441D01*
X101493943Y-110735445D01*
X101278331Y-110924533D01*
X101275242Y-110927242D01*
X101272533Y-110930331D01*
X101083445Y-111145943D01*
X101083441Y-111145949D01*
X101080727Y-111149043D01*
X100916828Y-111394336D01*
X100786348Y-111658923D01*
X100691519Y-111938278D01*
X100633966Y-112227620D01*
X100633697Y-112231731D01*
X100633696Y-112231735D01*
X100622837Y-112397413D01*
X100614671Y-112522000D01*
X99081239Y-112522000D01*
X99077280Y-112441399D01*
X99078384Y-112417470D01*
X99079049Y-112412798D01*
X99079049Y-112412792D01*
X99079630Y-112408713D01*
X99079774Y-112395000D01*
X99075913Y-112363095D01*
X99075000Y-112347957D01*
X99075000Y-90221104D01*
X99076078Y-90204658D01*
X99078747Y-90184388D01*
X99078747Y-90184384D01*
X99079738Y-90176857D01*
X99078981Y-90170000D01*
X99979671Y-90170000D01*
X99979941Y-90174119D01*
X99997870Y-90447651D01*
X99998966Y-90464380D01*
X100056519Y-90753722D01*
X100057845Y-90757628D01*
X100057846Y-90757632D01*
X100091653Y-90857223D01*
X100151348Y-91033077D01*
X100153169Y-91036770D01*
X100153170Y-91036772D01*
X100268176Y-91269980D01*
X100281828Y-91297664D01*
X100445727Y-91542957D01*
X100448441Y-91546051D01*
X100448445Y-91546057D01*
X100582990Y-91699475D01*
X100640242Y-91764758D01*
X100643331Y-91767467D01*
X100858943Y-91956555D01*
X100858949Y-91956559D01*
X100862043Y-91959273D01*
X100865469Y-91961562D01*
X100865474Y-91961566D01*
X100981276Y-92038942D01*
X101107335Y-92123172D01*
X101111034Y-92124996D01*
X101111039Y-92124999D01*
X101368228Y-92251830D01*
X101371923Y-92253652D01*
X101375821Y-92254975D01*
X101375823Y-92254976D01*
X101647368Y-92347154D01*
X101647372Y-92347155D01*
X101651278Y-92348481D01*
X101655322Y-92349285D01*
X101655328Y-92349287D01*
X101936577Y-92405230D01*
X101936580Y-92405230D01*
X101940620Y-92406034D01*
X101944731Y-92406303D01*
X101944735Y-92406304D01*
X102230881Y-92425059D01*
X102235000Y-92425329D01*
X102239119Y-92425059D01*
X102525265Y-92406304D01*
X102525269Y-92406303D01*
X102529380Y-92406034D01*
X102533420Y-92405230D01*
X102533423Y-92405230D01*
X102814672Y-92349287D01*
X102814678Y-92349285D01*
X102818722Y-92348481D01*
X102822628Y-92347155D01*
X102822632Y-92347154D01*
X103094177Y-92254976D01*
X103094179Y-92254975D01*
X103098077Y-92253652D01*
X103101772Y-92251830D01*
X103358961Y-92124999D01*
X103358966Y-92124996D01*
X103362665Y-92123172D01*
X103488724Y-92038942D01*
X103604526Y-91961566D01*
X103604531Y-91961562D01*
X103607957Y-91959273D01*
X103611051Y-91956559D01*
X103611057Y-91956555D01*
X103826669Y-91767467D01*
X103829758Y-91764758D01*
X103887010Y-91699475D01*
X104021555Y-91546057D01*
X104021559Y-91546051D01*
X104024273Y-91542957D01*
X104188172Y-91297664D01*
X104201825Y-91269980D01*
X104316830Y-91036772D01*
X104316831Y-91036770D01*
X104318652Y-91033077D01*
X104378347Y-90857223D01*
X104412154Y-90757632D01*
X104412155Y-90757628D01*
X104413481Y-90753722D01*
X104471034Y-90464380D01*
X104472131Y-90447651D01*
X104490059Y-90174119D01*
X104490329Y-90170000D01*
X104471034Y-89875620D01*
X104452196Y-89780915D01*
X104414287Y-89590328D01*
X104414285Y-89590322D01*
X104413481Y-89586278D01*
X104368103Y-89452598D01*
X104319976Y-89310823D01*
X104319975Y-89310821D01*
X104318652Y-89306923D01*
X104237265Y-89141886D01*
X104189999Y-89046040D01*
X104189996Y-89046035D01*
X104188172Y-89042336D01*
X104024273Y-88797043D01*
X104021559Y-88793949D01*
X104021555Y-88793943D01*
X103832467Y-88578331D01*
X103829758Y-88575242D01*
X103811808Y-88559500D01*
X103611057Y-88383445D01*
X103611051Y-88383441D01*
X103607957Y-88380727D01*
X103604527Y-88378435D01*
X103604526Y-88378434D01*
X103366098Y-88219122D01*
X103362665Y-88216828D01*
X103358966Y-88215004D01*
X103358961Y-88215001D01*
X103101772Y-88088170D01*
X103101770Y-88088169D01*
X103098077Y-88086348D01*
X103094177Y-88085024D01*
X102822632Y-87992846D01*
X102822628Y-87992845D01*
X102818722Y-87991519D01*
X102814678Y-87990715D01*
X102814672Y-87990713D01*
X102533423Y-87934770D01*
X102533420Y-87934770D01*
X102529380Y-87933966D01*
X102525269Y-87933697D01*
X102525265Y-87933696D01*
X102239119Y-87914941D01*
X102235000Y-87914671D01*
X102230881Y-87914941D01*
X101944735Y-87933696D01*
X101944731Y-87933697D01*
X101940620Y-87933966D01*
X101936580Y-87934770D01*
X101936577Y-87934770D01*
X101655328Y-87990713D01*
X101655322Y-87990715D01*
X101651278Y-87991519D01*
X101647372Y-87992845D01*
X101647368Y-87992846D01*
X101375823Y-88085024D01*
X101371923Y-88086348D01*
X101368230Y-88088169D01*
X101368228Y-88088170D01*
X101111040Y-88215001D01*
X101111035Y-88215004D01*
X101107336Y-88216828D01*
X100862043Y-88380727D01*
X100858949Y-88383441D01*
X100858943Y-88383445D01*
X100658192Y-88559500D01*
X100640242Y-88575242D01*
X100637533Y-88578331D01*
X100448445Y-88793943D01*
X100448441Y-88793949D01*
X100445727Y-88797043D01*
X100281828Y-89042336D01*
X100280004Y-89046035D01*
X100280001Y-89046040D01*
X100232735Y-89141886D01*
X100151348Y-89306923D01*
X100150025Y-89310821D01*
X100150024Y-89310823D01*
X100101898Y-89452598D01*
X100056519Y-89586278D01*
X100055715Y-89590322D01*
X100055713Y-89590328D01*
X100017804Y-89780915D01*
X99998966Y-89875620D01*
X99979671Y-90170000D01*
X99078981Y-90170000D01*
X99077467Y-90156287D01*
X99077406Y-90155731D01*
X99076818Y-90135311D01*
X99091965Y-89846289D01*
X99093343Y-89833172D01*
X99105983Y-89753370D01*
X99143020Y-89519522D01*
X99145762Y-89506622D01*
X99217206Y-89239990D01*
X99227954Y-89199878D01*
X99232029Y-89187336D01*
X99238350Y-89170871D01*
X99345828Y-88890881D01*
X99351192Y-88878833D01*
X99495363Y-88595880D01*
X99501957Y-88584459D01*
X99674916Y-88318126D01*
X99682664Y-88307463D01*
X99757539Y-88215001D01*
X99882507Y-88060678D01*
X99891332Y-88050877D01*
X100115877Y-87826332D01*
X100125678Y-87817507D01*
X100131533Y-87812766D01*
X100372466Y-87617662D01*
X100383126Y-87609916D01*
X100649464Y-87436954D01*
X100660880Y-87430363D01*
X100943833Y-87286192D01*
X100955881Y-87280828D01*
X101079445Y-87233396D01*
X101252344Y-87167027D01*
X101264880Y-87162953D01*
X101571622Y-87080762D01*
X101584522Y-87078020D01*
X101670512Y-87064401D01*
X101898178Y-87028342D01*
X101911286Y-87026965D01*
X102192791Y-87012212D01*
X102215831Y-87013117D01*
X102220613Y-87013747D01*
X102220616Y-87013747D01*
X102228143Y-87014738D01*
X102264166Y-87010761D01*
X102277993Y-87010000D01*
X116398871Y-87010000D01*
X116415317Y-87011078D01*
G37*
G04 #@! TD.AperFunction*
G04 #@! TA.AperFunction,Conductor*
G36*
X108805012Y-101841687D02*
G01*
X108839651Y-101890526D01*
X108860670Y-101943612D01*
X108863351Y-101951060D01*
X108881188Y-102005956D01*
X108885883Y-102013354D01*
X108896649Y-102034484D01*
X108899874Y-102042629D01*
X108904532Y-102049040D01*
X108904533Y-102049042D01*
X108933805Y-102089331D01*
X108938254Y-102095878D01*
X108969186Y-102144619D01*
X108974966Y-102150047D01*
X108975575Y-102150619D01*
X108991254Y-102168404D01*
X108991742Y-102169076D01*
X108991748Y-102169082D01*
X108996405Y-102175492D01*
X109002513Y-102180545D01*
X109040882Y-102212287D01*
X109046818Y-102217520D01*
X109083127Y-102251616D01*
X109088903Y-102257040D01*
X109095846Y-102260857D01*
X109095847Y-102260858D01*
X109096584Y-102261263D01*
X109116190Y-102274588D01*
X109116835Y-102275122D01*
X109116842Y-102275126D01*
X109122945Y-102280175D01*
X109175200Y-102304764D01*
X109182213Y-102308338D01*
X109232817Y-102336158D01*
X109240493Y-102338129D01*
X109240496Y-102338130D01*
X109241306Y-102338338D01*
X109263622Y-102346373D01*
X109271543Y-102350100D01*
X109321426Y-102359615D01*
X109328244Y-102360916D01*
X109335972Y-102362643D01*
X109391886Y-102377000D01*
X109400650Y-102377000D01*
X109424258Y-102379232D01*
X109432862Y-102380873D01*
X109490464Y-102377249D01*
X109498375Y-102377000D01*
X110080973Y-102377000D01*
X110149094Y-102397002D01*
X110195587Y-102450658D01*
X110205691Y-102520932D01*
X110198003Y-102549690D01*
X110145107Y-102682273D01*
X110145719Y-102689107D01*
X110160871Y-102694000D01*
X110984000Y-102694000D01*
X111052121Y-102714002D01*
X111098614Y-102767658D01*
X111110000Y-102820000D01*
X111110000Y-103217357D01*
X111089998Y-103285478D01*
X111036342Y-103331971D01*
X111018200Y-103338627D01*
X111015920Y-103339270D01*
X110981720Y-103344000D01*
X110161164Y-103344000D01*
X110147633Y-103347973D01*
X110146759Y-103354056D01*
X110163299Y-103398889D01*
X110168111Y-103469722D01*
X110133864Y-103531912D01*
X110071431Y-103565715D01*
X110045087Y-103568500D01*
X108713011Y-103568500D01*
X108644890Y-103548498D01*
X108598397Y-103494842D01*
X108588561Y-103422795D01*
X108588604Y-103422523D01*
X108590313Y-103416145D01*
X108591667Y-103390314D01*
X108593859Y-103348480D01*
X108594376Y-103341905D01*
X108596156Y-103324966D01*
X108596156Y-103324963D01*
X108596500Y-103321692D01*
X108596500Y-103301373D01*
X108596673Y-103294779D01*
X108599874Y-103233704D01*
X108599874Y-103233700D01*
X108600219Y-103227112D01*
X108598051Y-103213423D01*
X108596500Y-103193713D01*
X108596500Y-101936911D01*
X108616502Y-101868790D01*
X108670158Y-101822297D01*
X108740432Y-101812193D01*
X108805012Y-101841687D01*
G37*
G04 #@! TD.AperFunction*
G04 #@! TA.AperFunction,Conductor*
G36*
X105467736Y-95041502D02*
G01*
X105514229Y-95095158D01*
X105524333Y-95165432D01*
X105511883Y-95204699D01*
X105481914Y-95263516D01*
X105472831Y-95297416D01*
X105435096Y-95438243D01*
X105435095Y-95438249D01*
X105433602Y-95443821D01*
X105433149Y-95449577D01*
X105428127Y-95513390D01*
X105427500Y-95521354D01*
X105427500Y-96220646D01*
X105427693Y-96223094D01*
X105427693Y-96223103D01*
X105428366Y-96231651D01*
X105433602Y-96298179D01*
X105435095Y-96303751D01*
X105435096Y-96303757D01*
X105449197Y-96356381D01*
X105481914Y-96478484D01*
X105484915Y-96484375D01*
X105484916Y-96484376D01*
X105494196Y-96502588D01*
X105566659Y-96644803D01*
X105613827Y-96703051D01*
X105624420Y-96716132D01*
X105651746Y-96781659D01*
X105652500Y-96795426D01*
X105652500Y-97364074D01*
X105632498Y-97432195D01*
X105624420Y-97443368D01*
X105566659Y-97514697D01*
X105481914Y-97681016D01*
X105472457Y-97716312D01*
X105435096Y-97855743D01*
X105435095Y-97855749D01*
X105433602Y-97861321D01*
X105427500Y-97938854D01*
X105427500Y-98563146D01*
X105427693Y-98565594D01*
X105427693Y-98565603D01*
X105429329Y-98586389D01*
X105433602Y-98640679D01*
X105435095Y-98646251D01*
X105435096Y-98646257D01*
X105447810Y-98693706D01*
X105481914Y-98820984D01*
X105484915Y-98826875D01*
X105484916Y-98826876D01*
X105497150Y-98850886D01*
X105566659Y-98987303D01*
X105570819Y-98992440D01*
X105645451Y-99084603D01*
X105672777Y-99150130D01*
X105660337Y-99220028D01*
X105645451Y-99243192D01*
X105571233Y-99334843D01*
X105564083Y-99345852D01*
X105485379Y-99500317D01*
X105480675Y-99512570D01*
X105435592Y-99680822D01*
X105433645Y-99692155D01*
X105430435Y-99732942D01*
X105433605Y-99748031D01*
X105445068Y-99751000D01*
X106669500Y-99751000D01*
X106737621Y-99771002D01*
X106784114Y-99824658D01*
X106795500Y-99877000D01*
X106795500Y-100275000D01*
X106775498Y-100343121D01*
X106721842Y-100389614D01*
X106669500Y-100401000D01*
X105447130Y-100401000D01*
X105432335Y-100405344D01*
X105430274Y-100417004D01*
X105433645Y-100459846D01*
X105435592Y-100471175D01*
X105480675Y-100639430D01*
X105485379Y-100651683D01*
X105564083Y-100806148D01*
X105571236Y-100817163D01*
X105680331Y-100951883D01*
X105689617Y-100961169D01*
X105824337Y-101070264D01*
X105835352Y-101077417D01*
X105989817Y-101156121D01*
X106002070Y-101160825D01*
X106170322Y-101205908D01*
X106181666Y-101207857D01*
X106188415Y-101208388D01*
X106254756Y-101233673D01*
X106296895Y-101290812D01*
X106301454Y-101361662D01*
X106266984Y-101423729D01*
X106204430Y-101457308D01*
X106188413Y-101459611D01*
X106175821Y-101460602D01*
X106170249Y-101462095D01*
X106170243Y-101462096D01*
X106083514Y-101485335D01*
X105995516Y-101508914D01*
X105829197Y-101593659D01*
X105824060Y-101597819D01*
X105742432Y-101663920D01*
X105676905Y-101691246D01*
X105663138Y-101692000D01*
X103398689Y-101692000D01*
X103330568Y-101671998D01*
X103309594Y-101655095D01*
X102009405Y-100354906D01*
X101975379Y-100292594D01*
X101972500Y-100265811D01*
X101972500Y-98202165D01*
X101992502Y-98134044D01*
X102009405Y-98113070D01*
X102033598Y-98088877D01*
X102159102Y-97909638D01*
X102251575Y-97711330D01*
X102308207Y-97499977D01*
X102327277Y-97282000D01*
X102312448Y-97112499D01*
X102326437Y-97042895D01*
X102375837Y-96991902D01*
X102444963Y-96975712D01*
X102511868Y-96999465D01*
X102529139Y-97014546D01*
X102669319Y-97161492D01*
X102677276Y-97168532D01*
X102860966Y-97305201D01*
X102870003Y-97310805D01*
X103074095Y-97414570D01*
X103083946Y-97418570D01*
X103269700Y-97476248D01*
X103283799Y-97476466D01*
X103287000Y-97469735D01*
X103287000Y-97460472D01*
X103937000Y-97460472D01*
X103940973Y-97474003D01*
X103951580Y-97475528D01*
X104014003Y-97462430D01*
X104024182Y-97459375D01*
X104237125Y-97375281D01*
X104246661Y-97370547D01*
X104442389Y-97251777D01*
X104450987Y-97245506D01*
X104623900Y-97095460D01*
X104631326Y-97087825D01*
X104776488Y-96910785D01*
X104782514Y-96902018D01*
X104895773Y-96703051D01*
X104900238Y-96693387D01*
X104978355Y-96478178D01*
X104981126Y-96467910D01*
X105022077Y-96241445D01*
X105023012Y-96233215D01*
X105023930Y-96213742D01*
X105024000Y-96210767D01*
X105024000Y-96209115D01*
X105019525Y-96193876D01*
X105018135Y-96192671D01*
X105010452Y-96191000D01*
X103955115Y-96191000D01*
X103939876Y-96195475D01*
X103938671Y-96196865D01*
X103937000Y-96204548D01*
X103937000Y-97460472D01*
X103287000Y-97460472D01*
X103287000Y-95667000D01*
X103307002Y-95598879D01*
X103360658Y-95552386D01*
X103413000Y-95541000D01*
X105003608Y-95541000D01*
X105018286Y-95536690D01*
X105020349Y-95524807D01*
X105009296Y-95394544D01*
X105007506Y-95384072D01*
X104954320Y-95179154D01*
X104956567Y-95108193D01*
X104996822Y-95049712D01*
X105062304Y-95022277D01*
X105076279Y-95021500D01*
X105399615Y-95021500D01*
X105467736Y-95041502D01*
G37*
G04 #@! TD.AperFunction*
G04 #@! TD*
M02*
