M48
; DRILL file {KiCad 5.99.0-unknown-bf85ddd577~142~ubuntu20.04.1} date Sat 13 Nov 2021 01:18:02 PM
; FORMAT={-:-/ absolute / metric / decimal}
; #@! TF.CreationDate,2021-11-13T13:18:02-05:00
; #@! TF.GenerationSoftware,Kicad,Pcbnew,5.99.0-unknown-bf85ddd577~142~ubuntu20.04.1
; #@! TF.FileFunction,MixedPlating,1,2
FMAT,2
METRIC
; #@! TA.AperFunction,Plated,PTH,ViaDrill
T1C0.700
; #@! TA.AperFunction,Plated,PTH,ComponentDrill
T2C0.700
; #@! TA.AperFunction,Plated,PTH,ComponentDrill
T3C0.750
; #@! TA.AperFunction,NonPlated,NPTH,ComponentDrill
T4C1.400
; #@! TA.AperFunction,NonPlated,NPTH,ComponentDrill
T5C3.200
%
G90
G05
T1
X96.266Y-95.25
X98.044Y-99.06
X99.822Y-94.742
X101.092Y-92.456
X102.108Y-87.63
X103.378Y-97.79
X103.632Y-101.346
X104.902Y-92.456
X104.902Y-94.996
X105.664Y-104.394
X106.934Y-98.806
X108.458Y-105.664
X108.585Y-96.901
X108.712Y-102.743
X109.855Y-104.267
T2
X111.749Y-102.765
X111.749Y-104.215
X111.749Y-105.665
T3
X99.125Y-89.916
X101.125Y-89.916
X103.125Y-89.916
X105.125Y-89.916
X105.664Y-99.866
X105.664Y-101.346
X105.664Y-102.866
X107.125Y-89.916
T4
X109.749Y-94.965
X109.749Y-106.965
X124.989Y-94.965
X124.989Y-106.965
T5
X100.33Y-101.6
T0
M30
