M48
; DRILL file {KiCad 5.99.0-unknown-bf85ddd577~142~ubuntu20.04.1} date Mon 08 Nov 2021 10:56:16 PM
; FORMAT={-:-/ absolute / metric / decimal}
; #@! TF.CreationDate,2021-11-08T22:56:16-05:00
; #@! TF.GenerationSoftware,Kicad,Pcbnew,5.99.0-unknown-bf85ddd577~142~ubuntu20.04.1
; #@! TF.FileFunction,MixedPlating,1,2
FMAT,2
METRIC
; #@! TA.AperFunction,Plated,PTH,ViaDrill
T1C0.700
; #@! TA.AperFunction,Plated,PTH,ComponentDrill
T2C0.700
; #@! TA.AperFunction,Plated,PTH,ComponentDrill
T3C0.750
; #@! TA.AperFunction,Plated,PTH,ComponentDrill
T4C0.762
; #@! TA.AperFunction,NonPlated,NPTH,ComponentDrill
T5C1.400
; #@! TA.AperFunction,NonPlated,NPTH,ComponentDrill
T6C3.200
%
G90
G05
T1
X100.838Y-108.331
X103.378Y-97.409
X104.648Y-104.394
X104.902Y-99.314
X108.331Y-105.791
X109.347Y-102.997
X110.236Y-88.773
X112.268Y-91.694
X114.3Y-91.694
T2
X111.749Y-103.019
X111.749Y-104.469
X111.749Y-105.919
T3
X108.252Y-90.085
X110.252Y-90.085
X112.252Y-90.085
X114.252Y-90.085
T4
X100.818Y-96.266
X100.818Y-106.426
X103.358Y-96.266
X103.358Y-106.426
T5
X109.749Y-95.219
X109.749Y-107.219
X124.989Y-95.219
X124.989Y-107.219
T6
X102.235Y-90.17
X102.87Y-112.522
T0
M30
